<?xml version="1.0" encoding="UTF-8"?>
<!-- Generator: visioncortex VTracer 0.6.3 -->
<svg version="1.1" xmlns="http://www.w3.org/2000/svg" width="150" height="150">
<path d="M0 0 C2.8 1.38 3.84 2.53 6 5 C7.12 6.98 7.72 8.6 8.14 10.84 C7.96 13.64 7.03 15.01 5.44 17.31 C4.87 18.07 4.31 18.84 3.72 19.62 C-4.17 30.53 -6.4 45.04 -7.75 58.19 C-7.83 59.45 -7.91 60.7 -8 62 C-6.02 62 -4.04 62 -2 62 C-1.96 60.76 -1.96 60.76 -1.92 59.5 C-1.32 47.26 0.49 35 7.05 24.41 C7.52 23.71 7.52 23.71 8 23 C9.7 23.2 9.7 23.2 12 24 C18.99 30.25 24.02 37.54 28 46 C28.49 47.02 28.49 47.02 28.99 48.07 C32.39 55.54 32.51 62.91 32 71 C30.59 79.56 27.81 86.78 23 94 C23.89 94.36 23.89 94.36 24.79 94.73 C33.86 98.58 33.86 98.58 37 102 C40.14 107.97 40.3 113.96 40.2 120.59 C40.1 121.78 40.1 121.78 40 123 C39.67 123.33 39.34 123.66 39 124 C36.23 124.1 33.49 124.13 30.72 124.11 C29.41 124.11 29.41 124.11 28.09 124.11 C25.2 124.11 22.32 124.11 19.43 124.1 C17.44 124.1 15.45 124.09 13.45 124.09 C8.19 124.09 2.93 124.08 -2.33 124.07 C-7.69 124.06 -13.05 124.05 -18.41 124.05 C-28.94 124.04 -39.47 124.02 -50 124 C-50.03 121.59 -50.05 119.17 -50.07 116.76 C-50.08 115.74 -50.08 115.74 -50.1 114.69 C-50.12 111.24 -50.12 108.12 -48.88 104.88 C-46.69 101.52 -44.41 99.06 -41 97 C-38.36 95.82 -35.76 94.9 -33 94 C-33.4 93.41 -33.8 92.81 -34.21 92.2 C-39.73 83.56 -42.11 75.9 -42.44 65.62 C-42.18 55.86 -39.89 47.77 -34.8 39.46 C-31.28 33.97 -27.56 28.68 -23 24 C-22.34 24 -21.68 24 -21 24 C-21 23.34 -21 22.68 -21 22 C-19.5 20.37 -19.5 20.37 -18 19 C-18.33 18.34 -18.66 17.68 -19 17 C-19.44 13.94 -19.45 11.06 -19 8 C-17.74 5.22 -16.18 3.13 -14 1 C-9.69 -1.87 -4.83 -1.29 0 0 Z " fill="#020202" transform="translate(79,12)"/>
<path d="M0 0 C3.69 0.88 3.69 0.88 6.62 3.44 C7.65 4.64 7.65 4.64 8.69 5.88 C8.13 9.68 7.09 12.09 4.94 15.25 C-3.99 29.72 -5.21 46.3 -6.31 62.88 C-1.69 62.88 2.93 62.88 7.69 62.88 C7.65 61.49 7.6 60.11 7.56 58.69 C7.59 47.59 10.16 37.34 13.69 26.88 C15.01 26.88 16.33 26.88 17.69 26.88 C17.69 27.53 17.69 28.2 17.69 28.88 C18.29 29.12 18.89 29.37 19.5 29.63 C23.53 31.93 25.38 35.97 27.69 39.88 C28.18 40.62 28.67 41.37 29.18 42.14 C33.28 49.34 33.37 56.65 33.28 64.73 C33.04 71.11 32.12 76.52 29.37 82.34 C28.81 83.18 28.26 84.01 27.69 84.88 C27.31 85.45 26.94 86.03 26.55 86.62 C25.05 88.65 23.64 90.28 21.69 91.88 C18.47 92.86 15.43 92.81 12.09 92.73 C10.72 92.74 10.72 92.74 9.33 92.74 C7.41 92.74 5.49 92.72 3.57 92.68 C0.63 92.63 -2.3 92.64 -5.24 92.66 C-7.11 92.64 -8.98 92.63 -10.85 92.61 C-11.72 92.61 -12.6 92.62 -13.5 92.62 C-15.87 92.56 -18 92.43 -20.31 91.88 C-24.92 88.17 -26.98 84.15 -29.31 78.88 C-29.89 77.74 -30.47 76.61 -31.06 75.44 C-33.46 68.75 -33.05 60.87 -32.31 53.88 C-31.45 49.9 -30.14 46.49 -28.31 42.88 C-27.89 42.04 -27.46 41.2 -27.03 40.34 C-23.4 33.81 -18.76 27.99 -13.31 22.88 C-12.65 22.88 -11.99 22.88 -11.31 22.88 C-10.98 21.89 -10.65 20.89 -10.31 19.88 C-8.25 18.19 -8.25 18.19 -6.31 16.88 C-7.06 15.82 -7.06 15.82 -7.81 14.75 C-9.31 11.88 -9.31 11.88 -9.75 8.88 C-9.31 5.88 -9.31 5.88 -7.44 3.06 C-4.64 0.18 -4.07 -0.15 0 0 Z " fill="#453E3A" transform="translate(73.3125,15.125)"/>
<path d="M0 0 C2.32 0.01 4.63 0 6.95 -0.01 C32.42 -0.04 32.42 -0.04 39.85 4.13 C42.52 6.26 42.52 6.26 44.39 9.51 C45.68 13.79 45.82 16.82 45.52 21.26 C45.02 21.76 45.02 21.76 44.52 22.26 C42.03 22.36 39.57 22.4 37.08 22.39 C36.3 22.39 35.52 22.39 34.72 22.4 C32.13 22.4 29.54 22.4 26.95 22.39 C25.17 22.39 23.38 22.4 21.59 22.4 C17.83 22.4 14.07 22.4 10.32 22.39 C5.49 22.39 0.67 22.39 -4.16 22.39 C-7.86 22.4 -11.55 22.4 -15.25 22.39 C-17.03 22.39 -18.81 22.39 -20.59 22.4 C-23.08 22.4 -25.56 22.4 -28.04 22.39 C-29.16 22.39 -29.16 22.39 -30.29 22.4 C-32.02 22.39 -33.75 22.33 -35.48 22.26 C-35.81 21.93 -36.14 21.6 -36.48 21.26 C-36.84 17.28 -36.74 13.41 -35.86 9.51 C-34.36 7.06 -32.82 5.07 -30.53 3.32 C-21.8 -1.19 -9.63 -0.05 0 0 Z " fill="#3D3633" transform="translate(69.482666015625,109.7392578125)"/>
<path d="M0 0 C3.69 0.88 3.69 0.88 6.62 3.44 C7.65 4.64 7.65 4.64 8.69 5.88 C8.13 9.68 7.09 12.09 4.94 15.25 C-3.99 29.72 -5.21 46.3 -6.31 62.88 C-1.69 62.88 2.93 62.88 7.69 62.88 C7.65 61.49 7.61 60.11 7.56 58.69 C7.59 47.59 10.16 37.34 13.69 26.88 C15.01 26.88 16.33 26.88 17.69 26.88 C17.69 27.53 17.69 28.2 17.69 28.88 C18.28 29.12 18.88 29.36 19.49 29.61 C23.46 31.9 25.46 35.97 27.69 39.88 C29.06 43.44 29.06 43.44 29.69 45.88 C29.03 45.88 28.37 45.88 27.69 45.88 C27.03 44.88 26.37 43.9 25.69 42.88 C25.69 41.55 25.69 40.23 25.69 38.88 C23.21 39.37 23.21 39.37 20.69 39.88 C21.18 41.86 21.18 41.86 21.69 43.88 C20.7 44.53 19.71 45.2 18.69 45.88 C18.69 46.53 18.69 47.2 18.69 47.88 C16.81 48.44 16.81 48.44 14.69 48.88 C13.7 48.38 13.7 48.38 12.69 47.88 C12.69 47.22 12.69 46.55 12.69 45.88 C11.7 45.88 10.71 45.88 9.69 45.88 C9.69 46.53 9.69 47.2 9.69 47.88 C10.35 47.88 11.01 47.88 11.69 47.88 C11.69 48.87 11.69 49.85 11.69 50.88 C13.34 50.88 14.99 50.88 16.69 50.88 C15.7 51.37 15.7 51.37 14.69 51.88 C14.69 52.53 14.69 53.19 14.69 53.88 C14.03 53.88 13.37 53.88 12.69 53.88 C12.69 54.53 12.69 55.19 12.69 55.88 C11.37 55.88 10.05 55.88 8.69 55.88 C8.69 56.87 8.69 57.85 8.69 58.88 C11.33 58.88 13.97 58.88 16.69 58.88 C15.7 59.53 14.71 60.19 13.69 60.88 C12.37 60.88 11.05 60.88 9.69 60.88 C9.46 61.66 9.23 62.44 9 63.25 C8.57 64.12 8.13 64.98 7.69 65.88 C4.77 67.58 2.76 67.87 -0.62 68 C-1.51 67.96 -2.4 67.92 -3.31 67.88 C-3.31 67.22 -3.31 66.56 -3.31 65.88 C-2.65 65.88 -1.99 65.88 -1.31 65.88 C-1.31 65.22 -1.31 64.56 -1.31 63.88 C-3.29 63.88 -5.27 63.88 -7.31 63.88 C-7.97 62.88 -8.63 61.9 -9.31 60.88 C-9.31 59.56 -9.31 58.23 -9.31 56.88 C-9.97 56.55 -10.63 56.22 -11.31 55.88 C-11.31 54.22 -11.31 52.58 -11.31 50.88 C-11.95 50.57 -12.59 50.26 -13.25 49.94 C-15.31 48.88 -15.31 48.88 -16.31 47.88 C-17.3 47.55 -18.29 47.22 -19.31 46.88 C-19.64 47.53 -19.97 48.2 -20.31 48.88 C-21.63 48.88 -22.95 48.88 -24.31 48.88 C-23.65 46.23 -22.99 43.59 -22.31 40.88 C-21.65 40.88 -20.99 40.88 -20.31 40.88 C-20.26 40.03 -20.2 39.19 -20.14 38.33 C-19.06 33.84 -16.93 31.16 -14.06 27.62 C-13.58 27 -13.11 26.38 -12.61 25.73 C-10.39 22.94 -8.85 21.13 -5.58 19.58 C-4.83 19.35 -4.08 19.11 -3.31 18.88 C-2.65 18.22 -1.99 17.55 -1.31 16.88 C-2.26 16.79 -3.21 16.71 -4.19 16.62 C-5.22 16.38 -6.25 16.13 -7.31 15.88 C-8.69 14.19 -8.69 14.19 -9.31 11.88 C-9.69 8.94 -9.69 8.94 -9.31 5.88 C-6.53 1.7 -5.13 -0.19 0 0 Z " fill="#3B3430" transform="translate(73.3125,15.125)"/>
<path d="M0 0 C12.87 0.5 12.87 0.5 26 1 C27.9 6.7 28.29 9.29 28 15 C27.67 15.33 27.34 15.66 27 16 C24.51 16.1 22.04 16.13 19.54 16.11 C18.76 16.11 17.98 16.11 17.18 16.11 C14.59 16.11 11.99 16.11 9.4 16.1 C7.61 16.1 5.82 16.09 4.03 16.09 C-0.7 16.09 -5.43 16.08 -10.15 16.07 C-14.97 16.06 -19.79 16.05 -24.61 16.05 C-34.07 16.04 -43.54 16.02 -53 16 C-53 15.67 -53 15.34 -53 15 C-51.87 14.82 -51.87 14.82 -50.73 14.63 C-37.68 12.59 -37.68 12.59 -25 9 C-23.67 8.65 -22.34 8.31 -21 8 C-21 8.66 -21 9.32 -21 10 C-20.34 10 -19.68 10 -19 10 C-18.67 9.34 -18.34 8.68 -18 8 C-15.36 7.67 -12.72 7.34 -10 7 C-10 6.34 -10 5.68 -10 5 C-11.65 5.33 -13.3 5.66 -15 6 C-14.67 5.01 -14.34 4.02 -14 3 C-9.38 2.67 -4.76 2.34 0 2 C0 1.34 0 0.68 0 0 Z " fill="#332D2A" transform="translate(87,116)"/>
<path d="M0 0 C2.32 0.01 4.63 0 6.95 -0.01 C32.28 -0.04 32.28 -0.04 38.3 3.23 C39.74 4.19 41.14 5.22 42.52 6.26 C42.52 6.92 42.52 7.58 42.52 8.26 C40.83 8.05 40.83 8.05 39.12 7.83 C24.32 6.08 9.65 6.03 -5.23 6.14 C-7.69 6.15 -10.16 6.15 -12.62 6.16 C-18.57 6.18 -24.53 6.22 -30.48 6.26 C-29.63 4.31 -29.63 4.31 -28.48 2.26 C-19.67 -0.73 -9.24 -0.05 0 0 Z " fill="#5E5855" transform="translate(69.482666015625,109.7392578125)"/>
<path d="M0 0 C0.52 0.25 1.03 0.5 1.56 0.75 C0.44 2.19 0.44 2.19 -1.44 3.75 C-2.45 3.89 -3.46 4.04 -4.5 4.19 C-5.47 4.37 -6.44 4.56 -7.44 4.75 C-8.15 6.06 -8.8 7.4 -9.44 8.75 C-11.72 11.83 -14.08 14.85 -16.44 17.88 C-18.16 20.35 -19.04 21.82 -19.44 24.75 C-20.1 24.75 -20.76 24.75 -21.44 24.75 C-21.72 25.76 -22.01 26.77 -22.31 27.81 C-23.02 30.3 -23.74 32.77 -24.47 35.25 C-24.81 36.41 -25.15 37.56 -25.5 38.75 C-25.84 39.91 -26.18 41.06 -26.54 42.25 C-27.52 45.78 -27.52 45.78 -27.93 49.62 C-28.1 50.66 -28.27 51.69 -28.44 52.75 C-29.43 53.25 -29.43 53.25 -30.44 53.75 C-31.79 35.46 -31.79 35.46 -28.08 27.18 C-24.11 19.44 -19 12.5 -12.44 6.75 C-11.78 6.75 -11.12 6.75 -10.44 6.75 C-10.11 5.76 -9.78 4.77 -9.44 3.75 C-6.57 1.43 -3.73 -0.38 0 0 Z " fill="#615B57" transform="translate(72.4375,31.25)"/>
<path d="M0 0 C0.52 0.25 1.03 0.5 1.56 0.75 C0.44 2.19 0.44 2.19 -1.44 3.75 C-2.45 3.89 -3.46 4.04 -4.5 4.19 C-5.47 4.37 -6.44 4.56 -7.44 4.75 C-8.58 6.53 -8.58 6.53 -9.44 8.75 C-12.54 12.1 -15.87 14.92 -19.44 17.75 C-20.79 19.06 -22.13 20.39 -23.44 21.75 C-22.02 17.48 -19.95 14.74 -16.94 11.44 C-16.14 10.55 -15.35 9.67 -14.53 8.76 C-13.84 8.1 -13.15 7.43 -12.44 6.75 C-11.78 6.75 -11.12 6.75 -10.44 6.75 C-10.11 5.76 -9.78 4.77 -9.44 3.75 C-6.57 1.43 -3.73 -0.38 0 0 Z " fill="#514A47" transform="translate(72.4375,31.25)"/>
</svg>
