<?xml version="1.0" encoding="UTF-8"?>
<!-- Generator: visioncortex VTracer 0.6.3 -->
<svg version="1.1" xmlns="http://www.w3.org/2000/svg" width="150" height="150">
<path d="M0 0 C3.31 -0.03 6.62 -0.05 9.94 -0.06 C10.88 -0.07 11.83 -0.08 12.8 -0.09 C14.15 -0.09 14.15 -0.09 15.53 -0.1 C16.78 -0.11 16.78 -0.11 18.05 -0.11 C20 0 20 0 21 1 C21.14 4 21.04 6.99 21 10 C23.97 10 26.94 10 30 10 C30 16.6 30 23.2 30 30 C26.04 30.49 26.04 30.49 22 31 C22.5 31.99 22.5 31.99 23 33 C24.72 32.52 24.72 32.52 26.48 32.03 C35.17 29.87 45.56 29.25 53.75 33.25 C55.19 34.13 56.61 35.04 58 36 C58.93 36.58 59.86 37.16 60.81 37.75 C67.59 44.72 69.44 52.55 69.44 62.02 C69.06 74.46 61.8 81.83 53.21 89.93 C51.98 91.08 50.75 92.22 49.51 93.36 C47.89 95.12 46.97 96.82 46 99 C46.74 99.33 47.48 99.66 48.25 100 C52.31 102.95 53.33 105.23 55 110 C55 115.28 55 120.56 55 126 C25.3 126 -4.4 126 -35 126 C-35 108.59 -35 108.59 -29.44 101.94 C-27 100 -27 100 -25 100 C-25.5 99.22 -25.99 98.43 -26.5 97.62 C-28 95 -28 95 -28 93 C-28.64 92.73 -29.28 92.46 -29.94 92.19 C-32 91 -32 91 -33 88 C-33.88 87.57 -33.88 87.57 -34.78 87.13 C-40.72 84.11 -45.75 76.65 -48.06 70.5 C-50.48 61.18 -49.31 52.56 -45 44 C-40.58 37.31 -34.75 33.12 -27 31 C-24.18 30.81 -21.5 30.72 -18.69 30.75 C-17.94 30.75 -17.19 30.76 -16.42 30.76 C-11.04 30.85 -6.18 31.49 -1 33 C-1 32.01 -1 31.02 -1 30 C-3.97 30 -6.94 30 -10 30 C-10 23.4 -10 16.8 -10 10 C-6.7 10 -3.4 10 0 10 C0 6.7 0 3.4 0 0 Z M-17.94 58.12 C-19.58 61.02 -18.83 62.84 -18 66 C-16.04 68.77 -16.04 68.77 -13.56 71.25 C-12.76 72.1 -11.96 72.95 -11.13 73.83 C-9.76 75.23 -8.38 76.62 -7 78 C-6.01 78 -5.02 78 -4 78 C-4 72.06 -4 66.12 -4 60 C-10.9 56.29 -10.9 56.29 -17.94 58.12 Z M25 60 C25 65.94 25 71.88 25 78 C26.32 77.67 27.64 77.34 29 77 C29 76.34 29 75.68 29 75 C29.66 75 30.32 75 31 75 C33.32 72.71 33.32 72.71 35.69 69.81 C36.52 68.85 37.35 67.89 38.2 66.89 C40.25 64.18 40.25 64.18 39.96 61.26 C39.11 58.67 39.11 58.67 36 57 C31.15 56.34 29.84 57.58 25 60 Z " fill="#433C38" transform="translate(65,10)"/>
<path d="M0 0 C3.31 -0.03 6.62 -0.05 9.94 -0.06 C10.88 -0.07 11.83 -0.08 12.8 -0.09 C14.15 -0.09 14.15 -0.09 15.53 -0.1 C16.78 -0.11 16.78 -0.11 18.05 -0.11 C20 0 20 0 21 1 C21.14 4 21.04 6.99 21 10 C23.97 10 26.94 10 30 10 C30 16.6 30 23.2 30 30 C26.04 30.49 26.04 30.49 22 31 C22.5 31.99 22.5 31.99 23 33 C24.72 32.52 24.72 32.52 26.48 32.03 C35.17 29.87 45.56 29.25 53.75 33.25 C55.19 34.13 56.61 35.04 58 36 C58.93 36.58 59.86 37.16 60.81 37.75 C67.59 44.72 69.44 52.55 69.44 62.02 C69.06 74.46 61.8 81.83 53.21 89.93 C51.98 91.08 50.75 92.22 49.51 93.36 C47.89 95.12 46.97 96.82 46 99 C46.74 99.33 47.48 99.66 48.25 100 C52.31 102.95 53.33 105.23 55 110 C55 115.28 55 120.56 55 126 C25.3 126 -4.4 126 -35 126 C-35 108.59 -35 108.59 -29.44 101.94 C-27 100 -27 100 -25 100 C-25.5 99.22 -25.99 98.43 -26.5 97.62 C-28 95 -28 95 -28 93 C-28.64 92.73 -29.28 92.46 -29.94 92.19 C-32 91 -32 91 -33 88 C-33.88 87.57 -33.88 87.57 -34.78 87.13 C-40.72 84.11 -45.75 76.65 -48.06 70.5 C-50.48 61.18 -49.31 52.56 -45 44 C-40.58 37.31 -34.75 33.12 -27 31 C-24.18 30.81 -21.5 30.72 -18.69 30.75 C-17.94 30.75 -17.19 30.76 -16.42 30.76 C-11.04 30.85 -6.18 31.49 -1 33 C-1 32.01 -1 31.02 -1 30 C-3.97 30 -6.94 30 -10 30 C-10 23.4 -10 16.8 -10 10 C-6.7 10 -3.4 10 0 10 C0 6.7 0 3.4 0 0 Z M4 4 C4 7.3 4 10.6 4 14 C0.7 14 -2.6 14 -6 14 C-6 17.96 -6 21.92 -6 26 C-2.7 26 0.6 26 4 26 C3.01 29.96 2.02 33.92 1 38 C0.15 37.78 -0.7 37.57 -1.57 37.34 C-16.97 33.64 -16.97 33.64 -32 37.06 C-38.61 41.44 -43.32 47.16 -45 55 C-46.12 63.26 -44.28 68.95 -40 76 C-39.34 76 -38.68 76 -38 76 C-37.66 77.08 -37.66 77.08 -37.31 78.19 C-35.44 82.21 -32.83 85.11 -28.81 87.06 C-26.43 88.3 -26.07 89.58 -25 92 C-23.58 94.23 -23.58 94.23 -22 96 C-21.34 96 -20.68 96 -20 96 C-20 96.66 -20 97.32 -20 98 C-12.09 98.11 -4.35 97.92 3.53 97.27 C8.58 96.94 13.49 97.11 18.54 97.44 C19.9 97.52 21.25 97.6 22.6 97.68 C25.3 97.84 27.97 98.05 30.67 98.3 C37.24 98.95 37.24 98.95 43.02 96.43 C44.54 94.36 45.75 92.24 47 90 C49.3 87.4 51.87 85.08 54.38 82.7 C55.62 81.5 56.82 80.25 58 79 C58 78.34 58 77.68 58 77 C58.99 76.67 59.98 76.34 61 76 C65.69 69.54 66.09 61.66 65 54 C63.67 50.13 62 46.57 60 43 C59.34 43 58.68 43 58 43 C58 42.34 58 41.68 58 41 C56.31 39.67 56.31 39.67 54.19 38.44 C53.48 38 52.77 37.57 52.04 37.12 C43.92 32.66 33.63 34.55 25.12 37 C23.1 37.66 21.08 38.32 19 39 C18.01 32.56 18.01 32.56 17 26 C19.97 26 22.94 26 26 26 C26 22.04 26 18.08 26 14 C22.7 14 19.4 14 16 14 C16 10.7 16 7.4 16 4 C12.04 4 8.08 4 4 4 Z " fill="#020202" transform="translate(65,10)"/>
<path d="M0 0 C3.96 0 7.92 0 12 0 C12 3.3 12 6.6 12 10 C15.3 10 18.6 10 22 10 C22 13.96 22 17.92 22 22 C19.03 22 16.06 22 13 22 C13.66 26.29 14.32 30.58 15 35 C17.02 34.34 19.04 33.68 21.12 33 C29.71 30.44 39.33 28.81 47.69 32.88 C49.8 34.23 51.91 35.61 54 37 C54 37.66 54 38.32 54 39 C54.66 39 55.32 39 56 39 C56 40.32 56 41.64 56 43 C55.28 43.11 54.57 43.22 53.83 43.33 C46.13 44.56 38.58 46.17 31 48 C32.13 48.62 33.27 49.24 34.44 49.88 C37.88 51.75 37.88 51.75 39 54 C39.61 59.06 39.51 61.87 36.44 66 C35.3 67.34 34.15 68.67 33 70 C32.47 70.75 31.94 71.51 31.39 72.28 C30.85 73.01 30.31 73.75 29.75 74.5 C29.27 75.17 28.79 75.84 28.3 76.53 C24.52 78.95 20.36 78.26 16 78 C15.91 74.04 15.86 70.08 15.81 66.12 C15.79 65 15.76 63.87 15.74 62.71 C15.73 61.63 15.72 60.55 15.71 59.45 C15.69 58.45 15.68 57.46 15.66 56.43 C15.83 55.23 15.83 55.23 16 54 C16.99 53.34 17.98 52.68 19 52 C19 51.34 19 50.68 19 50 C18.34 49.34 17.68 48.68 17 48 C17.99 48 18.98 48 20 48 C18.72 45.44 17.83 45.37 15.19 44.44 C14.5 44.19 13.81 43.94 13.11 43.68 C11.09 43.03 9.07 42.49 7 42 C7 43.32 7 44.64 7 46 C4 47 4 47 1.81 46.06 C1.21 45.71 0.62 45.36 0 45 C0.66 45 1.32 45 2 45 C1.5 43.02 1.5 43.02 1 41 C-0.98 41 -2.96 41 -5 41 C-4.34 41.66 -3.68 42.32 -3 43 C-4.65 44.65 -6.3 46.3 -8 48 C-6.85 50.47 -5.95 52.05 -4 54 C-3.77 56.43 -3.77 56.43 -3.8 59.45 C-3.81 60.52 -3.82 61.6 -3.82 62.71 C-3.84 63.83 -3.86 64.96 -3.88 66.12 C-3.88 67.26 -3.89 68.4 -3.9 69.57 C-3.93 72.38 -3.96 75.19 -4 78 C-12.18 78.47 -12.18 78.47 -15.2 76.75 C-15.69 76.17 -16.18 75.59 -16.69 75 C-17.24 74.37 -17.79 73.73 -18.36 73.08 C-18.9 72.39 -19.44 71.71 -20 71 C-20.57 70.28 -21.14 69.56 -21.73 68.82 C-25.78 63.57 -27.35 60.86 -27 54 C-26 51.56 -26 51.56 -25 50 C-26.32 49.67 -27.64 49.34 -29 49 C-28.67 48.34 -28.34 47.68 -28 47 C-28.66 46.34 -29.32 45.68 -30 45 C-25.67 44.07 -22.33 44.07 -18 45 C-18 44.01 -18 43.02 -18 42 C-19.48 41.51 -19.48 41.51 -21 41 C-21.99 40.67 -22.98 40.34 -24 40 C-26.06 39.93 -28.13 39.92 -30.19 39.94 C-31.27 39.95 -32.36 39.96 -33.48 39.96 C-34.73 39.98 -34.73 39.98 -36 40 C-36 39.67 -36 39.34 -36 39 C-33.36 38.34 -30.72 37.68 -28 37 C-28 36.01 -28 35.02 -28 34 C-24.32 31.07 -21.79 30.67 -17.19 31.19 C-16.14 31.3 -15.1 31.42 -14.03 31.54 C-10.25 32.11 -6.67 32.94 -3 34 C-1.52 28.06 -1.52 28.06 0 22 C-3.3 22 -6.6 22 -10 22 C-10 18.04 -10 14.08 -10 10 C-6.7 10 -3.4 10 0 10 C0 6.7 0 3.4 0 0 Z M-21.94 54.12 C-23.58 57.02 -22.83 58.84 -22 62 C-20.04 64.77 -20.04 64.77 -17.56 67.25 C-16.76 68.1 -15.96 68.95 -15.13 69.83 C-13.76 71.23 -12.38 72.62 -11 74 C-10.01 74 -9.02 74 -8 74 C-8 68.06 -8 62.12 -8 56 C-14.9 52.29 -14.9 52.29 -21.94 54.12 Z M21 56 C21 61.94 21 67.88 21 74 C22.32 73.67 23.64 73.34 25 73 C25 72.34 25 71.68 25 71 C25.66 71 26.32 71 27 71 C29.32 68.71 29.32 68.71 31.69 65.81 C32.52 64.85 33.35 63.89 34.2 62.89 C36.25 60.18 36.25 60.18 35.96 57.26 C35.11 54.67 35.11 54.67 32 53 C27.15 52.34 25.84 53.58 21 56 Z " fill="#403935" transform="translate(69,14)"/>
<path d="M0 0 C1.26 0.01 2.52 0.02 3.81 0.03 C36.05 0.33 36.05 0.33 43.19 6.19 C45.76 9.47 45.89 12.28 45.88 16.31 C45.88 17.65 45.88 17.65 45.88 19.01 C45.75 21.19 45.75 21.19 44.75 22.19 C42.22 22.28 39.73 22.31 37.2 22.3 C36.02 22.3 36.02 22.3 34.81 22.3 C32.18 22.3 29.56 22.29 26.93 22.29 C25.12 22.28 23.3 22.28 21.49 22.28 C16.7 22.28 11.92 22.27 7.13 22.26 C2.25 22.25 -2.63 22.24 -7.51 22.24 C-17.09 22.23 -26.67 22.21 -36.25 22.19 C-36.28 20.59 -36.31 18.99 -36.32 17.4 C-36.34 16.51 -36.35 15.62 -36.37 14.7 C-36.15 10.04 -34.36 7.24 -31.04 4.1 C-22.8 -1.55 -9.63 -0.11 0 0 Z " fill="#3B3430" transform="translate(70.25,109.8125)"/>
<path d="M0 0 C3.96 0 7.92 0 12 0 C12 3.3 12 6.6 12 10 C15.3 10 18.6 10 22 10 C22 13.96 22 17.92 22 22 C19.03 22 16.06 22 13 22 C13.03 22.69 13.07 23.37 13.11 24.08 C13.13 24.98 13.16 25.88 13.19 26.81 C13.24 28.15 13.24 28.15 13.29 29.52 C12.95 32.42 12.25 33.23 10 35 C8.35 34.52 6.71 34.04 5.06 33.56 C4.15 33.3 3.23 33.03 2.29 32.75 C0 32 0 32 -1 31 C-0.82 27.98 -0.38 25 0 22 C-3.3 22 -6.6 22 -10 22 C-10 18.04 -10 14.08 -10 10 C-6.7 10 -3.4 10 0 10 C0 6.7 0 3.4 0 0 Z " fill="#3F3834" transform="translate(69,14)"/>
<path d="M0 0 C0.66 0.99 1.32 1.98 2 3 C2.99 3.33 3.98 3.66 5 4 C5 4.66 5 5.32 5 6 C5.02 7.28 5.04 8.56 5.06 9.88 C5.07 12.75 4.92 15.25 4 18 C3.34 18 2.68 18 2 18 C1.92 18.56 1.84 19.11 1.75 19.69 C0.73 22.83 -0.69 24.63 -3 27 C-6 28.12 -6 28.12 -9 29 C-11.3 30.52 -11.3 30.52 -13 32 C-13.33 31.34 -13.66 30.68 -14 30 C-15.65 30 -17.3 30 -19 30 C-18.34 30.33 -17.68 30.66 -17 31 C-17 31.66 -17 32.32 -17 33 C-20.96 32.5 -20.96 32.5 -25 32 C-23.52 28.77 -21.68 26.11 -19.5 23.31 C-18.89 22.52 -18.28 21.74 -17.66 20.93 C-16 19 -16 19 -14 18 C-13.57 16.3 -13.57 16.3 -13.12 14.56 C-12 11 -12 11 -10.25 9.62 C-7.52 8.87 -4.81 8.38 -2 8 C-5.63 8.33 -9.26 8.66 -13 9 C-12 7 -12 7 -9 6 C-10.32 5.34 -11.64 4.68 -13 4 C-11.12 1.6 -10.09 1.02 -7.06 0.31 C-4 0 -4 0 0 0 Z " fill="#48413D" transform="translate(122,59)"/>
<path d="M0 0 C1.12 1.62 1.12 1.62 1.12 3.62 C1.78 3.62 2.44 3.62 3.12 3.62 C3.12 4.28 3.12 4.94 3.12 5.62 C2.47 5.95 1.81 6.28 1.12 6.62 C3.65 9.15 4.64 8.92 8.13 9.04 C9.12 9.08 10.11 9.12 11.12 9.16 C12.15 9.19 13.19 9.22 14.25 9.25 C15.29 9.29 16.33 9.33 17.4 9.37 C19.98 9.46 22.55 9.55 25.12 9.62 C25.12 9.96 25.12 10.28 25.12 10.62 C-1.61 10.62 -28.34 10.62 -55.88 10.62 C-55.88 7.32 -55.88 4.03 -55.88 0.62 C-55.55 0.62 -55.22 0.62 -54.88 0.62 C-54.88 3.59 -54.88 6.56 -54.88 9.62 C-48.44 9.13 -48.44 9.13 -41.88 8.62 C-41.55 7.31 -41.22 5.98 -40.88 4.62 C-40.27 4.58 -39.67 4.53 -39.05 4.48 C-38.25 4.4 -37.45 4.33 -36.62 4.25 C-35.84 4.18 -35.05 4.11 -34.23 4.04 C-31.78 3.61 -30.09 2.74 -27.88 1.62 C-21.53 1.3 -21.53 1.3 -18.88 2.62 C-18.88 1.97 -18.88 1.31 -18.88 0.62 C-4.6 -3.37 -4.6 -3.37 0 0 Z " fill="#2E2825" transform="translate(89.875,121.375)"/>
<path d="M0 0 C1.26 0.01 2.52 0.02 3.81 0.03 C34.41 0.32 34.41 0.32 40.75 4.19 C41.98 6.29 41.98 6.29 42.75 8.19 C42 8.05 41.24 7.9 40.47 7.76 C30.14 6.04 20 5.88 9.55 5.93 C6.62 5.94 3.69 5.93 0.76 5.91 C-7.93 5.91 -16.36 5.93 -24.91 7.76 C-27.4 8.21 -29.72 8.26 -32.25 8.19 C-31.94 6.31 -31.94 6.31 -31.25 4.19 C-22.87 -1.4 -9.74 -0.11 0 0 Z " fill="#5F5955" transform="translate(70.25,109.8125)"/>
<path d="M0 0 C3.12 2 3.12 2 5 5 C5.74 9.1 5.9 11.37 3.89 15.01 C2.36 17.11 0.7 19.04 -1 21 C-1.53 21.75 -2.06 22.51 -2.61 23.28 C-3.15 24.01 -3.69 24.75 -4.25 25.5 C-4.73 26.17 -5.21 26.84 -5.7 27.53 C-9.48 29.95 -13.64 29.26 -18 29 C-18.23 25.11 -18.37 21.21 -18.5 17.31 C-18.57 16.21 -18.63 15.11 -18.7 13.97 C-18.9 6.02 -18.9 6.02 -16.37 3.14 C-11.16 -0.3 -6.12 -1.28 0 0 Z M-13 7 C-13 12.94 -13 18.88 -13 25 C-11.68 24.67 -10.36 24.34 -9 24 C-9 23.34 -9 22.68 -9 22 C-8.34 22 -7.68 22 -7 22 C-4.68 19.71 -4.68 19.71 -2.31 16.81 C-1.48 15.85 -0.65 14.89 0.2 13.89 C2.25 11.18 2.25 11.18 1.96 8.26 C1.11 5.67 1.11 5.67 -2 4 C-6.85 3.34 -8.16 4.58 -13 7 Z " fill="#040404" transform="translate(103,63)"/>
<path d="M0 0 C2.8 1.22 4.83 2.83 7 5 C7.09 6.78 7.11 8.56 7.1 10.35 C7.09 11.43 7.09 12.51 7.09 13.62 C7.08 14.76 7.07 15.89 7.06 17.06 C7.06 18.2 7.05 19.34 7.05 20.52 C7.04 23.35 7.02 26.17 7 29 C-1.18 29.47 -1.18 29.47 -4.2 27.75 C-4.94 26.88 -4.94 26.88 -5.69 26 C-6.24 25.37 -6.79 24.73 -7.36 24.08 C-7.9 23.39 -8.44 22.71 -9 22 C-9.57 21.28 -10.14 20.56 -10.73 19.82 C-14.69 14.68 -16.69 11.76 -16 5 C-12.17 -1.21 -6.64 -1.09 0 0 Z M-10.94 5.12 C-12.58 8.02 -11.83 9.84 -11 13 C-9.04 15.77 -9.04 15.77 -6.56 18.25 C-5.76 19.1 -4.96 19.95 -4.13 20.83 C-2.76 22.23 -1.38 23.62 0 25 C0.99 25 1.98 25 3 25 C3 19.06 3 13.12 3 7 C-3.9 3.29 -3.9 3.29 -10.94 5.12 Z " fill="#020202" transform="translate(58,63)"/>
<path d="M0 0 C3.96 0 7.92 0 12 0 C12 3.3 12 6.6 12 10 C15.3 10 18.6 10 22 10 C22 10.66 22 11.32 22 12 C12.1 12 2.2 12 -8 12 C-8 14.97 -8 17.94 -8 21 C-8.33 21 -8.66 21 -9 21 C-9 17.7 -9 14.4 -9 11 C-6.03 11 -3.06 11 0 11 C0 7.37 0 3.74 0 0 Z " fill="#5A534F" transform="translate(69,14)"/>
<path d="M0 0 C3.96 0 7.92 0 12 0 C12 3.3 12 6.6 12 10 C11.26 9.81 10.52 9.63 9.75 9.44 C7.05 9.01 5.55 9.15 3 10 C3 9.34 3 8.68 3 8 C3.66 8 4.32 8 5 8 C5 7.34 5 6.68 5 6 C4.34 6 3.68 6 3 6 C3 5.34 3 4.68 3 4 C6.47 3.5 6.47 3.5 10 3 C10 2.34 10 1.68 10 1 C7.03 1 4.06 1 1 1 C1 3.97 1 6.94 1 10 C0.67 10 0.34 10 0 10 C0 6.7 0 3.4 0 0 Z " fill="#413A36" transform="translate(69,14)"/>
</svg>
