<?xml version="1.0" encoding="UTF-8"?>
<!-- Generator: visioncortex VTracer 0.6.3 -->
<svg version="1.1" xmlns="http://www.w3.org/2000/svg" width="150" height="150">
<path d="M0 0 C0 0.66 0 1.32 0 2 C0.66 2 1.32 2 2 2 C4.12 3.87 4.12 3.87 6 6 C6 6.66 6 7.32 6 8 C6.66 8 7.32 8 8 8 C8 8.66 8 9.32 8 10 C8.85 10.14 9.7 10.27 10.57 10.41 C26.27 13.29 38.69 19.65 48.06 32.92 C56.18 45.98 59.16 61.71 55.91 76.82 C55.45 78.73 54.98 80.65 54.5 82.56 C54.03 84.5 53.56 86.44 53.09 88.38 C52.88 89.22 52.67 90.06 52.46 90.93 C51.93 92.97 51.93 92.97 52 95 C52.93 95.56 53.86 96.11 54.81 96.69 C58.47 99.34 59.8 101.77 61 106 C61.32 108.83 61.29 111.59 61.19 114.44 C61.17 115.53 61.17 115.53 61.15 116.65 C61.11 118.44 61.06 120.22 61 122 C49.41 122.02 37.83 122.04 26.24 122.05 C20.86 122.06 15.48 122.06 10.1 122.08 C4.91 122.09 -0.27 122.09 -5.46 122.09 C-7.44 122.1 -9.43 122.1 -11.41 122.11 C-14.18 122.11 -16.95 122.11 -19.72 122.11 C-20.55 122.12 -21.37 122.12 -22.23 122.12 C-27.89 122.11 -27.89 122.11 -29 121 C-29.79 112.48 -29.06 104.77 -23.56 98 C-21.22 96.17 -19.91 95.32 -17 95 C-16.81 94.07 -16.63 93.14 -16.44 92.19 C-13.59 82.53 -7.4 76.06 0.4 70.07 C3.84 67.33 6.39 64.53 9 61 C9 60.01 9 59.02 9 58 C8.46 58.58 7.93 59.16 7.38 59.75 C1.69 65.14 -2.7 66.54 -10.39 67.21 C-11.25 67.47 -12.11 67.73 -13 68 C-14.32 70.38 -14.32 70.38 -15 73 C-16.94 75.44 -16.94 75.44 -20 77 C-27.13 76.93 -33.55 74.6 -39 70 C-41.71 65.93 -41.78 62.78 -41 58 C-39.64 55.05 -37.8 52.62 -35.81 50.06 C-34.79 48.67 -33.78 47.27 -32.77 45.87 C-32.28 45.21 -31.8 44.54 -31.3 43.85 C-28.18 39.41 -25.9 34.56 -24.1 29.45 C-22.38 24.59 -20.8 21.51 -16.94 18 C-12.97 14.39 -11.88 11.34 -10.63 6.21 C-8.96 0.35 -5.65 -0.51 0 0 Z " fill="#3E3733" transform="translate(63,14)"/>
<path d="M0 0 C0 0.66 0 1.32 0 2 C0.66 2 1.32 2 2 2 C4.12 3.87 4.12 3.87 6 6 C6 6.66 6 7.32 6 8 C6.66 8 7.32 8 8 8 C8 8.66 8 9.32 8 10 C8.85 10.14 9.7 10.27 10.57 10.41 C26.27 13.29 38.69 19.65 48.06 32.92 C56.18 45.98 59.16 61.71 55.91 76.82 C55.45 78.73 54.98 80.65 54.5 82.56 C54.03 84.5 53.56 86.44 53.09 88.38 C52.88 89.22 52.67 90.06 52.46 90.93 C51.93 92.97 51.93 92.97 52 95 C52.93 95.56 53.86 96.11 54.81 96.69 C58.47 99.34 59.8 101.77 61 106 C61.32 108.83 61.29 111.59 61.19 114.44 C61.17 115.53 61.17 115.53 61.15 116.65 C61.11 118.44 61.06 120.22 61 122 C49.41 122.02 37.83 122.04 26.24 122.05 C20.86 122.06 15.48 122.06 10.1 122.08 C4.91 122.09 -0.27 122.09 -5.46 122.09 C-7.44 122.1 -9.43 122.1 -11.41 122.11 C-14.18 122.11 -16.95 122.11 -19.72 122.11 C-20.55 122.12 -21.37 122.12 -22.23 122.12 C-27.89 122.11 -27.89 122.11 -29 121 C-29.79 112.48 -29.06 104.77 -23.56 98 C-21.22 96.17 -19.91 95.32 -17 95 C-16.81 94.07 -16.63 93.14 -16.44 92.19 C-13.59 82.53 -7.4 76.06 0.4 70.07 C3.84 67.33 6.39 64.53 9 61 C9 60.01 9 59.02 9 58 C8.46 58.58 7.93 59.16 7.38 59.75 C1.69 65.14 -2.7 66.54 -10.39 67.21 C-11.25 67.47 -12.11 67.73 -13 68 C-14.32 70.38 -14.32 70.38 -15 73 C-16.94 75.44 -16.94 75.44 -20 77 C-27.13 76.93 -33.55 74.6 -39 70 C-41.71 65.93 -41.78 62.78 -41 58 C-39.64 55.05 -37.8 52.62 -35.81 50.06 C-34.79 48.67 -33.78 47.27 -32.77 45.87 C-32.28 45.21 -31.8 44.54 -31.3 43.85 C-28.18 39.41 -25.9 34.56 -24.1 29.45 C-22.38 24.59 -20.8 21.51 -16.94 18 C-12.97 14.39 -11.88 11.34 -10.63 6.21 C-8.96 0.35 -5.65 -0.51 0 0 Z M-5.5 5 C-7.29 7.09 -7.29 7.09 -7.75 10.69 C-8.73 15.24 -11.08 17.83 -14.25 21.14 C-17.58 24.68 -19.22 27.33 -20.38 32.06 C-22.64 39.39 -26.94 45.13 -31.49 51.24 C-34.87 55.87 -37.05 59.17 -37 65 C-34.22 68.68 -31.47 70.86 -27 72 C-24.31 72.15 -21.7 72.09 -19 72 C-19 71.01 -19 70.02 -19 69 C-18.34 69 -17.68 69 -17 69 C-16.39 67.81 -16.39 67.81 -15.76 66.59 C-14 64 -14 64 -11.18 63.1 C-10.09 62.94 -9 62.79 -7.88 62.62 C0.96 60.9 5.85 56.23 12 50 C13.51 56.23 13.75 62.1 11 68 C9.06 69.25 9.06 69.25 7 70 C6.01 70.66 5.02 71.32 4 72 C4 72.66 4 73.32 4 74 C3.44 74.23 2.89 74.45 2.31 74.69 C-4.39 78.49 -8.89 85.67 -13 92 C-13 92.66 -13 93.32 -13 94 C-5.34 94.05 2.32 94.08 9.97 94.1 C13.53 94.11 17.09 94.13 20.64 94.15 C24.73 94.18 28.81 94.19 32.9 94.2 C34.18 94.21 35.46 94.22 36.78 94.23 C38.55 94.23 38.55 94.23 40.36 94.23 C41.4 94.23 42.44 94.24 43.52 94.24 C46.18 94.25 46.18 94.25 48 92 C53.02 75.91 55.42 56.7 48 41 C45.9 37.46 43.56 34.23 41 31 C40.38 30.09 39.76 29.19 39.12 28.25 C32.47 21.2 23.93 17.55 14.56 15.75 C6.86 14.08 2.33 10.49 -2 4 C-4.02 3.82 -4.02 3.82 -5.5 5 Z " fill="#030202" transform="translate(63,14)"/>
<path d="M0 0 C2.89 0.01 5.77 0 8.66 -0.01 C35.62 -0.03 35.62 -0.03 42.46 6.26 C44.46 11.26 44.46 11.26 44.46 22.26 C17.73 22.26 -9 22.26 -36.54 22.26 C-36.54 10.26 -36.54 10.26 -33.54 5.26 C-25.29 -2.25 -10.41 -0.05 0 0 Z " fill="#443D39" transform="translate(75.542236328125,109.7392578125)"/>
<path d="M0 0 C1.04 3.38 1.08 6.48 1 10 C1.41 9.5 1.83 9.01 2.25 8.5 C4 7 4 7 8 7 C8.33 6.34 8.66 5.68 9 5 C10.65 5 12.3 5 14 5 C14 5.66 14 6.32 14 7 C14.66 6.67 15.32 6.34 16 6 C16 5.01 16 4.02 16 3 C16.82 3.52 16.82 3.52 17.65 4.06 C20.73 5.29 22.42 4.82 25.64 4.1 C26.71 3.87 27.78 3.64 28.88 3.4 C29.99 3.14 31.11 2.89 32.25 2.62 C33.38 2.38 34.5 2.13 35.66 1.88 C38.45 1.26 41.22 0.64 44 0 C44 0.66 44 1.32 44 2 C39.38 2.99 34.76 3.98 30 5 C31.32 5.99 32.64 6.98 34 8 C33.01 8.33 32.02 8.66 31 9 C31 9.66 31 10.32 31 11 C31.99 10.34 32.98 9.68 34 9 C35.32 9 36.64 9 38 9 C37.5 7.02 37.5 7.02 37 5 C39.73 3.63 41.96 3.87 45 3.88 C46.61 3.87 46.61 3.87 48.25 3.87 C51 4 51 4 53 5 C53 4.01 53 3.02 53 2 C57.95 2 62.9 2 68 2 C65.08 3.46 63.08 4.34 60 5 C60 5.66 60 6.32 60 7 C59.01 7 58.02 7 57 7 C57 7.66 57 8.32 57 9 C57.83 9.5 58.65 9.99 59.5 10.5 C60.33 11 61.15 11.49 62 12 C62 12.66 62 13.32 62 14 C67.61 14 73.22 14 79 14 C79 12.35 79 10.7 79 9 C76.65 9.6 74.31 10.27 72 11 C71.67 11.66 71.34 12.32 71 13 C69.35 13 67.7 13 66 13 C65.5 11.51 65.5 11.51 65 10 C68.3 8.68 71.6 7.36 75 6 C73.68 5.67 72.36 5.34 71 5 C75.62 1 75.62 1 79 1 C80 4 80 4 80 15 C53.27 15 26.54 15 -1 15 C-1 3 -1 3 0 0 Z " fill="#38322E" transform="translate(40,117)"/>
<path d="M0 0 C2 0 2 0 4.31 2.19 C5.98 3.94 7.62 5.72 9.2 7.54 C12.57 10.5 15.09 11.15 19.44 12.12 C26.06 13.63 31.45 15.96 37.25 19.44 C37.92 19.83 38.58 20.22 39.27 20.62 C41.27 22.21 42.03 23.66 43 26 C40.36 25.67 37.72 25.34 35 25 C35.33 23.68 35.66 22.36 36 21 C33.35 19.92 30.72 18.91 28 18 C28 18.99 28 19.98 28 21 C28.64 21.12 29.28 21.25 29.94 21.38 C30.96 21.68 30.96 21.68 32 22 C32.5 22.99 32.5 22.99 33 24 C29.38 25.32 26.9 26 23 26 C23 26.66 23 27.32 23 28 C24.98 27.67 26.96 27.34 29 27 C28.34 27.66 27.68 28.32 27 29 C29.31 29 31.62 29 34 29 C31.07 30.95 29.85 31.36 26.51 31.85 C25.64 31.98 24.77 32.11 23.87 32.24 C22.96 32.37 22.06 32.49 21.12 32.62 C19.78 32.83 19.78 32.83 18.4 33.03 C14.22 33.64 10.23 34.07 6 34 C6 33.34 6 32.68 6 32 C9.47 31.51 9.47 31.51 13 31 C7.06 31 1.12 31 -5 31 C-3.78 24.88 -3.78 24.88 -1 23 C1.96 22.56 3.36 22.54 5.81 24.31 C7 26 7 26 7 29 C7.69 28.7 8.37 28.4 9.08 28.09 C13.36 26.49 17.77 25.7 22.23 24.78 C23.15 24.52 24.06 24.27 25 24 C25.33 23.34 25.66 22.68 26 22 C25.34 21.34 24.68 20.68 24 20 C24 19.67 24 19.34 24 19 C23.01 19 22.02 19 21 19 C20.34 17.68 19.68 16.36 19 15 C18.59 15.47 18.17 15.95 17.75 16.44 C15.82 18.16 14.52 18.57 12 19 C12 18.34 12 17.68 12 17 C11.34 16.67 10.68 16.34 10 16 C10 16.66 10 17.32 10 18 C8.02 18.33 6.04 18.66 4 19 C4 17.68 4 16.36 4 15 C3.01 15 2.02 15 1 15 C1.66 11.37 2.32 7.74 3 4 C1.35 4 -0.3 4 -2 4 C-2.33 4.99 -2.66 5.98 -3 7 C-2.25 2.25 -2.25 2.25 0 0 Z " fill="#342E2B" transform="translate(59,18)"/>
<path d="M0 0 C2.89 0.01 5.77 0 8.66 -0.01 C34.68 -0.04 34.68 -0.04 40.46 5.26 C40.46 5.92 40.46 6.58 40.46 7.26 C39.04 7.15 39.04 7.15 37.59 7.05 C27.98 6.37 18.43 6.1 8.8 6.13 C6.52 6.14 4.25 6.13 1.97 6.12 C-5.65 6.12 -13.25 6.28 -20.86 6.71 C-21.91 6.76 -21.91 6.76 -22.98 6.82 C-26.58 7.05 -30.03 7.45 -33.54 8.26 C-32.06 5.02 -31.04 2.83 -27.63 1.53 C-18.47 -0.16 -9.28 -0.04 0 0 Z " fill="#67615D" transform="translate(75.542236328125,109.7392578125)"/>
<path d="M0 0 C1.65 0 3.3 0 5 0 C5.41 3.37 5.62 5.96 3.84 8.95 C1.49 11.81 -0.12 13.71 -3.69 14.88 C-6.12 15.76 -6.12 15.76 -6.84 17.79 C-7.3 19.26 -7.74 20.73 -8.13 22.22 C-10.51 29.81 -14.08 36 -18.94 42.25 C-19.45 42.93 -19.96 43.61 -20.49 44.31 C-23.43 48.17 -26.49 51.66 -30 55 C-30.5 53.52 -30.5 53.52 -31 52 C-29.81 49.65 -29.81 49.65 -28 46.94 C-27.35 45.95 -26.71 44.97 -26.04 43.95 C-24.78 42.13 -23.49 40.32 -22.15 38.55 C-18.57 33.79 -16.38 29.57 -14.56 23.88 C-12.65 18.01 -10.47 14.9 -5.87 10.89 C-2.81 7.8 -1.43 4.05 0 0 Z " fill="#5A5350" transform="translate(57,22)"/>
<path d="M0 0 C0.66 0.66 1.32 1.32 2 2 C1.44 6.56 1.44 6.56 0 8 C-1.52 8.07 -3.04 8.08 -4.56 8.06 C-5.39 8.05 -6.22 8.04 -7.07 8.04 C-7.7 8.02 -8.34 8.01 -9 8 C-8.64 5.34 -8.29 3.42 -6.75 1.19 C-4.37 -0.43 -2.82 -0.36 0 0 Z " fill="#050504" transform="translate(63,41)"/>
<path d="M0 0 C0.94 0 1.89 0 2.86 0 C5.86 0.01 8.85 0.02 11.85 0.04 C13.89 0.04 15.93 0.04 17.97 0.05 C22.95 0.06 27.93 0.08 32.91 0.1 C32.91 0.43 32.91 0.76 32.91 1.1 C31.68 1.12 30.45 1.15 29.18 1.17 C24.62 1.27 20.06 1.37 15.5 1.47 C13.53 1.51 11.55 1.56 9.58 1.59 C6.74 1.65 3.91 1.72 1.07 1.78 C-0.26 1.81 -0.26 1.81 -1.61 1.83 C-5.99 1.81 -5.99 1.81 -10.09 3.1 C-12.43 2.82 -14.76 2.49 -17.09 2.1 C-17.09 1.77 -17.09 1.44 -17.09 1.1 C-11.35 0.11 -5.81 -0.03 0 0 Z " fill="#524B48" transform="translate(67.08984375,109.90234375)"/>
<path d="M0 0 C0 0.33 0 0.66 0 1 C-1.67 1.22 -1.67 1.22 -3.38 1.44 C-6.82 1.78 -6.82 1.78 -9 3 C-11.34 2.72 -13.68 2.39 -16 2 C-16 1.67 -16 1.34 -16 1 C-10.62 0.08 -5.46 -0.11 0 0 Z " fill="#403A37" transform="translate(66,110)"/>
<path d="M0 0 C0.33 0.66 0.66 1.32 1 2 C-0.76 5.62 -2.64 7.8 -6 10 C-4.35 6.42 -2.22 3.25 0 0 Z " fill="#4D4643" transform="translate(36,59)"/>
<path d="M0 0 C0.66 0 1.32 0 2 0 C2 1.32 2 2.64 2 4 C0.68 4 -0.64 4 -2 4 C-2.33 4.99 -2.66 5.98 -3 7 C-2.25 2.25 -2.25 2.25 0 0 Z " fill="#413A37" transform="translate(59,18)"/>
</svg>
