<?xml version="1.0" encoding="UTF-8"?>
<!-- Generator: visioncortex VTracer 0.6.3 -->
<svg version="1.1" xmlns="http://www.w3.org/2000/svg" width="150" height="150">
<path d="M0 0 C4.84 4.24 8.09 8.5 9 15 C9.07 21.71 7.01 27.08 4 33 C4.58 33.28 5.16 33.56 5.75 33.85 C8.04 35.09 10.03 36.29 12 38 C12.77 41.94 12.28 44.17 11 47.94 C9 50 9 50 7.02 50.3 C5.01 50.31 3 50.16 1 50 C3.79 60.57 8.91 66.59 17.63 73.04 C22.5 77.07 25.65 81.8 27 88 C27.08 90.09 27.11 92.18 27.08 94.28 C27.06 95.89 27.06 95.89 27.04 97.53 C27.03 98.35 27.01 99.16 27 100 C16.59 100.02 6.17 100.04 -4.24 100.05 C-9.08 100.06 -13.91 100.06 -18.74 100.08 C-23.41 100.09 -28.07 100.09 -32.73 100.09 C-34.51 100.1 -36.3 100.1 -38.08 100.11 C-40.57 100.11 -43.05 100.11 -45.54 100.11 C-46.66 100.12 -46.66 100.12 -47.8 100.12 C-52.89 100.11 -52.89 100.11 -54 99 C-54.21 89.72 -52.4 81.61 -45.88 74.78 C-43.11 72.28 -40.28 69.93 -37.26 67.75 C-31.55 63.51 -28.47 56.85 -27 50 C-28.89 50.15 -28.89 50.15 -30.81 50.31 C-33.02 50.3 -33.02 50.3 -35 50 C-37.63 47.29 -37.96 45.19 -38.69 41.5 C-38 38 -38 38 -36.21 36.44 C-34.18 35.17 -32.15 34.04 -30 33 C-30.28 32.47 -30.55 31.94 -30.84 31.39 C-31.2 30.68 -31.56 29.98 -31.94 29.25 C-32.3 28.55 -32.66 27.86 -33.03 27.14 C-35.29 22.15 -35.87 17.14 -34.39 11.79 C-31.61 4.62 -26.92 -0.12 -20 -3.44 C-12.36 -4.87 -6.6 -4.22 0 0 Z " fill="#3B3431" transform="translate(88,36)"/>
<path d="M0 0 C4.84 4.24 8.09 8.5 9 15 C9.07 21.71 7.01 27.08 4 33 C4.58 33.28 5.16 33.56 5.75 33.85 C8.04 35.09 10.03 36.29 12 38 C12.77 41.94 12.28 44.17 11 47.94 C9 50 9 50 7.02 50.3 C5.01 50.31 3 50.16 1 50 C3.79 60.57 8.91 66.59 17.63 73.04 C22.5 77.07 25.65 81.8 27 88 C27.08 90.09 27.11 92.18 27.08 94.28 C27.06 95.89 27.06 95.89 27.04 97.53 C27.03 98.35 27.01 99.16 27 100 C16.59 100.02 6.17 100.04 -4.24 100.05 C-9.08 100.06 -13.91 100.06 -18.74 100.08 C-23.41 100.09 -28.07 100.09 -32.73 100.09 C-34.51 100.1 -36.3 100.1 -38.08 100.11 C-40.57 100.11 -43.05 100.11 -45.54 100.11 C-46.66 100.12 -46.66 100.12 -47.8 100.12 C-52.89 100.11 -52.89 100.11 -54 99 C-54.21 89.72 -52.4 81.61 -45.88 74.78 C-43.11 72.28 -40.28 69.93 -37.26 67.75 C-31.55 63.51 -28.47 56.85 -27 50 C-28.89 50.15 -28.89 50.15 -30.81 50.31 C-33.02 50.3 -33.02 50.3 -35 50 C-37.63 47.29 -37.96 45.19 -38.69 41.5 C-38 38 -38 38 -36.21 36.44 C-34.18 35.17 -32.15 34.04 -30 33 C-30.28 32.47 -30.55 31.94 -30.84 31.39 C-31.2 30.68 -31.56 29.98 -31.94 29.25 C-32.3 28.55 -32.66 27.86 -33.03 27.14 C-35.29 22.15 -35.87 17.14 -34.39 11.79 C-31.61 4.62 -26.92 -0.12 -20 -3.44 C-12.36 -4.87 -6.6 -4.22 0 0 Z M-28.8 9.32 C-31.5 13.1 -31.73 17.53 -31 22 C-29.62 24.89 -27.89 27.42 -26 30 C-25.34 30.99 -24.68 31.98 -24 33 C-27.3 35.31 -30.6 37.62 -34 40 C-33.55 44.63 -33.55 44.63 -32 46 C-30.31 46.07 -28.62 46.08 -26.94 46.06 C-26.02 46.05 -25.1 46.04 -24.15 46.04 C-23.44 46.02 -22.73 46.01 -22 46 C-24.64 58.86 -28.92 66.52 -39.56 74.38 C-43.72 77.53 -45.79 80.3 -48 85 C-48.49 85.99 -48.49 85.99 -49 87 C-49 89.97 -49 92.94 -49 96 C-25.24 96 -1.48 96 23 96 C23 87.99 22.51 84.31 18 78 C12.74 72.47 12.74 72.47 6 70 C5.34 68.68 4.68 67.36 4 66 C3.34 66 2.68 66 2 66 C0.2 61.83 -0.99 57.57 -2.12 53.19 C-2.31 52.49 -2.49 51.8 -2.68 51.09 C-3.12 49.39 -3.56 47.7 -4 46 C-0.37 46 3.26 46 7 46 C7.33 44.02 7.66 42.04 8 40 C4.7 38.02 1.4 36.04 -2 34 C-0.44 30.89 1.2 27.97 3 25 C5.18 20.63 4.78 14.44 3.32 9.86 C0.57 4.62 -3.5 1.83 -9 0 C-18.28 -1.08 -22.94 2.41 -28.8 9.32 Z " fill="#020101" transform="translate(88,36)"/>
<path d="M0 0 C0.66 0.33 1.32 0.66 2 1 C1.67 2.32 1.34 3.64 1 5 C-0.32 4.34 -1.64 3.68 -3 3 C-3 3.99 -3 4.98 -3 6 C-3.99 6.5 -3.99 6.5 -5 7 C-4.67 8.32 -4.34 9.64 -4 11 C-5.98 11 -7.96 11 -10 11 C-10.33 9.68 -10.66 8.36 -11 7 C-11.25 7.8 -11.5 8.61 -11.75 9.44 C-13 12 -13 12 -14.73 12.65 C-17.38 13.06 -19.94 13.17 -22.62 13.19 C-24.07 13.21 -24.07 13.21 -25.54 13.23 C-28 13 -28 13 -30 11 C-30.06 8.62 -30.06 8.62 -29 6 C-26.33 3.92 -23.47 2 -20 2 C-20 3.32 -20 4.64 -20 6 C-14.56 5.5 -14.56 5.5 -9 5 C-9.99 4.67 -10.98 4.34 -12 4 C-12 3.34 -12 2.68 -12 2 C-7.88 0 -4.56 -0.26 0 0 Z " fill="#49413E" transform="translate(84,69)"/>
<path d="M0 0 C0.66 0 1.32 0 2 0 C0.95 6.94 -1.02 11.81 -6.64 15.97 C-7.21 16.37 -7.79 16.78 -8.38 17.19 C-9.51 18.01 -10.64 18.84 -11.77 19.67 C-12.84 20.44 -13.9 21.21 -15 22 C-16.68 23.32 -18.35 24.65 -20 26 C-20.33 22.41 -20.38 20.56 -18.32 17.54 C-15.91 14.91 -13.52 13.1 -10.56 11.12 C-5.86 7.83 -3.09 4.78 0 0 Z " fill="#625C59" transform="translate(61,98)"/>
<path d="M0 0 C-0.58 0.27 -1.16 0.54 -1.75 0.81 C-8.93 4.6 -12.78 9.45 -15.41 17.06 C-15.7 18.02 -15.7 18.02 -16 19 C-16.33 19 -16.66 19 -17 19 C-17.61 14.79 -17.87 11.39 -15.55 7.69 C-10.66 2.1 -7.67 -0.29 0 0 Z " fill="#59524F" transform="translate(75,37)"/>
<path d="M0 0 C-0.33 1.98 -0.66 3.96 -1 6 C-3.31 6 -5.62 6 -8 6 C-6.73 2.19 -4.19 0 0 0 Z " fill="#5E5855" transform="translate(64,71)"/>
</svg>
