<?xml version="1.0" encoding="UTF-8"?>
<!-- Generator: visioncortex VTracer 0.6.3 -->
<svg version="1.1" xmlns="http://www.w3.org/2000/svg" width="150" height="150">
<path d="M0 0 C4.89 2.44 7.21 4.82 9 10 C9.55 13.9 9.72 17.01 7.31 20.31 C5.06 24.93 7.42 29.34 9 34 C9.59 35.83 9.59 35.83 10.19 37.69 C10.46 38.45 10.72 39.21 11 40 C13.65 34.44 16.08 29.12 17 23 C15.64 20.46 15.64 20.46 14 18 C13.41 12.76 13.71 9.02 16.6 4.54 C19.98 0.82 24.24 -0.75 29.12 -1.44 C33.97 -0.7 37.03 0.92 40.31 4.56 C42.67 7.97 43.16 9.76 43.19 13.88 C43.2 14.74 43.22 15.6 43.23 16.49 C42.99 19.12 42.33 20.74 41 23 C40.34 23 39.68 23 39 23 C38.5 24.48 38.5 24.48 38 26 C37.34 26 36.68 26 36 26 C36.99 37.39 36.99 37.39 38 49 C43.13 44.88 43.13 44.88 43.31 41.61 C43.21 40.81 43.11 40.01 43 39.19 C42.76 34.36 43.63 31.55 46.45 27.63 C49.47 24.45 52.64 23.19 56.98 22.84 C61.81 23.07 65.11 24.8 68.57 28.13 C71.15 31.5 72.09 34.78 72 39 C70.53 44.34 67.7 48.03 63 51 C62.34 51 61.68 51 61 51 C60.64 52.16 60.29 53.31 59.92 54.5 C57.24 62.55 53.72 70.3 50.39 78.1 C49.5 80.18 48.62 82.26 47.74 84.34 C47.46 84.98 47.19 85.62 46.91 86.28 C45.46 89.52 45.46 89.52 45 93 C46.92 94.26 48.93 95.31 50.96 96.39 C53 98 53 98 56 104 C56 109.61 56 115.22 56 121 C26.63 121 -2.74 121 -33 121 C-33 104 -33 104 -29 97 C-26.75 95.17 -24.64 94.27 -22 93 C-24.87 83.7 -28.79 74.84 -32.61 65.9 C-33.5 63.82 -34.38 61.74 -35.26 59.66 C-35.67 58.7 -35.67 58.7 -36.09 57.72 C-38 53.23 -38 53.23 -38 51 C-38.72 50.79 -39.44 50.59 -40.19 50.38 C-43.76 48.63 -45.99 46.38 -48 43 C-49.22 38.81 -49.17 36.56 -47.94 32.38 C-45.46 28.06 -42.92 24.94 -38.04 23.37 C-33.13 22.48 -30.05 23.21 -26 26 C-21.74 30.17 -20.32 33.06 -20 39 C-20.08 39.87 -20.16 40.73 -20.25 41.62 C-20.16 44.89 -20.16 44.89 -15 49 C-14.34 41.41 -13.68 33.82 -13 26 C-14.32 25.34 -15.64 24.68 -17 24 C-20.37 20.15 -20.51 16.35 -20.35 11.44 C-19.83 7.79 -18.44 5.71 -16 3 C-10.29 -0.94 -6.73 -1.45 0 0 Z " fill="#403936" transform="translate(64,15)"/>
<path d="M0 0 C4.89 2.44 7.21 4.82 9 10 C9.55 13.9 9.72 17.01 7.31 20.31 C5.06 24.93 7.42 29.34 9 34 C9.59 35.83 9.59 35.83 10.19 37.69 C10.46 38.45 10.72 39.21 11 40 C13.65 34.44 16.08 29.12 17 23 C15.64 20.46 15.64 20.46 14 18 C13.41 12.76 13.71 9.02 16.6 4.54 C19.98 0.82 24.24 -0.75 29.12 -1.44 C33.97 -0.7 37.03 0.92 40.31 4.56 C42.67 7.97 43.16 9.76 43.19 13.88 C43.2 14.74 43.22 15.6 43.23 16.49 C42.99 19.12 42.33 20.74 41 23 C40.34 23 39.68 23 39 23 C38.5 24.48 38.5 24.48 38 26 C37.34 26 36.68 26 36 26 C36.99 37.39 36.99 37.39 38 49 C43.13 44.88 43.13 44.88 43.31 41.61 C43.21 40.81 43.11 40.01 43 39.19 C42.76 34.36 43.63 31.55 46.45 27.63 C49.47 24.45 52.64 23.19 56.98 22.84 C61.81 23.07 65.11 24.8 68.57 28.13 C71.15 31.5 72.09 34.78 72 39 C70.53 44.34 67.7 48.03 63 51 C62.34 51 61.68 51 61 51 C60.64 52.16 60.29 53.31 59.92 54.5 C57.24 62.55 53.72 70.3 50.39 78.1 C49.5 80.18 48.62 82.26 47.74 84.34 C47.46 84.98 47.19 85.62 46.91 86.28 C45.46 89.52 45.46 89.52 45 93 C46.92 94.26 48.93 95.31 50.96 96.39 C53 98 53 98 56 104 C56 109.61 56 115.22 56 121 C26.63 121 -2.74 121 -33 121 C-33 104 -33 104 -29 97 C-26.75 95.17 -24.64 94.27 -22 93 C-24.87 83.7 -28.79 74.84 -32.61 65.9 C-33.5 63.82 -34.38 61.74 -35.26 59.66 C-35.67 58.7 -35.67 58.7 -36.09 57.72 C-38 53.23 -38 53.23 -38 51 C-38.72 50.79 -39.44 50.59 -40.19 50.38 C-43.76 48.63 -45.99 46.38 -48 43 C-49.22 38.81 -49.17 36.56 -47.94 32.38 C-45.46 28.06 -42.92 24.94 -38.04 23.37 C-33.13 22.48 -30.05 23.21 -26 26 C-21.74 30.17 -20.32 33.06 -20 39 C-20.08 39.87 -20.16 40.73 -20.25 41.62 C-20.16 44.89 -20.16 44.89 -15 49 C-14.34 41.41 -13.68 33.82 -13 26 C-14.32 25.34 -15.64 24.68 -17 24 C-20.37 20.15 -20.51 16.35 -20.35 11.44 C-19.83 7.79 -18.44 5.71 -16 3 C-10.29 -0.94 -6.73 -1.45 0 0 Z M-14.62 7.33 C-16.83 10.01 -16.53 12.42 -16.43 15.77 C-15.75 19.32 -13.83 20.91 -11 23 C-10.34 23 -9.68 23 -9 23 C-9.07 24 -9.14 24.99 -9.22 26.02 C-9.99 37.36 -10.11 48.64 -10 60 C-12.9 57.77 -15.47 55.67 -17.69 52.75 C-18.45 51.84 -19.21 50.94 -20 50 C-20.66 50 -21.32 50 -22 50 C-22.46 49.04 -22.46 49.04 -22.94 48.06 C-23.83 46.06 -23.83 46.06 -25 45 C-24.99 41.99 -24.87 38.99 -24.74 35.98 C-25.03 32.62 -25.64 31.36 -28 29 C-31.73 27.76 -35.13 27.35 -39 28 C-41.98 29.98 -43.63 31.37 -44.44 34.94 C-44.66 38.66 -44.19 40.66 -42.31 43.94 C-39.79 46.19 -38.33 46.72 -35 47 C-34.82 47.8 -34.82 47.8 -34.64 48.62 C-32.44 56.78 -28.81 64.59 -25.26 72.23 C-23.47 76.17 -21.84 80.17 -20.21 84.18 C-18.92 87.18 -17.47 90.08 -16 93 C-15.01 92.96 -14.02 92.93 -13 92.89 C23.26 91.62 23.26 91.62 39 93 C42.79 85.76 45.67 78.3 48.56 70.66 C50.73 65.01 53.1 59.61 55.97 54.27 C57.07 51.85 57.58 49.61 58 47 C59.14 46.85 59.14 46.85 60.31 46.69 C63.22 45.94 64.2 45.34 66 43 C67.21 39.36 67.4 36.82 67 33 C64.49 29.39 62.26 27.75 58 26.94 C54.71 26.7 54.03 26.98 51.06 28.81 C48.97 30.82 48.97 30.82 48 33 C48.11 34.71 48.24 36.42 48.38 38.12 C48.42 42.64 47.9 44.87 44.88 48.25 C43.59 49.51 42.3 50.76 41 52 C39.88 53.3 38.78 54.61 37.69 55.94 C36.11 57.84 35.22 58.89 33 60 C33.01 58.9 33.01 58.9 33.02 57.79 C33.04 54.42 33.05 51.05 33.06 47.69 C33.08 45.97 33.08 45.97 33.09 44.21 C33.11 37.08 32.8 30.09 32 23 C32.62 22.88 33.25 22.76 33.89 22.63 C36.19 22.15 36.19 22.15 37.75 19.94 C39.41 16.04 39.21 13.21 39 9 C38.01 8.67 37.02 8.34 36 8 C36 7.34 36 6.68 36 6 C32.32 3.18 29.6 2.41 25 3 C22.62 4.24 22.62 4.24 21 6 C21 6.66 21 7.32 21 8 C20.34 8 19.68 8 19 8 C17.41 11.17 17.58 14.54 18 18 C18.77 18.99 18.77 18.99 19.56 20 C21.47 22.65 20.98 24.44 20.52 27.57 C19.49 32.35 17.72 36.87 16 41.44 C15.63 42.44 15.26 43.45 14.88 44.48 C12.15 51.85 12.15 51.85 11 53 C8.06 45.73 5.44 38.72 4 31 C3.34 31 2.68 31 2 31 C1.78 29.59 1.57 28.17 1.38 26.75 C1.26 25.96 1.14 25.17 1.02 24.36 C1 21.68 1.63 20.27 3 18 C3.66 18 4.32 18 5 18 C5 15.36 5 12.72 5 10 C4.34 9.67 3.68 9.34 3 9 C2.5 7.52 2.5 7.52 2 6 C-4.7 1.98 -8.69 2.46 -14.62 7.33 Z " fill="#020202" transform="translate(64,15)"/>
<path d="M0 0 C2.88 0 5.75 -0.02 8.63 -0.05 C34.28 -0.13 34.28 -0.13 42.38 7.32 C44.27 11.91 43.38 17.57 43.38 22.32 C16.65 22.32 -10.08 22.32 -37.62 22.32 C-37.62 8.65 -37.62 8.65 -33.74 4.13 C-24.1 -1.46 -10.82 -0.02 0 0 Z " fill="#302A27" transform="translate(72.61767578125,109.684326171875)"/>
<path d="M0 0 C2.88 0 5.75 -0.02 8.63 -0.05 C34.28 -0.13 34.28 -0.13 42.38 7.32 C44.15 11.74 43.38 16.6 43.38 21.32 C31.83 21.32 20.28 21.32 8.38 21.32 C11.67 19.67 13.08 19.04 16.49 18.68 C17.25 18.6 18 18.52 18.78 18.43 C19.55 18.35 20.33 18.27 21.13 18.19 C21.93 18.1 22.72 18.02 23.53 17.93 C25.48 17.72 27.43 17.52 29.38 17.32 C29.38 16.33 29.38 15.34 29.38 14.32 C24.36 12.74 19.62 11.87 14.38 11.32 C13.72 12.31 13.06 13.3 12.38 14.32 C11.39 13.66 10.4 13 9.38 12.32 C10.04 10.34 10.7 8.36 11.38 6.32 C-4.06 6.18 -19.27 6.43 -34.62 8.32 C-34.31 6.44 -34.31 6.44 -33.62 4.32 C-24.52 -1.75 -10.55 -0.02 0 0 Z " fill="#37302D" transform="translate(72.61767578125,109.684326171875)"/>
<path d="M0 0 C2.88 0 5.75 -0.02 8.63 -0.05 C32.61 -0.13 32.61 -0.13 38.69 5.42 C39.25 6.05 39.81 6.67 40.38 7.32 C37.51 8.75 35.63 7.6 32.66 6.81 C28.84 5.98 25.06 6.05 21.16 6.09 C20.3 6.09 19.43 6.09 18.54 6.09 C16.72 6.09 14.91 6.1 13.09 6.11 C10.35 6.13 7.62 6.13 4.88 6.13 C-8.36 6.16 -21.46 6.7 -34.62 8.32 C-34.31 6.44 -34.31 6.44 -33.62 4.32 C-24.52 -1.75 -10.55 -0.02 0 0 Z " fill="#554F4C" transform="translate(72.61767578125,109.684326171875)"/>
<path d="M0 0 C0.33 0.66 0.66 1.32 1 2 C1.99 2.33 2.98 2.66 4 3 C4.45 11.93 4.45 11.93 1 16 C-1.11 16.63 -1.11 16.63 -3 17 C-2.89 17.86 -2.89 17.86 -2.78 18.74 C-1.75 28.15 -1.91 37.55 -2 47 C-2.33 47 -2.66 47 -3 47 C-3 43.04 -3 39.08 -3 35 C-3.66 35 -4.32 35 -5 35 C-5 30.38 -5 25.76 -5 21 C-5.66 21 -6.32 21 -7 21 C-7 18.36 -7 15.72 -7 13 C-6.34 13 -5.68 13 -5 13 C-4.34 11.35 -3.68 9.7 -3 8 C-1.68 8 -0.36 8 1 8 C0.67 5.36 0.34 2.72 0 0 Z " fill="#2F2926" transform="translate(99,21)"/>
<path d="M0 0 C-3.09 2.06 -5.23 2.67 -8.81 3.5 C-12.09 4.28 -15.2 5.07 -18.38 6.19 C-21.36 7.11 -23.89 7.15 -27 7 C-26.69 5.12 -26.69 5.12 -26 3 C-22.48 0.65 -20.56 0.62 -16.38 0.38 C-15.13 0.3 -13.89 0.23 -12.61 0.15 C-8.4 -0.03 -4.22 -0.07 0 0 Z " fill="#635D5A" transform="translate(65,111)"/>
<path d="M0 0 C-0.33 1.98 -0.66 3.96 -1 6 C-1.91 6.29 -2.81 6.58 -3.75 6.88 C-6.32 7.77 -8.61 8.71 -11 10 C-11.25 7.75 -11.25 7.75 -11 5 C-7.68 0.88 -5.32 0 0 0 Z " fill="#3F3835" transform="translate(60,18)"/>
<path d="M0 0 C1.65 0 3.3 0 5 0 C3.86 1.05 3.86 1.05 2.69 2.12 C0.03 4.96 -1.44 7.47 -3 11 C-3.33 11 -3.66 11 -4 11 C-4 8.69 -4 6.38 -4 4 C-3.34 4 -2.68 4 -2 4 C-1.34 2.68 -0.68 1.36 0 0 Z " fill="#56504D" transform="translate(87,19)"/>
<path d="M0 0 C1.32 0.33 2.64 0.66 4 1 C3.57 1.35 3.13 1.7 2.69 2.06 C0.32 4.78 -0.67 7.65 -2 11 C-2.33 11 -2.66 11 -3 11 C-3.37 4.6 -3.37 4.6 -1.5 1.56 C-1 1.05 -0.51 0.53 0 0 Z " fill="#5A5451" transform="translate(23,44)"/>
<path d="M0 0 C-1.38 1.5 -1.38 1.5 -3 3 C-3.66 3 -4.32 3 -5 3 C-5.29 3.8 -5.58 4.61 -5.88 5.44 C-7 8 -7 8 -9 9 C-9.36 5.73 -9.29 4.39 -7.31 1.69 C-4.61 -0.29 -3.27 -0.36 0 0 Z " fill="#595350" transform="translate(58,19)"/>
<path d="M0 0 C0.6 0.21 1.2 0.41 1.81 0.62 C-0.66 2.11 -0.66 2.11 -3.19 3.62 C-1.21 3.62 0.77 3.62 2.81 3.62 C-0.62 5.92 -2.17 5.8 -6.19 5.62 C-5.88 3.75 -5.88 3.75 -5.19 1.62 C-2.19 -0.38 -2.19 -0.38 0 0 Z " fill="#4C4542" transform="translate(44.1875,112.375)"/>
</svg>
