<?xml version="1.0" encoding="UTF-8"?>
<!-- Generator: visioncortex VTracer 0.6.3 -->
<svg version="1.1" xmlns="http://www.w3.org/2000/svg" width="150" height="150">
<path d="M0 0 C1.07 -0.01 1.07 -0.01 2.16 -0.02 C9.57 0 9.57 0 12 2.25 C12.61 5.51 12.61 5.51 12.75 9.38 C12.81 10.66 12.86 11.94 12.92 13.26 C12.95 14.25 12.97 15.23 13 16.25 C13.99 16.25 14.98 16.25 16 16.25 C16.99 11.96 17.98 7.67 19 3.25 C26.79 2.86 31.32 3.22 38 7.25 C38.62 28.59 38.62 28.59 34 36.25 C29.56 40.25 29.56 40.25 27 40.25 C27.33 40.91 27.66 41.57 28 42.25 C28.19 43.62 28.34 44.99 28.46 46.36 C28.54 47.21 28.62 48.06 28.7 48.93 C28.78 49.85 28.86 50.77 28.95 51.71 C29.14 53.65 29.33 55.58 29.52 57.52 C29.83 60.57 30.13 63.63 30.39 66.69 C30.65 69.64 30.95 72.58 31.26 75.52 C31.36 76.89 31.36 76.89 31.47 78.29 C31.89 83 31.89 83 34.59 86.63 C36.34 87.6 38.17 88.43 40 89.25 C46.32 97.23 45 102.27 45 113.25 C15.3 113.25 -14.4 113.25 -45 113.25 C-45 94.51 -45 94.51 -40.57 89.7 C-38.16 87.57 -36.06 86.27 -33 85.25 C-32.85 83.96 -32.71 82.67 -32.56 81.33 C-32.01 76.55 -31.47 71.77 -30.92 66.99 C-30.68 64.92 -30.45 62.84 -30.21 60.77 C-29.88 57.8 -29.53 54.82 -29.19 51.85 C-29.04 50.46 -29.04 50.46 -28.88 49.03 C-28.78 48.17 -28.68 47.31 -28.57 46.42 C-28.49 45.66 -28.4 44.91 -28.31 44.12 C-28 42.25 -28 42.25 -27 40.25 C-27.58 40 -28.16 39.76 -28.75 39.5 C-33.18 37.04 -35.6 34.1 -37 29.25 C-38.33 21.98 -38.1 14.61 -38 7.25 C-31.32 3.22 -26.79 2.86 -19 3.25 C-18.01 7.54 -17.02 11.83 -16 16.25 C-15.01 16.25 -14.02 16.25 -13 16.25 C-12.96 14.77 -12.96 14.77 -12.92 13.26 C-12.84 11.34 -12.84 11.34 -12.75 9.38 C-12.7 8.1 -12.66 6.82 -12.61 5.51 C-12 2.25 -12 2.25 -10.45 0.82 C-6.96 0.01 -3.56 -0.04 0 0 Z " fill="#030202" transform="translate(75,22.75)"/>
<path d="M0 0 C1.28 -0.02 1.28 -0.02 2.58 -0.04 C9.77 -0.05 16.68 0.95 23.75 2.19 C24.41 6.12 25.05 10.06 25.69 14 C25.96 15.62 25.96 15.62 26.24 17.28 C27.85 27.37 28.2 36.79 28.75 47.19 C10.27 47.19 -8.21 47.19 -27.25 47.19 C-26.08 27.37 -26.08 27.37 -24.81 17.94 C-24.69 16.96 -24.57 15.98 -24.44 14.97 C-24.32 14.03 -24.19 13.08 -24.07 12.11 C-23.96 11.28 -23.85 10.45 -23.74 9.6 C-23.2 6.93 -22.42 4.64 -21.25 2.19 C-15.16 -0.86 -6.66 0 0 0 Z " fill="#3F3835" transform="translate(74.25,60.8125)"/>
<path d="M0 0 C2.72 0.01 5.44 0 8.15 -0.01 C36.42 -0.04 36.42 -0.04 43.29 6.73 C46.84 11.53 45.42 15.95 45.42 22.26 C18.69 22.26 -8.04 22.26 -35.58 22.26 C-35.58 10.26 -35.58 10.26 -32.58 5.26 C-24.52 -2.08 -10.18 -0.05 0 0 Z " fill="#443D39" transform="translate(70.577880859375,109.7392578125)"/>
<path d="M0 0 C4.95 0 9.9 0 15 0 C15.81 5.66 16.09 10.37 16 16 C19.63 16 23.26 16 27 16 C26.96 14.97 26.92 13.94 26.88 12.88 C27 9.13 27.65 6.46 29 3 C36.28 2.64 36.28 2.64 39.24 4.13 C41.72 6.77 41.5 8.49 41.44 12.06 C41.26 17.87 40.72 23.77 38 29 C37.01 29.33 36.02 29.66 35 30 C35 30.66 35 31.32 35 32 C30.49 32.85 27.04 32.87 22.47 32.25 C17.23 31.72 11.95 31.86 6.69 31.88 C4.95 31.87 4.95 31.87 3.17 31.86 C-3.2 31.87 -9.4 32.13 -15.73 32.95 C-19.44 33.03 -21.38 31.48 -24 29 C-26.7 24.53 -26.56 19.97 -26.81 14.88 C-26.88 13.96 -26.94 13.04 -27.01 12.09 C-27.05 11.21 -27.1 10.33 -27.14 9.43 C-27.19 8.63 -27.23 7.83 -27.28 7 C-27.19 6.34 -27.1 5.68 -27 5 C-23.8 2.86 -22.98 2.77 -19.31 2.88 C-18.1 2.9 -18.1 2.9 -16.86 2.93 C-15.94 2.96 -15.94 2.96 -15 3 C-14.66 4.42 -14.33 5.83 -14 7.25 C-13.81 8.04 -13.63 8.83 -13.44 9.64 C-13 12 -13 12 -13 16 C-9.37 16 -5.74 16 -2 16 C-2.04 14.47 -2.08 12.95 -2.12 11.38 C-2.25 6.79 -1.57 4.7 0 0 Z " fill="#39322F" transform="translate(68,27)"/>
<path d="M0 0 C1 2 1 2 1 3 C5.62 3.89 7.89 4.12 12 2 C15.25 2.38 15.25 2.38 18 3 C17.67 4.65 17.34 6.3 17 8 C16.01 8 15.02 8 14 8 C14 7.01 14 6.02 14 5 C13.34 5.33 12.68 5.66 12 6 C9.67 6.04 7.33 6.04 5 6 C5 6.66 5 7.32 5 8 C4.01 8 3.02 8 2 8 C2 8.66 2 9.32 2 10 C15.36 10.5 15.36 10.5 29 11 C29 7.7 29 4.4 29 1 C29.33 1 29.66 1 30 1 C30 4.63 30 8.26 30 12 C3.27 12 -23.46 12 -51 12 C-46.5 7.5 -46.5 7.5 -42.25 6.75 C-41.05 6.53 -41.05 6.53 -39.83 6.3 C-39.22 6.2 -38.62 6.1 -38 6 C-38 6.66 -38 7.32 -38 8 C-36.68 7.01 -35.36 6.02 -34 5 C-34 5.66 -34 6.32 -34 7 C-33.01 6.67 -32.02 6.34 -31 6 C-31 5.01 -31 4.02 -31 3 C-27.53 2.5 -27.53 2.5 -24 2 C-24 2.66 -24 3.32 -24 4 C-23.09 3.71 -23.09 3.71 -22.16 3.41 C-5.04 -1.91 -5.04 -1.91 0 0 Z " fill="#37312E" transform="translate(86,120)"/>
<path d="M0 0 C2.72 0.01 5.44 0 8.15 -0.01 C35.89 -0.04 35.89 -0.04 42.42 6.26 C42.42 6.92 42.42 7.58 42.42 8.26 C41.52 8.12 40.62 7.98 39.7 7.83 C28.86 6.29 18.23 5.95 7.3 6 C4.43 6.01 1.56 6 -1.31 5.99 C-12.23 5.98 -22.78 6.56 -33.58 8.26 C-32.21 5.1 -31.59 4.27 -28.58 2.26 C-19.44 -0.61 -9.47 -0.04 0 0 Z " fill="#67615D" transform="translate(70.577880859375,109.7392578125)"/>
<path d="M0 0 C-0.99 3.96 -1.98 7.92 -3 12 C2.48 12.45 2.48 12.45 5 11 C5.66 11.33 6.32 11.66 7 12 C7 12.66 7 13.32 7 14 C4.03 14 1.06 14 -2 14 C-1.67 15.32 -1.34 16.64 -1 18 C-1.33 18.99 -1.66 19.98 -2 21 C-1 20.66 -1 20.66 0.01 20.31 C0.89 20.02 1.78 19.73 2.69 19.44 C3.56 19.15 4.43 18.86 5.32 18.56 C8.25 17.95 10.14 18.22 13 19 C13 18.01 13 17.02 13 16 C13.99 16.33 14.98 16.66 16 17 C14 20 14 20 11.84 20.73 C11.02 20.88 10.21 21.03 9.38 21.19 C8.56 21.35 7.74 21.5 6.9 21.67 C6.27 21.78 5.65 21.89 5 22 C5.66 22.33 6.32 22.66 7 23 C6.67 23.66 6.34 24.32 6 25 C4.35 25 2.7 25 1 25 C1.33 24.34 1.66 23.68 2 23 C0.35 23.33 -1.3 23.66 -3 24 C-5.09 20.87 -5.28 19.93 -5.41 16.33 C-5.45 15.44 -5.49 14.55 -5.53 13.63 C-5.56 12.7 -5.59 11.77 -5.62 10.81 C-5.66 9.87 -5.7 8.93 -5.74 7.96 C-5.84 5.64 -5.92 3.32 -6 1 C-3.92 0.45 -2.16 0 0 0 Z " fill="#413A36" transform="translate(47,31)"/>
<path d="M0 0 C4.75 0.75 4.75 0.75 7 3 C7.2 6.04 7.2 6.04 7.12 9.62 C7.11 10.81 7.09 12 7.07 13.23 C7.05 14.14 7.02 15.06 7 16 C6.67 15.34 6.34 14.68 6 14 C5.01 14.66 4.02 15.32 3 16 C1 15.33 -1 14.67 -3 14 C-3 13.34 -3 12.68 -3 12 C-2.34 11.67 -1.68 11.34 -1 11 C-1.66 10.67 -2.32 10.34 -3 10 C-3 8.35 -3 6.7 -3 5 C-2.01 5.99 -1.02 6.98 0 8 C0.99 7.67 1.98 7.34 3 7 C3 6.01 3 5.02 3 4 C1.68 4 0.36 4 -1 4 C-0.67 2.68 -0.34 1.36 0 0 Z " fill="#282320" transform="translate(102,30)"/>
<path d="M0 0 C10.91 0.35 10.91 0.35 15.25 2.94 C17 5 17 5 17 7 C11.72 6.34 6.44 5.68 1 5 C1.66 4.67 2.32 4.34 3 4 C3 3.34 3 2.68 3 2 C2.01 1.34 1.02 0.68 0 0 Z " fill="#5F5955" transform="translate(96,111)"/>
<path d="M0 0 C-0.31 1.24 -0.62 2.48 -0.94 3.75 C-2.22 9.45 -2.63 15.18 -3 21 C-3.66 21 -4.32 21 -5 21 C-5.33 14.4 -5.66 7.8 -6 1 C-2 0 -2 0 0 0 Z " fill="#655F5C" transform="translate(47,31)"/>
<path d="M0 0 C1.45 0.03 1.45 0.03 2.94 0.06 C2.94 0.72 2.94 1.38 2.94 2.06 C5.58 1.73 8.22 1.4 10.94 1.06 C10.94 2.05 10.94 3.04 10.94 4.06 C7.78 4.66 4.97 5.06 1.75 4.94 C-1.1 4.79 -1.1 4.79 -2.94 6.56 C-3.31 7.06 -3.68 7.55 -4.06 8.06 C-4.1 5.73 -4.1 3.4 -4.06 1.06 C-3.06 0.06 -3.06 0.06 0 0 Z " fill="#3C3532" transform="translate(71.0625,26.9375)"/>
<path d="M0 0 C1.98 0 3.96 0 6 0 C5.01 0.5 5.01 0.5 4 1 C3.32 2.32 2.65 3.66 2 5 C1.34 5.66 0.68 6.32 0 7 C0 4.69 0 2.38 0 0 Z " fill="#645E5B" transform="translate(67,28)"/>
<path d="M0 0 C1.65 0 3.3 0 5 0 C5 0.66 5 1.32 5 2 C3.37 3.38 1.71 4.72 0 6 C0 4.02 0 2.04 0 0 Z " fill="#605956" transform="translate(97,30)"/>
</svg>
