<?xml version="1.0" encoding="UTF-8"?>
<!-- Generator: visioncortex VTracer 0.6.3 -->
<svg version="1.1" xmlns="http://www.w3.org/2000/svg" width="150" height="150">
<path d="M0 0 C3.61 2.6 5.5 5.65 6.3 9.93 C6.06 13.55 4 15.8 1.88 18.64 C-6.5 30.55 -8.43 46.92 -9.84 61.09 C-7.86 61.09 -5.88 61.09 -3.84 61.09 C-3.8 60.16 -3.77 59.23 -3.73 58.27 C-3.02 44.58 -0.59 33.21 6.16 21.09 C14.99 24.67 22.23 35.77 26.16 44.09 C30.85 55.44 32.35 68.3 28.16 80.09 C26.15 84.65 23.93 88.94 21.16 93.09 C22.05 93.45 22.05 93.45 22.95 93.82 C33.71 98.39 33.71 98.39 36.97 104.46 C38.16 109.09 38.16 109.09 38.16 123.09 C8.46 123.09 -21.24 123.09 -51.84 123.09 C-51.84 104.16 -51.84 104.16 -46.15 98.34 C-42.69 95.7 -38.95 94.44 -34.84 93.09 C-35.24 92.5 -35.64 91.9 -36.05 91.29 C-43.62 79.44 -46.01 66.59 -43.15 52.75 C-38.96 39.14 -30.05 27.79 -19.84 18.09 C-20.17 17.43 -20.5 16.77 -20.84 16.09 C-21.41 11.45 -21.26 7.96 -19.21 3.71 C-13.82 -2.25 -7.26 -3.59 0 0 Z " fill="#070606" transform="translate(80.83984375,12.91015625)"/>
<path d="M0 0 C3 1.69 3 1.69 5 4 C5.62 6.38 5.62 6.38 5 9 C3.82 10.35 2.63 11.7 1.43 13.03 C-4.51 21.19 -6.19 32.3 -8 42 C-8.18 42.8 -8.36 43.6 -8.54 44.42 C-9.15 47.87 -9.36 51.32 -9.56 54.81 C-9.61 55.51 -9.65 56.2 -9.69 56.91 C-9.8 58.61 -9.9 60.3 -10 62 C-5.38 62 -0.76 62 4 62 C3.94 60.54 3.88 59.07 3.81 57.56 C3.83 46.34 5.74 34.97 11 25 C14.85 26.28 15.98 28.1 18.5 31.25 C19.27 32.2 20.05 33.16 20.84 34.14 C27.46 42.92 29.52 51.04 29.44 61.94 C29.46 62.86 29.48 63.79 29.5 64.74 C29.49 72.99 27.52 80.65 22 87 C21.34 87 20.68 87 20 87 C19.34 88.32 18.68 89.64 18 91 C12.13 91.17 6.26 91.3 0.39 91.38 C-1.61 91.42 -3.61 91.47 -5.6 91.53 C-8.48 91.61 -11.35 91.65 -14.23 91.68 C-15.56 91.74 -15.56 91.74 -16.92 91.79 C-23 91.8 -23 91.8 -25.88 89.51 C-29.01 85.94 -31.1 82.25 -32.81 77.81 C-33.21 76.81 -33.61 75.8 -34.02 74.77 C-37.82 64.04 -36.99 53.26 -32.48 42.93 C-28.54 35.12 -23.35 28.05 -17 22 C-16.34 22 -15.68 22 -15 22 C-14.67 21.01 -14.34 20.02 -14 19 C-13.01 18.34 -12.02 17.68 -11 17 C-11.14 16.48 -11.29 15.97 -11.44 15.44 C-13.41 6.9 -13.41 6.9 -11.69 3.12 C-8.58 -0.79 -4.71 -0.65 0 0 Z " fill="#DECEBA" transform="translate(77,16)"/>
<path d="M0 0 C2.22 0.01 4.45 0 6.67 -0.01 C14.19 -0.02 21.67 0.25 29.15 0.96 C30.19 1.04 30.19 1.04 31.25 1.12 C36.68 1.73 39.15 3.56 42.92 7.26 C46.04 12.21 44.92 15.87 44.92 22.26 C17.86 22.26 -9.2 22.26 -37.08 22.26 C-37.08 9.67 -37.08 9.67 -34.08 6.26 C-25.5 -1.65 -11.1 -0.06 0 0 Z " fill="#E4D4C0" transform="translate(70.075927734375,109.7392578125)"/>
<path d="M0 0 C3.83 1.28 5.06 3.09 7.62 6.19 C8.42 7.13 9.22 8.07 10.04 9.04 C15.23 16.87 13.72 29.91 13 39 C12.19 42.67 11.28 45.98 9 49 C8.01 49.33 7.02 49.66 6 50 C5.71 50.58 5.42 51.16 5.12 51.75 C2.77 56.46 -1.76 59.98 -6 63 C-6.99 63 -7.98 63 -9 63 C-9 63.66 -9 64.32 -9 65 C-11.52 65.03 -14.04 65.05 -16.56 65.06 C-17.27 65.07 -17.97 65.08 -18.7 65.09 C-23.24 65.11 -27.52 64.75 -32 64 C-31.34 63.34 -30.68 62.68 -30 62 C-30.93 61.81 -30.93 61.81 -31.88 61.62 C-34 61 -34 61 -36 59 C-37.32 58.3 -38.65 57.63 -40 57 C-39.34 57 -38.68 57 -38 57 C-38 56.34 -38 55.68 -38 55 C-36.68 55.33 -35.36 55.66 -34 56 C-34 55.01 -34 54.02 -34 53 C-31.03 52.01 -28.06 51.02 -25 50 C-26.65 49.34 -28.3 48.68 -30 48 C-29.67 48.99 -29.34 49.98 -29 51 C-31.97 51.5 -31.97 51.5 -35 52 C-34.67 50.68 -34.34 49.36 -34 48 C-35.98 48 -37.96 48 -40 48 C-39.67 47.34 -39.34 46.68 -39 46 C-39.64 45.79 -40.28 45.59 -40.94 45.38 C-43 44 -43 44 -43.75 40.88 C-43.83 39.93 -43.91 38.98 -44 38 C-42.52 37.5 -42.52 37.5 -41 37 C-36.42 40.16 -36.42 40.16 -35 43 C-34.01 42.5 -34.01 42.5 -33 42 C-31.67 43.33 -30.33 44.67 -29 46 C-28.5 45.5 -28.5 45.5 -28 45 C-28 44.67 -28 44.34 -28 44 C-26.35 44 -24.7 44 -23 44 C-23.19 43.38 -23.37 42.76 -23.56 42.12 C-24 40 -24 40 -23 38 C-17.39 38 -11.78 38 -6 38 C-6.03 36.68 -6.07 35.37 -6.11 34.01 C-6.34 21.54 -5.33 11.41 0 0 Z " fill="#DFCFBA" transform="translate(88,41)"/>
<path d="M0 0 C2.22 0.01 4.45 0 6.67 -0.01 C14.19 -0.02 21.67 0.25 29.15 0.96 C30.19 1.04 30.19 1.04 31.25 1.12 C36.68 1.73 39.15 3.56 42.92 7.26 C46.04 12.21 44.92 15.87 44.92 22.26 C17.86 22.26 -9.2 22.26 -37.08 22.26 C-37.08 9.67 -37.08 9.67 -34.08 6.26 C-25.5 -1.65 -11.1 -0.06 0 0 Z M-12.08 1.26 C-12.41 2.58 -12.74 3.9 -13.08 5.26 C-9.12 5.59 -5.16 5.92 -1.08 6.26 C-0.75 7.25 -0.42 8.24 -0.08 9.26 C-3.05 8.77 -3.05 8.77 -6.08 8.26 C-5.75 9.58 -5.42 10.9 -5.08 12.26 C-5.74 12.26 -6.4 12.26 -7.08 12.26 C-7.08 12.92 -7.08 13.58 -7.08 14.26 C-6.09 14.26 -5.1 14.26 -4.08 14.26 C-6.06 14.92 -8.04 15.58 -10.08 16.26 C-10.41 15.27 -10.74 14.28 -11.08 13.26 C-11.41 14.58 -11.74 15.9 -12.08 17.26 C-6.63 19.08 -0.61 18.69 4.92 17.26 C4.92 18.25 4.92 19.24 4.92 20.26 C2.61 20.26 0.3 20.26 -2.08 20.26 C-2.08 20.59 -2.08 20.92 -2.08 21.26 C13.1 21.26 28.28 21.26 43.92 21.26 C44.35 14 44.35 14 42.92 10.26 C42.26 10.26 41.6 10.26 40.92 10.26 C40.92 9.6 40.92 8.94 40.92 8.26 C38.28 7.93 35.64 7.6 32.92 7.26 C32.92 6.6 32.92 5.94 32.92 5.26 C31.6 5.26 30.28 5.26 28.92 5.26 C28.92 4.27 28.92 3.28 28.92 2.26 C27.04 2.23 27.04 2.23 25.11 2.2 C24.4 2.19 23.7 2.18 22.97 2.16 C20.72 2.18 20.72 2.18 17.92 3.26 C17.92 2.6 17.92 1.94 17.92 1.26 C8.02 1.26 -1.88 1.26 -12.08 1.26 Z " fill="#C8BAA8" transform="translate(70.075927734375,109.7392578125)"/>
<path d="M0 0 C4.35 3.89 5.65 8.94 6.3 14.63 C6.44 17.41 6.46 20.16 6.44 22.94 C6.47 24.32 6.47 24.32 6.5 25.74 C6.49 33.99 4.52 41.65 -1 48 C-1.66 48 -2.32 48 -3 48 C-3.66 49.32 -4.32 50.64 -5 52 C-16.22 52 -27.44 52 -39 52 C-39 51.67 -39 51.34 -39 51 C-33.06 51 -27.12 51 -21 51 C-21 50.34 -21 49.68 -21 49 C-19.91 48.4 -18.81 47.8 -17.69 47.19 C-15.06 45.7 -13.09 44.2 -11 42 C-10.34 42 -9.68 42 -9 42 C-8.75 41.44 -8.5 40.89 -8.25 40.31 C-7 38 -7 38 -5.06 35.75 C0.53 28.29 0.39 20.98 0.19 12 C0.17 10.84 0.16 9.69 0.15 8.5 C0.11 5.66 0.06 2.83 0 0 Z " fill="#ADA091" transform="translate(100,55)"/>
<path d="M0 0 C1.45 0.03 1.45 0.03 2.94 0.06 C2.94 1.38 2.94 2.7 2.94 4.06 C1.95 4.39 0.96 4.72 -0.06 5.06 C-0.64 8.07 -1.12 10.99 -1.06 14.06 C0.7 16.21 0.7 16.21 2.94 17.06 C2.61 17.72 2.28 18.38 1.94 19.06 C-4.66 19.06 -11.26 19.06 -18.06 19.06 C-18.06 7.68 -18.06 7.68 -17.06 5.06 C-14.62 3.19 -14.62 3.19 -12.06 2.06 C-11.4 2.39 -10.74 2.72 -10.06 3.06 C-10.06 3.39 -10.06 3.72 -10.06 4.06 C-8.74 3.73 -7.42 3.4 -6.06 3.06 C-7.05 2.4 -8.04 1.74 -9.06 1.06 C-7.86 1.09 -7.86 1.09 -6.62 1.12 C-3.41 1.05 -3.4 0.07 0 0 Z " fill="#E2D2BE" transform="translate(52.0625,111.9375)"/>
<path d="M0 0 C0 3.02 -0.52 5.06 -1.38 7.94 C-4.42 18.89 -5.37 29.7 -6 41 C-1.38 41 3.24 41 8 41 C8 37.37 8 33.74 8 30 C8.33 30 8.66 30 9 30 C9 33.96 9 37.92 9 42 C3.72 42 -1.56 42 -7 42 C-9.46 36.26 -10.5 33.02 -10.38 27.12 C-10.37 26.42 -10.36 25.72 -10.35 24.99 C-10.08 15.96 -7.05 8.46 -2 1 C-1.34 0.67 -0.68 0.34 0 0 Z " fill="#A09587" transform="translate(73,37)"/>
<path d="M0 0 C7.14 -0.48 7.14 -0.48 11 1.69 C13 4 13 4 13.62 6.38 C12.89 9.48 11.37 11.12 9.25 13.44 C7.42 15.73 6.73 18.2 6 21 C4.75 17.45 5.28 15.28 6.44 11.75 C6.72 10.86 7.01 9.97 7.31 9.05 C7.65 8.03 7.65 8.03 8 7 C7.01 6.67 6.02 6.34 5 6 C5 4.68 5 3.36 5 2 C4.01 2.66 3.02 3.32 2 4 C2 3.01 2 2.02 2 1 C1.34 0.67 0.68 0.34 0 0 Z " fill="#D7C7B4" transform="translate(69,16)"/>
<path d="M0 0 C0.33 0 0.66 0 1 0 C1 1.65 1 3.3 1 5 C1.66 5.33 2.32 5.66 3 6 C2.01 6 1.02 6 0 6 C0.33 7.98 0.66 9.96 1 12 C1.99 10.68 2.98 9.36 4 8 C4 8.66 4 9.32 4 10 C4.66 10 5.32 10 6 10 C6.33 11.32 6.66 12.64 7 14 C5.68 14 4.36 14 3 14 C2.67 15.65 2.34 17.3 2 19 C1.01 19 0.02 19 -1 19 C-1.03 16.58 -1.05 14.17 -1.06 11.75 C-1.07 11.07 -1.08 10.39 -1.09 9.68 C-1.1 6.31 -1.06 3.23 0 0 Z " fill="#C0B3A2" transform="translate(42,65)"/>
<path d="M0 0 C-2.33 1.21 -4.5 2.17 -7 3 C-7 3.99 -7 4.98 -7 6 C-8.98 6 -10.96 6 -13 6 C-13 5.34 -13 4.68 -13 4 C-14.98 4.99 -14.98 4.99 -17 6 C-11.3 -0.18 -8.03 -0.13 0 0 Z " fill="#D9CDBC" transform="translate(53,111)"/>
<path d="M0 0 C3 2 3 2 3.5 4.25 C2.91 7.51 1.45 9.04 -0.75 11.44 C-2.58 13.73 -3.27 16.2 -4 19 C-5.03 16.21 -5.05 15.13 -4.06 12.25 C-3.71 11.51 -3.36 10.77 -3 10 C-2.34 10 -1.68 10 -1 10 C-0.67 6.7 -0.34 3.4 0 0 Z " fill="#9F9386" transform="translate(79,18)"/>
<path d="M0 0 C3 3 3 3 3.19 6.19 C3.09 7.58 3.09 7.58 3 9 C2.01 9.5 2.01 9.5 1 10 C0.67 6.7 0.34 3.4 0 0 Z " fill="#9F9486" transform="translate(100,55)"/>
<path d="M0 0 C-4.74 2.37 -6.64 3.05 -12 2 C-8.1 -0.6 -4.53 -0.15 0 0 Z " fill="#B5A99A" transform="translate(53,111)"/>
</svg>
