<?xml version="1.0" encoding="UTF-8"?>
<!-- Generator: visioncortex VTracer 0.6.3 -->
<svg version="1.1" xmlns="http://www.w3.org/2000/svg" width="150" height="150">
<path d="M0 0 C3.31 -0.03 6.62 -0.05 9.94 -0.06 C10.88 -0.07 11.83 -0.08 12.8 -0.09 C14.15 -0.09 14.15 -0.09 15.53 -0.1 C16.78 -0.11 16.78 -0.11 18.05 -0.11 C20 0 20 0 21 1 C21.14 4 21.04 6.99 21 10 C23.97 10 26.94 10 30 10 C30 16.6 30 23.2 30 30 C26.04 30.49 26.04 30.49 22 31 C22.5 31.99 22.5 31.99 23 33 C23.86 32.78 24.71 32.57 25.6 32.34 C37.6 29.42 46.87 29.1 57.75 35.56 C63.45 39.59 66.82 45.45 69 52 C69.72 62.49 69.82 71.01 62.98 79.52 C59.52 83.45 55.87 87.15 52.12 90.81 C49.56 93.32 47.66 95.79 46 99 C46.93 99.52 47.86 100.03 48.81 100.56 C52.99 102.89 52.79 104.85 55 110 C55 115.28 55 120.56 55 126 C25.3 126 -4.4 126 -35 126 C-35 107.18 -35 107.18 -29 101 C-27.52 100.01 -27.52 100.01 -26 99 C-27.58 95.07 -30.15 92.71 -33.19 89.81 C-42.01 81.16 -48.92 73.43 -49.38 60.56 C-49.07 51.74 -47.01 45.09 -40.81 38.68 C-34.62 32.92 -27.43 30.06 -18.94 29.97 C-12.82 30.41 -6.95 31.51 -1 33 C-1 32.01 -1 31.02 -1 30 C-3.97 30 -6.94 30 -10 30 C-10 23.4 -10 16.8 -10 10 C-6.7 10 -3.4 10 0 10 C0 6.7 0 3.4 0 0 Z M-19 60 C-18.57 65.17 -17.12 67.54 -13.56 71.25 C-12.76 72.1 -11.96 72.95 -11.13 73.83 C-9.76 75.23 -8.38 76.62 -7 78 C-6.01 78 -5.02 78 -4 78 C-4 72.06 -4 66.12 -4 60 C-11.96 55.91 -11.96 55.91 -19 60 Z M25 60 C25 65.94 25 71.88 25 78 C26.32 77.67 27.64 77.34 29 77 C29 76.34 29 75.68 29 75 C29.66 75 30.32 75 31 75 C33.32 72.71 33.32 72.71 35.69 69.81 C36.52 68.85 37.35 67.89 38.2 66.89 C40.25 64.18 40.25 64.18 39.96 61.26 C39.11 58.67 39.11 58.67 36 57 C31.15 56.34 29.84 57.58 25 60 Z " fill="#070605" transform="translate(65,10)"/>
<path d="M0 0 C3.96 0 7.92 0 12 0 C12 3.3 12 6.6 12 10 C15.3 10 18.6 10 22 10 C22 13.96 22 17.92 22 22 C18.7 22 15.4 22 12 22 C12.5 22.99 12.5 22.99 13 24 C13.07 25.71 13.08 27.42 13.06 29.12 C13.05 30.04 13.04 30.95 13.04 31.88 C13.02 32.58 13.01 33.28 13 34 C12.34 34 11.68 34 11 34 C11 34.66 11 35.32 11 36 C13.31 36 15.62 36 18 36 C17.5 36.99 17.5 36.99 17 38 C18.98 38.33 20.96 38.66 23 39 C23 39.66 23 40.32 23 41 C19.7 41.99 16.4 42.98 13 44 C13 45.65 13 47.3 13 49 C11.68 48.67 10.36 48.34 9 48 C9 48.66 9 49.32 9 50 C8.34 50 7.68 50 7 50 C7 50.66 7 51.32 7 52 C6.01 52 5.02 52 4 52 C3.67 53.65 3.34 55.3 3 57 C0.03 57.5 0.03 57.5 -3 58 C-3.12 54.62 -3.12 54.62 -3 51 C-2.34 50.34 -1.68 49.68 -1 49 C-1.99 48.51 -1.99 48.51 -3 48 C-3.5 48.99 -3.5 48.99 -4 50 C-5.25 49.95 -6.51 49.91 -7.8 49.86 C-9.45 49.82 -11.1 49.79 -12.75 49.75 C-13.99 49.7 -13.99 49.7 -15.25 49.65 C-20.21 49.54 -20.21 49.54 -24.53 51.79 C-26.26 54.39 -26.86 56.51 -26.72 59.64 C-25.09 64.97 -20.74 69.02 -17 73 C-16.35 73.75 -15.7 74.51 -15.03 75.28 C-11.46 78.31 -7.56 77.76 -3 78 C-3 72.06 -3 66.12 -3 60 C-2.01 60.5 -2.01 60.5 -1 61 C-0.67 61.99 -0.34 62.98 0 64 C0.5 63.01 0.5 63.01 1 62 C3.94 61.59 3.94 61.59 7.56 61.38 C8.76 61.3 9.96 61.23 11.19 61.15 C12.12 61.1 13.05 61.05 14 61 C13.79 60.38 13.59 59.76 13.38 59.12 C13.25 58.42 13.13 57.72 13 57 C13.66 56.34 14.32 55.68 15 55 C15 57.97 15 60.94 15 64 C11.53 64.5 11.53 64.5 8 65 C8 66.32 8 67.64 8 69 C11 69.33 11 69.33 12.69 67.5 C13.12 67 13.55 66.51 14 66 C15.5 70.49 14.55 74.32 14 79 C17.96 79 21.92 79 26 79 C26.66 77.35 27.32 75.7 28 74 C29.84 71.94 29.84 71.94 31.94 70 C37.14 65.22 37.14 65.22 39.17 58.7 C39.19 56.45 39.13 54.24 39 52 C35.08 50.34 31.11 49.13 27 48 C27.5 47.01 27.5 47.01 28 46 C29.65 46.33 31.3 46.66 33 47 C33 46.34 33 45.68 33 45 C31.68 45 30.36 45 29 45 C29 44.01 29 43.02 29 42 C30.98 41.67 32.96 41.34 35 41 C35 40.34 35 39.68 35 39 C34.01 39.49 34.01 39.49 33 40 C30.67 40.04 28.33 40.04 26 40 C26 39.34 26 38.68 26 38 C26.99 38 27.98 38 29 38 C29 37.34 29 36.68 29 36 C28.34 35.67 27.68 35.34 27 35 C27.66 34.01 28.32 33.02 29 32 C31.65 31.64 33.97 31.48 36.62 31.5 C37.71 31.51 37.71 31.51 38.83 31.52 C45.88 31.75 49.79 33.77 54.73 38.75 C60.69 45.33 61.57 50.46 61.29 59.32 C60.49 69.48 53.17 75.46 46.44 82.48 C44.52 84.51 42.66 86.59 40.81 88.69 C40.28 89.29 39.75 89.89 39.21 90.51 C37.91 92 37.91 92 37 94 C29.17 94.21 21.34 94.37 13.5 94.47 C9.86 94.51 6.23 94.58 2.59 94.68 C-0.92 94.78 -4.44 94.83 -7.95 94.85 C-9.94 94.88 -11.92 94.95 -13.91 95.02 C-22.8 95.02 -22.8 95.02 -26.28 92.06 C-28.13 89.66 -28.13 89.66 -29.57 87.27 C-31.11 84.82 -32.74 83.34 -35 81.56 C-41.8 75.87 -48.12 67.41 -49.35 58.48 C-49.74 51.3 -48.15 45.87 -44 40 C-39.08 34.64 -34.58 31.28 -27.18 30.7 C-25.74 30.68 -24.31 30.68 -22.88 30.69 C-22.13 30.69 -21.38 30.69 -20.61 30.69 C-14.35 30.8 -8.95 31.99 -3 34 C-1.52 28.06 -1.52 28.06 0 22 C-3.3 22 -6.6 22 -10 22 C-10 18.04 -10 14.08 -10 10 C-6.7 10 -3.4 10 0 10 C0 6.7 0 3.4 0 0 Z " fill="#E2D2BD" transform="translate(69,14)"/>
<path d="M0 0 C2.6 -0 5.21 -0.02 7.81 -0.04 C33 -0.13 33 -0.13 40.24 6.19 C43.24 10.19 43.24 10.19 43.24 22.19 C16.51 22.19 -10.22 22.19 -37.76 22.19 C-37.76 10.19 -37.76 10.19 -36.2 6.62 C-27.24 -2.33 -11.69 -0 0 0 Z " fill="#E0D0BB" transform="translate(72.7578125,109.814697265625)"/>
<path d="M0 0 C1.46 2.65 2 3.89 2 7 C2.68 6.71 3.36 6.42 4.06 6.12 C12.92 2.73 20.69 2.57 30 3 C30 3.33 30 3.66 30 4 C25.38 4.33 20.76 4.66 16 5 C16 5.99 16 6.98 16 8 C16 8.66 16 9.32 16 10 C15.01 10 14.02 10 13 10 C13 10.66 13 11.32 13 12 C17.45 11.5 17.45 11.5 22 11 C22 11.66 22 12.32 22 13 C21.01 13 20.02 13 19 13 C18.67 13.66 18.34 14.32 18 15 C17.34 14.67 16.68 14.34 16 14 C16 14.99 16 15.98 16 17 C17.32 17 18.64 17 20 17 C20 17.66 20 18.32 20 19 C18.35 19 16.7 19 15 19 C15.89 19.27 16.77 19.54 17.69 19.81 C25.26 22.53 25.26 22.53 27 26 C27.65 30.62 27.17 33.26 24.44 36.94 C23.31 38.31 22.17 39.66 21 41 C20.05 42.1 20.05 42.1 19.08 43.21 C17.87 44.6 16.65 45.97 15.42 47.34 C13.92 48.96 13.92 48.96 13 51 C9.04 51 5.08 51 1 51 C1 47.37 1 43.74 1 40 C-0.32 40.66 -1.64 41.32 -3 42 C-3.99 41.01 -4.98 40.02 -6 39 C-5.67 38.01 -5.34 37.02 -5 36 C-2.69 36 -0.38 36 2 36 C1.5 33.03 1.5 33.03 1 30 C1 30.99 1 31.98 1 33 C-5.44 33.5 -5.44 33.5 -12 34 C-12.33 34.99 -12.66 35.98 -13 37 C-14.48 34.53 -14.48 34.53 -16 32 C-16 37.94 -16 43.88 -16 50 C-24.58 50.95 -24.58 50.95 -28.23 48.5 C-30.32 46.43 -32.17 44.29 -34 42 C-34.9 40.99 -34.9 40.99 -35.83 39.97 C-38.57 36.74 -40.39 34.12 -40.69 29.81 C-40 26 -40 26 -38.31 23 C-31.99 19.18 -24 20.41 -17 22 C-16.67 21.01 -16.34 20.02 -16 19 C-15.01 19.99 -14.02 20.98 -13 22 C-13.99 22.33 -14.98 22.66 -16 23 C-15.67 23.99 -15.34 24.98 -15 26 C-15.44 28.19 -15.44 28.19 -16 30 C-14.02 29.67 -12.04 29.34 -10 29 C-10 26.69 -10 24.38 -10 22 C-9.67 22.66 -9.34 23.32 -9 24 C-8.01 24 -7.02 24 -6 24 C-6 23.34 -6 22.68 -6 22 C-5.34 22 -4.68 22 -4 22 C-4 21.34 -4 20.68 -4 20 C-3.01 20 -2.02 20 -1 20 C-0.67 18.68 -0.34 17.36 0 16 C-0.66 15.67 -1.32 15.34 -2 15 C-0.76 14.67 0.47 14.34 1.75 14 C2.45 13.81 3.14 13.63 3.86 13.44 C6 13 6 13 10 13 C10 12.34 10 11.68 10 11 C9.4 11.21 8.8 11.41 8.19 11.62 C6 12 6 12 3 10 C3.33 9.67 3.66 9.34 4 9 C2.02 8.67 0.04 8.34 -2 8 C-2 7.34 -2 6.68 -2 6 C-1.34 6 -0.68 6 0 6 C0 4.02 0 2.04 0 0 Z M-36 28 C-35.57 33.17 -34.12 35.54 -30.56 39.25 C-29.76 40.1 -28.96 40.95 -28.13 41.83 C-26.76 43.23 -25.38 44.62 -24 46 C-23.01 46 -22.02 46 -21 46 C-21 40.06 -21 34.12 -21 28 C-28.96 23.91 -28.96 23.91 -36 28 Z M8 28 C8 33.94 8 39.88 8 46 C9.32 45.67 10.64 45.34 12 45 C12 44.34 12 43.68 12 43 C12.66 43 13.32 43 14 43 C16.32 40.71 16.32 40.71 18.69 37.81 C19.52 36.85 20.35 35.89 21.2 34.89 C23.25 32.18 23.25 32.18 22.96 29.26 C22.11 26.67 22.11 26.67 19 25 C14.15 24.34 12.84 25.58 8 28 Z " fill="#DECEB9" transform="translate(82,42)"/>
<path d="M0 0 C2.65 -0.36 4.97 -0.52 7.62 -0.5 C8.71 -0.49 8.71 -0.49 9.82 -0.49 C15.61 -0.3 19.8 0.79 24 5 C27.01 8.67 27.33 11.31 27 16 C24.69 16.66 22.38 17.32 20 18 C20.33 19.65 20.66 21.3 21 23 C17.37 22.67 13.74 22.34 10 22 C10 21.34 10 20.68 10 20 C6.08 18.34 2.11 17.13 -2 16 C-1.67 15.34 -1.34 14.68 -1 14 C0.65 14.33 2.3 14.66 4 15 C4 14.34 4 13.68 4 13 C2.68 13 1.36 13 0 13 C0 12.01 0 11.02 0 10 C1.98 9.67 3.96 9.34 6 9 C6 8.34 6 7.68 6 7 C5.01 7.49 5.01 7.49 4 8 C1.67 8.04 -0.67 8.04 -3 8 C-3 7.34 -3 6.68 -3 6 C-2.01 6 -1.02 6 0 6 C0 5.34 0 4.68 0 4 C-0.66 3.67 -1.32 3.34 -2 3 C-1.34 2.01 -0.68 1.02 0 0 Z " fill="#E2D2BD" transform="translate(98,46)"/>
<path d="M0 0 C5.07 6.61 4.55 12.94 4 21 C2.4 28.85 -5.22 34.91 -10.56 40.48 C-12.48 42.51 -14.34 44.59 -16.19 46.69 C-16.72 47.29 -17.25 47.89 -17.79 48.51 C-19.09 50 -19.09 50 -20 52 C-36.83 51.67 -53.66 51.34 -71 51 C-71 50.67 -71 50.34 -71 50 C-58.46 49.67 -45.92 49.34 -33 49 C-33 47.35 -33 45.7 -33 44 C-30.38 42.8 -28.47 41.99 -25.56 42.06 C-19.51 41.91 -15.99 38.1 -12 34 C-11.28 33.65 -10.56 33.3 -9.81 32.94 C-7.39 31.68 -7.14 30.47 -6 28 C-4.74 26.2 -3.44 24.44 -2.12 22.68 C-0.16 19.74 0.12 17.2 0.1 13.77 C0.09 12.97 0.09 12.16 0.09 11.34 C0.08 10.5 0.07 9.67 0.06 8.81 C0.06 7.97 0.05 7.12 0.05 6.25 C0.04 4.17 0.02 2.08 0 0 Z " fill="#ADA191" transform="translate(126,56)"/>
<path d="M0 0 C4 4 4 4 4 16 C-22.73 16 -49.46 16 -77 16 C-77 15.67 -77 15.34 -77 15 C-58.52 15 -40.04 15 -21 15 C-20.67 12.69 -20.34 10.38 -20 8 C-15.25 6.88 -15.25 6.88 -13 8 C-13 8.66 -13 9.32 -13 10 C-12.34 10 -11.68 10 -11 10 C-11.5 6.53 -11.5 6.53 -12 3 C-11.34 3 -10.68 3 -10 3 C-10 2.34 -10 1.68 -10 1 C-5.05 1.5 -5.05 1.5 0 2 C0 1.34 0 0.68 0 0 Z " fill="#C8B9A6" transform="translate(112,116)"/>
<path d="M0 0 C2.73 2.22 2.95 3.24 3.44 6.75 C2.83 12.12 0.44 14.61 -3 18.62 C-3.6 19.45 -4.21 20.28 -4.83 21.13 C-5.78 22.37 -5.78 22.37 -6.75 23.62 C-7.32 24.39 -7.89 25.15 -8.48 25.94 C-12.41 28.57 -16.41 27.94 -21 27.62 C-21.17 23.71 -21.28 19.79 -21.38 15.88 C-21.43 14.76 -21.48 13.65 -21.53 12.51 C-21.58 9.44 -21.57 6.64 -21 3.62 C-15.35 -1.76 -7.14 -3.27 0 0 Z M-16 5.62 C-16 11.56 -16 17.5 -16 23.62 C-14.68 23.3 -13.36 22.97 -12 22.62 C-12 21.97 -12 21.31 -12 20.62 C-11.34 20.62 -10.68 20.62 -10 20.62 C-7.68 18.34 -7.68 18.34 -5.31 15.44 C-4.48 14.47 -3.65 13.51 -2.8 12.52 C-0.75 9.81 -0.75 9.81 -1.04 6.89 C-1.89 4.3 -1.89 4.3 -5 2.62 C-9.85 1.97 -11.16 3.2 -16 5.62 Z " fill="#0E0D0C" transform="translate(106,64.375)"/>
<path d="M0 0 C3.19 1.2 6.56 2.56 9 5 C9.09 6.78 9.11 8.56 9.1 10.35 C9.09 11.43 9.09 12.51 9.09 13.62 C9.08 14.76 9.07 15.89 9.06 17.06 C9.06 18.2 9.05 19.34 9.05 20.52 C9.04 23.35 9.02 26.17 9 29 C0.9 29.55 0.9 29.55 -2.42 27.53 C-3 26.86 -3.59 26.19 -4.19 25.5 C-4.83 24.77 -5.47 24.04 -6.14 23.28 C-7.06 22.15 -7.06 22.15 -8 21 C-8.6 20.33 -9.21 19.66 -9.83 18.97 C-12.57 15.73 -14.39 13.12 -14.69 8.81 C-14 5 -14 5 -12.06 2 C-7.91 -0.71 -4.83 -0.9 0 0 Z M-10 7 C-9.57 12.17 -8.12 14.54 -4.56 18.25 C-3.76 19.1 -2.96 19.95 -2.13 20.83 C-0.76 22.23 0.62 23.62 2 25 C2.99 25 3.98 25 5 25 C5 19.06 5 13.12 5 7 C-2.96 2.91 -2.96 2.91 -10 7 Z " fill="#090807" transform="translate(56,63)"/>
<path d="M0 0 C3.3 0 6.6 0 10 0 C10 0.33 10 0.66 10 1 C7.03 1 4.06 1 1 1 C1 4.3 1 7.6 1 11 C6.61 11 12.22 11 18 11 C18 11.66 18 12.32 18 13 C17.01 13.66 16.02 14.32 15 15 C15.5 16.98 15.5 16.98 16 19 C13.69 19.33 11.38 19.66 9 20 C9.57 23.93 9.57 23.93 12 27 C11.34 27.66 10.68 28.32 10 29 C9.01 29 8.02 29 7 29 C7 29.66 7 30.32 7 31 C6.01 31.33 5.02 31.66 4 32 C3.51 29.52 3.51 29.52 3 27 C2.01 27 1.02 27 0 27 C-0.33 28.32 -0.66 29.64 -1 31 C-2.32 31 -3.64 31 -5 31 C-5.33 30.01 -5.66 29.02 -6 28 C-4.56 25.81 -4.56 25.81 -3 24 C-3.99 24 -4.98 24 -6 24 C-6 23.34 -6 22.68 -6 22 C-10.95 22 -15.9 22 -21 22 C-21 21.67 -21 21.34 -21 21 C-11.08 20.69 -2.53 20.78 7 24 C7.99 20.04 8.98 16.08 10 12 C6.7 12 3.4 12 0 12 C0 8.04 0 4.08 0 0 Z " fill="#C8BBA9" transform="translate(59,24)"/>
<path d="M0 0 C3.96 0 7.92 0 12 0 C12 3.3 12 6.6 12 10 C15.3 10 18.6 10 22 10 C22 13.96 22 17.92 22 22 C18.7 22 15.4 22 12 22 C11.67 21.34 11.34 20.68 11 20 C11.99 19.01 12.98 18.02 14 17 C13.01 16.67 12.02 16.34 11 16 C10.34 15.67 9.68 15.34 9 15 C9 13.35 9 11.7 9 10 C9.66 10 10.32 10 11 10 C11 7.03 11 4.06 11 1 C7.7 1 4.4 1 1 1 C1 3.97 1 6.94 1 10 C0.67 10 0.34 10 0 10 C0 6.7 0 3.4 0 0 Z " fill="#D3C6B3" transform="translate(69,14)"/>
<path d="M0 0 C0.99 0.33 1.98 0.66 3 1 C1.33 2.67 -0.33 4.33 -2 6 C-2.51 6.71 -3.03 7.42 -3.56 8.15 C-7.38 11.05 -11.13 10.5 -15.8 10.39 C-16.75 10.38 -17.69 10.38 -18.67 10.37 C-21.7 10.35 -24.72 10.3 -27.75 10.25 C-29.8 10.23 -31.86 10.21 -33.91 10.2 C-38.94 10.15 -43.97 10.08 -49 10 C-49 9.67 -49 9.34 -49 9 C-36.46 8.67 -23.92 8.34 -11 8 C-11 6.35 -11 4.7 -11 3 C-7.46 1.38 -4.87 0.89 -1 1 C-0.67 0.67 -0.34 0.34 0 0 Z " fill="#C4B7A5" transform="translate(104,97)"/>
<path d="M0 0 C1.46 2.65 2 3.89 2 7 C2.68 6.71 3.36 6.42 4.06 6.12 C12.92 2.73 20.69 2.57 30 3 C30 3.33 30 3.66 30 4 C25.38 4.33 20.76 4.66 16 5 C16 5.99 16 6.98 16 8 C16 8.66 16 9.32 16 10 C15.01 10 14.02 10 13 10 C13 10.66 13 11.32 13 12 C12.01 12.33 11.02 12.66 10 13 C10 12.34 10 11.68 10 11 C9.4 11.21 8.8 11.41 8.19 11.62 C6 12 6 12 3 10 C3.33 9.67 3.66 9.34 4 9 C1.03 8.5 1.03 8.5 -2 8 C-2 7.34 -2 6.68 -2 6 C-1.34 6 -0.68 6 0 6 C0 4.02 0 2.04 0 0 Z " fill="#E1D2BD" transform="translate(82,42)"/>
<path d="M0 0 C2.71 -0.03 5.42 -0.05 8.12 -0.06 C8.89 -0.07 9.65 -0.08 10.43 -0.09 C14.74 -0.11 18.76 0.14 23 1 C21.68 1.33 20.36 1.66 19 2 C19 2.66 19 3.32 19 4 C-0.8 3.5 -0.8 3.5 -21 3 C-21 2.67 -21 2.34 -21 2 C-10.61 1.5 -10.61 1.5 0 1 C0 0.67 0 0.34 0 0 Z " fill="#201D1B" transform="translate(83,107)"/>
<path d="M0 0 C0.33 0 0.66 0 1 0 C1 1.98 1 3.96 1 6 C1.66 6.33 2.32 6.66 3 7 C2.01 7 1.02 7 0 7 C0 9.31 0 11.62 0 14 C-0.58 14.25 -1.16 14.5 -1.75 14.75 C-4.13 15.93 -4.13 15.93 -6.06 18.12 C-8 20 -8 20 -11 20 C-11.33 20.99 -11.66 21.98 -12 23 C-12.66 22.67 -13.32 22.34 -14 22 C-13.4 21.35 -12.79 20.7 -12.17 20.02 C-3.65 11.27 -3.65 11.27 0 0 Z " fill="#CDBEAC" transform="translate(109,69)"/>
<path d="M0 0 C0.66 0.66 1.32 1.32 2 2 C3.99 2.4 5.99 2.74 8 3 C7.49 3.39 6.98 3.78 6.45 4.18 C4.72 5.94 4.72 5.94 5.14 8.48 C5.36 9.37 5.59 10.27 5.81 11.19 C6.03 12.09 6.24 12.99 6.46 13.92 C6.64 14.61 6.82 15.29 7 16 C6.34 16 5.68 16 5 16 C3.5 12.63 3 10.8 3 7 C2.34 7 1.68 7 1 7 C0.67 8.65 0.34 10.3 0 12 C-0.33 12 -0.66 12 -1 12 C-1.03 10.19 -1.05 8.38 -1.06 6.56 C-1.07 5.55 -1.09 4.54 -1.1 3.5 C-1 1 -1 1 0 0 Z " fill="#CABBA9" transform="translate(21,63)"/>
<path d="M0 0 C0.99 0.99 1.98 1.98 3 3 C2.01 3.33 1.02 3.66 0 4 C0.33 4.99 0.66 5.98 1 7 C1.02 8.85 0.97 10.7 0.88 12.54 C0.83 13.62 0.78 14.69 0.73 15.79 C0.68 16.91 0.62 18.03 0.56 19.19 C0.51 20.32 0.46 21.45 0.4 22.62 C0.27 25.41 0.14 28.21 0 31 C-0.33 31 -0.66 31 -1 31 C-1.33 23.08 -1.66 15.16 -2 7 C-4.64 5.68 -7.28 4.36 -10 3 C-6.16 2.04 -4.68 2.08 -1 3 C-0.67 2.01 -0.34 1.02 0 0 Z " fill="#BAAE9D" transform="translate(66,61)"/>
<path d="M0 0 C16.89 -0.18 16.89 -0.18 24 1 C24 1.33 24 1.66 24 2 C22.72 2.12 21.44 2.25 20.12 2.38 C16.65 2.69 16.65 2.69 14 5 C11 4 11 4 9 2 C6.8 1.54 6.8 1.54 4.38 1.38 C3.15 1.26 3.15 1.26 1.9 1.15 C1.27 1.1 0.65 1.05 0 1 C0 0.67 0 0.34 0 0 Z " fill="#BFB2A1" transform="translate(79,110)"/>
<path d="M0 0 C1.1 0.01 1.1 0.01 2.23 0.03 C4.03 0.05 5.83 0.09 7.62 0.12 C7.62 0.45 7.62 0.78 7.62 1.12 C3 1.45 -1.61 1.78 -6.38 2.12 C-6.38 3.12 -6.38 4.1 -6.38 5.12 C-6.38 5.78 -6.38 6.45 -6.38 7.12 C-7.36 7.12 -8.36 7.12 -9.38 7.12 C-9.7 6.13 -10.03 5.14 -10.38 4.12 C-12.38 2.92 -12.38 2.92 -14.38 2.12 C-9.4 0.13 -5.25 -0.12 0 0 Z " fill="#B6A998" transform="translate(104.375,44.875)"/>
<path d="M0 0 C0.54 0.47 1.07 0.95 1.62 1.44 C4.43 3.28 6.7 3.62 10 4 C10 4.33 10 4.66 10 5 C9.04 5.09 9.04 5.09 8.07 5.18 C7.24 5.27 6.41 5.35 5.56 5.44 C4.33 5.56 4.33 5.56 3.07 5.68 C1.01 5.79 1.01 5.79 0 7 C-1.67 7.04 -3.33 7.04 -5 7 C-2 5 -2 5 0 4 C-0.33 3.34 -0.66 2.68 -1 2 C-0.67 1.34 -0.34 0.68 0 0 Z " fill="#CDBEAB" transform="translate(52,88)"/>
<path d="M0 0 C1.6 0.01 1.6 0.01 3.24 0.03 C4.05 0.04 4.85 0.05 5.69 0.06 C5.69 0.39 5.69 0.72 5.69 1.06 C1.23 1.56 1.23 1.56 -3.31 2.06 C-2.32 2.72 -1.33 3.38 -0.31 4.06 C-2.29 4.06 -4.27 4.06 -6.31 4.06 C-6.31 3.73 -6.31 3.4 -6.31 3.06 C-7.96 2.73 -9.61 2.4 -11.31 2.06 C-11.31 1.73 -11.31 1.4 -11.31 1.06 C-7.48 0.16 -3.94 -0.04 0 0 Z " fill="#38342F" transform="translate(56.3125,106.9375)"/>
<path d="M0 0 C0 0.33 0 0.66 0 1 C2.97 1.49 2.97 1.49 6 2 C6 2.33 6 2.66 6 3 C2.37 3.33 -1.26 3.66 -5 4 C-5.33 2.68 -5.66 1.36 -6 0 C-2.25 -1.12 -2.25 -1.12 0 0 Z " fill="#CCBDAA" transform="translate(96,60)"/>
<path d="M0 0 C2.31 0.33 4.62 0.66 7 1 C5.02 1.99 5.02 1.99 3 3 C2.67 2.34 2.34 1.68 2 1 C1.34 0.67 0.68 0.34 0 0 Z M-1 1 C-0.67 1 -0.34 1 0 1 C0 2.65 0 4.3 0 6 C-1.32 5.67 -2.64 5.34 -4 5 C-3.03 3.65 -2.03 2.31 -1 1 Z " fill="#D2C4B1" transform="translate(57,47)"/>
<path d="M0 0 C1.46 2.65 2 3.89 2 7 C2.66 7.33 3.32 7.66 4 8 C2.02 8 0.04 8 -2 8 C-2 7.34 -2 6.68 -2 6 C-1.34 6 -0.68 6 0 6 C0 4.02 0 2.04 0 0 Z " fill="#C0B2A1" transform="translate(82,42)"/>
</svg>
