<?xml version="1.0" encoding="UTF-8"?>
<!-- Generator: visioncortex VTracer 0.6.3 -->
<svg version="1.1" xmlns="http://www.w3.org/2000/svg" width="150" height="150">
<path d="M0 0 C0.25 0.62 0.49 1.24 0.75 1.88 C2.21 4.35 3.38 4.95 6 6 C6 6.66 6 7.32 6 8 C7.24 8.41 8.47 8.82 9.75 9.25 C10.98 9.67 10.98 9.67 12.24 10.09 C14.12 10.71 16.02 11.31 17.92 11.88 C31.85 16.19 42.46 23.35 50 36 C59.44 54.63 57.66 71.52 52.46 91.05 C51.92 92.99 51.92 92.99 52 95 C52.93 95.58 53.86 96.16 54.81 96.75 C58 99 58 99 61 105 C61 110.61 61 116.22 61 122 C31.3 122 1.6 122 -29 122 C-29 104.33 -29 104.33 -23 97 C-19.75 95.62 -19.75 95.62 -17 95 C-16.96 94.2 -16.92 93.39 -16.88 92.56 C-14.27 81.97 -5 74.91 2.8 67.93 C5.24 65.72 7.16 63.75 9 61 C9 60.01 9 59.02 9 58 C8.28 58.76 7.56 59.53 6.81 60.31 C1.34 65.54 -2.98 66.47 -10.36 67.18 C-11.66 67.59 -11.66 67.59 -13 68 C-14.35 70.38 -14.35 70.38 -15 73 C-16.56 75.38 -16.56 75.38 -19 77 C-25.83 77.71 -32.43 74.73 -38 71 C-40.77 68.52 -41.28 66.34 -41.51 62.75 C-41.32 57.37 -39.03 54.2 -35.81 50.06 C-34.79 48.67 -33.78 47.27 -32.77 45.87 C-32.28 45.21 -31.8 44.54 -31.3 43.85 C-28.18 39.41 -25.9 34.56 -24.1 29.45 C-22.38 24.59 -20.8 21.51 -16.94 18 C-12.97 14.39 -11.88 11.34 -10.63 6.21 C-8.96 0.35 -5.65 -0.51 0 0 Z " fill="#E1D0BB" transform="translate(63,14)"/>
<path d="M0 0 C0.25 0.62 0.49 1.24 0.75 1.88 C2.21 4.35 3.38 4.95 6 6 C6 6.66 6 7.32 6 8 C7.24 8.41 8.47 8.82 9.75 9.25 C10.98 9.67 10.98 9.67 12.24 10.09 C14.12 10.71 16.02 11.31 17.92 11.88 C31.85 16.19 42.46 23.35 50 36 C59.44 54.63 57.66 71.52 52.46 91.05 C51.92 92.99 51.92 92.99 52 95 C52.93 95.58 53.86 96.16 54.81 96.75 C58 99 58 99 61 105 C61 110.61 61 116.22 61 122 C31.3 122 1.6 122 -29 122 C-29 104.33 -29 104.33 -23 97 C-19.75 95.62 -19.75 95.62 -17 95 C-16.96 94.2 -16.92 93.39 -16.88 92.56 C-14.27 81.97 -5 74.91 2.8 67.93 C5.24 65.72 7.16 63.75 9 61 C9 60.01 9 59.02 9 58 C8.28 58.76 7.56 59.53 6.81 60.31 C1.34 65.54 -2.98 66.47 -10.36 67.18 C-11.66 67.59 -11.66 67.59 -13 68 C-14.35 70.38 -14.35 70.38 -15 73 C-16.56 75.38 -16.56 75.38 -19 77 C-25.83 77.71 -32.43 74.73 -38 71 C-40.77 68.52 -41.28 66.34 -41.51 62.75 C-41.32 57.37 -39.03 54.2 -35.81 50.06 C-34.79 48.67 -33.78 47.27 -32.77 45.87 C-32.28 45.21 -31.8 44.54 -31.3 43.85 C-28.18 39.41 -25.9 34.56 -24.1 29.45 C-22.38 24.59 -20.8 21.51 -16.94 18 C-12.97 14.39 -11.88 11.34 -10.63 6.21 C-8.96 0.35 -5.65 -0.51 0 0 Z M-4 4 C-6.3 6.4 -7.05 8.2 -7.94 11.44 C-9.38 16.27 -11.75 18.88 -15.46 22.2 C-18.36 25.4 -19.44 28.07 -20.88 32.12 C-24.11 40.81 -28.64 48.08 -34.44 55.31 C-36.35 57.84 -37 59 -37.69 62.19 C-36.73 66.11 -35.19 67.56 -32 70 C-28.1 71.46 -24.14 72.87 -20 72 C-17.94 70.15 -16.61 68.31 -15 66 C-15 65.34 -15 64.68 -15 64 C-13.62 63.8 -13.62 63.8 -12.22 63.59 C-3.75 62.1 1.13 60.23 7 54 C8.66 52.65 10.32 51.31 12 50 C13.26 55.22 14.14 59.95 11.44 64.79 C8.21 69.39 3.85 72.91 -0.34 76.61 C-4.73 80.59 -9.11 84.76 -12 90 C-12 91.32 -12 92.64 -12 94 C7.47 94 26.94 94 47 94 C47.99 90.04 48.98 86.08 50 82 C50.66 80.35 51.32 78.7 52 77 C52.3 74.76 52.3 74.76 52.27 72.49 C52.27 71.65 52.27 70.82 52.28 69.96 C52.27 69.08 52.26 68.21 52.25 67.31 C52.24 66.41 52.24 65.52 52.23 64.59 C52.13 58.53 51.83 52.82 50 47 C49.65 45.78 49.65 45.78 49.29 44.54 C45.82 34.23 37.27 25.53 28 20 C23.29 18.04 18.44 16.65 13.52 15.34 C7.45 13.59 3.34 10.59 -1 6 C-1.49 5.01 -1.49 5.01 -2 4 C-2.66 4 -3.32 4 -4 4 Z " fill="#080707" transform="translate(63,14)"/>
<path d="M0 0 C2.27 0.02 4.55 0.02 6.82 0.02 C36.02 0.09 36.02 0.09 43.29 6.21 C47.4 11.27 45.91 15 45.91 22.21 C19.18 22.21 -7.55 22.21 -35.09 22.21 C-35.09 9.21 -35.09 9.21 -31.09 4.21 C-22.52 -1.32 -9.83 -0.08 0 0 Z " fill="#E1D1BC" transform="translate(74.08984375,109.794189453125)"/>
<path d="M0 0 C8.89 2.22 16.97 9.31 22.22 16.72 C28.24 26.76 29.18 36.72 29.19 48.19 C29.2 49.06 29.21 49.94 29.22 50.84 C29.23 51.69 29.23 52.54 29.23 53.42 C29.23 54.18 29.24 54.94 29.24 55.72 C29 58 29 58 27 63 C26.01 66.96 25.02 70.92 24 75 C-0.75 74.5 -0.75 74.5 -26 74 C-26 73.67 -26 73.34 -26 73 C-16.76 73 -7.52 73 2 73 C2.33 71.35 2.66 69.7 3 68 C4.09 65.87 4.09 65.87 5.38 63.88 C5.8 63.21 6.22 62.55 6.65 61.87 C7.97 60.04 9.41 58.58 11 57 C17.71 46.51 19.32 36.31 18 24 C16.5 17.32 13.24 11.47 8 7 C5.38 5.41 2.83 4.22 0 3 C0 2.01 0 1.02 0 0 Z " fill="#AFA292" transform="translate(86,33)"/>
<path d="M0 0 C1.63 0.01 3.26 0.02 4.89 0.03 C8.85 0.05 12.8 0.08 16.75 0.12 C16.75 0.45 16.75 0.78 16.75 1.12 C7.51 1.12 -1.73 1.12 -11.25 1.12 C-10.59 3.44 -9.93 5.75 -9.25 8.12 C-9.62 11.06 -9.62 11.06 -10.25 13.12 C-11.57 13.45 -12.89 13.78 -14.25 14.12 C-7.28 15.58 -7.28 15.58 -0.25 16.62 C2.75 17.12 2.75 17.12 4.75 19.12 C-2.18 18.8 -9.11 18.47 -16.25 18.12 C-16.25 18.78 -16.25 19.44 -16.25 20.12 C2.89 20.45 22.03 20.78 41.75 21.12 C41.75 18.81 41.75 16.5 41.75 14.12 C41.09 14.45 40.43 14.78 39.75 15.12 C37.16 15.44 34.57 15.63 31.96 15.84 C29.78 15.89 29.78 15.89 28.75 17.12 C26.22 17.2 23.72 17.22 21.19 17.19 C20.12 17.18 20.12 17.18 19.03 17.17 C17.27 17.16 15.51 17.14 13.75 17.12 C14.74 16.8 15.73 16.47 16.75 16.12 C16.75 15.47 16.75 14.81 16.75 14.12 C18.74 13.9 20.72 13.67 22.71 13.44 C24.94 13.15 24.94 13.15 27.75 12.12 C27.75 11.47 27.75 10.81 27.75 10.12 C30.06 10.12 32.37 10.12 34.75 10.12 C34.75 10.78 34.75 11.44 34.75 12.12 C37.72 12.62 37.72 12.62 40.75 13.12 C40.25 11.64 40.25 11.64 39.75 10.12 C39.09 10.12 38.43 10.12 37.75 10.12 C37.75 9.47 37.75 8.81 37.75 8.12 C35.77 7.47 33.79 6.81 31.75 6.12 C31.75 5.47 31.75 4.81 31.75 4.12 C29.77 3.47 27.79 2.81 25.75 2.12 C25.75 1.8 25.75 1.47 25.75 1.12 C31.77 1.39 36.05 2 40.75 6.12 C42.75 11.12 42.75 11.12 42.75 22.12 C16.02 22.12 -10.71 22.12 -38.25 22.12 C-38.25 9.12 -38.25 9.12 -34.25 4.12 C-24.89 -1.9 -10.69 -0.12 0 0 Z M27.75 3.12 C28.74 3.62 28.74 3.62 29.75 4.12 C28.76 4.62 28.76 4.62 27.75 5.12 C27.75 4.47 27.75 3.81 27.75 3.12 Z " fill="#D9C9B4" transform="translate(77.25,109.875)"/>
<path d="M0 0 C0.66 0 1.32 0 2 0 C3.13 1.23 4.21 2.51 5.25 3.81 C8.18 7.28 10.7 9.32 15 11 C14.01 11.33 13.02 11.66 12 12 C12 12.99 12 13.98 12 15 C13.32 15.33 14.64 15.66 16 16 C16 18.97 16 21.94 16 25 C14.35 25 12.7 25 11 25 C11 25.99 11 26.98 11 28 C13.97 28 16.94 28 20 28 C19.67 28.99 19.34 29.98 19 31 C17.02 31.33 15.04 31.66 13 32 C12.67 32.99 12.34 33.98 12 35 C10.68 34.34 9.36 33.68 8 33 C8 31.68 8 30.36 8 29 C7.34 29 6.68 29 6 29 C6 30.65 6 32.3 6 34 C4.35 34 2.7 34 1 34 C0.67 34.99 0.34 35.98 0 37 C-0.99 37.49 -0.99 37.49 -2 38 C-1.67 39.98 -1.34 41.96 -1 44 C-1.66 44 -2.32 44 -3 44 C-3 43.34 -3 42.68 -3 42 C-4.32 41.67 -5.64 41.34 -7 41 C-7.12 35.25 -7.12 35.25 -6 33 C-6.23 31.93 -6.45 30.86 -6.69 29.75 C-7.07 25.11 -5.85 23.55 -3 20 C0.3 20.99 3.6 21.98 7 23 C7 21.68 7 20.36 7 19 C5.02 19 3.04 19 1 19 C1 18.34 1 17.68 1 17 C3.3 14.78 4.52 14.03 7.75 13.81 C8.49 13.87 9.23 13.94 10 14 C9.67 13.01 9.34 12.02 9 11 C7.35 11 5.7 11 4 11 C3.34 9.02 2.68 7.04 2 5 C-1.07 5.78 -1.07 5.78 -3 8 C-2.25 2.25 -2.25 2.25 0 0 Z " fill="#DBCAB5" transform="translate(59,18)"/>
<path d="M0 0 C3.3 0 6.6 0 10 0 C10.31 7.34 9.47 13.09 7 20 C6.67 20 6.34 20 6 20 C5.34 16.7 4.68 13.4 4 10 C2.17 11.61 2.17 11.61 0.31 13.25 C-0.8 14.21 -0.8 14.21 -1.93 15.18 C-3.44 16.51 -4.89 17.89 -6.31 19.31 C-9.9 21.56 -13.33 22 -17.48 22.61 C-20.12 22.95 -20.12 22.95 -23 24 C-24.05 25.85 -24.05 25.85 -25 28 C-26.31 30.25 -26.31 30.25 -28 32 C-30.69 32.25 -30.69 32.25 -33 32 C-31.68 31.67 -30.36 31.34 -29 31 C-29.33 29.68 -29.66 28.36 -30 27 C-29.37 26.75 -28.75 26.51 -28.1 26.25 C-25.52 24.72 -25.3 23.73 -24.38 20.94 C-23.41 18.78 -23.41 18.78 -22 17 C-18.66 15.93 -15.49 15.74 -12 16 C-11.67 16.33 -11.34 16.66 -11 17 C-9.01 16.81 -9.01 16.81 -7 16 C-4.72 13.18 -4.72 13.18 -5 10 C-4.36 9.4 -3.72 8.8 -3.06 8.19 C-0.53 5.5 -0.33 3.62 0 0 Z " fill="#DDCDB9" transform="translate(71,54)"/>
<path d="M0 0 C6.02 0.27 10.3 0.87 15 5 C17 10 17 10 17 21 C-9.73 21 -36.46 21 -64 21 C-64 20.67 -64 20.34 -64 20 C-37.6 20 -11.2 20 16 20 C16 17.69 16 15.38 16 13 C15.34 13.33 14.68 13.66 14 14 C11.41 14.31 8.82 14.51 6.21 14.72 C4.03 14.77 4.03 14.77 3 16 C0.47 16.07 -2.03 16.09 -4.56 16.06 C-5.63 16.06 -5.63 16.06 -6.72 16.05 C-8.48 16.04 -10.24 16.02 -12 16 C-11.01 15.67 -10.02 15.34 -9 15 C-9 14.34 -9 13.68 -9 13 C-7.01 12.77 -5.03 12.54 -3.04 12.32 C-0.81 12.03 -0.81 12.03 2 11 C2 10.34 2 9.68 2 9 C4.31 9 6.62 9 9 9 C9 9.66 9 10.32 9 11 C11.97 11.5 11.97 11.5 15 12 C14.5 10.52 14.5 10.52 14 9 C13.34 9 12.68 9 12 9 C12 8.34 12 7.68 12 7 C10.02 6.34 8.04 5.68 6 5 C6 4.34 6 3.68 6 3 C4.02 2.34 2.04 1.68 0 1 C0 0.67 0 0.34 0 0 Z M2 2 C2.99 2.5 2.99 2.5 4 3 C3.01 3.5 3.01 3.5 2 4 C2 3.34 2 2.68 2 2 Z " fill="#BCAD9C" transform="translate(103,111)"/>
<path d="M0 0 C6.75 2.75 6.75 2.75 9 5 C9.2 7.16 9.2 7.16 9.12 9.62 C9.11 10.44 9.09 11.26 9.07 12.1 C9.04 13.04 9.04 13.04 9 14 C7.35 14 5.7 14 4 14 C3.67 14.99 3.34 15.98 3 17 C2.34 17.33 1.68 17.66 1 18 C1.33 19.98 1.66 21.96 2 24 C1.34 24 0.68 24 0 24 C0 23.34 0 22.68 0 22 C-1.32 21.67 -2.64 21.34 -4 21 C-4.12 15.25 -4.12 15.25 -3 13 C-3.23 11.93 -3.45 10.86 -3.69 9.75 C-4.07 5.11 -2.85 3.55 0 0 Z " fill="#DDCCB6" transform="translate(56,38)"/>
<path d="M0 0 C0.66 0 1.32 0 2 0 C2.42 7.25 1.44 13.17 -1 20 C-1.33 20 -1.66 20 -2 20 C-2.12 19.29 -2.24 18.58 -2.37 17.85 C-2.53 16.93 -2.7 16.01 -2.88 15.06 C-3.04 14.15 -3.2 13.23 -3.37 12.29 C-3.58 11.53 -3.78 10.78 -4 10 C-4.66 9.67 -5.32 9.34 -6 9 C-5.34 9 -4.68 9 -4 9 C-3.9 8.44 -3.79 7.89 -3.69 7.31 C-2.86 4.52 -1.66 2.39 0 0 Z " fill="#B4A897" transform="translate(79,54)"/>
<path d="M0 0 C0.66 0.66 1.32 1.32 2 2 C1.44 6.56 1.44 6.56 0 8 C-1.52 8.07 -3.04 8.08 -4.56 8.06 C-5.39 8.05 -6.22 8.04 -7.07 8.04 C-7.7 8.02 -8.34 8.01 -9 8 C-8.64 5.34 -8.29 3.42 -6.75 1.19 C-4.37 -0.43 -2.82 -0.36 0 0 Z " fill="#171513" transform="translate(63,41)"/>
<path d="M0 0 C3.81 0.67 7.35 1.73 11 3 C11 3.33 11 3.66 11 4 C9.01 4.23 7.03 4.46 5.04 4.68 C2.81 4.97 2.81 4.97 0 6 C-1.05 7.85 -1.05 7.85 -2 10 C-3.31 12.25 -3.31 12.25 -5 14 C-7.69 14.25 -7.69 14.25 -10 14 C-8.68 13.67 -7.36 13.34 -6 13 C-6.33 11.68 -6.66 10.36 -7 9 C-6.4 8.81 -5.8 8.63 -5.19 8.44 C-1.9 6.28 -1.35 3.65 0 0 Z " fill="#B9AC9B" transform="translate(48,72)"/>
<path d="M0 0 C-1.98 0.99 -1.98 0.99 -4 2 C-1.03 2.33 1.94 2.66 5 3 C5.33 3.99 5.66 4.98 6 6 C2.38 7.32 -0.1 8 -4 8 C-3.67 7.01 -3.34 6.02 -3 5 C-5.31 5 -7.62 5 -10 5 C-9.02 2.55 -8.31 1.22 -6.12 -0.31 C-3.65 -1.11 -2.42 -0.86 0 0 Z " fill="#D1C1AC" transform="translate(51,113)"/>
<path d="M0 0 C1.56 1.62 1.56 1.62 3 4 C2.69 7.25 2.69 7.25 2 10 C0.35 9.67 -1.3 9.34 -3 9 C-3.33 9.99 -3.66 10.98 -4 12 C-5.32 11.67 -6.64 11.34 -8 11 C-7.39 10.31 -7.39 10.31 -6.76 9.61 C-6.22 9 -5.68 8.38 -5.12 7.75 C-4.59 7.15 -4.06 6.54 -3.51 5.92 C-2.02 4.03 -1 2.19 0 0 Z " fill="#D0C1AD" transform="translate(77,74)"/>
<path d="M0 0 C1.44 -0.03 2.87 -0.05 4.31 -0.06 C5.51 -0.08 5.51 -0.08 6.74 -0.1 C9 0 9 0 12 1 C12 1.66 12 2.32 12 3 C9.12 3.96 7.3 4.11 4.31 4.06 C3.1 4.05 3.1 4.05 1.86 4.04 C0.94 4.02 0.94 4.02 0 4 C0 2.68 0 1.36 0 0 Z " fill="#221F1C" transform="translate(94,107)"/>
<path d="M0 0 C1.98 0.66 3.96 1.32 6 2 C5.4 2.25 4.8 2.49 4.19 2.75 C0.64 4.78 -0.73 7.18 -2 11 C0.64 11 3.28 11 6 11 C6 11.33 6 11.66 6 12 C3.03 12 0.06 12 -3 12 C-3.75 9.38 -3.75 9.38 -4 6 C-2.06 2.62 -2.06 2.62 0 0 Z " fill="#CABBA8" transform="translate(56,38)"/>
<path d="M0 0 C0.66 0.33 1.32 0.66 2 1 C0.52 2.48 0.52 2.48 -1 4 C-0.34 4.66 0.32 5.32 1 6 C1 6.99 1 7.98 1 9 C-1.64 8.67 -4.28 8.34 -7 8 C-6.02 6.85 -5.04 5.71 -4.06 4.56 C-3.52 3.92 -2.97 3.29 -2.41 2.63 C-1.63 1.73 -0.84 0.84 0 0 Z " fill="#CDBEAA" transform="translate(66,87)"/>
<path d="M0 0 C0.33 0.66 0.66 1.32 1 2 C3.31 2 5.62 2 8 2 C8.33 2.99 8.66 3.98 9 5 C4.55 5.5 4.55 5.5 0 6 C0.99 5.67 1.98 5.34 3 5 C3 4.34 3 3.68 3 3 C2.01 3 1.02 3 0 3 C0 2.01 0 1.02 0 0 Z " fill="#2B2824" transform="translate(50,106)"/>
<path d="M0 0 C1 3 1 3 0.44 5.5 C-1.45 8.79 -3.56 9.58 -7 11 C-5.22 6.96 -2.6 3.54 0 0 Z " fill="#C3B6A5" transform="translate(34,62)"/>
<path d="M0 0 C0.66 0.99 1.32 1.98 2 3 C1.12 6.19 1.12 6.19 0 9 C-0.99 9 -1.98 9 -3 9 C-2.01 6.03 -1.02 3.06 0 0 Z " fill="#C8BAA9" transform="translate(43,45)"/>
<path d="M0 0 C1.26 0.12 2.52 0.25 3.81 0.38 C4.87 0.48 4.87 0.48 5.96 0.59 C8 1 8 1 11 3 C9.74 3.02 8.48 3.04 7.19 3.06 C6.48 3.07 5.77 3.09 5.04 3.1 C3 3 3 3 0 2 C0 1.34 0 0.68 0 0 Z " fill="#C0B2A0" transform="translate(75,30)"/>
</svg>
