<?xml version="1.0" encoding="UTF-8"?>
<!-- Generator: visioncortex VTracer 0.6.3 -->
<svg version="1.1" xmlns="http://www.w3.org/2000/svg" width="150" height="150">
<path d="M0 0 C5.6 3.19 9.87 7.68 12.38 13.62 C14.1 20.38 13.11 25.64 10.19 31.81 C9.53 32.8 8.87 33.79 8.19 34.81 C8.77 35.16 9.34 35.52 9.94 35.88 C12.22 37.4 14.24 38.88 16.19 40.81 C16.95 44.79 16.51 46.93 15.12 50.69 C12.42 53.66 10.09 53.59 6.19 53.81 C6.5 59.95 9.32 64.23 13.19 68.81 C15.65 71.01 18.17 73.02 20.82 74.99 C24.76 78.02 27.44 80.7 29.38 85.31 C29.7 86.07 30.02 86.82 30.36 87.59 C32.19 92.5 32.36 96.6 32.19 101.81 C30.46 103.54 28.23 102.93 25.92 102.94 C24.79 102.93 24.79 102.93 23.64 102.93 C22.45 102.93 22.45 102.93 21.24 102.93 C18.62 102.93 16 102.92 13.37 102.91 C11.56 102.91 9.74 102.91 7.93 102.91 C3.14 102.9 -1.64 102.89 -6.43 102.88 C-11.31 102.87 -16.19 102.87 -21.07 102.86 C-30.65 102.85 -40.23 102.83 -49.81 102.81 C-49.83 101.37 -49.84 99.93 -49.84 98.49 C-49.85 97.69 -49.86 96.89 -49.86 96.06 C-49.71 89.33 -47.02 82.98 -42.81 77.81 C-42.15 77.81 -41.49 77.81 -40.81 77.81 C-40.81 77.15 -40.81 76.49 -40.81 75.81 C-39.1 74.53 -37.34 73.31 -35.56 72.12 C-30.72 68.7 -28.2 66.2 -25.81 60.81 C-25.4 60.07 -24.99 59.33 -24.56 58.56 C-23.62 56.67 -23.62 56.67 -23.81 53.81 C-24.91 53.73 -26 53.65 -27.12 53.56 C-30.81 52.81 -30.81 52.81 -32.69 51.19 C-34.15 48.1 -34.49 45.2 -34.81 41.81 C-31.84 39.5 -28.87 37.19 -25.81 34.81 C-26.45 33.74 -27.09 32.67 -27.75 31.56 C-30.83 26.12 -31.9 21.02 -30.28 14.76 C-27.66 7.2 -23.85 3.4 -16.81 -0.19 C-11.18 -2.06 -5.63 -1.75 0 0 Z " fill="#DAC9B5" transform="translate(83.8125,33.1875)"/>
<path d="M0 0 C0.99 0.33 1.98 0.66 3 1 C3 1.66 3 2.32 3 3 C3.56 3.23 4.11 3.45 4.69 3.69 C7.65 5.37 9.66 7.54 12 10 C12.6 10.56 13.2 11.11 13.81 11.69 C15 13 15 13 15 15 C15.57 15.27 16.15 15.54 16.74 15.81 C19.07 17.03 21.06 18.45 23.19 20 C26.4 22.2 28.84 23.36 32.69 23.94 C37.19 24.7 39.07 26.6 41.81 30.15 C45.49 35.88 45 37.31 45 45 C21.24 45 -2.52 45 -27 45 C-27 36.99 -26.51 33.31 -22 27 C-13.75 19 -13.75 19 -10 19 C-9.75 18.46 -9.5 17.93 -9.25 17.38 C-8 15 -8 15 -6.12 12.31 C-3.6 8.38 -1.8 4.3 0 0 Z " fill="#E0D0BB" transform="translate(66,87)"/>
<path d="M0 0 C5.6 3.19 9.87 7.68 12.38 13.62 C14.1 20.38 13.11 25.64 10.19 31.81 C9.53 32.8 8.87 33.79 8.19 34.81 C8.77 35.16 9.34 35.52 9.94 35.88 C12.22 37.4 14.24 38.88 16.19 40.81 C16.95 44.79 16.51 46.93 15.12 50.69 C12.42 53.66 10.09 53.59 6.19 53.81 C6.5 59.95 9.32 64.23 13.19 68.81 C15.65 71.01 18.17 73.02 20.82 74.99 C24.76 78.02 27.44 80.7 29.38 85.31 C29.7 86.07 30.02 86.82 30.36 87.59 C32.19 92.5 32.36 96.6 32.19 101.81 C30.46 103.54 28.23 102.93 25.92 102.94 C24.79 102.93 24.79 102.93 23.64 102.93 C22.45 102.93 22.45 102.93 21.24 102.93 C18.62 102.93 16 102.92 13.37 102.91 C11.56 102.91 9.74 102.91 7.93 102.91 C3.14 102.9 -1.64 102.89 -6.43 102.88 C-11.31 102.87 -16.19 102.87 -21.07 102.86 C-30.65 102.85 -40.23 102.83 -49.81 102.81 C-49.83 101.37 -49.84 99.93 -49.84 98.49 C-49.85 97.69 -49.86 96.89 -49.86 96.06 C-49.71 89.33 -47.02 82.98 -42.81 77.81 C-42.15 77.81 -41.49 77.81 -40.81 77.81 C-40.81 77.15 -40.81 76.49 -40.81 75.81 C-39.1 74.53 -37.34 73.31 -35.56 72.12 C-30.72 68.7 -28.2 66.2 -25.81 60.81 C-25.4 60.07 -24.99 59.33 -24.56 58.56 C-23.62 56.67 -23.62 56.67 -23.81 53.81 C-24.91 53.73 -26 53.65 -27.12 53.56 C-30.81 52.81 -30.81 52.81 -32.69 51.19 C-34.15 48.1 -34.49 45.2 -34.81 41.81 C-31.84 39.5 -28.87 37.19 -25.81 34.81 C-26.45 33.74 -27.09 32.67 -27.75 31.56 C-30.83 26.12 -31.9 21.02 -30.28 14.76 C-27.66 7.2 -23.85 3.4 -16.81 -0.19 C-11.18 -2.06 -5.63 -1.75 0 0 Z M-23.81 10.81 C-26.93 15.49 -26.4 20.33 -25.81 25.81 C-24.8 28.63 -23.61 30.34 -21.81 32.81 C-21.23 33.62 -20.66 34.42 -20.06 35.25 C-19.65 35.77 -19.24 36.28 -18.81 36.81 C-19.51 37.06 -20.22 37.31 -20.94 37.56 C-24.27 39.01 -26.99 40.51 -29.81 42.81 C-30.4 45.44 -30.4 45.44 -29.81 47.81 C-28.75 49.1 -28.75 49.1 -26.31 48.91 C-25.3 48.9 -24.29 48.89 -23.25 48.88 C-22.24 48.87 -21.23 48.86 -20.18 48.85 C-19.4 48.84 -18.62 48.82 -17.81 48.81 C-21.68 64.74 -21.68 64.74 -26.44 69.41 C-28.05 70.72 -28.05 70.72 -27.81 72.81 C-28.39 73.09 -28.97 73.37 -29.57 73.66 C-36.43 77.19 -40.53 81.13 -44 88.05 C-45.19 91.61 -45.19 91.61 -44.81 98.81 C-21.05 98.81 2.71 98.81 27.19 98.81 C27.25 88.98 27.25 88.98 22.19 81.81 C18.87 78.54 15.35 75.64 11.56 72.94 C4.11 66.27 1.88 58.44 0.19 48.81 C0.89 48.84 1.58 48.86 2.3 48.88 C3.21 48.9 4.12 48.92 5.06 48.94 C6.42 48.97 6.42 48.97 7.8 49.01 C10.38 49.06 10.38 49.06 12.19 46.81 C12.21 44.81 12.21 44.81 11.19 42.81 C9.12 41.03 9.12 41.03 6.62 39.56 C5.8 39.04 4.97 38.52 4.12 37.98 C3.48 37.6 2.84 37.21 2.19 36.81 C3.43 34.24 4.74 31.97 6.31 29.56 C9.27 24.39 8.51 19.88 7.62 14.19 C5.26 8.63 0.71 5.15 -4.81 2.81 C-13.29 2.13 -18.05 4.41 -23.81 10.81 Z " fill="#070606" transform="translate(83.8125,33.1875)"/>
<path d="M0 0 C0.99 0.66 1.98 1.32 3 2 C2.01 3.48 2.01 3.48 1 5 C1.99 5 2.98 5 4 5 C4.66 3.35 5.32 1.7 6 0 C9.93 -0.47 11.8 -0.11 15.31 1.81 C18.81 5.04 18.99 8.75 19.19 13.33 C18.95 16.76 17.92 19.16 16 22 C14.02 22 12.04 22 10 22 C10 22.66 10 23.32 10 24 C3.44 24.78 -2.47 25.11 -9 24 C-8.67 23.01 -8.34 22.02 -8 21 C-7.34 21 -6.68 21 -6 21 C-6.33 20.34 -6.66 19.68 -7 19 C-9.02 18.35 -9.02 18.35 -11 18 C-10.67 16.68 -10.34 15.36 -10 14 C-8.52 14.99 -8.52 14.99 -7 16 C-6.01 16 -5.02 16 -4 16 C-4 14.35 -4 12.7 -4 11 C-4.66 11 -5.32 11 -6 11 C-6.33 11.66 -6.66 12.32 -7 13 C-7.66 12.67 -8.32 12.34 -9 12 C-8.41 8.67 -7.3 6.83 -5.06 4.31 C-4.54 3.71 -4.01 3.11 -3.47 2.49 C-2 1 -2 1 0 0 Z " fill="#DFCEB9" transform="translate(71,38)"/>
<path d="M0 0 C5.94 0 11.88 0 18 0 C18.33 1.92 18.66 3.84 19 5.81 C21.39 16.16 27.08 23.43 36 29 C36 29.33 36 29.66 36 30 C26.43 29.65 20.45 24.81 14 18 C13.15 17.34 12.31 16.68 11.44 16 C8.86 13.89 7.07 11.59 5 9 C3.37 7.63 1.71 6.28 0 5 C-0.33 5.99 -0.66 6.98 -1 8 C-0.67 5.36 -0.34 2.72 0 0 Z " fill="#B2A595" transform="translate(66,82)"/>
<path d="M0 0 C0.33 0.99 0.66 1.98 1 3 C1.99 2.67 2.98 2.34 4 2 C4.66 2.33 5.32 2.66 6 3 C6 2.34 6 1.68 6 1 C6.99 1 7.98 1 9 1 C9 1.66 9 2.32 9 3 C9.99 2.01 10.98 1.02 12 0 C13.98 0.66 15.96 1.32 18 2 C18 1.34 18 0.68 18 0 C19.32 0.33 20.64 0.66 22 1 C22 3.97 22 6.94 22 10 C20.06 10.11 18.13 10.19 16.19 10.25 C14.57 10.32 14.57 10.32 12.92 10.39 C10 10 10 10 8.28 8 C7.86 7.34 7.44 6.68 7 6 C4.37 5.67 4.37 5.67 2 6 C1.67 6.66 1.34 7.32 1 8 C2.98 7.67 4.96 7.34 7 7 C7 7.99 7 8.98 7 10 C5.56 10.05 4.13 10.09 2.69 10.12 C1.89 10.15 1.09 10.17 0.26 10.2 C-2 10 -2 10 -5 8 C-4.67 7.67 -4.34 7.34 -4 7 C-4.99 6.34 -5.98 5.68 -7 5 C-5 3 -5 3 -2.38 2.88 C-1.59 2.92 -0.81 2.96 0 3 C0 2.01 0 1.02 0 0 Z " fill="#E3D2BE" transform="translate(64,71)"/>
<path d="M0 0 C0.66 0.33 1.32 0.66 2 1 C1.67 1.99 1.34 2.98 1 4 C0.34 4 -0.32 4 -1 4 C-1 4.66 -1 5.32 -1 6 C-1.99 6 -2.98 6 -4 6 C-3.66 6.9 -3.66 6.9 -3.31 7.81 C-3.21 8.53 -3.11 9.26 -3 10 C-4.38 11.69 -4.38 11.69 -6 13 C-6.33 13.33 -6.66 13.66 -7 14 C-6.01 14 -5.02 14 -4 14 C-3.07 17.01 -2.96 17.87 -4 21 C17.45 21.33 38.9 21.66 61 22 C61 22.33 61 22.66 61 23 C37.24 23 13.48 23 -11 23 C-11 14.82 -10.06 9.25 -4.33 3.25 C-2.69 1.88 -2.69 1.88 0 0 Z " fill="#B2A494" transform="translate(50,109)"/>
<path d="M0 0 C0.66 0.33 1.32 0.66 2 1 C3.47 7.03 4.29 13.18 1.25 18.75 C0.51 19.82 -0.23 20.89 -1 22 C-1.54 22.83 -2.07 23.65 -2.62 24.5 C-6.54 26.97 -10.6 25.77 -15 25 C-13 23 -13 23 -10.75 22.25 C-6.26 20.21 -3.18 16.94 -0.62 12.75 C0.34 8.52 0.15 4.32 0 0 Z " fill="#AFA393" transform="translate(89,44)"/>
<path d="M0 0 C2.97 1.98 5.94 3.96 9 6 C8 10 8 10 7 11 C5.31 11.07 3.62 11.08 1.94 11.06 C1.02 11.05 0.1 11.04 -0.85 11.04 C-1.56 11.02 -2.27 11.01 -3 11 C-2.01 10.67 -1.02 10.34 0 10 C0 6.7 0 3.4 0 0 Z " fill="#AB9F90" transform="translate(87,71)"/>
<path d="M0 0 C0.66 0.66 1.32 1.32 2 2 C0.68 2 -0.64 2 -2 2 C-2.33 3.65 -2.66 5.3 -3 7 C-4.32 7.33 -5.64 7.66 -7 8 C-7 6.33 -7 4.67 -7 3 C-8.32 2.34 -9.64 1.68 -11 1 C-7.08 -0.31 -4.14 -0.2 0 0 Z " fill="#C2B3A1" transform="translate(79,36)"/>
<path d="M0 0 C0.66 0.33 1.32 0.66 2 1 C1.67 1.33 1.34 1.66 1 2 C1.99 2.66 2.98 3.32 4 4 C3.67 4.33 3.34 4.66 3 5 C4.98 5.66 6.96 6.32 9 7 C9 7.33 9 7.66 9 8 C7.19 8.03 5.38 8.05 3.56 8.06 C2.55 8.07 1.54 8.09 0.5 8.1 C-2 8 -2 8 -3 7 C-3.25 4.56 -3.25 4.56 -3 2 C-2.01 1.34 -1.02 0.68 0 0 Z " fill="#CBBCAA" transform="translate(57,74)"/>
<path d="M0 0 C0.33 0 0.66 0 1 0 C1.44 2.12 1.44 2.12 1 5 C-1.04 7.4 -3.26 9.44 -6 11 C-6.99 10.67 -7.98 10.34 -9 10 C-8.38 9.75 -7.76 9.5 -7.12 9.25 C-4.58 7.75 -4.17 6.66 -3 4 C-1.44 1.75 -1.44 1.75 0 0 Z " fill="#C6B9A9" transform="translate(61,98)"/>
<path d="M0 0 C0.66 0.33 1.32 0.66 2 1 C1.67 1.99 1.34 2.98 1 4 C0.34 4 -0.32 4 -1 4 C-1 4.66 -1 5.32 -1 6 C-2.65 6.33 -4.3 6.66 -6 7 C-4.61 3.63 -3.02 2.01 0 0 Z " fill="#C7B8A7" transform="translate(50,109)"/>
<path d="M0 0 C0.1 0.64 0.21 1.28 0.31 1.94 C0.54 2.62 0.77 3.3 1 4 C1.99 4.33 2.98 4.66 4 5 C4 5.66 4 6.32 4 7 C3.01 7.5 3.01 7.5 2 8 C1.67 8.99 1.34 9.98 1 11 C-1 10 -1 10 -1.75 7.75 C-2.04 4.58 -1.38 2.83 0 0 Z " fill="#C3B4A2" transform="translate(64,91)"/>
<path d="M0 0 C2 2 2 2 2.2 3.95 C2.13 5.96 2.07 7.98 2 10 C0.68 9.67 -0.64 9.34 -2 9 C-2 7.68 -2 6.36 -2 5 C-1.34 4.67 -0.68 4.34 0 4 C0 2.68 0 1.36 0 0 Z " fill="#B8AA99" transform="translate(109,121)"/>
<path d="M0 0 C3 3 3 3 3.31 6.06 C3 9 3 9 1 11 C0.67 7.37 0.34 3.74 0 0 Z " fill="#CCBDAA" transform="translate(85,70)"/>
<path d="M0 0 C2.12 0.38 2.12 0.38 4 1 C2.35 2.65 0.7 4.3 -1 6 C-1.62 4.12 -1.62 4.12 -2 2 C-1.34 1.34 -0.68 0.68 0 0 Z " fill="#9D9183" transform="translate(87,61)"/>
</svg>
