<?xml version="1.0" encoding="UTF-8"?>
<!-- Generator: visioncortex VTracer 0.6.3 -->
<svg version="1.1" xmlns="http://www.w3.org/2000/svg" width="150" height="150">
<path d="M0 0 C4.54 2.61 7.25 4.94 8.87 10.09 C9.41 13.99 9.6 17.1 7.18 20.41 C4.93 25.02 7.29 29.44 8.87 34.09 C9.24 35.2 9.61 36.3 9.98 37.44 C10.28 38.32 10.57 39.19 10.87 40.09 C11.66 38.2 12.45 36.3 13.25 34.41 C13.69 33.35 14.13 32.29 14.58 31.21 C15.7 28.51 16.79 25.81 17.87 23.09 C17.21 23.09 16.55 23.09 15.87 23.09 C13.15 17.66 13.09 12.58 14.87 6.91 C17.59 3.09 20.58 0.95 24.87 -0.91 C30.1 -1.63 33.45 -0.76 37.87 2.09 C42.32 7.02 43.22 10.04 43.16 16.54 C42.74 20.22 41.32 22.37 38.87 25.09 C37.39 25.59 37.39 25.59 35.87 26.09 C36.86 37.48 36.86 37.48 37.87 49.09 C43 44.98 43 44.98 43.18 41.7 C43.08 40.9 42.98 40.1 42.87 39.28 C42.63 34.46 43.5 31.64 46.32 27.73 C48.92 24.99 51.24 24.02 54.87 23.09 C59.08 23.06 63.45 23.53 66.87 26.09 C70.46 30.4 72.33 34.48 71.87 40.09 C70.19 44.98 67.18 48.26 62.87 51.09 C62.21 51.09 61.55 51.09 60.87 51.09 C60.51 52.25 60.16 53.41 59.79 54.6 C57.11 62.65 53.59 70.4 50.26 78.19 C49.37 80.27 48.49 82.35 47.61 84.43 C47.33 85.07 47.06 85.71 46.78 86.37 C45.34 89.62 45.34 89.62 44.87 93.09 C46.79 94.35 48.8 95.4 50.83 96.48 C52.87 98.09 52.87 98.09 55.87 104.09 C55.87 109.7 55.87 115.31 55.87 121.09 C26.5 121.09 -2.87 121.09 -33.13 121.09 C-34.51 114.19 -34.77 106.56 -31.5 100.09 C-28.64 96.47 -26.26 95.08 -22.13 93.09 C-24.88 84.3 -28.53 75.96 -32.19 67.51 C-36.24 58.07 -36.24 58.07 -37.32 53.86 C-37.59 52.95 -37.85 52.04 -38.13 51.09 C-40.49 49.83 -40.49 49.83 -43.13 49.09 C-46.73 46.21 -48.16 43.6 -49.13 39.09 C-48.94 33.67 -47.69 30.21 -44.13 26.09 C-39.72 23.47 -36.12 22.5 -31.12 23.39 C-26.52 25.02 -23.23 28.32 -20.69 32.41 C-20.01 35.64 -20.21 38.54 -20.55 41.81 C-20.19 44.98 -20.19 44.98 -15.13 49.09 C-14.47 41.5 -13.81 33.91 -13.13 26.09 C-14.45 25.43 -15.77 24.77 -17.13 24.09 C-20.5 20.24 -20.64 16.44 -20.48 11.53 C-19.82 6.97 -17.44 4.24 -14.07 1.28 C-9.64 -1.43 -4.84 -2.06 0 0 Z " fill="#E0CFBB" transform="translate(64.12890625,14.90625)"/>
<path d="M0 0 C4.54 2.61 7.25 4.94 8.87 10.09 C9.41 13.99 9.6 17.1 7.18 20.41 C4.93 25.02 7.29 29.44 8.87 34.09 C9.24 35.2 9.61 36.3 9.98 37.44 C10.28 38.32 10.57 39.19 10.87 40.09 C11.66 38.2 12.45 36.3 13.25 34.41 C13.69 33.35 14.13 32.29 14.58 31.21 C15.7 28.51 16.79 25.81 17.87 23.09 C17.21 23.09 16.55 23.09 15.87 23.09 C13.15 17.66 13.09 12.58 14.87 6.91 C17.59 3.09 20.58 0.95 24.87 -0.91 C30.1 -1.63 33.45 -0.76 37.87 2.09 C42.32 7.02 43.22 10.04 43.16 16.54 C42.74 20.22 41.32 22.37 38.87 25.09 C37.39 25.59 37.39 25.59 35.87 26.09 C36.86 37.48 36.86 37.48 37.87 49.09 C43 44.98 43 44.98 43.18 41.7 C43.08 40.9 42.98 40.1 42.87 39.28 C42.63 34.46 43.5 31.64 46.32 27.73 C48.92 24.99 51.24 24.02 54.87 23.09 C59.08 23.06 63.45 23.53 66.87 26.09 C70.46 30.4 72.33 34.48 71.87 40.09 C70.19 44.98 67.18 48.26 62.87 51.09 C62.21 51.09 61.55 51.09 60.87 51.09 C60.51 52.25 60.16 53.41 59.79 54.6 C57.11 62.65 53.59 70.4 50.26 78.19 C49.37 80.27 48.49 82.35 47.61 84.43 C47.33 85.07 47.06 85.71 46.78 86.37 C45.34 89.62 45.34 89.62 44.87 93.09 C46.79 94.35 48.8 95.4 50.83 96.48 C52.87 98.09 52.87 98.09 55.87 104.09 C55.87 109.7 55.87 115.31 55.87 121.09 C26.5 121.09 -2.87 121.09 -33.13 121.09 C-34.51 114.19 -34.77 106.56 -31.5 100.09 C-28.64 96.47 -26.26 95.08 -22.13 93.09 C-24.88 84.3 -28.53 75.96 -32.19 67.51 C-36.24 58.07 -36.24 58.07 -37.32 53.86 C-37.59 52.95 -37.85 52.04 -38.13 51.09 C-40.49 49.83 -40.49 49.83 -43.13 49.09 C-46.73 46.21 -48.16 43.6 -49.13 39.09 C-48.94 33.67 -47.69 30.21 -44.13 26.09 C-39.72 23.47 -36.12 22.5 -31.12 23.39 C-26.52 25.02 -23.23 28.32 -20.69 32.41 C-20.01 35.64 -20.21 38.54 -20.55 41.81 C-20.19 44.98 -20.19 44.98 -15.13 49.09 C-14.47 41.5 -13.81 33.91 -13.13 26.09 C-14.45 25.43 -15.77 24.77 -17.13 24.09 C-20.5 20.24 -20.64 16.44 -20.48 11.53 C-19.82 6.97 -17.44 4.24 -14.07 1.28 C-9.64 -1.43 -4.84 -2.06 0 0 Z M-16.13 9.09 C-17.08 13.77 -16.79 17.03 -14.25 21.09 C-12.29 23.13 -12.29 23.13 -10.13 24.09 C-10.13 35.97 -10.13 47.85 -10.13 60.09 C-13.56 57.35 -16.02 55.27 -18.75 52.03 C-21.13 49.2 -21.13 49.2 -23.84 46.72 C-26.25 43.67 -25.1 39.69 -24.84 36 C-24.87 32.98 -24.87 32.98 -27.01 30.78 C-30.65 27.88 -33.37 27.68 -37.93 27.76 C-40.37 27.95 -40.37 27.95 -42.69 30.09 C-44.5 33.86 -45.05 37.04 -44.13 41.09 C-42.72 43.73 -41.41 45.02 -39.13 47.09 C-37.81 47.09 -36.49 47.09 -35.13 47.09 C-34.76 48.29 -34.39 49.49 -34 50.72 C-32.2 56.16 -29.9 61.35 -27.61 66.59 C-26.3 69.69 -25.12 72.79 -24 75.97 C-22.84 79.29 -21.55 82.4 -19.94 85.53 C-18.55 88.26 -17.76 90.19 -17.13 93.09 C-9.23 93.13 -1.33 93.11 6.58 93.05 C9.27 93.03 11.95 93.03 14.64 93.05 C18.51 93.06 22.37 93.03 26.23 93 C27.43 93.01 28.64 93.02 29.88 93.04 C35.65 93.18 35.65 93.18 40.49 90.59 C41.79 88.52 41.79 88.52 42.87 85.09 C43.3 84.06 43.73 83.02 44.18 81.95 C44.55 80.93 44.92 79.9 45.31 78.84 C47.21 73.75 49.32 68.81 51.6 63.88 C53.01 60.78 54.36 57.66 55.68 54.53 C56.1 53.54 56.52 52.55 56.95 51.53 C57.99 49.22 57.99 49.22 57.87 47.09 C58.98 47 58.98 47 60.12 46.91 C63.88 45.8 64.93 44.48 66.87 41.09 C67.54 38.25 67.61 35.92 66.87 33.09 C64.29 30 62.75 28.54 58.87 27.62 C55.25 27.36 52.98 28.03 49.87 29.84 C47.57 33.59 47.84 34.51 48.25 38.72 C48.47 43.05 48.21 44.64 45.58 48.18 C42.84 51.01 39.87 53.55 36.87 56.09 C35.55 57.41 34.23 58.73 32.87 60.09 C32.54 47.88 32.21 35.67 31.87 23.09 C33.52 22.43 35.17 21.77 36.87 21.09 C39.42 17.52 39.07 14.4 38.47 10.22 C37.96 7.84 37.96 7.84 35.75 5.53 C31.34 3.33 27.81 3.56 23.12 4.84 C20.42 6.34 19.29 7.34 17.87 10.09 C17.37 13.59 17.37 13.59 17.87 17.09 C18.39 17.73 18.9 18.37 19.43 19.03 C21.32 21.74 20.82 23.54 20.36 26.7 C19.43 31.24 17.93 35.59 16.43 39.97 C15.96 41.39 15.96 41.39 15.49 42.84 C13.13 49.83 13.13 49.83 10.87 52.09 C8.04 47.24 6.9 42.37 5.63 36.93 C4.93 33.93 4.93 33.93 3.18 30.78 C1.49 27.32 1.45 24.9 1.87 21.09 C2.87 19.76 3.87 18.43 4.87 17.09 C5.7 13.68 5.7 13.68 4.87 10.09 C2.46 6.66 -0.32 4.53 -4.42 3.55 C-9.9 3.22 -13.07 4.26 -16.13 9.09 Z " fill="#090808" transform="translate(64.12890625,14.90625)"/>
<path d="M0 0 C2.56 0.01 5.12 0 7.68 -0.01 C32.55 -0.04 32.55 -0.04 39.66 6.73 C43.35 11.42 41.86 16.06 41.86 22.26 C15.13 22.26 -11.6 22.26 -39.14 22.26 C-39.14 9.26 -39.14 9.26 -35.14 4.26 C-26.08 -1.77 -10.54 -0.05 0 0 Z " fill="#E4D4C0" transform="translate(74.135009765625,109.7392578125)"/>
<path d="M0 0 C1.81 0.01 3.62 0.02 5.43 0.03 C9.81 0.05 14.19 0.08 18.56 0.12 C18.56 0.45 18.56 0.78 18.56 1.12 C7.01 1.12 -4.54 1.12 -16.44 1.12 C-16.11 2.11 -15.78 3.11 -15.44 4.12 C-16.43 4.12 -17.42 4.12 -18.44 4.12 C-18.77 4.78 -19.1 5.44 -19.44 6.12 C-17.46 6.78 -15.48 7.44 -13.44 8.12 C-13.77 9.78 -14.1 11.42 -14.44 13.12 C-16.09 13.12 -17.74 13.12 -19.44 13.12 C-19.11 14.78 -18.78 16.42 -18.44 18.12 C-18.11 17.8 -17.78 17.47 -17.44 17.12 C-15.77 17.08 -14.1 17.08 -12.44 17.12 C-12.11 16.14 -11.78 15.14 -11.44 14.12 C-9.38 12.94 -9.38 12.94 -7.44 12.12 C-8.76 11.47 -10.08 10.81 -11.44 10.12 C-11.44 9.47 -11.44 8.81 -11.44 8.12 C-6.49 9.11 -6.49 9.11 -1.44 10.12 C-2.1 11.44 -2.76 12.77 -3.44 14.12 C-2.12 14.78 -0.8 15.44 0.56 16.12 C0.23 16.78 -0.1 17.44 -0.44 18.12 C-1.1 17.8 -1.76 17.47 -2.44 17.12 C-5.41 18.11 -8.38 19.1 -11.44 20.12 C12.82 20.62 12.82 20.62 37.56 21.12 C37.56 17.83 37.56 14.53 37.56 11.12 C37.89 11.12 38.22 11.12 38.56 11.12 C38.56 14.75 38.56 18.38 38.56 22.12 C11.83 22.12 -14.9 22.12 -42.44 22.12 C-42.44 9.12 -42.44 9.12 -38.44 4.12 C-28.58 -2.45 -11.4 -0.11 0 0 Z " fill="#D9C9B5" transform="translate(77.4375,109.875)"/>
<path d="M0 0 C2 1 2 1 4 3 C4.6 7.67 4.66 9.85 2.31 13.94 C-0.21 16.19 -1.67 16.72 -5 17 C-5.27 17.85 -5.54 18.71 -5.82 19.59 C-7 23 -8.36 26.26 -9.81 29.56 C-11.86 34.27 -13.8 39.01 -15.62 43.81 C-20.59 56.88 -20.59 56.88 -24 62 C-25.8 62.36 -25.8 62.36 -27.99 62.34 C-29.22 62.34 -29.22 62.34 -30.48 62.34 C-31.36 62.32 -32.25 62.31 -33.16 62.29 C-34.07 62.29 -34.98 62.28 -35.91 62.28 C-38.82 62.26 -41.72 62.23 -44.62 62.19 C-46.59 62.17 -48.56 62.16 -50.52 62.15 C-55.35 62.11 -60.17 62.06 -65 62 C-65 61.67 -65 61.34 -65 61 C-63.89 60.99 -62.78 60.97 -61.63 60.96 C-48.29 60.61 -39.6 57.69 -30 48 C-28 45.7 -26.36 43.71 -25 41 C-24.34 41 -23.68 41 -23 41 C-22.75 40.29 -22.5 39.57 -22.25 38.84 C-20.87 35.7 -19.15 33.34 -17.06 30.62 C-13.75 26.2 -13.75 26.2 -11.38 21.25 C-9.65 17.17 -7.26 14 -4 11 C-3.01 10.67 -2.02 10.34 -1 10 C0.14 7.71 0.1 6.41 0.06 3.88 C0.04 2.6 0.02 1.32 0 0 Z " fill="#AA9D8D" transform="translate(127,45)"/>
<path d="M0 0 C4.1 0.98 6.88 3.11 9.29 6.55 C9.92 10.17 9.92 10.17 9.29 13.55 C8.29 14.88 7.29 16.21 6.29 17.55 C5.54 23.04 7 26.64 9.34 31.46 C10.4 33.79 10.97 36.01 11.29 38.55 C10.63 38.22 9.97 37.89 9.29 37.55 C9.29 36.56 9.29 35.57 9.29 34.55 C7.81 34.05 7.81 34.05 6.29 33.55 C6.29 32.23 6.29 30.91 6.29 29.55 C2.39 29.37 -0.4 29.34 -3.71 31.55 C-4.04 32.21 -4.37 32.87 -4.71 33.55 C-4.72 32.67 -4.74 31.79 -4.75 30.88 C-4.7 23.44 -4.7 23.44 -8.21 17.3 C-9.03 16.72 -9.86 16.14 -10.71 15.55 C-12.27 13.99 -11.99 12.46 -12.08 10.3 C-12.02 6.72 -11.76 5.63 -9.77 2.48 C-6.24 0.25 -4.12 -0.25 0 0 Z " fill="#E2D1BD" transform="translate(59.70703125,18.453125)"/>
<path d="M0 0 C3.56 0.31 3.56 0.31 6.44 1.75 C9.45 5.38 9.85 8.67 9.56 13.31 C8.38 16.31 8.38 16.31 6.56 18.31 C5.24 18.64 3.92 18.97 2.56 19.31 C2.56 26.57 2.56 33.83 2.56 41.31 C2.23 41.31 1.9 41.31 1.56 41.31 C-0.42 29.93 -0.42 29.93 -2.44 18.31 C-3.1 18.31 -3.76 18.31 -4.44 18.31 C-6.2 21.4 -6.44 22.55 -6.44 26.31 C-7.43 26.64 -8.42 26.97 -9.44 27.31 C-9.33 26.64 -9.22 25.96 -9.11 25.27 C-8.93 23.93 -8.93 23.93 -8.75 22.56 C-8.62 21.68 -8.49 20.8 -8.36 19.89 C-8.45 16.71 -9.46 15.72 -11.44 13.31 C-11.97 9.14 -11.89 7.05 -9.69 3.44 C-6.37 0.3 -4.47 0.41 0 0 Z " fill="#A19485" transform="translate(93.4375,18.6875)"/>
<path d="M0 0 C0.72 0.19 1.44 0.37 2.19 0.56 C4.96 1.17 4.96 1.17 7.5 0.44 C10.6 -0.1 12.22 0.65 15 2 C15 2.66 15 3.32 15 4 C13.35 4 11.7 4 10 4 C10.33 4.99 10.66 5.98 11 7 C10.01 7.33 9.02 7.66 8 8 C8 8.99 8 9.98 8 11 C7.01 11.99 6.02 12.98 5 14 C29.09 14.33 53.18 14.66 78 15 C78 11.7 78 8.4 78 5 C78.33 5 78.66 5 79 5 C79 8.63 79 12.26 79 16 C52.27 16 25.54 16 -2 16 C-2 3 -2 3 0 0 Z " fill="#BFB1A0" transform="translate(37,116)"/>
<path d="M0 0 C2.57 3.85 1.83 5.59 1 10 C0.34 10 -0.32 10 -1 10 C-1.23 10.8 -1.45 11.61 -1.69 12.44 C-2.34 13.71 -2.34 13.71 -3 15 C-5.62 15.81 -5.62 15.81 -8 16 C-8 15.01 -8 14.02 -8 13 C-10.97 12.5 -10.97 12.5 -14 12 C-13.89 10.54 -13.76 9.08 -13.62 7.62 C-13.56 6.81 -13.49 6 -13.41 5.16 C-13 3 -13 3 -11 1 C-7.4 -0.33 -3.79 -0.28 0 0 Z " fill="#E0D0BC" transform="translate(97,19)"/>
<path d="M0 0 C0.99 0.66 1.98 1.32 3 2 C2.74 4.34 2.41 6.68 2 9 C1.01 9.5 1.01 9.5 0 10 C-0.33 9.01 -0.66 8.02 -1 7 C-1.99 7.33 -2.98 7.66 -4 8 C-6.69 6.56 -6.69 6.56 -9 5 C-9.33 5.66 -9.66 6.32 -10 7 C-9.01 7.33 -8.02 7.66 -7 8 C-7 8.66 -7 9.32 -7 10 C-8.32 10.33 -9.64 10.66 -11 11 C-11 11.33 -11 11.66 -11 12 C-9.68 12.66 -8.36 13.32 -7 14 C-7.33 15.65 -7.66 17.3 -8 19 C-11.16 17.63 -11.99 17.01 -14 14 C-14.83 9.34 -14.61 5.97 -12.06 1.94 C-8.03 -0.61 -4.66 -0.83 0 0 Z " fill="#DDCDBA" transform="translate(62,19)"/>
<path d="M0 0 C2 1.06 2 1.06 4 3 C4.65 8.08 3.96 10.06 1 14 C0.25 19.49 1.71 23.09 4.04 27.91 C5.11 30.24 5.67 32.46 6 35 C5.34 34.67 4.68 34.34 4 34 C4 33.01 4 32.02 4 31 C3.01 30.67 2.02 30.34 1 30 C-0.1 27.86 -0.1 27.86 -1.06 25.19 C-2.43 21.46 -2.43 21.46 -4.13 17.89 C-5.57 14.77 -4.75 12.27 -4 9 C-3.05 7.3 -2.06 5.63 -1 4 C-0.3 1.81 -0.3 1.81 0 0 Z " fill="#AB9E8E" transform="translate(65,22)"/>
<path d="M0 0 C0.98 3.05 0.98 4.95 0 8 C2.97 8.5 2.97 8.5 6 9 C6 9.99 6 10.98 6 12 C7.32 12 8.64 12 10 12 C13.17 20.04 13.14 28.47 13 37 C12.67 37 12.34 37 12 37 C10.68 29.41 9.36 21.82 8 14 C7.34 14 6.68 14 6 14 C4.24 17.09 4 18.23 4 22 C3.01 22.33 2.02 22.66 1 23 C1.11 22.32 1.21 21.65 1.32 20.95 C1.5 19.62 1.5 19.62 1.69 18.25 C1.82 17.37 1.94 16.49 2.07 15.58 C1.98 12.4 0.96 11.42 -1 9 C-1.42 2.85 -1.42 2.85 0 0 Z " fill="#BEB09E" transform="translate(83,23)"/>
<path d="M0 0 C4 2 4 2 5 4 C4.89 5.9 4.76 7.79 4.62 9.69 C4.56 13.3 4.54 15.31 6.55 18.35 C8.29 20.05 10.03 21.57 12 23 C11.34 23.33 10.68 23.66 10 24 C9.67 24.99 9.34 25.98 9 27 C8.67 25.35 8.34 23.7 8 22 C7.01 21.67 6.02 21.34 5 21 C3.97 19.35 2.97 17.68 2 16 C1.34 15.67 0.68 15.34 0 15 C0 10.05 0 5.1 0 0 Z " fill="#AFA292" transform="translate(34,44)"/>
<path d="M0 0 C0.66 0.33 1.32 0.66 2 1 C1.67 1.33 1.34 1.66 1 2 C2.09 2 3.19 2 4.31 2 C6.54 2 8.77 2 11 2 C8.15 4.32 5.46 5.75 2 7 C2.99 7.66 3.98 8.32 5 9 C-0.94 9 -6.88 9 -13 9 C-9.99 6.99 -6.93 5.1 -3.84 3.22 C-1.87 2 -1.87 2 0 0 Z " fill="#BAAC9B" transform="translate(92,97)"/>
<path d="M0 0 C0.66 0.33 1.32 0.66 2 1 C2.14 2.05 2.29 3.1 2.44 4.19 C3.01 8.05 4.24 10.56 6 14 C5.67 14.66 5.34 15.32 5 16 C3.35 16.39 1.68 16.72 0 17 C-3.12 17.65 -3.12 17.65 -4 20 C-4.33 15.38 -4.66 10.76 -5 6 C-4.34 6 -3.68 6 -3 6 C-3 8.97 -3 11.94 -3 15 C-2.34 14.67 -1.68 14.34 -1 14 C-1.14 12.99 -1.14 12.99 -1.29 11.95 C-1.4 11.06 -1.51 10.17 -1.62 9.25 C-1.74 8.37 -1.86 7.49 -1.98 6.58 C-2 3.77 -1.45 2.37 0 0 Z " fill="#D5C4AF" transform="translate(59,32)"/>
<path d="M0 0 C0.33 0 0.66 0 1 0 C1 3.3 1 6.6 1 10 C1.74 9.24 2.48 8.47 3.25 7.69 C5.43 5.56 7.52 3.74 10 2 C9.34 3.65 8.68 5.3 8 7 C8.66 7 9.32 7 10 7 C9 9 9 9 6.56 9.94 C3.7 10.85 3.7 10.85 2 14 C3.65 14 5.3 14 7 14 C5.02 14.99 5.02 14.99 3 16 C3 16.66 3 17.32 3 18 C2.01 17.67 1.02 17.34 0 17 C0 11.39 0 5.78 0 0 Z " fill="#C4B4A2" transform="translate(96,65)"/>
<path d="M0 0 C0.99 0 1.98 0 3 0 C3.25 0.93 3.5 1.86 3.75 2.81 C4.98 7.2 6.64 11.41 8.29 15.64 C9 18 9 18 8 20 C7.9 19.36 7.79 18.72 7.69 18.06 C7.35 17.04 7.35 17.04 7 16 C6.01 15.67 5.02 15.34 4 15 C2.83 12.89 2.83 12.89 1.81 10.25 C1.47 9.39 1.12 8.53 0.77 7.64 C-0.01 4.95 -0.15 2.78 0 0 Z " fill="#92887A" transform="translate(62,37)"/>
<path d="M0 0 C0.33 0 0.66 0 1 0 C1 7.92 1 15.84 1 24 C-0.65 24.33 -2.3 24.66 -4 25 C-4.33 23.02 -4.66 21.04 -5 19 C-3.35 19.99 -1.7 20.98 0 22 C0 14.74 0 7.48 0 0 Z " fill="#AEA292" transform="translate(54,53)"/>
<path d="M0 0 C2 1 2 1 4 3 C4.37 5.75 4.18 8.2 4 11 C2.68 10.67 1.36 10.34 0 10 C0 10.66 0 11.32 0 12 C-1.32 12.33 -2.64 12.66 -4 13 C-3.34 11.68 -2.68 10.36 -2 9 C-1.34 9 -0.68 9 0 9 C0 6.03 0 3.06 0 0 Z " fill="#B6A998" transform="translate(98,20)"/>
<path d="M0 0 C0.99 0.66 1.98 1.32 3 2 C3.41 4.71 3.13 7.24 3 10 C2.34 10 1.68 10 1 10 C0.67 10.99 0.34 11.98 0 13 C-3.56 14.19 -3.56 14.19 -7 15 C-4.38 11.12 -4.38 11.12 -1 10 C0.14 7.71 0.1 6.41 0.06 3.88 C0.04 2.6 0.02 1.32 0 0 Z " fill="#BDAF9E" transform="translate(127,45)"/>
<path d="M0 0 C0.66 0 1.32 0 2 0 C2 2.97 2 5.94 2 9 C2.56 8.46 3.11 7.93 3.69 7.38 C4.45 6.92 5.21 6.47 6 6 C8.75 6.81 8.75 6.81 11 8 C10.67 8.66 10.34 9.32 10 10 C8.35 10.39 6.68 10.72 5 11 C1.88 11.65 1.88 11.65 1 14 C0.67 9.38 0.34 4.76 0 0 Z " fill="#BFB09E" transform="translate(54,38)"/>
<path d="M0 0 C0.33 0 0.66 0 1 0 C1.33 2.31 1.66 4.62 2 7 C4.48 7.99 4.48 7.99 7 9 C6.67 10.65 6.34 12.3 6 14 C2.84 12.63 2.01 12.01 0 9 C-0.2 6.74 -0.2 6.74 -0.12 4.31 C-0.11 3.5 -0.09 2.7 -0.07 1.86 C-0.05 1.25 -0.02 0.63 0 0 Z " fill="#C9B9A6" transform="translate(48,24)"/>
<path d="M0 0 C4.34 0.61 8.68 1.26 13 2 C13 2.33 13 2.66 13 3 C8.05 3.33 3.1 3.66 -2 4 C-2 3.34 -2 2.68 -2 2 C-1.34 2 -0.68 2 0 2 C0 1.34 0 0.68 0 0 Z " fill="#CABCAA" transform="translate(49,104)"/>
<path d="M0 0 C2.97 0 5.94 0 9 0 C9 0.99 9 1.98 9 3 C5.37 3.33 1.74 3.66 -2 4 C-1.34 2.68 -0.68 1.36 0 0 Z " fill="#CEBFAD" transform="translate(24,43)"/>
<path d="M0 0 C1.89 0.06 1.89 0.06 3.81 0.12 C1.17 1.59 -0.08 2.12 -3.19 2.12 C-3.19 2.78 -3.19 3.45 -3.19 4.12 C-5.17 5.12 -7.15 6.11 -9.19 7.12 C-7.43 2 -5.59 -0.18 0 0 Z " fill="#C8BBAA" transform="translate(121.1875,42.875)"/>
<path d="M0 0 C0.66 0.33 1.32 0.66 2 1 C2 2.32 2 3.64 2 5 C0.02 5.99 -1.96 6.98 -4 8 C-2.88 5.03 -1.78 2.67 0 0 Z " fill="#BEB19F" transform="translate(119,60)"/>
</svg>
