<?xml version="1.0" encoding="UTF-8"?>
<!-- Generator: visioncortex VTracer 0.6.3 -->
<svg version="1.1" xmlns="http://www.w3.org/2000/svg" width="150" height="150">
<path d="M0 0 C0.79 -0 1.58 -0 2.39 -0 C3.62 0 3.62 0 4.88 0.01 C5.69 0 6.51 0 7.36 -0 C8.54 -0 8.54 -0 9.75 0 C10.47 0 11.19 0 11.93 0 C13.88 0.13 13.88 0.13 16.88 1.13 C17.72 6.21 17.97 10.98 17.88 16.13 C18.87 16.13 19.85 16.13 20.88 16.13 C21.01 15.45 21.14 14.76 21.28 14.05 C21.45 13.15 21.63 12.25 21.81 11.32 C21.99 10.43 22.16 9.53 22.34 8.61 C22.88 6.13 22.88 6.13 23.88 3.13 C30.68 2.8 35.83 2.85 41.88 6.13 C42.88 7.13 42.88 7.13 43.01 9.98 C43 13.7 42.96 17.41 42.88 21.13 C42.85 22.44 42.85 22.44 42.82 23.78 C42.47 29.48 40.55 33.75 36.88 38.13 C36.18 38.46 35.48 38.79 34.76 39.13 C32.7 40.91 32.7 40.91 32.66 43.07 C32.76 45.71 33 48.29 33.3 50.91 C33.39 51.87 33.49 52.84 33.59 53.83 C33.81 55.87 34.03 57.9 34.27 59.94 C34.62 63.05 34.91 66.17 35.2 69.29 C35.42 71.27 35.64 73.24 35.86 75.22 C35.94 76.16 36.02 77.09 36.1 78.05 C36.65 82.96 36.65 82.96 39.73 86.57 C41.86 87.67 41.86 87.67 44.03 88.43 C45.88 89.13 45.88 89.13 47.53 90.96 C50.94 98.95 49.88 103.3 49.88 113.13 C20.17 113.13 -9.53 113.13 -40.12 113.13 C-40.12 93.56 -40.12 93.56 -36.12 89.13 C-34.8 88.62 -33.48 88.13 -32.15 87.63 C-29.6 86.38 -28.39 85.71 -27.18 83.11 C-26.61 80.5 -26.29 77.95 -26.04 75.29 C-25.93 74.33 -25.81 73.37 -25.69 72.39 C-25.46 70.36 -25.25 68.34 -25.06 66.31 C-24.75 63.2 -24.37 60.11 -23.98 57.02 C-23.77 55.05 -23.56 53.08 -23.35 51.11 C-23.24 50.18 -23.12 49.26 -23 48.31 C-22.47 43.6 -22.47 43.6 -24.39 39.5 C-26.19 37.98 -26.19 37.98 -29.12 36.13 C-34.79 27.54 -33.24 16.01 -33.12 6.13 C-26.6 3.18 -21.25 2.78 -14.12 3.13 C-13.62 4.74 -13.12 6.34 -12.62 7.95 C-12.35 8.84 -12.07 9.73 -11.78 10.65 C-11.12 13.13 -11.12 13.13 -11.12 16.13 C-10.14 16.13 -9.14 16.13 -8.12 16.13 C-8.15 14.96 -8.17 13.78 -8.19 12.57 C-8.19 8.66 -7.77 4.99 -7.12 1.13 C-4.4 0.23 -2.8 0 0 0 Z " fill="#060605" transform="translate(70.125,22.8671875)"/>
<path d="M0 0 C0.8 -0 1.61 -0 2.44 -0 C4.13 -0 5.83 -0 7.52 0 C10.12 0.01 12.71 0 15.3 -0 C16.95 -0 18.6 -0 20.25 0 C21.41 -0 21.41 -0 22.59 -0.01 C29.27 0.02 29.27 0.02 32.56 1.13 C34.03 4.08 34.15 7.21 34.53 10.45 C34.66 11.54 34.66 11.54 34.8 12.66 C34.98 14.21 35.16 15.76 35.34 17.32 C35.62 19.66 35.9 22.01 36.19 24.35 C36.36 25.86 36.54 27.38 36.72 28.89 C36.8 29.58 36.89 30.27 36.97 30.98 C37.56 36.13 37.56 40.87 37.56 46.13 C19.08 46.13 0.6 46.13 -18.44 46.13 C-18.44 40.68 -18.28 35.63 -17.6 30.27 C-17.52 29.56 -17.43 28.85 -17.34 28.12 C-17.16 26.63 -16.97 25.14 -16.79 23.65 C-16.5 21.38 -16.23 19.1 -15.95 16.82 C-15.77 15.37 -15.59 13.92 -15.41 12.46 C-15.33 11.78 -15.25 11.11 -15.16 10.41 C-14.77 7.26 -14.31 4.19 -13.44 1.13 C-8.97 0.02 -4.58 -0.01 0 0 Z " fill="#DFCEB9" transform="translate(65.44140625,61.8671875)"/>
<path d="M0 0 C2.88 0 5.76 -0.02 8.63 -0.05 C31.11 -0.12 31.11 -0.12 38.88 5.75 C43.59 10.84 42.25 15.11 42.25 22.32 C15.19 22.32 -11.87 22.32 -39.75 22.32 C-39.75 9.73 -39.75 9.73 -36.75 6.32 C-27.43 -2.1 -11.86 -0.03 0 0 Z " fill="#E2D1BC" transform="translate(73.748046875,109.684326171875)"/>
<path d="M0 0 C4.95 0 9.9 0 15 0 C15.94 5.62 16.08 10.35 16 16 C19.63 16 23.26 16 27 16 C27.14 14.41 27.29 12.82 27.44 11.19 C27.71 8.21 28.05 5.85 29 3 C30.44 3.14 31.88 3.29 33.31 3.44 C34.11 3.52 34.91 3.6 35.74 3.68 C38 4 38 4 41 5 C40.94 8.04 40.85 11.08 40.75 14.12 C40.74 14.98 40.72 15.84 40.71 16.72 C40.45 23.34 38.87 27.08 34.14 31.89 C31.13 33.45 29.11 33.07 25.75 32.69 C18.76 32.03 11.83 31.87 4.81 31.88 C3.77 31.87 2.73 31.87 1.66 31.87 C-3.69 31.89 -8.88 32.11 -14.19 32.75 C-17.83 33.12 -18.74 33.13 -22.12 31.44 C-27.78 24.09 -27.14 13.86 -27 5 C-24.1 3.34 -22.08 2.76 -18.75 2.88 C-16.89 2.94 -16.89 2.94 -15 3 C-13.72 7.71 -13 11.04 -13 16 C-9.37 16 -5.74 16 -2 16 C-2.04 14.47 -2.08 12.95 -2.12 11.38 C-2.25 6.79 -1.57 4.7 0 0 Z " fill="#DECEB9" transform="translate(68,27)"/>
<path d="M0 0 C5.2 -0.02 10.39 -0.04 15.59 -0.05 C17.36 -0.06 19.12 -0.07 20.89 -0.08 C23.43 -0.09 25.97 -0.09 28.52 -0.1 C29.7 -0.11 29.7 -0.11 30.91 -0.11 C37.72 -0.11 37.72 -0.11 41 1 C42.47 3.95 42.59 7.08 42.97 10.32 C43.1 11.41 43.1 11.41 43.24 12.53 C43.42 14.08 43.6 15.63 43.78 17.18 C44.06 19.53 44.34 21.88 44.63 24.22 C44.81 25.73 44.98 27.24 45.16 28.75 C45.24 29.44 45.33 30.14 45.42 30.85 C46 36 46 40.73 46 46 C30.16 45.67 14.32 45.34 -2 45 C-2 44.67 -2 44.34 -2 44 C10.87 44 23.74 44 37 44 C35.38 32.08 35.38 32.08 32 21 C31.77 20.3 31.55 19.61 31.32 18.89 C29.17 12.44 26.05 7.85 19.88 4.69 C15.31 2.58 11.34 1.79 6.31 1.44 C5.13 1.35 3.95 1.27 2.74 1.18 C1.83 1.12 0.93 1.06 0 1 C0 0.67 0 0.34 0 0 Z " fill="#A89B8B" transform="translate(57,62)"/>
<path d="M0 0 C1.64 0.01 3.27 0.01 4.91 0.01 C8.88 0.02 12.84 0.04 16.81 0.06 C17.47 1.38 18.13 2.7 18.81 4.06 C15.18 4.39 11.55 4.72 7.81 5.06 C7.48 6.05 7.15 7.04 6.81 8.06 C4.17 7.73 1.53 7.4 -1.19 7.06 C-0.86 7.72 -0.53 8.38 -0.19 9.06 C-0.62 11.19 -0.62 11.19 -1.19 13.06 C-3.49 13.8 -4.82 14.17 -7.19 13.5 C-9.23 12.87 -9.23 12.87 -11.31 13.81 C-13.48 15.08 -13.48 15.08 -15.19 18.06 C-18.81 18.75 -18.81 18.75 -22.19 19.06 C-22.19 18.4 -22.19 17.74 -22.19 17.06 C-23.51 16.73 -24.83 16.4 -26.19 16.06 C-25.53 15.73 -24.87 15.4 -24.19 15.06 C-23.53 15.39 -22.87 15.72 -22.19 16.06 C-22.52 12.1 -22.85 8.14 -23.19 4.06 C-24.18 4.56 -24.18 4.56 -25.19 5.06 C-27.52 5.1 -29.85 5.11 -32.19 5.06 C-31.86 4.07 -31.53 3.08 -31.19 2.06 C-22.73 -2.16 -9.31 -0.05 0 0 Z " fill="#E7D8C5" transform="translate(75.1875,110.9375)"/>
<path d="M0 0 C1.98 0.33 3.96 0.66 6 1 C6.5 2.98 6.5 2.98 7 5 C4.83 4.49 3 4 1 3 C0.67 5.64 0.34 8.28 0 11 C0.66 11 1.32 11 2 11 C2 11.66 2 12.32 2 13 C0.35 13.66 -1.3 14.32 -3 15 C-3 15.66 -3 16.32 -3 17 C-16.53 17 -30.06 17 -44 17 C-44 16.34 -44 15.68 -44 15 C-40.07 13.33 -36.11 12.16 -32 11 C-30.46 10.46 -28.92 9.92 -27.38 9.38 C-24.09 8.25 -21.49 7.89 -18 8 C-17.34 7.34 -16.68 6.68 -16 6 C-15.11 6.02 -14.23 6.04 -13.31 6.06 C-9.3 5.99 -6.63 4.64 -3 3 C-2.01 3 -1.02 3 0 3 C0 2.01 0 1.02 0 0 Z " fill="#E5D5C1" transform="translate(106,114)"/>
<path d="M0 0 C2.47 0.5 2.47 0.5 5 1 C4.94 4.04 4.85 7.08 4.75 10.12 C4.74 10.98 4.72 11.84 4.71 12.72 C4.45 19.34 2.87 23.08 -1.86 27.89 C-4.87 29.45 -6.89 29.07 -10.25 28.69 C-17.24 28.03 -24.17 27.87 -31.19 27.88 C-32.23 27.87 -33.27 27.87 -34.34 27.87 C-39.7 27.89 -44.88 28.12 -50.19 28.81 C-54.49 29.29 -54.49 29.29 -56.82 27.95 C-58.25 26.56 -58.25 26.56 -60 24 C-53 22.25 -46.19 21.46 -39 21 C-39 22.65 -39 24.3 -39 26 C-34.38 25.67 -29.76 25.34 -25 25 C-25 24.34 -25 23.68 -25 23 C-18.85 21.18 -13.4 20.76 -7 21 C-8.62 24.25 -11.75 24.7 -15 26 C-12.17 26.42 -12.17 26.42 -9 26 C-1.64 19.06 -1.12 9.5 0 0 Z " fill="#D9C7B1" transform="translate(104,31)"/>
<path d="M0 0 C1.98 0.66 3.96 1.32 6 2 C6.33 1.34 6.66 0.68 7 0 C9.85 5.34 9 8.11 9 15 C-18.06 15 -45.12 15 -73 15 C-73 11.37 -73 7.74 -73 4 C-72.67 4 -72.34 4 -72 4 C-72 7.3 -72 10.6 -72 14 C-63.43 13.92 -54.86 13.82 -46.29 13.71 C-42.31 13.66 -38.33 13.62 -34.35 13.58 C-30.51 13.54 -26.67 13.49 -22.83 13.44 C-21.37 13.42 -19.9 13.41 -18.43 13.4 C-16.38 13.38 -14.34 13.35 -12.29 13.32 C-10.53 13.3 -10.53 13.3 -8.75 13.28 C-5.86 13.28 -5.86 13.28 -4 11 C-1.38 10.38 -1.38 10.38 1 10 C1 9.34 1 8.68 1 8 C0.34 8 -0.32 8 -1 8 C-0.67 5.36 -0.34 2.72 0 0 Z " fill="#B6A897" transform="translate(107,117)"/>
<path d="M0 0 C2.47 0.5 2.47 0.5 5 1 C4.94 4.04 4.85 7.08 4.75 10.12 C4.73 11.41 4.73 11.41 4.71 12.72 C4.45 19.35 2.82 22.97 -1.77 27.89 C-5.09 29.54 -8.18 29.07 -11.75 28.69 C-12.8 28.6 -12.8 28.6 -13.86 28.5 C-15.58 28.35 -17.29 28.18 -19 28 C-19 27.67 -19 27.34 -19 27 C-18.32 26.99 -17.65 26.97 -16.95 26.96 C-11.27 26.75 -11.27 26.75 -6.56 23.88 C-6.05 22.93 -5.53 21.98 -5 21 C-4.46 20.03 -3.93 19.06 -3.38 18.06 C-1.06 12.39 -0.71 6.04 0 0 Z " fill="#B0A392" transform="translate(104,31)"/>
<path d="M0 0 C1.37 -0.01 1.37 -0.01 2.77 -0.02 C4.7 -0.03 6.62 -0.03 8.55 -0.04 C11.46 -0.05 14.38 -0.08 17.29 -0.11 C35.43 -0.21 35.43 -0.21 44.1 3.2 C43.11 3.53 42.12 3.86 41.1 4.2 C41.1 5.19 41.1 6.18 41.1 7.2 C40.48 7.41 39.85 7.61 39.2 7.82 C38.39 8.09 37.57 8.36 36.73 8.64 C35.91 8.91 35.1 9.17 34.27 9.45 C32.09 10.15 32.09 10.15 30.1 11.2 C28.09 10.92 26.09 10.59 24.1 10.2 C24.43 8.55 24.76 6.9 25.1 5.2 C26.09 4.87 27.08 4.54 28.1 4.2 C27.61 3.21 27.61 3.21 27.1 2.2 C11.92 2.2 -3.26 2.2 -18.9 2.2 C-18.9 1.87 -18.9 1.54 -18.9 1.2 C-12.57 0.41 -6.38 0.03 0 0 Z " fill="#CCBDAA" transform="translate(64.8984375,109.796875)"/>
<path d="M0 0 C4.62 0 9.24 0 14 0 C14 1.32 14 2.64 14 4 C13.01 4.66 12.02 5.32 11 6 C11.99 6.66 12.98 7.32 14 8 C11.55 12.78 11.55 12.78 9 13.81 C5.68 14.12 2.34 14 -1 14 C-1.08 10.96 -0.98 8.93 0 6 C0 4.02 0 2.04 0 0 Z " fill="#E5D5C1" transform="translate(68,28)"/>
<path d="M0 0 C1.89 0.03 1.89 0.03 3.81 0.06 C4.66 5.14 4.9 9.91 4.81 15.06 C3.82 14.4 2.83 13.74 1.81 13.06 C-0.3 12.43 -0.3 12.43 -2.19 12.06 C-2.85 13.38 -3.51 14.7 -4.19 16.06 C-4.7 14.5 -5.19 12.94 -5.69 11.38 C-5.97 10.5 -6.24 9.63 -6.53 8.74 C-7.19 6.07 -7.31 3.8 -7.19 1.06 C-4.44 0.15 -2.83 -0.05 0 0 Z " fill="#B7A998" transform="translate(95.1875,74.9375)"/>
<path d="M0 0 C1.86 0.06 1.86 0.06 3.75 0.12 C6.03 8.16 6.03 8.16 4.75 12.12 C4.75 11.47 4.75 10.8 4.75 10.12 C3.76 9.8 2.77 9.47 1.75 9.12 C2.41 8.8 3.07 8.47 3.75 8.12 C3.42 5.81 3.09 3.51 2.75 1.12 C1.1 1.12 -0.55 1.12 -2.25 1.12 C-3.89 7.79 -4.76 14.28 -5.25 21.12 C-5.91 20.8 -6.57 20.47 -7.25 20.12 C-8.63 14.31 -8.34 8.06 -8.25 2.12 C-5.35 0.47 -3.33 -0.11 0 0 Z " fill="#D9CCBB" transform="translate(49.25,29.875)"/>
<path d="M0 0 C26.18 -0.21 26.18 -0.21 36 1 C36 1.33 36 1.66 36 2 C34.02 2 32.04 2 30 2 C30 2.66 30 3.32 30 4 C22.41 4 14.82 4 7 4 C7 3.67 7 3.34 7 3 C10.63 3 14.26 3 18 3 C18 2.34 18 1.68 18 1 C12.06 1 6.12 1 0 1 C0 0.67 0 0.34 0 0 Z " fill="#38342F" transform="translate(61,58)"/>
<path d="M0 0 C2.27 -0.03 4.54 -0.05 6.81 -0.06 C8.71 -0.08 8.71 -0.08 10.64 -0.1 C14 0 14 0 17 1 C17 1.66 17 2.32 17 3 C4.46 3 -8.08 3 -21 3 C-21 2.67 -21 2.34 -21 2 C-10.61 1.5 -10.61 1.5 0 1 C0 0.67 0 0.34 0 0 Z " fill="#1B1916" transform="translate(83,107)"/>
<path d="M0 0 C0.33 0 0.66 0 1 0 C1.33 2.64 1.66 5.28 2 8 C1.34 8 0.68 8 0 8 C0 9.32 0 10.64 0 12 C0.9 11.5 0.9 11.5 1.81 11 C4 10 4 10 7 10 C6.67 11.65 6.34 13.3 6 15 C3.69 15.66 1.38 16.32 -1 17 C-1.1 11.21 -0.99 5.71 0 0 Z " fill="#CBBAA5" transform="translate(50,76)"/>
<path d="M0 0 C5.85 0.51 11.33 1.45 17 3 C17 3.33 17 3.66 17 4 C6.32 5.72 6.32 5.72 3.09 3.95 C1.75 2.56 1.75 2.56 0 0 Z " fill="#C3B4A1" transform="translate(44,55)"/>
<path d="M0 0 C3.3 0 6.6 0 10 0 C9.01 0.49 9.01 0.49 8 1 C8 1.66 8 2.32 8 3 C5.03 2.5 5.03 2.5 2 2 C2 3.65 2 5.3 2 7 C1.34 7 0.68 7 0 7 C0 8.65 0 10.3 0 12 C-0.33 12 -0.66 12 -1 12 C-1.07 7.6 -1.07 4.3 0 0 Z " fill="#C8B8A4" transform="translate(52,63)"/>
<path d="M0 0 C2.84 0 5.24 0.4 8 1 C8 1.99 8 2.98 8 4 C3.38 4 -1.24 4 -6 4 C-6 3.67 -6 3.34 -6 3 C-4.02 3 -2.04 3 0 3 C0 2.01 0 1.02 0 0 Z " fill="#B6A998" transform="translate(94,103)"/>
<path d="M0 0 C2.02 0.07 4.04 0.13 6.05 0.2 C8.33 8.23 8.33 8.23 7.05 12.2 C7.05 11.54 7.05 10.88 7.05 10.2 C6.06 9.87 5.07 9.54 4.05 9.2 C4.71 8.87 5.37 8.54 6.05 8.2 C5.72 5.89 5.39 3.58 5.05 1.2 C0.6 1.69 0.6 1.69 -3.95 2.2 C-1.95 0.2 -1.95 0.2 0 0 Z " fill="#A89C8C" transform="translate(46.9453125,29.8046875)"/>
<path d="M0 0 C1.98 0 3.96 0 6 0 C6 0.33 6 0.66 6 1 C4.35 1 2.7 1 1 1 C1 1.99 1 2.98 1 4 C1.99 4.33 2.98 4.66 4 5 C3.01 5.99 2.02 6.98 1 8 C0.34 7.67 -0.32 7.34 -1 7 C-0.67 4.69 -0.34 2.38 0 0 Z " fill="#C0B2A1" transform="translate(97,30)"/>
<path d="M0 0 C0.87 0.34 0.87 0.34 1.75 0.69 C-1.22 3.16 -1.22 3.16 -4.25 5.69 C-4.25 5.03 -4.25 4.37 -4.25 3.69 C-4.91 3.36 -5.57 3.03 -6.25 2.69 C-2.8 -0.39 -2.8 -0.39 0 0 Z " fill="#C5B7A5" transform="translate(44.25,112.3125)"/>
<path d="M0 0 C1.32 0.66 2.64 1.32 4 2 C4 2.99 4 3.98 4 5 C2.35 5 0.7 5 -1 5 C-0.67 3.35 -0.34 1.7 0 0 Z " fill="#E3D2BD" transform="translate(49,102)"/>
</svg>
