<?xml version="1.0" encoding="UTF-8"?>
<!-- Generator: visioncortex VTracer 0.6.3 -->
<svg version="1.1" xmlns="http://www.w3.org/2000/svg" width="150" height="150">
<path d="M0 0 C3.62 2.12 6.18 4.78 8.5 8.25 C9.04 11.21 8.63 12.95 8.06 15.88 C7.63 18.49 7.63 18.49 8 21 C9.93 23.21 12 24.61 14.45 26.23 C22.79 32.03 29.96 41.61 31.79 51.7 C32.38 58.02 31.5 63.63 28 69 C25.77 71.45 23.42 73.74 21 76 C20.34 76.66 19.68 77.32 19 78 C19.78 78.88 20.56 79.76 21.37 80.67 C22.39 81.84 23.42 83.01 24.44 84.19 C25.21 85.05 25.21 85.05 26 85.94 C28.82 89.2 30.67 91.53 31 96 C21 101 21 101 11 106 C17.02 106.27 22.38 105.2 28.25 103.94 C41.79 101.24 49.81 102.04 62 109 C61.38 112.15 60.33 114.27 58.5 116.89 C58 117.6 57.51 118.31 57 119.04 C56.49 119.77 55.97 120.5 55.44 121.25 C54.92 122 54.4 122.74 53.86 123.51 C52.58 125.34 51.29 127.17 50 129 C49.4 128.69 48.8 128.39 48.18 128.07 C37.78 122.96 26.92 124.26 16.12 127.19 C10.46 128.71 6.19 129.48 0.66 127.09 C-1.14 125.91 -2.54 124.58 -4 123 C-4.45 123.35 -4.89 123.7 -5.36 124.06 C-5.96 124.51 -6.56 124.97 -7.19 125.44 C-7.78 125.89 -8.37 126.34 -8.98 126.81 C-12.81 129.07 -15.28 129.15 -19.64 128.22 C-21.03 127.84 -22.42 127.45 -23.81 127.06 C-34.27 124.37 -45.19 122.61 -55 128 C-57.38 128.69 -57.38 128.69 -59 129 C-59.46 128.28 -59.92 127.55 -60.39 126.8 C-61 125.84 -61.62 124.87 -62.25 123.88 C-62.88 122.87 -63.52 121.87 -64.17 120.83 C-65.56 118.68 -66.99 116.62 -68.5 114.56 C-70 112 -70 112 -69.82 109.97 C-68.51 106.81 -66.23 106.23 -63.23 104.89 C-48.9 99.18 -33.55 104.03 -19 107 C-20.78 103.45 -25.66 102.7 -29.28 101.39 C-33.46 99.8 -36.61 98.03 -40 95 C-38.52 91.76 -36.67 89.07 -34.5 86.25 C-33.89 85.45 -33.28 84.65 -32.66 83.83 C-32.11 83.22 -31.56 82.62 -31 82 C-30.34 82 -29.68 82 -29 82 C-28.34 80.68 -27.68 79.36 -27 78 C-27.52 77.6 -28.04 77.2 -28.57 76.79 C-34.49 71.96 -39.06 67.12 -40.48 59.4 C-41.01 49.71 -37.43 41.45 -31.12 34.24 C-26.42 29.14 -21.38 24.38 -16 20 C-16.49 18.52 -16.49 18.52 -17 17 C-17.39 12.27 -17.48 9.94 -15.31 5.69 C-11.07 0.75 -6.61 -1.55 0 0 Z " fill="#030404" transform="translate(78,9)"/>
<path d="M0 0 C1.05 0.12 2.1 0.25 3.19 0.38 C2.46 9.49 0.84 18.39 -0.81 27.38 C0.18 27.7 1.17 28.03 2.19 28.38 C-0.12 28.38 -2.43 28.38 -4.81 28.38 C-4.81 32.66 -4.81 36.95 -4.81 41.38 C-9.1 41.38 -13.39 41.38 -17.81 41.38 C-17.81 45.01 -17.81 48.63 -17.81 52.38 C-13.52 52.38 -9.23 52.38 -4.81 52.38 C-4.81 56.66 -4.81 60.95 -4.81 65.38 C-1.18 65.38 2.45 65.38 6.19 65.38 C6.19 61.09 6.19 56.8 6.19 52.38 C10.48 52.38 14.77 52.38 19.19 52.38 C19.19 48.74 19.19 45.12 19.19 41.38 C16.55 41.38 13.91 41.38 11.19 41.38 C12.18 40.72 13.17 40.05 14.19 39.38 C14.17 31.17 14.17 31.17 10.12 24.31 C9.58 23.79 9.03 23.26 8.46 22.71 C7.19 21.38 7.19 21.38 7.19 19.38 C15.65 20.23 22.08 28.76 27.19 35 C32.29 41.98 34.39 48.7 33.19 57.38 C30.91 65.46 25 69.16 18.06 73.19 C9.14 76.87 -4.68 77.01 -13.94 74.25 C-21.88 70.89 -28.26 65.31 -31.81 57.38 C-33.56 50.19 -31.02 44.47 -27.57 38.19 C-22.91 30.72 -17 25.71 -9.97 20.45 C-9.26 19.77 -8.55 19.08 -7.81 18.38 C-7.51 14.6 -7.51 14.6 -8.81 12.38 C-9.38 8.24 -8.96 6.61 -6.75 3 C-3.81 0.38 -3.81 0.38 0 0 Z " fill="#2F353B" transform="translate(72.8125,12.625)"/>
<path d="M0 0 C3.6 -0.15 7.21 -0.23 10.81 -0.31 C11.84 -0.35 12.86 -0.4 13.92 -0.44 C16.7 -0.49 19.26 -0.49 22 0 C24.2 2.52 24.2 2.52 25 5 C30.21 4.56 35 3.77 40.06 2.44 C51.32 -0.22 62.57 -0.61 73 5 C71.45 8.35 69.51 11.25 67.38 14.25 C66.43 15.59 66.43 15.59 65.46 16.95 C64.98 17.63 64.5 18.3 64 19 C59.25 18.12 59.25 18.12 57 17 C53.65 16.73 50.29 16.77 46.94 16.75 C46.02 16.73 45.1 16.71 44.16 16.69 C38.65 16.66 34.17 17.27 29.04 19.29 C25.33 20.59 21.8 21.12 18 20 C15.21 17.64 13.08 15 11 12 C10.24 12.95 9.47 13.9 8.69 14.88 C6.84 17.17 5.53 18.31 3 20 C-1.9 20.45 -5.61 19.89 -10.31 18.5 C-15.93 16.98 -21.22 16.7 -27 16.69 C-28.24 16.68 -28.24 16.68 -29.5 16.67 C-33.7 16.72 -36.24 17.09 -40 19 C-40.99 19 -41.98 19 -43 19 C-45.08 16.48 -45.08 16.48 -47.25 13.19 C-47.98 12.11 -48.7 11.03 -49.45 9.92 C-50.22 8.47 -50.22 8.47 -51 7 C-50 4 -50 4 -46.93 2.34 C-43.03 0.82 -39.28 0.5 -35.12 0.56 C-34.4 0.57 -33.67 0.57 -32.92 0.57 C-26.66 0.73 -20.82 1.91 -14.8 3.58 C-10.41 4.78 -6.54 5.19 -2 5 C-1.34 3.35 -0.68 1.7 0 0 Z " fill="#363C42" transform="translate(63,114)"/>
<path d="M0 0 C3.83 -0.36 5.55 -0.3 8.81 1.88 C11.86 4.84 11.98 5.5 12.19 9.88 C12.16 13.14 11.65 15.15 10 18 C10.33 18.66 10.66 19.32 11 20 C10.34 20 9.68 20 9 20 C9.51 20.52 10.01 21.04 10.53 21.58 C14.46 26.03 16.49 29 16.44 35.06 C16.33 36.71 16.19 38.36 16 40 C17.65 40.66 19.3 41.32 21 42 C21 45.63 21 49.26 21 53 C16.71 53 12.42 53 8 53 C8 57.29 8 61.58 8 66 C4.37 66 0.74 66 -3 66 C-3 61.71 -3 57.42 -3 53 C-7.29 53 -11.58 53 -16 53 C-16 49.37 -16 45.74 -16 42 C-11.71 42 -7.42 42 -3 42 C-3 37.71 -3 33.42 -3 29 C-1.68 28.67 -0.36 28.34 1 28 C0.96 26.89 0.92 25.77 0.88 24.62 C0.88 19.58 1.89 14.9 3 10 C3.19 9.13 3.38 8.26 3.58 7.36 C4.04 5.24 4.52 3.12 5 1 C3.35 1 1.7 1 0 1 C0 0.67 0 0.34 0 0 Z " fill="#292E33" transform="translate(71,12)"/>
<path d="M0 0 C1.05 0.12 2.1 0.25 3.19 0.38 C2.46 9.49 0.84 18.39 -0.81 27.38 C0.18 27.7 1.17 28.03 2.19 28.38 C-0.12 28.38 -2.43 28.38 -4.81 28.38 C-4.81 32.66 -4.81 36.95 -4.81 41.38 C-9.1 41.38 -13.39 41.38 -17.81 41.38 C-17.69 43.15 -17.56 44.92 -17.44 46.75 C-17.37 47.75 -17.3 48.75 -17.23 49.77 C-17.05 52.53 -17.05 52.53 -14.81 54.38 C-14.67 57.28 -14.63 60.09 -14.69 63 C-14.7 63.8 -14.71 64.6 -14.71 65.43 C-14.74 67.41 -14.77 69.39 -14.81 71.38 C-23.42 69.64 -23.42 69.64 -26.69 65.5 C-27.24 64.82 -27.8 64.14 -28.37 63.45 C-32.07 58.14 -32.8 53.78 -31.81 47.38 C-27.48 35.39 -19.97 27.94 -9.97 20.45 C-9.26 19.77 -8.55 19.08 -7.81 18.38 C-7.51 14.6 -7.51 14.6 -8.81 12.38 C-9.38 8.24 -8.96 6.61 -6.75 3 C-3.81 0.38 -3.81 0.38 0 0 Z " fill="#989CA0" transform="translate(72.8125,12.625)"/>
<path d="M0 0 C7.62 0.88 7.62 0.88 11 2 C13.14 2.2 15.29 2.36 17.44 2.5 C25.5 3.01 25.5 3.01 28 4 C30.1 6.58 32 9.61 32 13 C32.66 13.33 33.32 13.66 34 14 C29.36 16.66 25.1 16.33 19.88 16.31 C18.98 16.33 18.08 16.34 17.15 16.36 C10.64 16.37 5.12 15.19 -1 13 C-0.17 15.23 -0.17 15.23 2.29 15.85 C3.66 16.23 3.66 16.23 5.06 16.62 C5.98 16.89 6.9 17.15 7.85 17.41 C8.56 17.61 9.27 17.8 10 18 C10 19.32 10 20.64 10 22 C1.93 22.95 -3.92 19.62 -11 16 C-10.47 11.89 -8.28 9.82 -5.5 6.88 C-2.39 3.69 -2.39 3.69 0 0 Z " fill="#3D444A" transform="translate(54,88)"/>
<path d="M0 0 C2.15 1.9 3.91 3.66 5.75 5.81 C6.24 6.36 6.74 6.91 7.25 7.47 C9.44 9.95 10.94 11.83 12 15 C1 21.56 -7.84 24.18 -20.69 24.19 C-21.64 24.2 -22.59 24.21 -23.56 24.22 C-24.93 24.23 -24.93 24.23 -26.32 24.23 C-27.56 24.24 -27.56 24.24 -28.83 24.24 C-31 24 -31 24 -34 22 C-32.35 21.67 -30.7 21.34 -29 21 C-29 20.34 -29 19.68 -29 19 C-29.71 18.82 -30.42 18.64 -31.15 18.45 C-32.07 18.2 -32.99 17.95 -33.94 17.69 C-34.85 17.44 -35.77 17.2 -36.71 16.95 C-37.47 16.64 -38.22 16.32 -39 16 C-39.33 15.01 -39.66 14.02 -40 13 C-39.41 13.14 -38.81 13.28 -38.2 13.43 C-31.74 14.86 -25.66 15.28 -19.06 15.19 C-17.67 15.19 -17.67 15.19 -16.24 15.19 C-11.04 15.17 -11.04 15.17 -6 14 C-6.54 13.17 -6.54 13.17 -7.09 12.32 C-7.56 11.6 -8.02 10.87 -8.5 10.12 C-8.96 9.41 -9.43 8.69 -9.91 7.95 C-11 6 -11 6 -11 4 C-12.32 3.67 -13.64 3.34 -15 3 C-13.44 2.49 -11.88 1.99 -10.31 1.5 C-9.44 1.22 -8.57 0.94 -7.68 0.66 C-2.88 -0.52 -2.88 -0.52 0 0 Z " fill="#2B3136" transform="translate(93,88)"/>
<path d="M0 0 C0.73 0 1.46 0.01 2.21 0.01 C9.16 0.19 15.63 1.66 22.32 3.46 C25.96 4.39 29.41 4.98 33.12 5.44 C32.8 6.76 32.47 8.08 32.12 9.44 C26.21 10.21 20.99 10.59 15.12 9.44 C14.8 10.1 14.47 10.76 14.12 11.44 C12.91 11.49 11.69 11.54 10.43 11.59 C8.81 11.66 7.19 11.74 5.56 11.81 C4.36 11.86 4.36 11.86 3.14 11.91 C-1.84 12.15 -6.14 12.87 -10.88 14.44 C-11.74 13.18 -12.59 11.9 -13.44 10.62 C-14.15 9.56 -14.15 9.56 -14.88 8.48 C-15.88 6.44 -15.88 6.44 -14.88 3.44 C-9.92 0.76 -5.64 -0.08 0 0 Z " fill="#666C71" transform="translate(27.875,114.5625)"/>
<path d="M0 0 C-0.91 2.26 -1.57 3.7 -3.6 5.11 C-6.94 6.35 -10.17 6.31 -13.69 6.3 C-14.8 6.31 -14.8 6.31 -15.93 6.31 C-17.49 6.32 -19.05 6.32 -20.61 6.32 C-22.99 6.31 -25.37 6.34 -27.76 6.36 C-29.28 6.36 -30.79 6.36 -32.31 6.36 C-33.02 6.37 -33.73 6.38 -34.47 6.39 C-38.6 6.35 -41 5.92 -44 3 C-43.67 2.01 -43.34 1.02 -43 0 C-40.44 -0.92 -38.08 -1.6 -35.44 -2.19 C-34.3 -2.44 -34.3 -2.44 -33.13 -2.71 C-21.73 -5.08 -10.56 -5.68 0 0 Z " fill="#4C5358" transform="translate(136,119)"/>
<path d="M0 0 C1.98 0 3.96 0 6 0 C5.67 4.29 5.34 8.58 5 13 C9.29 13 13.58 13 18 13 C18 14.65 18 16.3 18 18 C14.04 18 10.08 18 6 18 C6 22.29 6 26.58 6 31 C4.02 31 2.04 31 0 31 C0 26.71 0 22.42 0 18 C-4.29 18 -8.58 18 -13 18 C-13 16.35 -13 14.7 -13 13 C-8.71 13 -4.42 13 0 13 C0 8.71 0 4.42 0 0 Z " fill="#757B7F" transform="translate(71,44)"/>
<path d="M0 0 C1.05 0.12 2.1 0.25 3.19 0.38 C2.46 9.49 0.84 18.39 -0.81 27.38 C0.18 27.7 1.17 28.03 2.19 28.38 C-0.12 28.38 -2.43 28.38 -4.81 28.38 C-4.81 32.66 -4.81 36.95 -4.81 41.38 C-8.44 41.38 -12.07 41.38 -15.81 41.38 C-13.81 37.38 -13.81 37.38 -10.81 36.38 C-8.96 32.63 -7.9 28.56 -6.69 24.56 C-6.16 22.82 -6.16 22.82 -5.62 21.04 C-5.35 20.16 -5.09 19.28 -4.81 18.38 C-5.47 18.05 -6.13 17.71 -6.81 17.38 C-8.74 13.63 -9.41 10.56 -8.81 6.38 C-6.19 2.08 -5.11 0.5 0 0 Z " fill="#41494F" transform="translate(72.8125,12.625)"/>
<path d="M0 0 C0.07 1.16 0.07 1.16 0.15 2.34 C0.22 3.34 0.3 4.34 0.38 5.38 C0.44 6.37 0.51 7.37 0.59 8.4 C0.76 11.16 0.76 11.16 3 13 C3.15 15.91 3.19 18.72 3.12 21.62 C3.12 22.43 3.11 23.23 3.1 24.05 C3.07 26.04 3.04 28.02 3 30 C-5.61 28.27 -5.61 28.27 -8.94 24.06 C-9.79 23.03 -9.79 23.03 -10.65 21.97 C-12 20 -12 20 -13 17 C-12.34 17 -11.68 17 -11 17 C-10.9 15.95 -10.79 14.9 -10.69 13.81 C-9.88 9.34 -5.87 0 0 0 Z " fill="#747A7F" transform="translate(55,54)"/>
<path d="M0 0 C3.96 0 7.92 0 12 0 C12.04 1.37 12.04 1.37 12.08 2.77 C12.13 3.96 12.19 5.15 12.25 6.38 C12.3 7.56 12.34 8.74 12.39 9.96 C12.66 13.11 12.66 13.11 15.05 14.41 C15.69 14.61 16.34 14.8 17 15 C16.34 15 15.68 15 15 15 C15 15.99 15 16.98 15 18 C14.34 18.33 13.68 18.66 13 19 C15.36 21.36 16.78 21.49 20 22 C20 22.33 20 22.66 20 23 C12.55 23.34 5.82 23.33 -1 20 C-1.66 19.34 -2.32 18.68 -3 18 C-1.68 17.67 -0.36 17.34 1 17 C1.03 14.54 1.05 12.08 1.06 9.62 C1.07 8.93 1.08 8.23 1.09 7.51 C1.18 3.63 1.18 3.63 0 0 Z " fill="#3E464C" transform="translate(56,65)"/>
<path d="M0 0 C0.74 0.01 1.48 0.01 2.24 0.02 C8.37 0.16 13.97 1.28 19.75 3.38 C19.42 4.03 19.09 4.69 18.75 5.38 C15.9 5.81 13.12 6.13 10.25 6.38 C3.94 6.99 -2.09 7.81 -8.25 9.38 C-9.92 9.71 -11.58 10.05 -13.25 10.38 C-14.81 8.56 -14.81 8.56 -16.25 6.38 C-15.25 3.38 -15.25 3.38 -12.2 1.71 C-8.11 0.12 -4.35 -0.08 0 0 Z " fill="#7D8287" transform="translate(28.25,114.625)"/>
<path d="M0 0 C2.68 4.02 2.16 6.24 2 11 C1.01 11.5 1.01 11.5 0 12 C0 12.66 0 13.32 0 14 C3.3 14.99 6.6 15.98 10 17 C10 18.32 10 19.64 10 21 C1.93 21.95 -3.92 18.62 -11 15 C-10.52 10.71 -7.78 8.23 -4.94 5.25 C-4.47 4.74 -3.99 4.24 -3.51 3.71 C-2.34 2.47 -1.17 1.23 0 0 Z " fill="#999DA0" transform="translate(54,89)"/>
<path d="M0 0 C1.05 0.12 2.1 0.25 3.19 0.38 C2.82 7.6 2.82 7.6 -0.25 11.38 C-2.81 13.38 -2.81 13.38 -4.81 13.38 C-4.81 14.04 -4.81 14.7 -4.81 15.38 C-5.8 15.05 -6.79 14.71 -7.81 14.38 C-9.26 11.47 -9.18 9.6 -8.81 6.38 C-6.19 2.08 -5.11 0.5 0 0 Z " fill="#8D9295" transform="translate(72.8125,12.625)"/>
<path d="M0 0 C-0.66 0.33 -1.32 0.66 -2 1 C-2 1.66 -2 2.32 -2 3 C-11.44 6.57 -19.96 8.08 -30 7 C-30.99 6.34 -31.98 5.68 -33 5 C-31.35 4.67 -29.7 4.34 -28 4 C-28 3.01 -28 2.02 -28 1 C-26.91 1.01 -25.83 1.02 -24.71 1.04 C-23.27 1.04 -21.82 1.05 -20.38 1.06 C-19.31 1.08 -19.31 1.08 -18.21 1.09 C-12.06 1.12 -6.15 -0.15 0 0 Z " fill="#3F464B" transform="translate(92,105)"/>
<path d="M0 0 C0 0.66 0 1.32 0 2 C-3.9 1.86 -7.79 1.71 -11.69 1.56 C-12.79 1.52 -13.89 1.48 -15.03 1.44 C-16.1 1.4 -17.16 1.36 -18.26 1.32 C-19.24 1.28 -20.22 1.24 -21.23 1.21 C-23.89 1.01 -26.39 0.58 -29 0 C-28 -2 -28 -2 -25.69 -3.12 C-16.34 -5.34 -8.55 -4.24 0 0 Z " fill="#70767B" transform="translate(136,119)"/>
<path d="M0 0 C0.6 0.14 1.2 0.28 1.82 0.43 C8.12 1.82 14.06 2.31 20.5 2.25 C21.37 2.26 22.25 2.27 23.14 2.27 C29.3 2.26 35.01 1.41 41 0 C40.67 0.99 40.34 1.98 40 3 C28.21 7.57 12.73 7.99 1 3 C0.67 2.01 0.34 1.02 0 0 Z " fill="#0C0D0D" transform="translate(53,101)"/>
<path d="M0 0 C1.21 0.03 1.21 0.03 2.44 0.06 C2.11 1.38 1.78 2.7 1.44 4.06 C-4.47 4.84 -9.69 5.21 -15.56 4.06 C-15.89 4.72 -16.22 5.38 -16.56 6.06 C-17.78 6.11 -19 6.16 -20.25 6.21 C-21.88 6.29 -23.5 6.36 -25.12 6.44 C-26.32 6.48 -26.32 6.48 -27.55 6.53 C-32.53 6.78 -36.83 7.5 -41.56 9.06 C-41.23 8.07 -40.9 7.08 -40.56 6.06 C-15.8 1.71 -15.8 1.71 -5.66 1.24 C-2.94 1.01 -2.89 0.07 0 0 Z " fill="#52595F" transform="translate(58.5625,119.9375)"/>
<path d="M0 0 C8.47 4.56 8.47 4.56 11 8 C11.25 11.25 11.25 11.25 11 14 C6.45 14.18 3.12 14 -1 12 C-0.34 11.67 0.32 11.34 1 11 C0.67 7.37 0.34 3.74 0 0 Z " fill="#70767B" transform="translate(55,89)"/>
<path d="M0 0 C1.65 0 3.3 0 5 0 C6.2 7.05 7.28 13.83 7 21 C3.7 20.34 0.4 19.68 -3 19 C-1.68 18.34 -0.36 17.68 1 17 C1.03 14.54 1.05 12.08 1.06 9.62 C1.07 8.93 1.08 8.23 1.09 7.51 C1.18 3.63 1.18 3.63 0 0 Z " fill="#52595F" transform="translate(56,65)"/>
<path d="M0 0 C1.33 0.02 1.33 0.02 2.68 0.04 C4.85 0.08 7.02 0.13 9.19 0.19 C9.52 0.85 9.85 1.51 10.19 2.19 C1.28 3.67 1.28 3.67 -7.81 5.19 C-7.81 5.85 -7.81 6.51 -7.81 7.19 C-9.46 7.19 -11.11 7.19 -12.81 7.19 C-13.47 5.87 -14.13 4.55 -14.81 3.19 C-10.08 -0.54 -5.73 -0.17 0 0 Z " fill="#9A9EA1" transform="translate(26.8125,115.8125)"/>
<path d="M0 0 C0.7 -0 1.4 -0.01 2.13 -0.01 C5.23 -0 7.66 0.14 10.62 1.12 C10.62 1.78 10.62 2.44 10.62 3.12 C11.28 3.46 11.95 3.78 12.62 4.12 C11.66 4.11 11.66 4.11 10.67 4.09 C7.74 4.05 4.81 4.03 1.88 4 C0.86 3.98 -0.16 3.97 -1.2 3.95 C-2.18 3.94 -3.16 3.94 -4.17 3.93 C-5.07 3.92 -5.97 3.91 -6.9 3.9 C-9.54 4.14 -11.06 4.9 -13.38 6.12 C-14.37 6.12 -15.36 6.12 -16.38 6.12 C-17.04 4.81 -17.7 3.49 -18.38 2.12 C-14.92 -1.33 -4.79 0.02 0 0 Z " fill="#2C3136" transform="translate(36.375,126.875)"/>
<path d="M0 0 C-0.53 5.19 -1.78 9.28 -4 14 C-4.43 15.05 -4.43 15.05 -4.88 16.12 C-6.52 18.87 -8.63 20.87 -11 23 C-11.66 23 -12.32 23 -13 23 C-12.67 21.68 -12.34 20.36 -12 19 C-11.34 19 -10.68 19 -10 19 C-7.59 12.11 -7.59 12.11 -6 5 C-6.66 4.67 -7.32 4.34 -8 4 C-3.38 0 -3.38 0 0 0 Z " fill="#84898D" transform="translate(68,31)"/>
<path d="M0 0 C1.65 0 3.3 0 5 0 C5 0.66 5 1.32 5 2 C4.34 2 3.68 2 3 2 C3.01 2.85 3.02 3.71 3.04 4.59 C3.04 5.69 3.05 6.8 3.06 7.94 C3.07 9.04 3.09 10.14 3.1 11.28 C3 14 3 14 2 15 C-0.74 15.29 -3.49 15.45 -6.24 15.62 C-8.93 15.99 -10.67 16.64 -13 18 C-13 16.35 -13 14.7 -13 13 C-8.71 13 -4.42 13 0 13 C0 8.71 0 4.42 0 0 Z " fill="#73797E" transform="translate(71,44)"/>
<path d="M0 0 C-1.98 0.66 -3.96 1.32 -6 2 C-2.86 2.88 0.17 3.26 3.42 3.54 C4.96 3.67 4.96 3.67 6.53 3.8 C7.59 3.89 8.65 3.97 9.75 4.06 C10.83 4.15 11.91 4.24 13.02 4.34 C15.68 4.56 18.34 4.78 21 5 C21 5.33 21 5.66 21 6 C16.92 6.05 12.85 6.09 8.77 6.11 C7.39 6.12 6 6.13 4.62 6.15 C2.62 6.18 0.63 6.19 -1.36 6.2 C-3.16 6.21 -3.16 6.21 -5 6.23 C-8 6 -8 6 -11 4 C-10.31 2.06 -10.31 2.06 -9 0 C-5.68 -1.14 -3.31 -1.1 0 0 Z " fill="#5F656A" transform="translate(114,116)"/>
<path d="M0 0 C0.66 0 1.32 0 2 0 C2 3.3 2 6.6 2 10 C-2.29 10 -6.58 10 -11 10 C-11 13.96 -11 17.92 -11 22 C-14.3 22 -17.6 22 -21 22 C-21 21.67 -21 21.34 -21 21 C-18.36 21 -15.72 21 -13 21 C-13 16.71 -13 12.42 -13 8 C-8.71 8 -4.42 8 0 8 C0 5.36 0 2.72 0 0 Z " fill="#000000" transform="translate(90,55)"/>
<path d="M0 0 C0.33 0 0.66 0 1 0 C1 2.64 1 5.28 1 8 C1.99 8 2.98 8 4 8 C4 7.34 4 6.68 4 6 C7.96 6 11.92 6 16 6 C15.01 6.49 15.01 6.49 14 7 C14 9.64 14 12.28 14 15 C9.71 15 5.42 15 1 15 C1 14.67 1 14.34 1 14 C4.96 14 8.92 14 13 14 C13 12.35 13 10.7 13 9 C8.71 9 4.42 9 0 9 C0 6.03 0 3.06 0 0 Z " fill="#1D2023" transform="translate(76,48)"/>
<path d="M0 0 C5.61 0.33 11.22 0.66 17 1 C11.31 3.85 7.62 5.25 1.19 5.12 C0.03 5.11 -1.14 5.09 -2.33 5.07 C-3.21 5.05 -4.09 5.02 -5 5 C-5 4.67 -5 4.34 -5 4 C-3.35 3.67 -1.7 3.34 0 3 C0 2.01 0 1.02 0 0 Z " fill="#696F74" transform="translate(64,106)"/>
<path d="M0 0 C3.63 0 7.26 0 11 0 C11 0.33 11 0.66 11 1 C8.03 1 5.06 1 2 1 C2 3.31 2 5.62 2 8 C5.3 8 8.6 8 12 8 C12 8.66 12 9.32 12 10 C8.04 10 4.08 10 0 10 C0 6.7 0 3.4 0 0 Z " fill="#000000" transform="translate(56,55)"/>
<path d="M0 0 C0.66 0 1.32 0 2 0 C1.63 7.22 1.63 7.22 -1.44 11 C-4 13 -4 13 -6 13 C-6 13.66 -6 14.32 -6 15 C-6.99 14.67 -7.98 14.34 -9 14 C-7.62 12 -7.62 12 -6 10 C-5.34 10 -4.68 10 -4 10 C-3.71 9.09 -3.42 8.19 -3.12 7.25 C-2.23 4.68 -1.29 2.39 0 0 Z " fill="#70767B" transform="translate(74,13)"/>
<path d="M0 0 C1.59 3.99 0.37 6.78 -1.06 10.69 C-1.47 11.85 -1.87 13.01 -2.29 14.2 C-4 17 -4 17 -7.18 17.89 C-8.58 17.95 -8.58 17.95 -10 18 C-9.19 16.06 -9.19 16.06 -8 14 C-7.01 13.67 -6.02 13.34 -5 13 C-3.9 10.83 -3.9 10.83 -3 8 C-2.46 6.56 -1.92 5.12 -1.38 3.69 C-0.92 2.47 -0.47 1.25 0 0 Z " fill="#575E63" transform="translate(67,36)"/>
<path d="M0 0 C5.23 0.07 8.75 0.82 13.31 3.31 C10.33 4.31 9.1 4.34 6.08 3.97 C5.28 3.88 4.48 3.79 3.65 3.69 C2.82 3.59 1.98 3.48 1.12 3.38 C0.28 3.28 -0.56 3.18 -1.44 3.07 C-3.52 2.82 -5.6 2.57 -7.69 2.31 C-5.04 -0.34 -3.69 0.01 0 0 Z " fill="#8F9498" transform="translate(119.6875,114.6875)"/>
<path d="M0 0 C0.66 0 1.32 0 2 0 C2 4.29 2 8.58 2 13 C0.02 13 -1.96 13 -4 13 C-3.01 12.67 -2.02 12.34 -1 12 C-1.01 11.22 -1.02 10.44 -1.04 9.63 C-1.04 8.62 -1.05 7.61 -1.06 6.56 C-1.07 5.55 -1.09 4.54 -1.1 3.5 C-1 1 -1 1 0 0 Z " fill="#4D5359" transform="translate(75,62)"/>
<path d="M0 0 C2 1.12 2 1.12 4 3 C4.25 6.19 4.25 6.19 4 9 C-2.62 9.25 -2.62 9.25 -6 7 C-4.02 7 -2.04 7 0 7 C0 4.69 0 2.38 0 0 Z " fill="#5A6166" transform="translate(62,94)"/>
<path d="M0 0 C3.63 0 7.26 0 11 0 C11 0.99 11 1.98 11 3 C7.37 3 3.74 3 0 3 C0 2.01 0 1.02 0 0 Z " fill="#545B61" transform="translate(78,59)"/>
<path d="M0 0 C2.16 -0.29 2.16 -0.29 4.62 -0.19 C5.44 -0.16 6.26 -0.13 7.1 -0.11 C8.04 -0.05 8.04 -0.05 9 0 C9.33 1.32 9.66 2.64 10 4 C6.04 3.67 2.08 3.34 -2 3 C-1.34 2.01 -0.68 1.02 0 0 Z " fill="#596066" transform="translate(62,59)"/>
<path d="M0 0 C0.99 0 1.98 0 3 0 C2.3 6.87 0.49 12.65 -4 18 C-3.67 16.02 -3.34 14.04 -3 12 C-2.34 12 -1.68 12 -1 12 C-0.88 10.74 -0.75 9.48 -0.62 8.19 C-0.3 4.9 0.07 3.9 2 1 C1.34 0.67 0.68 0.34 0 0 Z " fill="#72787C" transform="translate(65,31)"/>
<path d="M0 0 C0.33 0 0.66 0 1 0 C1.33 4.62 1.66 9.24 2 14 C1.01 14 0.02 14 -1 14 C-1.03 11.85 -1.05 9.71 -1.06 7.56 C-1.07 6.37 -1.09 5.17 -1.1 3.94 C-1 1 -1 1 0 0 Z " fill="#010101" transform="translate(78,42)"/>
<path d="M0 0 C1.65 0 3.3 0 5 0 C5 0.66 5 1.32 5 2 C4.01 2 3.02 2 2 2 C2 4.64 2 7.28 2 10 C1.01 10.5 1.01 10.5 0 11 C0 7.37 0 3.74 0 0 Z " fill="#959A9D" transform="translate(71,44)"/>
<path d="M0 0 C1.98 0.66 3.96 1.32 6 2 C5.67 2.99 5.34 3.98 5 5 C2.36 5 -0.28 5 -3 5 C-2.01 4.67 -1.02 4.34 0 4 C0 2.68 0 1.36 0 0 Z " fill="#878C90" transform="translate(59,105)"/>
<path d="M0 0 C3.96 0 7.92 0 12 0 C12 0.33 12 0.66 12 1 C10.91 1.1 9.81 1.21 8.69 1.31 C5.01 2 4.25 2.28 2 5 C1.34 5 0.68 5 0 5 C0 3.35 0 1.7 0 0 Z " fill="#8A8F93" transform="translate(58,57)"/>
<path d="M0 0 C1.53 4.08 0.63 7.79 0 12 C-0.66 12 -1.32 12 -2 12 C-2 8.7 -2 5.4 -2 2 C-1.34 2 -0.68 2 0 2 C0 1.34 0 0.68 0 0 Z " fill="#555B61" transform="translate(76,44)"/>
<path d="M0 0 C1 2 1 2 0.19 4.56 C-1 7 -1 7 -3 8 C-3.37 3.45 -3.37 3.45 -1.5 1.19 C-1 0.8 -0.51 0.4 0 0 Z " fill="#A0A4A7" transform="translate(68,16)"/>
</svg>
