<?xml version="1.0" encoding="UTF-8"?>
<!-- Generator: visioncortex VTracer 0.6.3 -->
<svg version="1.1" xmlns="http://www.w3.org/2000/svg" width="150" height="150">
<path d="M0 0 C3.13 2.52 5.88 5.09 7 9 C6.75 14.26 6.13 17.64 3 22 C3.42 22.54 3.84 23.09 4.28 23.64 C4.83 24.36 5.37 25.08 5.94 25.81 C6.48 26.52 7.03 27.23 7.59 27.96 C9 30 9 30 10 33 C10.59 32.64 11.19 32.28 11.8 31.91 C19.23 27.75 25.28 26.62 33.6 28.63 C42.24 31.61 48.82 37.12 53 45.25 C56.48 52.84 57.03 59.52 54.44 67.5 C52.28 72.94 49.55 77.26 45 81 C43.21 81.71 41.42 82.42 39.62 83.12 C36.86 84.37 36.86 84.37 35 87 C34.11 91.64 34.18 96.33 34.37 101.04 C34.58 108.31 34.58 108.31 31.46 112.04 C27.82 114.1 24.44 115.39 20.38 116.25 C19.64 116.41 18.91 116.57 18.15 116.74 C-0.3 120.49 -26.68 121.9 -43.34 111.54 C-46.04 107.4 -45.2 103.01 -45.06 98.19 C-44.91 90.68 -44.91 90.68 -48.25 84.31 C-51.1 82.64 -51.1 82.64 -54.13 81.34 C-59.63 78.77 -62.75 73.92 -65.09 68.45 C-67.71 60.5 -67.66 54.26 -64.32 46.56 C-59.8 37.81 -53.98 32.79 -45.19 28.69 C-37.22 26.97 -30.37 27.58 -23 31 C-22.01 31.66 -21.02 32.32 -20 33 C-19.92 32.46 -19.84 31.93 -19.75 31.38 C-19 29 -19 29 -16.94 25.94 C-14.72 23.17 -14.72 23.17 -15 20 C-15.52 18.91 -16.03 17.81 -16.56 16.69 C-18.15 12.63 -18.39 11.08 -17 7 C-12.2 0.26 -8.33 -2.58 0 0 Z " fill="#2C3236" transform="translate(80,19)"/>
<path d="M0 0 C3.13 2.52 5.88 5.09 7 9 C6.75 14.26 6.13 17.64 3 22 C3.85 22.85 4.69 23.69 5.56 24.56 C7.76 27.21 8.01 27.68 7.88 31.31 C7.59 32.53 7.3 33.75 7 35 C6.96 36.3 6.92 37.6 6.88 38.94 C6.16 45.79 2.74 51.98 -0.14 58.15 C-1.27 60.58 -2.36 63.04 -3.44 65.5 C-3.95 66.66 -4.47 67.81 -5 69 C-5.66 69 -6.32 69 -7 69 C-7 69.66 -7 70.32 -7 71 C-8.3 71.09 -9.61 71.17 -10.95 71.26 C-27.93 72.25 -27.93 72.25 -42 80.88 C-42.66 81.58 -43.32 82.28 -44 83 C-49.24 82.5 -53.3 78.44 -57 75 C-58.99 72.47 -60.54 69.87 -62 67 C-62.43 66.2 -62.87 65.39 -63.31 64.56 C-64.34 60.72 -64.15 56.95 -64 53 C-64.66 53 -65.32 53 -66 53 C-64.79 45.25 -60.67 38.99 -54.62 34.06 C-47.05 28.71 -40.3 26.97 -31 28 C-26.92 29.05 -23.52 30.65 -20 33 C-19.92 32.46 -19.84 31.93 -19.75 31.38 C-19 29 -19 29 -16.94 25.94 C-14.72 23.17 -14.72 23.17 -15 20 C-15.52 18.91 -16.03 17.81 -16.56 16.69 C-18.15 12.63 -18.39 11.08 -17 7 C-12.2 0.26 -8.33 -2.58 0 0 Z " fill="#1E2224" transform="translate(80,19)"/>
<path d="M0 0 C6.78 3.62 13.26 9.15 16 16.56 C16.78 24.18 17.56 32.54 12.63 38.89 C9.59 42.01 6.42 44.87 3 47.56 C2.3 48.12 1.6 48.68 0.88 49.26 C-1 50.56 -1 50.56 -3 50.56 C-3.66 49.66 -4.32 48.75 -5 47.81 C-8.42 43.52 -12.92 42.22 -18 40.56 C-19.07 40.19 -20.14 39.82 -21.25 39.44 C-27.1 38.07 -33.04 37.34 -39 36.56 C-36.81 29.59 -34.13 22.97 -31.12 16.31 C-30.7 15.35 -30.28 14.38 -29.85 13.38 C-26.81 6.65 -24.3 2.37 -17.69 -1.25 C-10.69 -3.5 -6.6 -2.99 0 0 Z " fill="#2C3337" transform="translate(116,52.4375)"/>
<path d="M0 0 C0.71 -0.01 1.41 -0.02 2.14 -0.04 C5.9 -0.05 7.54 0.05 10.75 2.19 C5.47 2.85 0.19 3.51 -5.25 4.19 C-4.75 5.47 -4.26 6.75 -3.75 8.06 C-2.25 11.94 -2.25 11.94 -2.25 14.19 C-3.35 14.38 -4.44 14.57 -5.57 14.77 C-7.03 15.04 -8.48 15.3 -9.94 15.56 C-10.66 15.69 -11.38 15.82 -12.12 15.95 C-16.07 16.67 -19.53 17.65 -23.25 19.19 C-24.24 19.19 -25.23 19.19 -26.25 19.19 C-26.25 19.85 -26.25 20.51 -26.25 21.19 C-25.51 20.97 -24.77 20.75 -24.01 20.53 C-16.92 18.59 -10.59 17.8 -3.25 18.19 C-2.92 19.18 -2.59 20.17 -2.25 21.19 C-1.59 21.85 -0.93 22.51 -0.25 23.19 C-2.69 23.69 -5.12 24.19 -7.56 24.69 C-8.25 24.83 -8.94 24.97 -9.65 25.12 C-12.58 25.71 -15.26 26.19 -18.25 26.19 C-18.25 26.85 -18.25 27.51 -18.25 28.19 C-17.14 27.86 -16.02 27.53 -14.88 27.19 C-7.17 25.43 0.9 26.04 8.75 26.19 C10.74 31.59 11.05 34.63 9.75 40.19 C6.13 43.12 1.23 42.53 -3.19 42.5 C-4.03 42.5 -4.88 42.49 -5.75 42.49 C-16.27 42.3 -24.99 40.06 -34.25 35.19 C-34.48 31.33 -34.62 27.48 -34.75 23.62 C-34.82 22.54 -34.88 21.45 -34.95 20.33 C-35.15 12.44 -35.15 12.44 -32.63 8.91 C-29.05 5.64 -25.48 3.36 -20.69 2.31 C-19.82 2.11 -18.95 1.91 -18.06 1.7 C-11.99 0.6 -6.15 0.01 0 0 Z " fill="#646A6F" transform="translate(72.25,91.8125)"/>
<path d="M0 0 C9.37 4.26 15.24 10.95 18.88 20.5 C21.29 28.78 19.61 35.9 15.88 43.5 C12.46 48.76 9.3 51.35 3.5 53.62 C0.73 54.87 0.73 54.87 -1.12 57.5 C-2.01 62.14 -1.95 66.83 -1.75 71.54 C-1.55 78.81 -1.55 78.81 -4.66 82.54 C-8.31 84.6 -11.69 85.89 -15.75 86.75 C-16.48 86.91 -17.22 87.07 -17.97 87.24 C-36.42 90.99 -62.8 92.4 -79.47 82.04 C-82.17 77.9 -81.32 73.51 -81.19 68.69 C-81.04 61.18 -81.04 61.18 -84.38 54.81 C-87.23 53.14 -87.23 53.14 -90.26 51.84 C-95.75 49.27 -98.88 44.42 -101.21 38.95 C-102.83 34.03 -103.46 29.65 -103.12 24.5 C-102.14 24.17 -101.14 23.84 -100.12 23.5 C-100.08 24.74 -100.04 25.97 -100 27.25 C-98.94 36.18 -94.84 43.53 -88 49.31 C-84.88 51.87 -84.88 51.87 -81.07 52.45 C-78.57 51.23 -77.07 49.49 -75.12 47.5 C-65.28 41.33 -54.34 41.62 -43.12 41.5 C-43.12 40.84 -43.12 40.18 -43.12 39.5 C-42.47 39.5 -41.81 39.5 -41.12 39.5 C-41.01 38.78 -40.89 38.06 -40.77 37.32 C-40.1 34.41 -39.12 32.03 -37.84 29.33 C-37.39 28.36 -36.94 27.38 -36.48 26.37 C-35.54 24.35 -34.59 22.33 -33.63 20.31 C-30.67 13.8 -29.42 8.65 -30.12 1.5 C-29.14 1.17 -28.14 0.84 -27.12 0.5 C-26.63 1.98 -26.63 1.98 -26.12 3.5 C-25.53 3.14 -24.94 2.78 -24.32 2.41 C-16.07 -2.21 -9.01 -3.11 0 0 Z M-26.12 9.5 C-27.95 12.71 -27.95 12.71 -29.46 16.26 C-29.74 16.89 -30.02 17.53 -30.31 18.18 C-30.9 19.5 -31.48 20.83 -32.06 22.16 C-32.94 24.2 -33.84 26.23 -34.75 28.26 C-37.79 34.18 -37.79 34.18 -39.12 40.5 C-38.04 40.67 -36.95 40.84 -35.83 41.02 C-11.46 44.97 -11.46 44.97 -4.12 52.5 C-3.8 53.16 -3.47 53.82 -3.12 54.5 C5.34 50.59 12.28 45.22 15.88 36.5 C16.83 29.35 17.32 21.66 13.31 15.38 C11.68 13.31 11.68 13.31 9.88 11.5 C9.33 10.93 8.79 10.36 8.23 9.77 C3.16 4.97 -3.16 1.38 -10.25 1.06 C-17.28 1.86 -21.47 4.27 -26.12 9.5 Z M-76.69 52.45 C-79.67 56.71 -78.83 61.89 -78.56 66.88 C-78.53 67.99 -78.5 69.11 -78.47 70.26 C-78.38 73.01 -78.27 75.75 -78.12 78.5 C-66.98 84.84 -55.47 86.02 -42.81 85.88 C-41.55 85.87 -40.28 85.86 -38.97 85.85 C-26.72 85.66 -15.75 85.01 -5.12 78.5 C-4.98 74.42 -4.89 70.33 -4.81 66.25 C-4.77 65.09 -4.73 63.93 -4.69 62.74 C-4.38 56.27 -4.38 56.27 -7.36 50.84 C-8.27 50.4 -9.18 49.95 -10.12 49.5 C-10.88 49.11 -11.64 48.71 -12.41 48.3 C-22.19 44.41 -31.23 43.33 -41.69 43.25 C-43 43.24 -43 43.24 -44.34 43.22 C-55.26 43.27 -68.23 44.95 -76.69 52.45 Z " fill="#040405" transform="translate(116.125,48.5)"/>
<path d="M0 0 C1.66 10.31 1.66 10.31 -1 14 C-3.22 15.38 -5.45 16.57 -7.81 17.69 C-10.25 19.15 -11.35 20.73 -13 23 C-13.66 23 -14.32 23 -15 23 C-15.99 26.3 -16.98 29.6 -18 33 C-18.66 33 -19.32 33 -20 33 C-20.33 37.62 -20.66 42.24 -21 47 C-26.6 45.6 -30.1 42.81 -33.34 38.02 C-36.86 31.13 -37.44 23.66 -35.15 16.26 C-31.32 7.71 -24.87 2.12 -16.23 -1.35 C-10.53 -3.02 -5.49 -2.2 0 0 Z " fill="#84888D" transform="translate(53,52)"/>
<path d="M0 0 C3.85 2.27 6.4 4.88 8.5 8.81 C10.5 21.59 2.73 33.99 -3 45 C-5.52 41.93 -6.98 38.93 -8.44 35.25 C-9.88 31.65 -11.37 28.21 -13.25 24.81 C-15.69 19.99 -16.93 15.09 -15.34 9.79 C-12.17 2.86 -8.07 -1.39 0 0 Z " fill="#30373C" transform="translate(78,42)"/>
<path d="M0 0 C1.24 0.39 2.47 0.78 3.75 1.19 C4.49 1.46 5.23 1.72 6 2 C6 2.66 6 3.32 6 4 C4.68 4 3.36 4 2 4 C1.81 5.45 1.81 5.45 1.62 6.94 C1 11.35 0.01 15.66 -1 20 C0.65 20.33 2.3 20.66 4 21 C0.1 24.9 -6.62 24.9 -11.95 25.12 C-14.3 25.12 -16.65 25.09 -19 25 C-18.52 24.57 -18.04 24.15 -17.55 23.71 C-15.15 21.06 -15.24 18.49 -15 15 C-15.3 13.33 -15.62 11.66 -16 10 C-29.54 9.79 -29.54 9.79 -43 11 C-43 10.34 -43 9.68 -43 9 C-37.72 7.68 -32.44 6.36 -27 5 C-27.33 4.01 -27.66 3.02 -28 2 C-34.48 1.79 -39.83 2.03 -46 4 C-48.94 4.12 -48.94 4.12 -51 4 C-51 3.34 -51 2.68 -51 2 C-49.11 1.35 -47.21 0.71 -45.31 0.06 C-44.26 -0.3 -43.2 -0.66 -42.11 -1.03 C-29.1 -5.09 -12.79 -4.46 0 0 Z " fill="#2F363B" transform="translate(97,109)"/>
<path d="M0 0 C1.51 0.82 3.01 1.65 4.5 2.5 C4.5 3.49 4.5 4.48 4.5 5.5 C3.84 5.5 3.18 5.5 2.5 5.5 C2.5 6.16 2.5 6.82 2.5 7.5 C0.61 8.46 -1.29 9.42 -3.19 10.38 C-4.24 10.91 -5.3 11.44 -6.39 11.99 C-9.5 13.5 -9.5 13.5 -12.26 14.58 C-15.91 16.08 -17.93 18.42 -19.75 21.88 C-23.45 27.42 -29.08 30.89 -35.5 32.5 C-34.98 26.19 -32.87 21.1 -30.25 15.38 C-29.87 14.49 -29.48 13.61 -29.09 12.71 C-26.25 6.4 -23.41 2.09 -17.19 -1.31 C-10.33 -3.52 -6.33 -3.14 0 0 Z " fill="#676D72" transform="translate(115.5,52.5)"/>
<path d="M0 0 C0.71 -0.01 1.41 -0.02 2.14 -0.04 C5.9 -0.05 7.54 0.05 10.75 2.19 C5.47 2.85 0.19 3.51 -5.25 4.19 C-4.75 5.47 -4.26 6.75 -3.75 8.06 C-2.25 11.94 -2.25 11.94 -2.25 14.19 C-3.35 14.38 -4.44 14.57 -5.57 14.77 C-7.03 15.04 -8.48 15.3 -9.94 15.56 C-10.66 15.69 -11.38 15.82 -12.12 15.95 C-16.08 16.67 -19.51 17.68 -23.25 19.19 C-24.57 19.19 -25.89 19.19 -27.25 19.19 C-28.22 22.73 -28.77 26.3 -29.31 29.94 C-29.49 31.11 -29.67 32.28 -29.85 33.48 C-29.98 34.38 -30.11 35.27 -30.25 36.19 C-31.57 35.86 -32.89 35.53 -34.25 35.19 C-34.48 31.33 -34.62 27.48 -34.75 23.62 C-34.82 22.54 -34.88 21.45 -34.95 20.33 C-35.15 12.44 -35.15 12.44 -32.63 8.91 C-29.05 5.64 -25.48 3.36 -20.69 2.31 C-19.82 2.11 -18.95 1.91 -18.06 1.7 C-11.99 0.6 -6.15 0.01 0 0 Z " fill="#6A7075" transform="translate(72.25,91.8125)"/>
<path d="M0 0 C1.66 10.31 1.66 10.31 -1 14 C-3.22 15.38 -5.45 16.57 -7.81 17.69 C-10.25 19.15 -11.35 20.73 -13 23 C-13.66 23 -14.32 23 -15 23 C-15.99 26.3 -16.98 29.6 -18 33 C-18.66 33 -19.32 33 -20 33 C-20.33 37.62 -20.66 42.24 -21 47 C-24.87 46.03 -25.94 45.47 -28.75 42.94 C-29.36 42.39 -29.98 41.84 -30.61 41.28 C-31.07 40.86 -31.53 40.43 -32 40 C-30.52 39.5 -30.52 39.5 -29 39 C-29.21 38.32 -29.41 37.64 -29.62 36.94 C-30.11 33.17 -29.29 30.54 -28 27 C-27.34 26.67 -26.68 26.34 -26 26 C-26 24.35 -26 22.7 -26 21 C-25.01 20.67 -24.02 20.34 -23 20 C-22.75 19.24 -22.51 18.49 -22.25 17.71 C-20.49 13.89 -17.57 12.58 -14 10.69 C-13.36 10.33 -12.72 9.97 -12.05 9.6 C-7.32 7 -7.32 7 -5 7 C-5 6.01 -5 5.02 -5 4 C-1.46 0 -1.46 0 0 0 Z " fill="#6E7479" transform="translate(53,52)"/>
<path d="M0 0 C4.69 3.61 4.69 3.61 6 5 C6 5.99 6 6.98 6 8 C5.13 8.25 4.27 8.49 3.38 8.75 C-0.18 10.07 -2.88 11.87 -6 14 C-6.66 14 -7.32 14 -8 14 C-8 14.66 -8 15.32 -8 16 C-9.35 16.94 -10.72 17.86 -12.11 18.74 C-14.24 20.16 -16.2 21.71 -18.19 23.31 C-33.37 35.1 -33.37 35.1 -43 34 C-42.01 30.53 -42.01 30.53 -41 27 C-40.67 27.99 -40.34 28.98 -40 30 C-32.45 26.05 -26.29 22.61 -22 15 C-17.04 8.97 -9.18 7.3 -2 5 C-2 4.34 -2 3.68 -2 3 C-1.34 3 -0.68 3 0 3 C0 2.01 0 1.02 0 0 Z " fill="#52595E" transform="translate(120,55)"/>
<path d="M0 0 C2.5 1.12 2.5 1.12 5 3 C5.31 6.19 5.31 6.19 5 9 C5.66 9.33 6.32 9.66 7 10 C4.17 15.88 1.94 18.25 -4 21 C-4.66 21 -5.32 21 -6 21 C-6 21.66 -6 22.32 -6 23 C-6.66 23 -7.32 23 -8 23 C-8.27 23.54 -8.54 24.07 -8.81 24.62 C-9.67 26.34 -10.6 28.03 -11.56 29.69 C-13.87 35.01 -14 40.25 -14 46 C-15.25 47.81 -15.25 47.81 -17 49 C-19.97 48.73 -20.85 48.15 -23 46 C-22.34 46 -21.68 46 -21 46 C-21.01 45.32 -21.02 44.65 -21.04 43.95 C-21.04 43.06 -21.05 42.17 -21.06 41.25 C-21.07 40.37 -21.09 39.49 -21.1 38.58 C-21.01 36.22 -20.67 34.26 -20 32 C-19.34 32 -18.68 32 -18 32 C-17.97 30.52 -17.97 30.52 -17.94 29 C-17.18 23.76 -13.8 20.46 -10 17 C-4.41 13 -4.41 13 -1 13 C-0.14 8.61 0.09 4.47 0 0 Z " fill="#4D545A" transform="translate(53,53)"/>
<path d="M0 0 C0.99 0.66 1.98 1.32 3 2 C2.25 6.75 2.25 6.75 0 9 C-1.08 11.99 -1.98 15.01 -2.9 18.05 C-3.96 20.89 -4.95 22.79 -7 25 C-9.69 25.75 -9.69 25.75 -12 26 C-15.24 21.64 -16.3 17.37 -16 12 C-13.57 3.84 -8.87 -0.99 0 0 Z " fill="#595F65" transform="translate(78,42)"/>
<path d="M0 0 C-4.1 7.51 -4.1 7.51 -7.5 9.38 C-8.33 9.58 -9.15 9.79 -10 10 C-10.93 10.37 -11.86 10.74 -12.81 11.12 C-13.53 11.41 -14.26 11.7 -15 12 C-15 12.66 -15 13.32 -15 14 C-16.64 15.37 -18.31 16.69 -20 18 C-24.43 21.52 -25.52 25.74 -27 31 C-27.66 31 -28.32 31 -29 31 C-29.7 22.83 -28.79 16.78 -24 10 C-16.87 2.23 -10.46 -0.56 0 0 Z " fill="#A0A4A7" transform="translate(46,51)"/>
<path d="M0 0 C3.43 1.94 4.7 3.14 6 6.88 C6 10.72 5.08 12.8 3 16 C-0.71 17.24 -4.15 17.67 -8 17 C-11.25 14.32 -11.9 12.65 -12.56 8.5 C-12 5 -12 5 -9.94 2.06 C-6.24 -0.53 -4.43 -0.71 0 0 Z " fill="#2B3236" transform="translate(78,22)"/>
<path d="M0 0 C0.5 1.48 0.5 1.48 1 3 C-0.12 3.84 -1.25 4.67 -2.38 5.5 C-3 5.96 -3.63 6.43 -4.27 6.91 C-6 8 -6 8 -8 8 C-8.33 9.65 -8.66 11.3 -9 13 C-9.66 13 -10.32 13 -11 13 C-11.33 14.14 -11.33 14.14 -11.67 15.3 C-13.34 18.7 -14.92 19.52 -18.25 21.25 C-19.18 21.75 -20.12 22.25 -21.08 22.77 C-24.08 24.03 -26.78 24.6 -30 25 C-30.33 25.99 -30.66 26.98 -31 28 C-33.52 29.26 -35.31 29.1 -38.12 29.06 C-39.04 29.05 -39.95 29.04 -40.88 29.04 C-41.93 29.02 -41.93 29.02 -43 29 C-38.39 25.36 -33.34 22.34 -28.38 19.2 C-24.94 17.01 -21.67 14.81 -18.59 12.15 C-16 10 -16 10 -14 10 C-14 9.34 -14 8.68 -14 8 C-12.21 6.49 -12.21 6.49 -9.81 4.88 C-9.04 4.34 -8.26 3.8 -7.46 3.24 C-4.73 1.86 -3.01 1.75 0 2 C0 1.34 0 0.68 0 0 Z " fill="#3F464C" transform="translate(126,61)"/>
<path d="M0 0 C0 0.66 0 1.32 0 2 C-0.93 2.44 -1.86 2.87 -2.82 3.32 C-15.43 9.3 -15.43 9.3 -24 20 C-24.64 22.25 -25.2 24.52 -25.69 26.81 C-26.06 28.55 -26.06 28.55 -26.45 30.33 C-26.63 31.21 -26.81 32.09 -27 33 C-27.33 33 -27.66 33 -28 33 C-28.2 29.13 -28.33 25.25 -28.44 21.38 C-28.53 19.73 -28.53 19.73 -28.62 18.06 C-28.78 10.14 -28.78 10.14 -26.6 6.95 C-19.19 0.3 -9.57 -0.56 0 0 Z " fill="#8D9296" transform="translate(67,93)"/>
<path d="M0 0 C-1.6 1.89 -2.54 2.89 -4.99 3.46 C-6.1 3.52 -6.1 3.52 -7.24 3.59 C-8.06 3.65 -8.88 3.71 -9.72 3.78 C-11.44 3.88 -13.15 3.99 -14.87 4.08 C-23.05 4.72 -27.38 8.05 -33 14 C-32.62 7.95 -30.82 3.74 -27 -1 C-17.88 -7.9 -9.13 -5.24 0 0 Z " fill="#8F9497" transform="translate(120,55)"/>
<path d="M0 0 C2.97 0.33 5.94 0.66 9 1 C8.78 1.77 8.57 2.54 8.34 3.34 C8.07 4.34 7.79 5.34 7.5 6.38 C7.22 7.37 6.94 8.37 6.66 9.4 C5.92 11.88 5.92 11.88 6 14 C0.72 14 -4.56 14 -10 14 C-10.99 10.7 -11.98 7.4 -13 4 C-8.67 2.42 -4.57 1.55 0 1 C0 0.67 0 0.34 0 0 Z " fill="#495056" transform="translate(80,92)"/>
<path d="M0 0 C5.94 0 11.88 0 18 0 C20.08 6.23 20.41 7.97 19 14 C16.17 15.95 13.84 16.24 10.45 16.2 C9.19 16.19 9.19 16.19 7.89 16.18 C7.02 16.16 6.15 16.14 5.25 16.12 C3.92 16.11 3.92 16.11 2.56 16.1 C0.37 16.07 -1.81 16.04 -4 16 C-4 15.67 -4 15.34 -4 15 C-2.95 15.04 -1.9 15.08 -0.81 15.12 C3.07 14.41 3.07 14.41 4.58 11.71 C5.82 9.17 6.96 6.63 8 4 C7.34 4 6.68 4 6 4 C6 3.01 6 2.02 6 1 C4.02 1 2.04 1 0 1 C0 0.67 0 0.34 0 0 Z " fill="#4C5257" transform="translate(63,118)"/>
<path d="M0 0 C1.24 0.39 2.47 0.78 3.75 1.19 C4.49 1.46 5.23 1.72 6 2 C6 2.66 6 3.32 6 4 C3.96 3.69 1.92 3.38 -0.12 3.06 C-1.83 2.8 -1.83 2.8 -3.57 2.54 C-5.66 2.21 -7.75 1.85 -9.83 1.45 C-20.95 -0.13 -32.58 0.24 -43.37 3.34 C-46.02 4.01 -48.28 4.12 -51 4 C-51 3.34 -51 2.68 -51 2 C-49.11 1.35 -47.21 0.71 -45.31 0.06 C-44.26 -0.3 -43.2 -0.66 -42.11 -1.03 C-29.1 -5.09 -12.79 -4.46 0 0 Z " fill="#0B0C0D" transform="translate(97,109)"/>
<path d="M0 0 C1.03 4.41 1.04 6.93 -1 11 C-1.66 11 -2.32 11 -3 11 C-3.33 12.32 -3.66 13.64 -4 15 C-6.31 15.33 -8.62 15.66 -11 16 C-11.46 10.28 -10.64 7.45 -7 3 C-4.34 0.58 -3.65 0 0 0 Z " fill="#969B9E" transform="translate(74,42)"/>
<path d="M0 0 C0.19 2.31 0.19 2.31 0 5 C-0.47 5.45 -0.95 5.91 -1.44 6.38 C-3.85 8.89 -3.68 11.64 -4 15 C-5.32 15.33 -6.64 15.66 -8 16 C-10.4 13.5 -10.99 12.05 -11.5 8.56 C-11 5 -11 5 -8.88 2.06 C-5.57 -0.31 -3.98 -0.46 0 0 Z " fill="#909598" transform="translate(77,22)"/>
<path d="M0 0 C0 0.99 0 1.98 0 3 C-7.59 2.1 -7.59 2.1 -10.16 1.47 C-14.36 0.77 -18.5 0.86 -22.75 0.88 C-24.03 0.87 -24.03 0.87 -25.34 0.86 C-30.97 0.87 -36.42 1.29 -42 2 C-42 1.34 -42 0.68 -42 0 C-27.58 -4.51 -14.44 -3.44 0 0 Z " fill="#08090A" transform="translate(96,118)"/>
<path d="M0 0 C3.25 -0.06 6.5 -0.09 9.75 -0.12 C10.67 -0.14 11.59 -0.16 12.54 -0.18 C13.43 -0.18 14.32 -0.19 15.23 -0.2 C16.05 -0.21 16.87 -0.22 17.71 -0.23 C20.22 0.02 21.83 0.74 24 2 C23.67 3.32 23.34 4.64 23 6 C20.56 6.08 18.13 6.14 15.69 6.19 C14.65 6.23 14.65 6.23 13.6 6.26 C8.46 6.34 8.46 6.34 6.02 4.55 C5 3 5 3 5 2 C3.35 1.67 1.7 1.34 0 1 C0 0.67 0 0.34 0 0 Z " fill="#52585E" transform="translate(64,109)"/>
<path d="M0 0 C0.66 0.33 1.32 0.66 2 1 C2.56 5.82 3.01 10.16 0.62 14.51 C-3.78 19.82 -3.78 19.82 -7.61 20.39 C-8.4 20.26 -9.19 20.13 -10 20 C-12.15 16.77 -12.2 15.72 -12 12 C-11.67 13.32 -11.34 14.64 -11 16 C-7.51 15.23 -7.51 15.23 -4 14 C-3.67 13.01 -3.34 12.02 -3 11 C-2.34 11 -1.68 11 -1 11 C-0.67 7.37 -0.34 3.74 0 0 Z " fill="#747A7E" transform="translate(74,42)"/>
<path d="M0 0 C0.66 0.33 1.32 0.66 2 1 C2 4.3 2 7.6 2 11 C1.34 11 0.68 11 0 11 C0.66 12.65 1.32 14.3 2 16 C1 17 1 17 -0.85 17.1 C-2.9 17.07 -4.95 17.03 -7 17 C-6.34 16.34 -5.68 15.68 -5 15 C-4.86 13.87 -4.71 12.73 -4.56 11.56 C-3.96 7.78 -3.63 7.41 -1 5 C-0.28 2.39 -0.28 2.39 0 0 Z " fill="#3B4247" transform="translate(77,22)"/>
<path d="M0 0 C-0.33 1.65 -0.66 3.3 -1 5 C-6.75 5.12 -6.75 5.12 -9 4 C-9 2.68 -9 1.36 -9 0 C-5.93 -1.53 -3.3 -0.55 0 0 Z " fill="#3F474C" transform="translate(88,110)"/>
<path d="M0 0 C0.33 0 0.66 0 1 0 C1.19 2.31 1.19 2.31 1 5 C0.53 5.45 0.05 5.91 -0.44 6.38 C-2.85 8.89 -2.68 11.64 -3 15 C-4.32 15.33 -5.64 15.66 -7 16 C-7.66 15.01 -8.32 14.02 -9 13 C-8.01 12.34 -7.02 11.68 -6 11 C-5.67 10.17 -5.34 9.35 -5 8.5 C-4 6 -4 6 -1 4 C-0.28 1.94 -0.28 1.94 0 0 Z " fill="#777D81" transform="translate(76,22)"/>
<path d="M0 0 C0.66 0.33 1.32 0.66 2 1 C0.92 5.89 -0.03 9.87 -3 14 C-3.33 14 -3.66 14 -4 14 C-4.19 11.19 -4.19 11.19 -4 8 C-2.56 6.44 -2.56 6.44 -1 5 C-0.28 2.39 -0.28 2.39 0 0 Z " fill="#575E63" transform="translate(77,22)"/>
<path d="M0 0 C1.03 3.1 1.18 4.06 0 7 C-0.99 7.33 -1.98 7.66 -3 8 C-3.33 6.35 -3.66 4.7 -4 3 C-2.68 2.01 -1.36 1.02 0 0 Z " fill="#A1A5A8" transform="translate(70,24)"/>
</svg>
