<?xml version="1.0" encoding="UTF-8"?>
<!-- Generator: visioncortex VTracer 0.6.3 -->
<svg version="1.1" xmlns="http://www.w3.org/2000/svg" width="150" height="150">
<path d="M0 0 C0.94 1.51 1.83 3.06 2.69 4.62 C4.09 7.1 4.09 7.1 6 9 C8.8 9.56 11.16 9.37 14 9.14 C23.45 8.71 33.92 12.85 41.19 18.79 C43.27 20.76 45.15 22.81 47 25 C47.52 25.6 48.04 26.2 48.58 26.81 C66.48 50.23 65.34 88.73 62.55 116.55 C62 120 62 120 61 121 C58.34 121.12 55.71 121.18 53.06 121.19 C52.22 121.2 51.39 121.21 50.53 121.22 C47.77 121.24 45 121.26 42.23 121.27 C41.29 121.28 40.34 121.28 39.37 121.29 C34.38 121.32 29.39 121.34 24.4 121.35 C19.24 121.37 14.08 121.41 8.92 121.46 C4.95 121.5 0.99 121.51 -2.97 121.51 C-4.87 121.52 -6.78 121.54 -8.68 121.56 C-11.34 121.59 -14 121.59 -16.67 121.58 C-17.46 121.6 -18.24 121.62 -19.06 121.63 C-22.96 121.59 -24.63 121.36 -27.48 118.6 C-29.99 114.3 -29.86 110.84 -29 106 C-24.61 92.82 -14.2 83.32 -3.51 75.04 C1.82 70.81 1.82 70.81 5 65 C-4.32 72.04 -13.55 79.16 -22.56 86.6 C-33.96 95.98 -33.96 95.98 -38.31 96.06 C-41 95 -41 95 -42.38 92.94 C-42.58 92.3 -42.79 91.66 -43 91 C-43.89 91.08 -44.77 91.17 -45.69 91.25 C-49.79 90.94 -51.16 89.92 -54 87 C-56.27 83.01 -56.45 79.53 -56 75 C-53.6 68.33 -49.96 62.21 -46.38 56.12 C-45.64 54.86 -45.64 54.86 -44.89 53.58 C-42.99 50.33 -41.09 47.13 -39 44 C-38.77 42.84 -38.55 41.69 -38.31 40.5 C-37.45 36.55 -35.7 34.05 -33.31 30.81 C-29.53 25.24 -29.63 21.36 -30.73 14.85 C-31.02 11.78 -30.65 10.54 -29 8 C-22.89 7.22 -19 9.89 -14 13 C-13.76 12.08 -13.52 11.17 -13.27 10.23 C-12.93 9.04 -12.6 7.85 -12.25 6.62 C-11.93 5.44 -11.6 4.26 -11.27 3.04 C-10 0 -10 0 -8.04 -1.43 C-4.63 -2.38 -3.11 -1.68 0 0 Z " fill="#373D42" transform="translate(71,17)"/>
<path d="M0 0 C0.94 1.51 1.83 3.06 2.69 4.62 C4.09 7.1 4.09 7.1 6 9 C8.8 9.56 11.16 9.37 14 9.14 C23.45 8.71 33.92 12.85 41.19 18.79 C43.27 20.76 45.15 22.81 47 25 C47.52 25.6 48.04 26.2 48.58 26.81 C66.48 50.23 65.34 88.73 62.55 116.55 C62 120 62 120 61 121 C58.34 121.12 55.71 121.18 53.06 121.19 C52.22 121.2 51.39 121.21 50.53 121.22 C47.77 121.24 45 121.26 42.23 121.27 C41.29 121.28 40.34 121.28 39.37 121.29 C34.38 121.32 29.39 121.34 24.4 121.35 C19.24 121.37 14.08 121.41 8.92 121.46 C4.95 121.5 0.99 121.51 -2.97 121.51 C-4.87 121.52 -6.78 121.54 -8.68 121.56 C-11.34 121.59 -14 121.59 -16.67 121.58 C-17.46 121.6 -18.24 121.62 -19.06 121.63 C-22.96 121.59 -24.63 121.36 -27.48 118.6 C-29.99 114.3 -29.86 110.84 -29 106 C-24.61 92.82 -14.2 83.32 -3.51 75.04 C1.82 70.81 1.82 70.81 5 65 C-4.32 72.04 -13.55 79.16 -22.56 86.6 C-33.96 95.98 -33.96 95.98 -38.31 96.06 C-41 95 -41 95 -42.38 92.94 C-42.58 92.3 -42.79 91.66 -43 91 C-43.89 91.08 -44.77 91.17 -45.69 91.25 C-49.79 90.94 -51.16 89.92 -54 87 C-56.27 83.01 -56.45 79.53 -56 75 C-53.6 68.33 -49.96 62.21 -46.38 56.12 C-45.64 54.86 -45.64 54.86 -44.89 53.58 C-42.99 50.33 -41.09 47.13 -39 44 C-38.77 42.84 -38.55 41.69 -38.31 40.5 C-37.45 36.55 -35.7 34.05 -33.31 30.81 C-29.53 25.24 -29.63 21.36 -30.73 14.85 C-31.02 11.78 -30.65 10.54 -29 8 C-22.89 7.22 -19 9.89 -14 13 C-13.76 12.08 -13.52 11.17 -13.27 10.23 C-12.93 9.04 -12.6 7.85 -12.25 6.62 C-11.93 5.44 -11.6 4.26 -11.27 3.04 C-10 0 -10 0 -8.04 -1.43 C-4.63 -2.38 -3.11 -1.68 0 0 Z M-7 2 C-7.27 3.01 -7.54 4.02 -7.81 5.06 C-8.21 6.38 -8.6 7.69 -9 9 C-9.33 10.18 -9.66 11.35 -10 12.56 C-12.5 16.86 -15.16 18.12 -19.43 20.48 C-26.63 24.74 -32.38 31.87 -34.54 40.04 C-34.67 40.68 -34.8 41.33 -34.94 42 C-35.83 46.21 -37.89 49.1 -40.35 52.57 C-42.72 56.05 -44.65 59.72 -46.61 63.44 C-47.77 65.58 -49.03 67.54 -50.38 69.56 C-52.49 74.03 -52.91 78.13 -52 83 C-50.57 85.27 -50.57 85.27 -49 87 C-42.85 86.63 -40.31 85.1 -36 81 C-38.88 85.88 -38.88 85.88 -40 87 C-40.04 88.67 -40.04 90.33 -40 92 C-37.06 92.26 -35.44 92.27 -32.89 90.71 C-31.8 89.77 -31.8 89.77 -30.69 88.81 C-29.39 87.72 -29.39 87.72 -28.07 86.61 C-27.35 86 -27.35 86 -26.61 85.37 C-23.47 82.7 -20.26 80.1 -17.06 77.5 C-16.38 76.94 -15.69 76.38 -14.98 75.8 C-10.17 71.88 -5.25 68.2 -0.14 64.68 C2.97 62.24 4.79 60.44 5.36 56.45 C5.26 50.93 4.85 46.21 3 41 C5 42 5 42 6.12 44.88 C7.45 49.85 7.15 54.89 7 60 C6.95 63.07 6.95 63.07 7.31 66.38 C6.83 71.95 3.16 74.02 -0.98 77.51 C-1.5 77.93 -2.02 78.36 -2.55 78.79 C-9.36 84.35 -15.41 90.19 -21 97 C-21.74 97.89 -21.74 97.89 -22.5 98.79 C-25.24 102.66 -25.15 106.17 -25.09 110.73 C-25.07 111.9 -25.06 113.07 -25.05 114.28 C-25.03 115.18 -25.02 116.08 -25 117 C-19.15 117.02 -13.29 117.04 -7.44 117.05 C-5.45 117.06 -3.46 117.07 -1.47 117.08 C1.39 117.09 4.26 117.09 7.13 117.1 C8.01 117.1 8.89 117.11 9.8 117.11 C14.63 117.11 19.26 117 24 116 C24.33 115.34 24.66 114.68 25 114 C24.34 114 23.68 114 23 114 C23.14 112.7 23.29 111.4 23.44 110.06 C23.57 108.81 23.57 108.81 23.71 107.53 C23.96 105.37 24.23 103.22 24.5 101.06 C25.04 96.22 25.33 91.36 25.62 86.5 C25.68 85.69 25.73 84.87 25.78 84.03 C25.9 82.02 25.95 80.01 26 78 C25.67 77.67 25.34 77.34 25 77 C25.37 75.83 25.75 74.66 26.13 73.45 C29.49 62.45 31.41 54 27 43 C26.88 40.44 26.88 40.44 27 38 C27 36.68 27 35.36 27 34 C25.52 34.49 25.52 34.49 24 35 C22.49 39.84 23.63 43.26 25 48 C22.81 43.44 21.43 40.16 22 35 C22.63 33.65 23.3 32.32 24 31 C24 29.68 24 28.36 24 27 C27.96 21.39 27.96 21.39 31.31 20.12 C31.87 20.08 32.43 20.04 33 20 C32.5 20.76 32.01 21.53 31.5 22.31 C29.76 24.92 29.76 24.92 30 28 C31.98 26.68 33.96 25.36 36 24 C35.34 24.95 34.68 25.9 34 26.88 C31.82 29.66 31.82 29.66 32 32 C35.49 31.35 38.03 29.9 41 28 C40.01 29.65 39.02 31.3 38 33 C41 34.33 41 34.33 44 33 C43.48 33.6 42.97 34.2 42.44 34.81 C41.96 35.53 41.49 36.26 41 37 C41.33 37.99 41.66 38.98 42 40 C43.65 39.34 45.3 38.68 47 38 C46.5 38.76 46.01 39.53 45.5 40.31 C43.76 42.92 43.76 42.92 44 46 C45.98 45.34 47.96 44.68 50 44 C48.9 45.3 47.8 46.59 46.69 47.88 C46.07 48.59 45.46 49.31 44.82 50.05 C43 52 43 52 40 54 C40.99 55.98 40.99 55.98 42 58 C43.17 57.05 44.34 56.09 45.5 55.12 C46.15 54.59 46.8 54.06 47.47 53.51 C47.97 53.01 48.48 52.51 49 52 C49 51.34 49 50.68 49 50 C49.99 50.99 50.98 51.98 52 53 C51.16 53.37 51.16 53.37 50.31 53.75 C47.6 55.22 45.36 57.03 43 59 C43.5 61.97 43.5 61.97 44 65 C44.33 64.01 44.66 63.02 45 62 C46.81 61 46.81 61 49 60 C50.35 59.02 51.69 58.03 53 57 C51.04 60.53 48.96 63.24 46 66 C46.33 66.66 46.66 67.32 47 68 C49.49 66.8 51.68 65.55 54 64 C53.5 64.78 53.01 65.57 52.5 66.38 C50.83 68.79 50.83 68.79 51 71 C49.52 71.5 49.52 71.5 48 72 C48.66 72 49.32 72 50 72 C50.33 72.66 50.66 73.32 51 74 C52.32 73.34 53.64 72.68 55 72 C54.67 74.31 54.34 76.62 54 79 C54.66 79 55.32 79 56 79 C55.65 79.52 55.31 80.05 54.95 80.59 C53.65 83.89 54.22 86.08 54.81 89.56 C56.25 98.67 56.62 107.79 57 117 C57.66 117 58.32 117 59 117 C59.05 110.88 59.09 104.77 59.11 98.65 C59.12 96.58 59.13 94.51 59.15 92.43 C59.34 69.29 58.86 41.57 41.86 23.52 C33.77 16.91 25.12 12.68 14.62 12.88 C12.76 12.9 12.76 12.9 10.85 12.93 C9.91 12.95 8.97 12.98 8 13 C8.66 14.98 9.32 16.96 10 19 C5.8 15.18 2.73 10.91 -0.45 6.21 C-1.95 3.93 -1.95 3.93 -4 2 C-4.99 2 -5.98 2 -7 2 Z " fill="#2A3034" transform="translate(71,17)"/>
<path d="M0 0 C0.94 1.51 1.83 3.06 2.69 4.62 C4.09 7.1 4.09 7.1 6 9 C8.8 9.56 11.16 9.37 14 9.14 C23.45 8.71 33.92 12.85 41.19 18.79 C43.27 20.76 45.15 22.81 47 25 C47.52 25.6 48.04 26.2 48.58 26.81 C66.48 50.23 65.34 88.73 62.55 116.55 C62 120 62 120 61 121 C58.34 121.12 55.71 121.18 53.06 121.19 C52.22 121.2 51.39 121.21 50.53 121.22 C47.77 121.24 45 121.26 42.23 121.27 C41.29 121.28 40.34 121.28 39.37 121.29 C34.38 121.32 29.39 121.34 24.4 121.35 C19.24 121.37 14.08 121.41 8.92 121.46 C4.95 121.5 0.99 121.51 -2.97 121.51 C-4.87 121.52 -6.78 121.54 -8.68 121.56 C-11.34 121.59 -14 121.59 -16.67 121.58 C-17.46 121.6 -18.24 121.62 -19.06 121.63 C-22.96 121.59 -24.63 121.36 -27.48 118.6 C-29.99 114.3 -29.86 110.84 -29 106 C-24.61 92.82 -14.2 83.32 -3.51 75.04 C1.82 70.81 1.82 70.81 5 65 C-4.32 72.04 -13.55 79.16 -22.56 86.6 C-33.96 95.98 -33.96 95.98 -38.31 96.06 C-41 95 -41 95 -42.38 92.94 C-42.58 92.3 -42.79 91.66 -43 91 C-43.89 91.08 -44.77 91.17 -45.69 91.25 C-49.79 90.94 -51.16 89.92 -54 87 C-56.27 83.01 -56.45 79.53 -56 75 C-53.6 68.33 -49.96 62.21 -46.38 56.12 C-45.64 54.86 -45.64 54.86 -44.89 53.58 C-42.99 50.33 -41.09 47.13 -39 44 C-38.77 42.84 -38.55 41.69 -38.31 40.5 C-37.45 36.55 -35.7 34.05 -33.31 30.81 C-29.53 25.24 -29.63 21.36 -30.73 14.85 C-31.02 11.78 -30.65 10.54 -29 8 C-22.89 7.22 -19 9.89 -14 13 C-13.76 12.08 -13.52 11.17 -13.27 10.23 C-12.93 9.04 -12.6 7.85 -12.25 6.62 C-11.93 5.44 -11.6 4.26 -11.27 3.04 C-10 0 -10 0 -8.04 -1.43 C-4.63 -2.38 -3.11 -1.68 0 0 Z M-7 2 C-7.27 3.01 -7.54 4.02 -7.81 5.06 C-8.21 6.38 -8.6 7.69 -9 9 C-9.33 10.18 -9.66 11.35 -10 12.56 C-12.5 16.86 -15.16 18.12 -19.43 20.48 C-26.63 24.74 -32.38 31.87 -34.54 40.04 C-34.67 40.68 -34.8 41.33 -34.94 42 C-35.83 46.21 -37.89 49.1 -40.35 52.57 C-42.72 56.05 -44.65 59.72 -46.61 63.44 C-47.77 65.58 -49.03 67.54 -50.38 69.56 C-52.49 74.03 -52.91 78.13 -52 83 C-50.57 85.27 -50.57 85.27 -49 87 C-42.85 86.63 -40.31 85.1 -36 81 C-38.88 85.88 -38.88 85.88 -40 87 C-40.04 88.67 -40.04 90.33 -40 92 C-37.06 92.26 -35.44 92.27 -32.89 90.71 C-31.8 89.77 -31.8 89.77 -30.69 88.81 C-29.39 87.72 -29.39 87.72 -28.07 86.61 C-27.35 86 -27.35 86 -26.61 85.37 C-23.47 82.7 -20.26 80.1 -17.06 77.5 C-16.38 76.94 -15.69 76.38 -14.98 75.8 C-10.17 71.88 -5.25 68.2 -0.14 64.68 C2.97 62.24 4.79 60.44 5.36 56.45 C5.26 50.93 4.85 46.21 3 41 C5 42 5 42 6.12 44.88 C7.45 49.85 7.15 54.89 7 60 C6.95 63.07 6.95 63.07 7.31 66.38 C6.83 71.95 3.16 74.02 -0.98 77.51 C-1.5 77.93 -2.02 78.36 -2.55 78.79 C-9.36 84.35 -15.41 90.19 -21 97 C-21.74 97.89 -21.74 97.89 -22.5 98.79 C-26.63 104.63 -25 109.18 -25 117 C2.72 117 30.44 117 59 117 C59.04 109.91 59.08 102.81 59.12 95.5 C59.14 93.3 59.16 91.09 59.18 88.82 C59.29 66.8 57.94 40.59 41.86 23.52 C33.77 16.91 25.12 12.68 14.62 12.88 C12.76 12.9 12.76 12.9 10.85 12.93 C9.91 12.95 8.97 12.98 8 13 C8.66 14.98 9.32 16.96 10 19 C5.8 15.18 2.73 10.91 -0.45 6.21 C-1.95 3.93 -1.95 3.93 -4 2 C-4.99 2 -5.98 2 -7 2 Z " fill="#060606" transform="translate(71,17)"/>
<path d="M0 0 C3.69 0.69 3.69 0.69 5 2 C5.91 10.78 1.37 19.22 -4 26 C-7.12 28.25 -7.12 28.25 -10 30 C-12 31.8 -12 31.8 -13 34 C-12.78 36.7 -12.78 36.7 -12 39 C-8.64 38.4 -6.62 37.15 -4 35 C-4.35 35.72 -4.7 36.44 -5.06 37.19 C-6.26 39.94 -6.26 39.94 -5.38 42.56 C-5.25 43.37 -5.13 44.17 -5 45 C-5.58 45.56 -6.16 46.11 -6.75 46.69 C-9.2 49.2 -9.6 50.5 -10.5 53.81 C-11.94 59.09 -13.47 64.21 -18.12 67.5 C-20 68 -20 68 -22 67 C-26.99 68.07 -26.99 68.07 -31 71 C-31.43 72.07 -31.87 73.14 -32.31 74.25 C-33.94 78.2 -36.05 80.9 -39 84 C-40.48 84.5 -40.48 84.5 -42 85 C-45.16 81.26 -45.76 78.79 -45.6 73.96 C-44.32 67.66 -40.41 62.35 -37 57 C-35.36 54.4 -33.73 51.8 -32.12 49.19 C-31.73 48.55 -31.34 47.92 -30.94 47.27 C-28.49 43.17 -27.26 39.72 -26.57 35.05 C-24.65 28.12 -17.71 22.06 -12 18 C-11.3 17.65 -10.61 17.3 -9.89 16.95 C-6.19 15.09 -4.4 14.03 -2.86 10.05 C-2.34 7.9 -1.87 5.73 -1.47 3.55 C-1 1 -1 1 0 0 Z " fill="#4D545A" transform="translate(64,19)"/>
<path d="M0 0 C1.3 2.59 0.99 4.18 0.75 7.06 C0.68 7.96 0.62 8.86 0.55 9.79 C0.09 12.48 -0.53 14.66 -1.44 17.21 C-3.2 22.26 -3.98 27.28 -4.69 32.56 C-4.82 33.48 -4.95 34.39 -5.08 35.33 C-5.39 37.55 -5.7 39.78 -6 42 C-9.24 43.08 -11.58 43.11 -14.98 43.1 C-16.14 43.09 -17.31 43.09 -18.51 43.09 C-19.72 43.08 -20.94 43.07 -22.19 43.06 C-23.41 43.06 -24.64 43.05 -25.9 43.05 C-28.94 43.04 -31.97 43.02 -35 43 C-35.07 40.93 -35.11 38.86 -35.15 36.79 C-35.18 35.64 -35.21 34.49 -35.24 33.3 C-34.85 27.97 -32.41 24.93 -29 21 C-28.32 20.18 -27.65 19.36 -26.95 18.51 C-22.04 12.77 -16.61 6.76 -10 3 C-6.7 2.79 -6.7 2.79 -4 3 C-4 2.34 -4 1.68 -4 1 C-2 0 -2 0 0 0 Z " fill="#6D7377" transform="translate(81,91)"/>
<path d="M0 0 C1.88 0.25 1.88 0.25 4 1 C7.89 6.32 7.51 15.58 6.58 21.81 C6.07 23.88 5.54 25.94 5 28 C5.33 28.99 5.66 29.98 6 31 C4.98 33.78 3.89 36.43 2.69 39.12 C-1.62 49.22 -3.29 58.02 -4 69 C-7.3 69 -10.6 69 -14 69 C-12.52 68.5 -12.52 68.5 -11 68 C-11.04 66.93 -11.08 65.86 -11.12 64.75 C-11.1 56.47 -9.26 48.64 -6.88 40.75 C-5.33 35.57 -4.57 31.38 -5 26 C-6.32 26.33 -7.64 26.66 -9 27 C-9 27.66 -9 28.32 -9 29 C-10.65 29 -12.3 29 -14 29 C-13.59 28.56 -13.18 28.13 -12.76 27.68 C-9.39 23.96 -7.22 20.99 -6 16 C-5.67 16.99 -5.34 17.98 -5 19 C-2.39 17.69 -2.31 16.72 -1.38 14 C0.16 9.18 0.24 5.03 0 0 Z " fill="#474D53" transform="translate(86,65)"/>
<path d="M0 0 C3.69 0.69 3.69 0.69 5 2 C5.59 8.24 5.59 8.24 3.12 11.44 C1 13 1 13 -1 13 C-1 13.66 -1 14.32 -1 15 C-1.66 15.33 -2.32 15.66 -3 16 C-3.49 17.48 -3.49 17.48 -4 19 C-4.66 19 -5.32 19 -6 19 C-6.34 20.14 -6.34 20.14 -6.69 21.31 C-8.31 24.63 -9.68 25.46 -13 27 C-15.81 27.69 -15.81 27.69 -18 28 C-18.33 28.99 -18.66 29.98 -19 31 C-19.66 31 -20.32 31 -21 31 C-21.12 31.56 -21.25 32.11 -21.38 32.69 C-22 35 -22 35 -23.02 37.15 C-24.04 40.12 -24.18 42.71 -24.28 45.83 C-24.45 49.5 -24.9 52.45 -26 56 C-29.66 59.12 -33.41 60.65 -38 62 C-37.48 57.17 -35.14 53.73 -32.56 49.75 C-29.47 44.82 -27.43 40.85 -26.57 35.05 C-24.65 28.12 -17.71 22.06 -12 18 C-11.3 17.65 -10.61 17.3 -9.89 16.95 C-6.19 15.09 -4.4 14.03 -2.86 10.05 C-2.34 7.9 -1.87 5.73 -1.47 3.55 C-1 1 -1 1 0 0 Z " fill="#92969A" transform="translate(64,19)"/>
<path d="M0 0 C0.66 0 1.32 0 2 0 C0.71 5.03 -1.17 7.54 -5 11 C-5.54 11.6 -6.07 12.2 -6.62 12.81 C-8 14 -8 14 -11 14 C-12.69 17.79 -13.45 21.27 -14 25.38 C-16.04 38.96 -16.04 38.96 -22.12 43.71 C-25.57 46.08 -29.05 47.68 -33 49 C-33 49.66 -33 50.32 -33 51 C-33.74 51.56 -34.48 52.11 -35.25 52.69 C-39.76 56.48 -42.28 61.06 -43 67 C-43.33 67 -43.66 67 -44 67 C-44.81 58.76 -42.35 53.92 -38 47 C-37.01 47 -36.02 47 -35 47 C-31.62 46.19 -28.79 45.09 -26 43 C-24.53 39.76 -24.34 36.58 -24.12 33.06 C-23.07 20.9 -23.07 20.9 -17.75 15.88 C-15 14 -15 14 -11.38 12.56 C-7.62 10.82 -6.84 9.58 -5 6 C-4.34 6 -3.68 6 -3 6 C-2.67 4.68 -2.34 3.36 -2 2 C-1.34 2 -0.68 2 0 2 C0 1.34 0 0.68 0 0 Z " fill="#676D72" transform="translate(63,32)"/>
<path d="M0 0 C1.5 1.14 1.5 1.14 3 3 C3.22 5.71 3.22 5.71 3.06 8.81 C2.94 13.41 3.35 16.68 5 21 C5 22.98 5 24.96 5 27 C-0.61 27 -6.22 27 -12 27 C-12.61 17.42 -12.16 12.37 -6 5 C-5.34 4.01 -4.68 3.02 -4 2 C-1.88 0.81 -1.88 0.81 0 0 Z " fill="#94999D" transform="translate(58,107)"/>
<path d="M0 0 C1.12 3.36 0.85 4.92 -0.6 8.12 C-3.05 11.41 -6.65 13.06 -10.14 15.11 C-17.81 20.17 -22.96 27.41 -25.06 36.31 C-25.37 37.53 -25.68 38.75 -26 40 C-26.99 40.49 -26.99 40.49 -28 41 C-28 39.02 -28 37.04 -28 35 C-27.67 35 -27.34 35 -27 35 C-26.73 33.77 -26.73 33.77 -26.45 32.52 C-26.2 31.44 -25.95 30.36 -25.69 29.25 C-25.44 28.18 -25.2 27.12 -24.95 26.02 C-24 23 -24 23 -22.37 21.02 C-20.37 18.07 -20.99 15.97 -21.44 12.5 C-22.32 5.57 -22.32 5.57 -20 2 C-14.68 1.34 -12.01 2.94 -7.83 5.91 C-5.93 7.26 -5.93 7.26 -3 7 C-2.01 4.69 -1.02 2.38 0 0 Z " fill="#080909" transform="translate(62,23)"/>
<path d="M0 0 C1.3 2.59 0.99 4.18 0.75 7.06 C0.68 7.96 0.62 8.86 0.55 9.79 C0.09 12.48 -0.53 14.66 -1.44 17.21 C-3.2 22.26 -3.98 27.28 -4.69 32.56 C-4.82 33.48 -4.95 34.39 -5.08 35.33 C-5.39 37.55 -5.7 39.78 -6 42 C-10.45 42.5 -10.45 42.5 -15 43 C-13.52 42.5 -13.52 42.5 -12 42 C-12 40.02 -12 38.04 -12 36 C-10.52 35.5 -10.52 35.5 -9 35 C-8.94 34.11 -8.88 33.22 -8.82 32.3 C-8.73 31.13 -8.65 29.96 -8.56 28.75 C-8.48 27.59 -8.4 26.43 -8.32 25.23 C-8 22 -8 22 -7.46 19.87 C-6.91 17.64 -6.94 15.67 -7 13.38 C-7.11 9.22 -7.11 9.22 -6 7 C-6.99 7.33 -7.98 7.66 -9 8 C-11.69 7.56 -11.69 7.56 -14 7 C-12.38 5 -12.38 5 -10 3 C-6.75 2.75 -6.75 2.75 -4 3 C-4 2.34 -4 1.68 -4 1 C-2 0 -2 0 0 0 Z " fill="#5C6268" transform="translate(81,91)"/>
<path d="M0 0 C1.1 3.31 0.91 4.91 -0.5 8.08 C-3.84 12.35 -9.25 14.58 -14 17 C-14.33 16.34 -14.66 15.68 -15 15 C-15.66 15 -16.32 15 -17 15 C-18.86 11.87 -19.2 9.63 -19 6 C-16 5 -16 5 -14.13 5.85 C-13.47 6.25 -12.81 6.65 -12.12 7.06 C-8.86 8.79 -8.86 8.79 -5.19 8.69 C-2.02 6.24 -1.32 3.75 0 0 Z " fill="#060607" transform="translate(62,23)"/>
<path d="M0 0 C5.2 0.04 9.75 2.65 14.06 5.38 C14.39 6.03 14.72 6.7 15.06 7.38 C14.3 7.05 13.54 6.72 12.75 6.38 C10.07 5.2 10.07 5.2 7.06 5.38 C6.4 6.03 5.74 6.7 5.06 7.38 C5.06 6.38 5.06 5.39 5.06 4.38 C2.43 5.9 0.22 7.22 -1.94 9.38 C-2.93 9.38 -3.92 9.38 -4.94 9.38 C-4.63 8.78 -4.32 8.18 -4 7.56 C-2.84 5.29 -2.84 5.29 -1.94 2.38 C-2.6 2.05 -3.26 1.72 -3.94 1.38 C-2.94 0.38 -2.94 0.38 0 0 Z " fill="#585E64" transform="translate(91.9375,30.625)"/>
<path d="M0 0 C-0.67 2 -1.33 4 -2 6 C-2.29 6.89 -2.58 7.77 -2.88 8.69 C-3.25 9.78 -3.62 10.87 -4 12 C-4.31 12.92 -4.62 13.84 -4.95 14.79 C-5.29 15.79 -5.64 16.78 -6 17.81 C-6.49 19.25 -6.49 19.25 -7 20.71 C-8 23 -8 23 -10 24 C-9.74 21.44 -9.47 18.87 -9.19 16.31 C-9.12 15.59 -9.05 14.87 -8.97 14.13 C-8.39 9.04 -6.4 0 0 0 Z " fill="#767C80" transform="translate(48,47)"/>
<path d="M0 0 C-0.37 2.72 -0.73 4.61 -2.31 6.88 C-4 8 -4 8 -6.19 7.69 C-6.79 7.46 -7.38 7.23 -8 7 C-8.69 4.69 -8.69 4.69 -9 2 C-6.74 -2 -4.01 -0.98 0 0 Z M-5 0 C-5.33 1.65 -5.66 3.3 -6 5 C-4.68 4.34 -3.36 3.68 -2 3 C-2 2.34 -2 1.68 -2 1 C-2.99 0.67 -3.98 0.34 -5 0 Z " fill="#090A0A" transform="translate(59,51)"/>
<path d="M0 0 C3.88 0.88 3.88 0.88 5 2 C5.38 5.31 5.38 5.31 5 9 C2.5 11.44 2.5 11.44 0 13 C0.33 10.36 0.66 7.72 1 5 C0.34 5 -0.32 5 -1 5 C-0.67 3.35 -0.34 1.7 0 0 Z " fill="#808589" transform="translate(64,19)"/>
<path d="M0 0 C-1.4 3.16 -3.05 5.32 -5.5 7.75 C-6.41 8.67 -6.41 8.67 -7.34 9.61 C-9 11 -9 11 -11 11 C-10.42 7.46 -9.16 5.75 -6.62 3.25 C-6.02 2.64 -5.41 2.02 -4.79 1.39 C-3 0 -3 0 0 0 Z " fill="#08090A" transform="translate(112,45)"/>
<path d="M0 0 C0.66 0 1.32 0 2 0 C2 1.65 2 3.3 2 5 C3.32 5.33 4.64 5.66 6 6 C5.67 6.99 5.34 7.98 5 9 C2.94 9.69 2.94 9.69 1 10 C-0.85 6.88 -1.29 4.62 -1 1 C-0.67 0.67 -0.34 0.34 0 0 Z " fill="#6D7377" transform="translate(44,28)"/>
<path d="M0 0 C-0.58 3.25 -1.53 4.94 -3.88 7.25 C-4.39 7.77 -4.9 8.29 -5.43 8.83 C-7 10 -7 10 -10 10 C-8.5 6.1 -4.54 0 0 0 Z " fill="#070708" transform="translate(118,55)"/>
<path d="M0 0 C0.33 1.32 0.66 2.64 1 4 C-1.46 6.87 -3.85 8.9 -7 11 C-7.33 9.68 -7.66 8.36 -8 7 C-5.36 4.69 -2.72 2.38 0 0 Z " fill="#34393D" transform="translate(119,64)"/>
<path d="M0 0 C-1.38 3.21 -2.92 5.05 -5.62 7.25 C-6.57 8.03 -6.57 8.03 -7.54 8.83 C-8.02 9.21 -8.5 9.6 -9 10 C-9 6 -9 6 -7.79 4.3 C-7.26 3.79 -6.73 3.28 -6.19 2.75 C-5.67 2.23 -5.14 1.71 -4.61 1.17 C-3 0 -3 0 0 0 Z " fill="#08090A" transform="translate(121,61)"/>
<path d="M0 0 C0.99 0 1.98 0 3 0 C1.43 4.09 -1.54 7.36 -5 10 C-5.99 10 -6.98 10 -8 10 C-6.5 6.18 -4.2 4.46 -1 2 C-0.67 1.34 -0.34 0.68 0 0 Z " fill="#050606" transform="translate(112,50)"/>
<path d="M0 0 C-1.68 3.97 -4.08 6.87 -7 10 C-7.99 10 -8.98 10 -10 10 C-8.5 6.1 -4.54 0 0 0 Z " fill="#060607" transform="translate(107,41)"/>
<path d="M0 0 C0.33 0.66 0.66 1.32 1 2 C1.66 2.33 2.32 2.66 3 3 C2.36 4.05 1.72 5.1 1.06 6.19 C-0.62 9.11 -1.59 11.62 -2 15 C-2.33 15 -2.66 15 -3 15 C-3.35 9.16 -3.17 5.15 0 0 Z " fill="#656B70" transform="translate(22,84)"/>
<path d="M0 0 C0.99 0.33 1.98 0.66 3 1 C3 3 3 3 1.54 4.51 C0.91 5.04 0.28 5.58 -0.38 6.12 C-1 6.66 -1.63 7.2 -2.27 7.76 C-4 9 -4 9 -6 9 C-5.53 4.75 -3.03 2.8 0 0 Z " fill="#090A0B" transform="translate(120,67)"/>
<path d="M0 0 C0.99 0 1.98 0 3 0 C1.44 3.82 -0.96 6.26 -4 9 C-4.66 9 -5.32 9 -6 9 C-4.47 5.56 -2.55 2.78 0 0 Z " fill="#070808" transform="translate(99,38)"/>
<path d="M0 0 C-0.54 3.79 -2.08 5.59 -5 8 C-5.99 8 -6.98 8 -8 8 C-6.48 4.46 -4.25 0 0 0 Z " fill="#0B0C0D" transform="translate(96,35)"/>
<path d="M0 0 C2.96 0.61 4.38 1.25 7 3 C6.67 3.99 6.34 4.98 6 6 C4.02 5.34 2.04 4.68 0 4 C0 2.68 0 1.36 0 0 Z " fill="#383F45" transform="translate(46,29)"/>
<path d="M0 0 C-0.56 3.23 -1.37 4.98 -4 7 C-4.99 7 -5.98 7 -7 7 C-3.86 0 -3.86 0 0 0 Z " fill="#070708" transform="translate(124,74)"/>
<path d="M0 0 C1.94 0.38 1.94 0.38 4 1 C4.33 1.66 4.66 2.32 5 3 C0.25 6 0.25 6 -2 6 C-1.49 3.83 -1 2 0 0 Z " fill="#41484E" transform="translate(85,31)"/>
<path d="M0 0 C1 3 1 3 -0.25 6.62 C-2 10 -2 10 -5 11 C-5 10.01 -5 9.02 -5 8 C-4.34 7.67 -3.68 7.34 -3 7 C-1.95 4.69 -0.94 2.36 0 0 Z " fill="#161819" transform="translate(62,23)"/>
<path d="M0 0 C0.99 0.33 1.98 0.66 3 1 C2.25 2.94 2.25 2.94 1 5 C-1.12 5.75 -1.12 5.75 -3 6 C-2 4 -1 2 0 0 Z " fill="#0C0D0E" transform="translate(25,90)"/>
<path d="M0 0 C0.66 0 1.32 0 2 0 C1.43 2.87 1.14 3.86 -1 6 C-1.99 6 -2.98 6 -4 6 C-2.85 3.53 -1.95 1.95 0 0 Z " fill="#080909" transform="translate(123,81)"/>
<path d="M0 0 C0.99 0 1.98 0 3 0 C2.25 1.94 2.25 1.94 1 4 C-1.12 4.75 -1.12 4.75 -3 5 C-1.12 1.12 -1.12 1.12 0 0 Z " fill="#0B0C0D" transform="translate(87,34)"/>
</svg>
