<?xml version="1.0" encoding="UTF-8"?>
<!-- Generator: visioncortex VTracer 0.6.3 -->
<svg version="1.1" xmlns="http://www.w3.org/2000/svg" width="150" height="150">
<path d="M0 0 C4.96 3.45 7.93 7.24 9.45 13.13 C10.31 18.62 9.05 23.26 6.89 28.32 C6.4 28.81 6.4 28.81 5.89 29.32 C6.46 29.59 7.02 29.87 7.61 30.16 C8.34 30.52 9.07 30.88 9.83 31.25 C10.56 31.61 11.29 31.97 12.04 32.34 C13.89 33.32 13.89 33.32 14.89 34.32 C15.33 37.63 15.33 37.63 14.89 41.32 C10.82 45.09 7.26 45.66 1.89 46.32 C5.31 63.02 5.31 63.02 14.89 76.32 C17.26 76.96 17.26 76.96 19.83 77.25 C24.03 77.98 26.31 78.72 28.89 82.32 C30.26 85.06 30.01 87.28 29.89 90.32 C29.4 91.8 29.4 91.8 28.89 93.32 C29.22 93.65 29.55 93.98 29.89 94.32 C30.16 96.46 30.16 96.46 30.27 99.13 C30.31 100 30.36 100.87 30.41 101.77 C29.89 104.32 29.89 104.32 27.8 106.44 C24.22 108.75 22.12 108.83 17.88 108.85 C17.2 108.86 16.51 108.87 15.81 108.88 C13.55 108.9 11.3 108.89 9.05 108.88 C7.47 108.89 5.9 108.89 4.33 108.9 C1.04 108.91 -2.25 108.91 -5.55 108.89 C-9.76 108.88 -13.97 108.9 -18.19 108.93 C-21.43 108.96 -24.68 108.95 -27.92 108.95 C-29.48 108.95 -31.03 108.95 -32.58 108.97 C-34.76 108.98 -36.93 108.97 -39.1 108.95 C-40.34 108.95 -41.57 108.95 -42.85 108.94 C-47 108.15 -48.49 106.56 -51.11 103.32 C-51.95 99.95 -51.44 96.55 -50.55 93.19 C-49.93 91.14 -49.93 91.14 -50.73 88.38 C-51.11 85.32 -51.11 85.32 -49.98 82.63 C-47.81 79.95 -46.27 78.72 -43.11 77.32 C-41.83 77.32 -40.55 77.32 -39.23 77.32 C-36.37 77 -35.33 76.53 -33.25 74.48 C-27.37 66.03 -24.88 56.11 -22.11 46.32 C-22.78 46.23 -23.46 46.14 -24.16 46.05 C-31.42 44.91 -31.42 44.91 -34.8 42 C-36.11 39.32 -36.11 39.32 -36.36 36.82 C-34.4 32.89 -30.89 31.34 -27.11 29.32 C-27.6 28.37 -28.1 27.42 -28.61 26.44 C-30.86 21.11 -31.13 15.62 -29.42 10.07 C-26.78 4.22 -23.12 0.69 -17.23 -2 C-10.68 -3.44 -5.84 -3.3 0 0 Z " fill="#040404" transform="translate(85.109375,29.68359375)"/>
<path d="M0 0 C4.42 2.78 8.06 6.08 10 11 C10.94 16.24 10.43 21.26 8.25 26.12 C6.39 28.68 4.94 29.79 1.83 30.48 C-0.81 30.79 -3.4 30.9 -6.06 30.94 C-7.39 30.96 -7.39 30.96 -8.75 30.99 C-15.01 30.78 -15.01 30.78 -17.69 28.66 C-19.04 27.06 -19.04 27.06 -21 24 C-21.43 23.38 -21.87 22.76 -22.31 22.12 C-23.81 17.5 -23.47 13.38 -21.94 8.88 C-16.38 0.63 -9.77 -2.61 0 0 Z " fill="#71777B" transform="translate(81,31)"/>
<path d="M0 0 C0.7 -0 1.4 -0 2.12 -0.01 C4.45 -0.01 6.78 -0.01 9.11 -0 C10.72 -0 12.33 -0.01 13.94 -0.01 C17.32 -0.01 20.7 -0.01 24.08 -0 C28.42 0 32.76 0 37.1 -0 C40.43 -0.01 43.75 -0.01 47.08 -0 C48.68 -0 50.28 -0 51.88 -0.01 C54.12 -0.01 56.35 -0.01 58.59 0 C60.5 0 60.5 0 62.45 0 C65.29 0.13 65.29 0.13 66.29 1.13 C66.53 7.65 66.53 7.65 65.29 10.13 C55.92 10.15 46.55 10.17 37.18 10.18 C32.83 10.19 28.48 10.19 24.13 10.2 C19.94 10.22 15.74 10.22 11.54 10.22 C9.94 10.23 8.34 10.23 6.73 10.24 C4.49 10.24 2.25 10.24 0.02 10.24 C-1.26 10.25 -2.54 10.25 -3.85 10.25 C-6.71 10.13 -6.71 10.13 -7.71 9.13 C-7.84 7.32 -7.84 7.32 -7.83 5.13 C-7.83 4.41 -7.84 3.69 -7.84 2.94 C-7.53 -1.35 -3.44 0 0 0 Z " fill="#474E53" transform="translate(45.70703125,123.87060546875)"/>
<path d="M0 0 C3.96 0 7.92 0 12 0 C11.97 2.99 11.93 5.99 11.9 8.98 C11.89 11.84 11.89 11.84 12.49 13.93 C13.01 16.03 13.2 17.95 13.32 20.11 C13.37 21.13 13.37 21.13 13.43 22.17 C13.47 23.02 13.52 23.87 13.56 24.75 C13.71 27.47 13.85 30.19 14 33 C5.09 33 -3.82 33 -13 33 C-10.69 29.37 -8.38 25.74 -6 22 C-4.86 19.15 -3.92 16.6 -3.12 13.69 C-2.93 13.02 -2.73 12.36 -2.52 11.68 C-1.4 7.82 -0.58 3.98 0 0 Z " fill="#434A50" transform="translate(66,75)"/>
<path d="M0 0 C0.97 -0 0.97 -0 1.95 -0 C4.08 0 6.2 0.02 8.33 0.05 C9.81 0.05 11.28 0.06 12.76 0.06 C16.64 0.07 20.52 0.1 24.4 0.13 C28.36 0.17 32.32 0.18 36.29 0.19 C44.06 0.23 51.83 0.28 59.6 0.34 C59.6 0.67 59.6 1 59.6 1.34 C58.86 1.37 58.12 1.39 57.35 1.42 C54 1.53 50.64 1.66 47.29 1.78 C46.12 1.82 44.95 1.86 43.75 1.9 C42.63 1.94 41.51 1.98 40.36 2.02 C39.33 2.06 38.3 2.1 37.24 2.14 C34.49 2.24 34.49 2.24 31.6 3.34 C31.27 4 30.94 4.66 30.6 5.34 C28.64 5.97 28.64 5.97 26.23 6.47 C25.43 6.63 24.64 6.8 23.83 6.97 C21.6 7.34 21.6 7.34 18.6 7.34 C18.6 8 18.6 8.66 18.6 9.34 C13.85 10.93 9.02 10.53 4.04 10.53 C2.97 10.54 1.9 10.55 0.81 10.57 C-0.21 10.57 -1.23 10.57 -2.28 10.57 C-3.21 10.58 -4.15 10.58 -5.11 10.58 C-7.4 10.34 -7.4 10.34 -9.4 8.34 C-9.75 5.6 -9.86 4.01 -8.28 1.7 C-5.52 -0.3 -3.38 -0.02 0 0 Z " fill="#454C52" transform="translate(47.399169921875,110.659423828125)"/>
<path d="M0 0 C3.88 0.88 3.88 0.88 5 2 C5.27 4.14 5.27 4.14 5.38 6.81 C5.42 7.69 5.47 8.56 5.52 9.46 C5 12 5 12 2.91 14.13 C-0.67 16.43 -2.77 16.51 -7.01 16.53 C-7.69 16.54 -8.38 16.55 -9.08 16.56 C-11.34 16.58 -13.59 16.58 -15.84 16.57 C-17.42 16.57 -18.99 16.58 -20.56 16.59 C-23.85 16.6 -27.15 16.59 -30.44 16.58 C-34.65 16.56 -38.86 16.58 -43.08 16.62 C-46.32 16.64 -49.57 16.64 -52.82 16.63 C-54.37 16.63 -55.92 16.64 -57.48 16.65 C-59.65 16.67 -61.82 16.65 -63.99 16.63 C-65.23 16.63 -66.46 16.63 -67.74 16.63 C-71.92 15.82 -73.42 14.34 -76 11 C-76.31 7.19 -76.31 7.19 -76 4 C-75.01 3.67 -74.02 3.34 -73 3 C-72.86 4.13 -72.71 5.27 -72.56 6.44 C-72.39 9.81 -72.39 9.81 -71 11 C-68.76 11.12 -66.52 11.18 -64.28 11.21 C-63.57 11.22 -62.87 11.23 -62.15 11.24 C-59.82 11.27 -57.48 11.29 -55.15 11.32 C-53.54 11.34 -51.93 11.36 -50.31 11.38 C-46.06 11.43 -41.81 11.48 -37.55 11.53 C-33.22 11.58 -28.88 11.64 -24.54 11.69 C-16.03 11.8 -7.52 11.9 1 12 C1.03 10.56 1.05 9.13 1.06 7.69 C1.07 6.89 1.09 6.09 1.1 5.26 C1.1 2.83 1.1 2.83 0 0 Z " fill="#020303" transform="translate(110,122)"/>
<path d="M0 0 C0.76 -0 1.52 -0.01 2.3 -0.01 C3.9 -0.01 5.51 -0.01 7.11 0.01 C9.55 0.02 12 0.01 14.44 -0.01 C16 -0.01 17.56 -0.01 19.12 0 C19.85 -0.01 20.58 -0.01 21.33 -0.02 C25.77 0.04 28.54 0.75 32.13 3.4 C31.88 5.27 31.88 5.27 31.13 7.4 C27.54 9.96 23.67 9.67 19.44 9.63 C18.33 9.63 18.33 9.63 17.2 9.63 C15.64 9.62 14.08 9.62 12.52 9.6 C10.14 9.59 7.75 9.58 5.37 9.58 C3.85 9.58 2.33 9.57 0.82 9.57 C-0.25 9.56 -0.25 9.56 -1.34 9.56 C-4.65 9.53 -7.7 9.42 -10.87 8.4 C-11.2 6.75 -11.53 5.1 -11.87 3.4 C-8.29 -0.11 -4.75 -0.04 0 0 Z " fill="#3D444A" transform="translate(64.87109375,62.6015625)"/>
<path d="M0 0 C0.88 2.44 0.88 2.44 1 5 C0.34 5.99 -0.32 6.98 -1 8 C-3.02 8.36 -3.02 8.36 -5.54 8.34 C-6.95 8.34 -6.95 8.34 -8.39 8.34 C-9.41 8.32 -10.43 8.31 -11.48 8.29 C-12.52 8.29 -13.56 8.28 -14.63 8.28 C-17.96 8.26 -21.29 8.23 -24.62 8.19 C-26.88 8.17 -29.14 8.16 -31.39 8.15 C-36.93 8.11 -42.46 8.06 -48 8 C-47.01 7.67 -46.02 7.34 -45 7 C-45 6.34 -45 5.68 -45 5 C-44.18 4.82 -43.36 4.64 -42.52 4.45 C-41.44 4.2 -40.36 3.95 -39.25 3.69 C-37.65 3.32 -37.65 3.32 -36.02 2.95 C-33.03 2.22 -33.03 2.22 -31.17 0.48 C-28.42 -1.4 -26.59 -1.45 -23.28 -1.58 C-22.18 -1.63 -21.09 -1.67 -19.96 -1.72 C-18.25 -1.76 -18.25 -1.76 -16.5 -1.81 C-14.79 -1.89 -14.79 -1.89 -13.04 -1.97 C-3.4 -2.3 -3.4 -2.3 0 0 Z " fill="#30373C" transform="translate(111,113)"/>
<path d="M0 0 C1.65 0 3.3 0 5 0 C5.15 0.55 5.3 1.1 5.46 1.66 C8.36 12.11 11.17 21.77 17 31 C17.33 31.66 17.66 32.32 18 33 C12.72 33 7.44 33 2 33 C0.87 29.6 0.71 26.64 0.5 23.06 C0.27 19.23 -0.02 15.71 -1 12 C-1.27 7.92 -1.3 3.91 0 0 Z " fill="#2E3439" transform="translate(78,75)"/>
<path d="M0 0 C0.96 0 1.91 0 2.9 0.01 C3.98 0.01 5.06 0.01 6.18 0.01 C7.94 0.01 7.94 0.01 9.74 0.02 C10.94 0.02 12.13 0.03 13.37 0.03 C17.21 0.03 21.05 0.05 24.89 0.06 C27.49 0.06 30.09 0.07 32.68 0.07 C39.07 0.08 45.45 0.1 51.83 0.12 C51.83 0.78 51.83 1.44 51.83 2.12 C42.76 3.38 33.75 4.36 24.59 4.78 C20.6 4.97 16.76 5.38 12.83 6.12 C12.5 7.11 12.17 8.1 11.83 9.12 C9.08 10.49 6.83 10.25 3.77 10.25 C2.14 10.25 2.14 10.25 0.48 10.25 C-2.17 10.12 -2.17 10.12 -3.17 9.12 C-3.3 7.31 -3.3 7.31 -3.3 5.12 C-3.3 4.4 -3.3 3.68 -3.3 2.93 C-3.11 0.24 -2.69 0.15 0 0 Z " fill="#6C7276" transform="translate(41.17030334472656,123.87974548339844)"/>
<path d="M0 0 C3 1 3 1 4.69 3.06 C8.41 11.39 4.59 20.75 2 29 C1 30 1 30 -2.16 30.1 C-3.45 30.09 -4.74 30.07 -6.06 30.06 C-7.35 30.05 -8.64 30.04 -9.97 30.04 C-10.97 30.02 -11.97 30.01 -13 30 C-12.56 29.43 -12.13 28.85 -11.68 28.26 C-5.55 19.52 -2.88 10.18 0 0 Z " fill="#94989C" transform="translate(66,78)"/>
<path d="M0 0 C5.25 1.39 7.87 4.8 11 9 C13.29 13.57 12.52 18.83 11.36 23.66 C9.92 26.85 9.01 28.14 6 30 C-0.58 31.12 -7.38 30.54 -14 30 C-14 29.67 -14 29.34 -14 29 C-12.17 28.91 -12.17 28.91 -10.31 28.81 C-5.8 28.26 -3.93 26.51 -1 23 C-0.44 22.5 0.11 22.01 0.69 21.5 C4.12 17.58 4.42 13.16 4.34 8.16 C3.84 4.98 2.23 3.23 0 1 C0 0.67 0 0.34 0 0 Z " fill="#33393E" transform="translate(79,31)"/>
<path d="M0 0 C-0.91 2.35 -1.81 4.65 -3 6.88 C-5.36 11.9 -6.13 16.49 -6 22 C-7.89 23.89 -10.57 23.24 -13.09 23.33 C-13.72 23.22 -14.35 23.11 -15 23 C-17.49 19.27 -17.52 16.32 -17 12 C-15.14 6.74 -12.47 4.13 -8 1 C-5.13 0.13 -3 0 0 0 Z " fill="#8E9397" transform="translate(75,31)"/>
<path d="M0 0 C0.66 0.33 1.32 0.66 2 1 C2.12 7.75 2.12 7.75 1 10 C-17.81 10 -36.62 10 -56 10 C-56 9.67 -56 9.34 -56 9 C-55.26 8.99 -54.53 8.98 -53.77 8.97 C-50.39 8.92 -47.01 8.83 -43.62 8.75 C-42.47 8.74 -41.31 8.72 -40.12 8.71 C-33.5 8.52 -28.21 7.79 -22.2 4.95 C-17.31 2.84 -12.43 2.87 -7.19 2.94 C-6.49 2.94 -5.8 2.95 -5.09 2.95 C-3.39 2.96 -1.7 2.98 0 3 C0 2.01 0 1.02 0 0 Z " fill="#30363B" transform="translate(110,124)"/>
<path d="M0 0 C2.31 2.77 2.94 4.54 3.38 8.12 C3 11 3 11 1.62 12.81 C-1.84 15.34 -4.4 15.12 -8.65 15.11 C-9.68 15.11 -9.68 15.11 -10.72 15.11 C-12.98 15.11 -15.25 15.11 -17.51 15.1 C-19.07 15.1 -20.64 15.09 -22.21 15.09 C-26.33 15.09 -30.46 15.08 -34.59 15.07 C-38.8 15.06 -43.01 15.05 -47.21 15.05 C-55.48 15.04 -63.74 15.02 -72 15 C-72 14.67 -72 14.34 -72 14 C-49.23 14 -26.46 14 -3 14 C-0.84 8.87 -0.84 8.87 -2 4 C-4.8 2.6 -7.15 2.84 -10.29 2.79 C-10.93 2.78 -11.57 2.77 -12.24 2.76 C-14.37 2.73 -16.5 2.71 -18.63 2.68 C-20.11 2.66 -21.59 2.64 -23.06 2.62 C-26.95 2.57 -30.84 2.52 -34.73 2.47 C-38.7 2.42 -42.67 2.36 -46.64 2.31 C-54.42 2.2 -62.21 2.1 -70 2 C-70 1.67 -70 1.34 -70 1 C-50.53 0.67 -31.06 0.34 -11 0 C-11 -0.33 -11 -0.66 -11 -1 C-6.72 -2.26 -4.03 -1.93 0 0 Z " fill="#151617" transform="translate(112,109)"/>
<path d="M0 0 C1.25 0.01 2.51 0.02 3.8 0.03 C5.11 0.05 6.42 0.08 7.77 0.11 C9.1 0.12 10.44 0.13 11.78 0.15 C15.04 0.18 18.31 0.23 21.58 0.29 C21.58 0.62 21.58 0.95 21.58 1.29 C20.91 1.32 20.23 1.34 19.54 1.37 C13.99 1.54 13.99 1.54 9.39 4.23 C8.8 4.91 8.2 5.59 7.58 6.29 C3.66 7.69 0.76 8.29 -3.42 8.29 C-3.42 8.95 -3.42 9.61 -3.42 10.29 C-8.29 9.42 -8.29 9.42 -9.42 8.29 C-9.7 5.59 -9.85 3.93 -8.3 1.65 C-5.54 -0.34 -3.38 -0.05 0 0 Z " fill="#7D8387" transform="translate(47.41796875,110.70703125)"/>
<path d="M0 0 C0.33 0 0.66 0 1 0 C1.91 10.3 1.91 10.3 -0.27 14.36 C-1.76 16.11 -3.14 17.63 -5 19 C-5.66 19 -6.32 19 -7 19 C-7 19.66 -7 20.32 -7 21 C-11.95 21.49 -11.95 21.49 -17 22 C-17.33 21.34 -17.66 20.68 -18 20 C-14.04 19.51 -14.04 19.51 -10 19 C-10.06 17.42 -10.06 17.42 -10.12 15.81 C-10.01 12.21 -9.7 10.13 -8 7 C-7.01 6.34 -6.02 5.68 -5 5 C-4.34 5.33 -3.68 5.66 -3 6 C-2.69 5.2 -2.38 4.39 -2.06 3.56 C-1 1 -1 1 0 0 Z " fill="#7B8185" transform="translate(78,34)"/>
<path d="M0 0 C17.82 0 35.64 0 54 0 C54 0.66 54 1.32 54 2 C41.68 3.79 29.44 4.55 17 5 C19 3 19 3 24 2 C15.75 2 7.5 2 -1 2 C-0.67 1.34 -0.34 0.68 0 0 Z " fill="#61686C" transform="translate(39,124)"/>
<path d="M0 0 C1.32 0.66 2.64 1.32 4 2 C3.75 3.88 3.75 3.88 3 6 C-0.78 8.84 -5.26 8.22 -9.75 8.12 C-10.54 8.12 -11.34 8.11 -12.15 8.1 C-14.1 8.07 -16.05 8.04 -18 8 C-17.19 6.05 -17.19 6.05 -16 4 C-10.74 2.71 -5.38 2.89 0 3 C0 2.01 0 1.02 0 0 Z " fill="#30363B" transform="translate(93,64)"/>
<path d="M0 0 C2.92 1.07 4.78 1.78 7 4 C7.2 6.5 7.28 8.87 7.25 11.38 C7.26 12.05 7.27 12.72 7.27 13.41 C7.26 17.11 7.03 19.86 5 23 C4.34 23 3.68 23 3 23 C2.34 24.98 1.68 26.96 1 29 C-1.31 29 -3.62 29 -6 29 C-4.9 25.7 -4.22 25.17 -1.56 23.12 C2.18 19.99 3.68 17.8 4.25 12.86 C4.48 8.65 4.4 6.6 2 3 C1.34 2.34 0.68 1.68 0 1 C0 0.67 0 0.34 0 0 Z " fill="#4E545A" transform="translate(79,31)"/>
<path d="M0 0 C1.02 0.01 1.02 0.01 2.07 0.01 C4.24 0.03 6.41 0.07 8.58 0.11 C10.05 0.12 11.53 0.13 13 0.15 C16.61 0.18 20.22 0.23 23.83 0.29 C23.83 0.95 23.83 1.61 23.83 2.29 C23.13 2.31 22.44 2.32 21.72 2.34 C18.55 2.41 15.38 2.51 12.2 2.61 C11.11 2.63 10.01 2.65 8.89 2.67 C3.12 2.87 -1.17 3.13 -6.17 6.29 C-8.55 6.98 -8.55 6.98 -10.17 7.29 C-10.5 5.97 -10.83 4.65 -11.17 3.29 C-7.61 -0.11 -4.82 -0.06 0 0 Z " fill="#808589" transform="translate(64.171875,62.70703125)"/>
<path d="M0 0 C1.95 1.62 2.91 2.52 3.4 5.05 C3.33 11.76 2 15.76 -2.56 20.88 C-5 23 -5 23 -7 23 C-7.33 23.99 -7.66 24.98 -8 26 C-9.44 26.11 -10.87 26.19 -12.31 26.25 C-13.51 26.32 -13.51 26.32 -14.74 26.39 C-17 26 -17 26 -18.79 23.98 C-19.19 23.33 -19.59 22.67 -20 22 C-18.57 21.98 -18.57 21.98 -17.11 21.96 C-9.6 21.76 -9.6 21.76 -2.69 19.19 C0.46 13.23 0 6.6 0 0 Z " fill="#5F666B" transform="translate(81,34)"/>
<path d="M0 0 C2.38 -0.12 2.38 -0.12 5 0 C7.89 2.89 7.29 5.25 7.32 9.2 C7.32 10.15 7.32 11.09 7.31 12.06 C7.33 12.98 7.34 13.9 7.36 14.84 C7.37 21.09 6.36 26.21 4 32 C3.01 32 2.02 32 1 32 C1.43 30.52 1.43 30.52 1.88 29 C5.61 17.52 5.61 17.52 3.62 6.06 C2.16 3.9 2.16 3.9 0 3 C0 2.01 0 1.02 0 0 Z " fill="#686F73" transform="translate(66,75)"/>
<path d="M0 0 C4.62 0 9.24 0 14 0 C12.75 3.76 11.37 4.15 8 6 C7.67 6.33 7.34 6.66 7 7 C4.67 7.04 2.33 7.04 0 7 C0 4.69 0 2.38 0 0 Z " fill="#868B8F" transform="translate(38,126)"/>
<path d="M0 0 C0.99 0.33 1.98 0.66 3 1 C3 1.66 3 2.32 3 3 C-9.38 3.5 -9.38 3.5 -22 4 C-22 5.32 -22 6.64 -22 8 C-25.96 8 -29.92 8 -34 8 C-28.89 3.62 -25.03 1.73 -18.26 1.8 C-16.66 1.81 -16.66 1.81 -15.03 1.82 C-13.93 1.84 -12.82 1.86 -11.69 1.88 C-10.57 1.88 -9.44 1.89 -8.29 1.9 C-5.52 1.93 -2.76 1.96 0 2 C0 1.34 0 0.68 0 0 Z " fill="#535A5F" transform="translate(88,63)"/>
<path d="M0 0 C1.32 0 2.64 0 4 0 C3.67 0.99 3.34 1.98 3 3 C1.07 3.95 1.07 3.95 -1.31 4.69 C-2.09 4.94 -2.87 5.19 -3.68 5.45 C-6 6 -6 6 -10 6 C-10 6.66 -10 7.32 -10 8 C-14.88 7.12 -14.88 7.12 -16 6 C-16.04 4.33 -16.04 2.67 -16 1 C-15.67 2.32 -15.34 3.64 -15 5 C-14.16 4.86 -13.31 4.71 -12.45 4.56 C-11.35 4.38 -10.25 4.19 -9.12 4 C-7.49 3.72 -7.49 3.72 -5.82 3.44 C-3 3 -3 3 -1 3 C-0.67 2.01 -0.34 1.02 0 0 Z " fill="#636A6F" transform="translate(54,113)"/>
<path d="M0 0 C1.57 0.01 3.14 0.04 4.71 0.07 C5.51 0.08 6.31 0.09 7.14 0.1 C9.12 0.12 11.1 0.16 13.09 0.2 C13.09 0.53 13.09 0.86 13.09 1.2 C11.82 1.23 11.82 1.23 10.53 1.27 C9.44 1.33 8.34 1.39 7.21 1.45 C6.12 1.49 5.03 1.54 3.91 1.59 C2.51 1.89 2.51 1.89 1.09 2.2 C-0.18 4.14 -0.18 4.14 -0.91 6.2 C-3.54 6.95 -3.54 6.95 -5.91 7.2 C-6.04 4.82 -6.04 4.82 -5.91 2.2 C-3.91 0.2 -3.91 0.2 0 0 Z " fill="#A3A7AA" transform="translate(44.9140625,110.8046875)"/>
<path d="M0 0 C2 2 2 2 2.38 5.19 C2.27 10.35 0.89 22.11 -3 26 C-4.67 26.04 -6.33 26.04 -8 26 C-6.82 24.76 -6.82 24.76 -5.62 23.5 C-0.22 16.93 -0.52 8.13 0 0 Z " fill="#7C8185" transform="translate(70,82)"/>
<path d="M0 0 C0.9 0.02 1.81 0.05 2.74 0.07 C4.11 0.1 4.11 0.1 5.5 0.12 C6.2 0.15 6.9 0.17 7.62 0.2 C6.09 3.24 3.66 3.82 0.62 5.2 C-1.76 5.88 -1.76 5.88 -3.38 6.2 C-4.01 4.32 -4.01 4.32 -4.38 2.2 C-2.38 0.2 -2.38 0.2 0 0 Z " fill="#9CA1A4" transform="translate(57.3828125,63.8046875)"/>
<path d="M0 0 C1.95 -0.29 1.95 -0.29 4.12 -0.19 C5.4 -0.13 6.68 -0.06 8 0 C8 0.33 8 0.66 8 1 C6.36 1.4 6.36 1.4 4.69 1.81 C1.15 2.95 0.35 3.44 -2 6 C-6.37 8.37 -10.15 8.16 -15 8 C-11.45 6.11 -7.87 5 -4.02 3.88 C-1.65 3.07 -1.65 3.07 0 0 Z " fill="#53595F" transform="translate(59,112)"/>
<path d="M0 0 C2.97 0 5.94 0 9 0 C3.86 4.43 3.86 4.43 0 5 C0 3.35 0 1.7 0 0 Z " fill="#9DA1A5" transform="translate(39,126)"/>
<path d="M0 0 C0.66 0 1.32 0 2 0 C2.41 3.6 2.15 4.78 0 7.81 C-0.66 8.53 -1.32 9.26 -2 10 C-1.54 6.53 -1.11 3.33 0 0 Z " fill="#868A8E" transform="translate(65,81)"/>
<path d="M0 0 C0.33 1.32 0.66 2.64 1 4 C2.65 3.67 4.3 3.34 6 3 C5.67 4.32 5.34 5.64 5 7 C1.12 6.12 1.12 6.12 0 5 C-0.04 3.33 -0.04 1.67 0 0 Z " fill="#7F8488" transform="translate(38,114)"/>
</svg>
