<?xml version="1.0" encoding="UTF-8"?>
<!-- Generator: visioncortex VTracer 0.6.3 -->
<svg version="1.1" xmlns="http://www.w3.org/2000/svg" width="150" height="150">
<path d="M0 0 C3.06 1.8 4.57 3.28 6.38 6.31 C7.22 9.96 6.95 12.37 6 16 C5.09 16.85 4.19 17.69 3.25 18.56 C1.76 19.95 1.76 19.95 1 22 C1.38 25.75 2.19 29.21 3.17 32.86 C4 36 4 36 4 39 C5.3 39.04 6.6 39.08 7.94 39.12 C14.06 39.69 19.51 41.79 25.2 44 C29.52 45.78 29.52 45.78 34 45 C35.58 42.77 36.96 40.61 38.31 38.25 C38.7 37.63 39.08 37.01 39.48 36.37 C40.73 34.3 40.73 34.3 42 31 C41.37 28.26 41.37 28.26 40 26 C39.52 21.6 39.71 19.53 41.88 15.62 C44.1 12.88 44.79 12.15 48.21 11.73 C55.29 11.45 55.29 11.45 59.06 14.38 C62.1 18.49 62.52 20.84 62 26 C60.61 28.6 59.23 29.92 57 32 C54.32 32.66 54.32 32.66 52 33 C51.89 33.89 51.89 33.89 51.77 34.79 C51.14 39.73 50.5 44.66 49.84 49.59 C49.31 53.61 48.81 57.63 48.34 61.66 C46.98 72.9 45.21 80.32 36.56 88.12 C33.62 90.76 33.62 90.76 34.12 94.23 C35.06 98.26 36.59 101.6 38.56 105.19 C40.64 108.99 42 111.52 42 116 C15.44 127.45 -15.61 127.31 -43 119 C-45.87 117.84 -48.34 116.59 -51 115 C-49.85 111.99 -48.58 109.06 -47.2 106.15 C-46.88 105.46 -46.57 104.78 -46.24 104.07 C-45.58 102.64 -44.9 101.21 -44.21 99.79 C-42.36 95.95 -42.36 95.95 -42.52 91.81 C-45.15 88.6 -47.97 85.56 -50.81 82.54 C-56.69 74.55 -56.82 61.59 -58.19 52.06 C-58.36 50.88 -58.54 49.7 -58.72 48.49 C-59.49 43.27 -60.1 38.29 -60 33 C-60.72 32.94 -61.44 32.88 -62.19 32.81 C-66.09 31.68 -67.6 30.29 -70 27 C-70.98 22.34 -70.65 19.05 -68.12 15 C-64.43 11.52 -61.4 11.59 -56.48 11.66 C-54 12 -54 12 -50.94 14 C-48.37 17.97 -48.07 20.28 -48 25 C-49 27.19 -49 27.19 -50 29 C-49.59 33.33 -47.84 36.12 -45.44 39.69 C-42 44.8 -42 44.8 -42 47 C-40.94 46.59 -39.88 46.18 -38.78 45.76 C-37.35 45.21 -35.93 44.67 -34.5 44.12 C-33.8 43.86 -33.11 43.59 -32.39 43.31 C-25.7 40.77 -19.25 38.64 -12 39 C-11.95 38.38 -11.9 37.77 -11.85 37.13 C-11.33 31.27 -10.38 25.72 -9 20 C-9.63 19.7 -10.27 19.41 -10.92 19.11 C-13.57 17.7 -14.08 16.84 -15 14 C-15.43 10.68 -15.72 8.2 -13.95 5.25 C-9.83 0.2 -6.42 -0.89 0 0 Z " fill="#030404" transform="translate(79,13)"/>
<path d="M0 0 C4.94 1.46 4.94 1.46 6.38 4 C7.03 10.13 7.03 10.13 5.06 12.75 C3.94 13.58 2.82 14.4 1.7 15.23 C0.08 16.97 0.08 16.97 0.63 19.54 C0.92 20.56 1.21 21.58 1.5 22.62 C3.08 28.69 4.26 34.73 5.28 40.91 C7.09 51.61 7.09 51.61 12.38 61 C15.05 62.34 17.21 62.24 20.19 62.31 C21.23 62.35 22.26 62.39 23.33 62.43 C27.22 61.88 28.63 60.78 31.38 58 C32.93 55.7 34.33 53.47 35.69 51.06 C36.47 49.73 37.25 48.39 38.03 47.06 C38.42 46.39 38.81 45.71 39.21 45.02 C41.03 41.87 42.88 38.74 44.75 35.62 C45.38 34.57 46 33.51 46.65 32.41 C48.38 30 48.38 30 51.38 29 C51.03 39.34 50.25 49.31 48.12 59.44 C47.67 61.59 47.26 63.76 46.95 65.94 C45.99 72.34 43.6 76.16 39.38 81 C38.42 82.17 37.46 83.33 36.5 84.5 C35.8 85.33 35.1 86.15 34.38 87 C26.16 85.25 26.16 85.25 22.99 84.25 C15.07 81.75 7.52 81.46 -0.75 81.5 C-1.77 81.5 -1.77 81.5 -2.81 81.5 C-12.68 81.5 -21.39 82.5 -30.61 86.1 C-33.62 87 -33.62 87 -35.76 86.48 C-38.29 84.48 -40.21 82.24 -42.25 79.75 C-43.03 78.82 -43.8 77.88 -44.6 76.92 C-48.1 71.86 -49.03 66.4 -49.91 60.41 C-50.02 59.7 -50.13 58.99 -50.24 58.26 C-50.47 56.76 -50.69 55.27 -50.91 53.78 C-51.25 51.51 -51.6 49.24 -51.95 46.96 C-52.16 45.51 -52.38 44.05 -52.6 42.59 C-52.76 41.59 -52.76 41.59 -52.91 40.56 C-53.48 36.67 -53.72 32.93 -53.62 29 C-51.86 29.13 -51.86 29.13 -49.62 30 C-47.73 32.53 -47.73 32.53 -45.8 35.86 C-45.46 36.45 -45.12 37.04 -44.76 37.65 C-43.66 39.53 -42.58 41.42 -41.5 43.31 C-40.77 44.58 -40.03 45.84 -39.29 47.1 C-33.92 56.34 -33.92 56.34 -32.59 59.33 C-31.67 61.35 -31.67 61.35 -28.62 62 C-26.46 62.09 -24.29 62.13 -22.12 62.12 C-20.98 62.13 -19.84 62.13 -18.66 62.13 C-15.58 62.14 -15.58 62.14 -12.62 61 C-8.33 52.28 -5.48 40.44 -8.62 31 C-8.22 28.59 -7.73 26.19 -7.19 23.81 C-6.9 22.54 -6.61 21.27 -6.32 19.96 C-6.09 18.98 -5.86 18.01 -5.62 17 C-6.94 16.34 -8.27 15.68 -9.62 15 C-9.52 9.92 -9.37 6.12 -6.5 1.81 C-3.62 0 -3.62 0 0 0 Z " fill="#2F353A" transform="translate(75.625,16)"/>
<path d="M0 0 C0.95 0.15 1.91 0.29 2.89 0.45 C5.42 0.97 6.95 1.42 9 3 C11.23 6.82 12.57 10.83 14 15 C14.74 16.56 15.51 18.1 16.31 19.62 C18 23 18 23 18 25 C-8.06 35.95 -38.58 34.45 -65 26 C-65.66 25.67 -66.32 25.34 -67 25 C-65.23 20.48 -63.26 16.06 -61.21 11.66 C-59.91 8.89 -59.91 8.89 -58.75 5.5 C-55.99 1.56 -52.53 1.1 -48 0 C-47.06 -0.28 -46.12 -0.56 -45.15 -0.84 C-30.05 -4.97 -15.07 -3.31 0 0 Z " fill="#2C3237" transform="translate(99,102)"/>
<path d="M0 0 C4.94 1.46 4.94 1.46 6.38 4 C7.03 10.13 7.03 10.13 5.06 12.75 C4.51 13.16 3.95 13.57 3.38 14 C1.6 15.35 1.6 15.35 0.38 17 C0.51 17.54 0.65 18.08 0.79 18.64 C3.66 30.23 2.78 50.39 -2.62 61 C-3.62 61.33 -4.6 61.66 -5.62 62 C-5.95 63.98 -6.28 65.96 -6.62 68 C-10.08 69.35 -12.51 70 -16.25 69.88 C-19.64 69.71 -19.64 69.71 -22.06 71.62 C-24.02 74.6 -23.94 76.5 -23.62 80 C-21.64 80.33 -19.66 80.66 -17.62 81 C-20.87 82.71 -24.17 84.02 -27.62 85.25 C-28.66 85.63 -29.69 86 -30.75 86.39 C-33.62 87 -33.62 87 -35.71 86.44 C-38.31 84.49 -40.2 82.26 -42.25 79.75 C-43.03 78.82 -43.8 77.88 -44.6 76.92 C-48.1 71.86 -49.03 66.4 -49.91 60.41 C-50.02 59.7 -50.13 58.99 -50.24 58.26 C-50.47 56.76 -50.69 55.27 -50.91 53.78 C-51.25 51.51 -51.6 49.24 -51.95 46.96 C-52.16 45.51 -52.38 44.05 -52.6 42.59 C-52.76 41.59 -52.76 41.59 -52.91 40.56 C-53.48 36.67 -53.72 32.93 -53.62 29 C-51.86 29.13 -51.86 29.13 -49.62 30 C-47.73 32.53 -47.73 32.53 -45.8 35.86 C-45.46 36.45 -45.12 37.04 -44.76 37.65 C-43.66 39.53 -42.58 41.42 -41.5 43.31 C-40.77 44.58 -40.03 45.84 -39.29 47.1 C-33.92 56.34 -33.92 56.34 -32.59 59.33 C-31.67 61.35 -31.67 61.35 -28.62 62 C-26.46 62.09 -24.29 62.13 -22.12 62.12 C-20.98 62.13 -19.84 62.13 -18.66 62.13 C-15.58 62.14 -15.58 62.14 -12.62 61 C-8.33 52.28 -5.48 40.44 -8.62 31 C-8.22 28.59 -7.73 26.19 -7.19 23.81 C-6.9 22.54 -6.61 21.27 -6.32 19.96 C-6.09 18.98 -5.86 18.01 -5.62 17 C-6.94 16.34 -8.27 15.68 -9.62 15 C-9.52 9.92 -9.37 6.12 -6.5 1.81 C-3.62 0 -3.62 0 0 0 Z " fill="#3F474D" transform="translate(75.625,16)"/>
<path d="M0 0 C3.06 1.8 4.57 3.28 6.38 6.31 C7.22 9.96 6.95 12.37 6 16 C5.09 16.85 4.19 17.69 3.25 18.56 C1.76 19.95 1.76 19.95 1 22 C1.38 25.75 2.19 29.21 3.17 32.86 C4 36 4 36 4 39 C5.3 39.04 6.6 39.08 7.94 39.12 C14.06 39.69 19.51 41.79 25.2 44 C29.52 45.78 29.52 45.78 34 45 C35.44 42.73 36.74 40.5 38 38.12 C42.15 30.41 42.15 30.41 45 28 C44.34 27.01 43.68 26.02 43 25 C43.22 18.9 43.22 18.9 45.69 16.06 C48.71 14.68 50.71 14.59 54 15 C56.38 16 56.38 16 58 18 C58.57 22.46 58.82 24.73 56.38 28.5 C53.4 30.38 51.46 30.31 48 30 C48 30.66 48 31.32 48 32 C46.95 32.96 46.95 32.96 45.88 33.94 C42.6 37.08 40.83 40.83 38.74 44.81 C36.76 48.44 34.64 51.95 32.44 55.44 C32.07 56.03 31.71 56.62 31.33 57.23 C28.99 60.91 26.71 63.68 23 66 C17.73 66.95 12.7 66.9 7.94 64.38 C4.16 59.74 2.58 55.01 1.5 49.19 C1.38 48.55 1.26 47.92 1.14 47.26 C0.75 45.18 0.37 43.09 0 41 C-0.28 39.45 -0.57 37.9 -0.86 36.35 C-1.13 34.82 -1.41 33.28 -1.69 31.75 C-1.88 30.66 -1.88 30.66 -2.09 29.55 C-2.6 26.65 -3 23.94 -3 21 C-3.99 20.67 -4.98 20.34 -6 20 C-6.33 19.34 -6.66 18.68 -7 18 C-4.03 17.34 -1.06 16.68 2 16 C2.67 10.03 2.67 10.03 0.31 4.94 C-3.51 3.39 -6.13 3.71 -10 5 C-10.66 8.63 -11.32 12.26 -12 16 C-12.66 16 -13.32 16 -14 16 C-15.57 12.85 -15.35 10.48 -15 7 C-11.3 0.79 -7.09 -0.98 0 0 Z " fill="#040505" transform="translate(79,13)"/>
<path d="M0 0 C2.82 2.19 4.42 3.83 6 7 C6.49 11.24 6.42 13.99 3.81 17.38 C0.88 20.11 -0.2 20.45 -4 21 C-4.11 21.89 -4.11 21.89 -4.23 22.79 C-4.86 27.73 -5.5 32.66 -6.16 37.59 C-6.69 41.61 -7.19 45.63 -7.66 49.66 C-9.02 60.9 -10.79 68.32 -19.44 76.12 C-22.38 78.76 -22.38 78.76 -21.88 82.23 C-20.94 86.26 -19.41 89.6 -17.44 93.19 C-15.36 96.99 -14 99.52 -14 104 C-40.56 115.45 -71.61 115.31 -99 107 C-101.87 105.84 -104.34 104.59 -107 103 C-105.85 99.99 -104.58 97.06 -103.2 94.15 C-102.73 93.12 -102.73 93.12 -102.24 92.07 C-101.58 90.64 -100.9 89.21 -100.21 87.79 C-98.36 83.97 -98.36 83.97 -98.51 79.86 C-99 79.24 -99.49 78.63 -100 78 C-100.7 77.1 -101.41 76.2 -102.13 75.27 C-103.33 73.84 -103.33 73.84 -104.56 72.38 C-109.87 66.04 -110.08 63.27 -109.94 55.07 C-109.85 51.96 -109.85 51.96 -111 49 C-110.06 46.81 -110.06 46.81 -109 45 C-108.85 46.21 -108.71 47.41 -108.55 48.66 C-106.96 60.99 -106.96 60.99 -100 71 C-99.03 72.16 -98.07 73.33 -97.12 74.5 C-96.07 75.74 -96.07 75.74 -95 77 C-94.3 76.81 -93.6 76.61 -92.88 76.41 C-91.45 76.02 -91.45 76.02 -90 75.62 C-88.61 75.24 -88.61 75.24 -87.19 74.85 C-86.14 74.57 -85.08 74.29 -84 74 C-82.86 73.65 -81.73 73.29 -80.56 72.93 C-74.18 71.36 -67.59 71.57 -61.06 71.56 C-60.37 71.56 -59.69 71.56 -58.98 71.55 C-49.12 71.54 -40.29 72.43 -31.02 76 C-28.19 77.12 -28.19 77.12 -25.83 76.95 C-23.13 75.55 -21.72 73.59 -19.88 71.19 C-19.19 70.31 -18.51 69.44 -17.8 68.54 C-15.29 65.01 -13.83 62.06 -13.22 57.76 C-13.1 56.95 -12.98 56.14 -12.86 55.3 C-12.74 54.44 -12.62 53.58 -12.5 52.69 C-12.31 51.35 -12.31 51.35 -12.11 49.99 C-11.73 47.33 -11.37 44.67 -11 42 C-10.9 41.26 -10.79 40.51 -10.69 39.74 C-9.68 32.51 -8.76 25.27 -8 18 C-5.03 17.34 -2.06 16.68 1 16 C1.08 14.38 1.14 12.75 1.19 11.12 C1.22 10.22 1.26 9.32 1.29 8.38 C1.15 7.2 1.15 7.2 1 6 C-2.49 3.67 -3.89 3.5 -8 4 C-10.58 5.42 -10.58 5.42 -12 8 C-11.86 13.06 -11.86 13.06 -9 17 C-10.32 17.33 -11.64 17.66 -13 18 C-15.39 15.51 -15.99 14.1 -16.44 10.62 C-15.93 6.39 -14.66 4.29 -12 1 C-8.29 -0.86 -4.04 -0.59 0 0 Z M-82.44 76.25 C-83.34 76.45 -84.25 76.66 -85.18 76.87 C-89.96 78.04 -89.96 78.04 -93.94 80.77 C-95.3 83.63 -96.43 86.51 -97.5 89.5 C-98.95 93.54 -100.37 96.63 -103 100 C-103 100.66 -103 101.32 -103 102 C-99.69 103.07 -96.35 104.04 -93 105 C-91.86 105.36 -90.71 105.72 -89.54 106.09 C-71.24 111.43 -50.36 110.81 -32 106 C-30.37 105.59 -30.37 105.59 -28.7 105.17 C-25.09 104.22 -21.54 103.18 -18 102 C-19.48 97.01 -21.59 92.39 -23.78 87.68 C-25 85 -25 85 -25.93 82.26 C-26.9 79.58 -26.9 79.58 -30.56 78.38 C-47.97 73.51 -64.76 72.21 -82.44 76.25 Z " fill="#040404" transform="translate(135,25)"/>
<path d="M0 0 C0.86 -0.02 1.73 -0.04 2.62 -0.05 C7.77 -0.05 11.25 0.52 15.75 3.31 C15.75 4.3 15.75 5.29 15.75 6.31 C15.15 6.32 14.55 6.33 13.92 6.34 C0.39 6.6 -12.17 7.8 -25.25 11.31 C-25.25 11.97 -25.25 12.63 -25.25 13.31 C-24.06 13.02 -22.86 12.73 -21.63 12.44 C-20.02 12.06 -18.42 11.69 -16.81 11.31 C-16.03 11.12 -15.25 10.93 -14.44 10.73 C-8.92 9.46 -3.92 9.13 1.75 9.31 C1.42 11.29 1.09 13.27 0.75 15.31 C-8.16 16.8 -8.16 16.8 -17.25 18.31 C-17.25 19.3 -17.25 20.29 -17.25 21.31 C-16.26 20.98 -15.27 20.65 -14.25 20.31 C-10.16 19.13 -6.49 19.16 -2.25 19.31 C-2.26 19.99 -2.27 20.66 -2.29 21.36 C-2.29 22.25 -2.3 23.14 -2.31 24.06 C-2.32 24.94 -2.34 25.83 -2.35 26.73 C-2.26 29.09 -1.92 31.06 -1.25 33.31 C-13.82 34.1 -27.77 33.05 -39.25 27.31 C-37.48 22.79 -35.51 18.37 -33.46 13.97 C-32.16 11.21 -32.16 11.21 -31 7.81 C-28.26 3.9 -24.75 3.38 -20.25 2.31 C-19.55 2.11 -18.86 1.9 -18.14 1.69 C-12.16 0.15 -6.14 0.07 0 0 Z " fill="#6F757A" transform="translate(71.25,99.6875)"/>
<path d="M0 0 C11.16 -0.32 21.22 -0.25 32 3 C31.03 11.39 31.03 11.39 29 14 C24.64 15.79 20.98 16.24 16.29 16.2 C15.05 16.19 13.8 16.18 12.52 16.18 C11.23 16.16 9.95 16.14 8.62 16.12 C7.32 16.12 6.01 16.11 4.66 16.1 C1.44 16.07 -1.78 16.04 -5 16 C-5 15.67 -5 15.34 -5 15 C-1.37 15 2.26 15 6 15 C5.34 13.68 4.68 12.36 4 11 C3.8 8.64 3.8 8.64 3.88 6.25 C3.89 5.45 3.91 4.65 3.93 3.83 C3.95 3.22 3.98 2.62 4 2 C2.68 1.34 1.36 0.68 0 0 Z " fill="#3E454B" transform="translate(64,118)"/>
<path d="M0 0 C9.54 0.73 18.34 4.06 27 8 C26.37 11.12 25.31 13.43 23.62 16.12 C23.2 16.81 22.78 17.49 22.35 18.2 C20.57 20.58 18.88 21.86 15.91 22.34 C12.03 22.4 9.59 22.32 6.12 20.44 C0.77 14.3 0.41 7.86 0 0 Z " fill="#31383C" transform="translate(83,55)"/>
<path d="M0 0 C-0.25 7.64 -0.88 13.46 -5 20 C-9.02 22.68 -12.27 22.8 -17 22 C-19.75 19.94 -19.75 19.94 -22 17 C-22.47 16.4 -22.93 15.8 -23.41 15.18 C-27 10.4 -27 10.4 -27 8 C-24.65 7.04 -22.29 6.08 -19.94 5.12 C-19.28 4.86 -18.62 4.59 -17.95 4.31 C-6.33 -0.38 -6.33 -0.38 0 0 Z " fill="#2F353A" transform="translate(66,55)"/>
<path d="M0 0 C0.66 0 1.32 0 2 0 C1.83 9.3 0.95 20.05 -6 27 C-6.8 28.98 -7.46 30.99 -8.12 33.03 C-9.11 35.26 -10.12 36.45 -12 38 C-17.84 39.95 -24.01 39.81 -29.69 37.5 C-30.45 37 -31.21 36.51 -32 36 C-32 35.67 -32 35.34 -32 35 C-31.41 34.9 -30.82 34.8 -30.21 34.7 C-29.42 34.55 -28.63 34.4 -27.81 34.25 C-27.04 34.11 -26.26 33.97 -25.46 33.83 C-19.46 31.81 -16.67 27.34 -13.69 22.06 C-12.91 20.73 -12.13 19.39 -11.36 18.06 C-10.97 17.39 -10.58 16.71 -10.18 16.02 C-8.33 12.86 -6.42 9.74 -4.5 6.62 C-3.85 5.57 -3.2 4.51 -2.53 3.41 C-1 1 -1 1 0 0 Z " fill="#4A5055" transform="translate(125,45)"/>
<path d="M0 0 C3.24 2.93 3.76 5.33 4.62 9.62 C5.14 13.63 5.14 13.63 7 17 C7.27 18.54 7.52 20.08 7.75 21.62 C9.3 29.57 13.33 33.55 19.42 38.53 C21.77 40.71 22.9 43.02 24 46 C24 47.32 24 48.64 24 50 C21.36 50.66 18.72 51.32 16 52 C14.56 50.44 13.12 48.88 11.69 47.31 C10.49 46.01 10.49 46.01 9.26 44.68 C5.61 40.35 3.69 36.83 2.83 31.21 C2.66 30.1 2.49 29 2.31 27.86 C2.15 26.71 1.98 25.56 1.81 24.38 C1.64 23.25 1.46 22.12 1.28 20.96 C0.22 13.92 -0.23 7.12 0 0 Z " fill="#747A7E" transform="translate(24,51)"/>
<path d="M0 0 C1.23 0.01 1.23 0.01 2.48 0.03 C3.42 0.04 3.42 0.04 4.38 0.06 C4.57 0.96 4.57 0.96 4.77 1.88 C5.34 4.28 5.34 4.28 7.06 7 C8.38 10.06 8.38 10.06 7.81 12.75 C6.13 15.46 5.27 16.65 2.38 18.06 C-1.7 18.61 -5.31 18.54 -9.19 17.12 C-11.22 14.21 -11.17 11.79 -11.02 8.29 C-10.44 5.04 -8.99 3.29 -6.62 1.06 C-4.22 -0.14 -2.68 -0.04 0 0 Z " fill="#050506" transform="translate(19.625,24.9375)"/>
<path d="M0 0 C4.94 1.46 4.94 1.46 6.38 4 C7.03 10.12 7.03 10.12 5.06 12.75 C4.23 13.37 4.23 13.37 3.38 14 C2.88 14.56 2.39 15.11 1.88 15.69 C0.38 17 0.38 17 -2.62 17 C-2.81 18.76 -2.81 18.76 -3 20.56 C-3.75 27.39 -4.7 34.19 -5.62 41 C-5.95 41 -6.28 41 -6.62 41 C-6.77 39.91 -6.91 38.81 -7.06 37.69 C-7.51 34.07 -7.51 34.07 -8.62 31 C-8.22 28.59 -7.73 26.19 -7.19 23.81 C-6.9 22.54 -6.61 21.27 -6.32 19.96 C-6.09 18.98 -5.86 18.01 -5.62 17 C-6.94 16.34 -8.27 15.68 -9.62 15 C-9.52 9.92 -9.37 6.12 -6.5 1.81 C-3.62 0 -3.62 0 0 0 Z " fill="#09090A" transform="translate(75.625,16)"/>
<path d="M0 0 C2.06 0.44 2.06 0.44 4 1 C3.34 1.66 2.68 2.32 2 3 C1.61 9.12 1.61 9.12 3 15 C3.99 15.66 4.98 16.32 6 17 C6.95 19.6 6.95 19.6 7.69 22.62 C7.94 23.63 8.19 24.63 8.45 25.66 C8.63 26.43 8.81 27.21 9 28 C6.04 27.36 3.08 26.71 0.12 26.06 C-0.72 25.88 -1.56 25.7 -2.43 25.51 C-3.23 25.33 -4.04 25.16 -4.87 24.97 C-5.61 24.81 -6.35 24.65 -7.12 24.48 C-9 24 -9 24 -11 23 C-3.25 3.25 -3.25 3.25 0 0 Z " fill="#555B60" transform="translate(43,104)"/>
<path d="M0 0 C0.66 0 1.32 0 2 0 C3.32 2.65 2.95 4.37 2.69 7.31 C2.57 8.73 2.57 8.73 2.45 10.18 C2 13 2 13 1.02 15.23 C-0.79 20.14 -0.76 25.42 -1.12 30.61 C-1.55 35.69 -2.18 39.6 -5 44 C-7.52 45.26 -9.31 45.1 -12.12 45.06 C-13.04 45.05 -13.95 45.04 -14.88 45.04 C-15.58 45.02 -16.28 45.01 -17 45 C-12.25 41 -12.25 41 -10 41 C-8.04 36.49 -6.76 31.87 -5.5 27.12 C-5.28 26.29 -5.06 25.46 -4.83 24.6 C-3.14 18.03 -2.08 11.55 -1.36 4.81 C-1 2 -1 2 0 0 Z " fill="#969A9D" transform="translate(73,36)"/>
<path d="M0 0 C0.86 -0.02 1.73 -0.04 2.62 -0.05 C7.77 -0.05 11.25 0.52 15.75 3.31 C15.75 4.3 15.75 5.29 15.75 6.31 C3.38 6.81 3.38 6.81 -9.25 7.31 C-9.58 6.32 -9.91 5.33 -10.25 4.31 C-14.54 4.31 -18.83 4.31 -23.25 4.31 C-16.37 -0.27 -8.02 0.09 0 0 Z " fill="#434B51" transform="translate(71.25,99.6875)"/>
<path d="M0 0 C1.22 0.39 2.43 0.78 3.69 1.19 C4.45 1.46 5.21 1.72 6 2 C6 2.66 6 3.32 6 4 C3.96 3.69 1.92 3.38 -0.12 3.06 C-1.83 2.8 -1.83 2.8 -3.57 2.54 C-5.66 2.21 -7.75 1.85 -9.83 1.45 C-20.95 -0.13 -32.58 0.24 -43.37 3.34 C-46.02 4.01 -48.28 4.12 -51 4 C-51 3.34 -51 2.68 -51 2 C-49.13 1.35 -47.25 0.7 -45.38 0.06 C-44.33 -0.3 -43.29 -0.66 -42.21 -1.03 C-29.36 -4.92 -12.53 -4.84 0 0 Z " fill="#0C0D0E" transform="translate(97,109)"/>
<path d="M0 0 C-2.51 5.11 -5.13 10.08 -8 15 C-12.41 14.5 -14.79 13.04 -18 10 C-18.7 8.69 -19.38 7.35 -20 6 C-18.4 5.19 -16.79 4.37 -15.19 3.56 C-14.29 3.11 -13.4 2.66 -12.48 2.19 C-8.13 0.1 -4.8 -0.09 0 0 Z " fill="#464D53" transform="translate(61,57)"/>
<path d="M0 0 C6.4 0.47 11.27 2.15 17 5 C17 5.99 17 6.98 17 8 C15.59 8.82 14.17 9.63 12.75 10.44 C11.57 11.12 11.57 11.12 10.36 11.81 C8.16 12.92 6.45 13.72 4 14 C1 12 1 12 0 9 C-0.07 7.44 -0.09 5.87 -0.06 4.31 C-0.05 3.5 -0.04 2.7 -0.04 1.86 C-0.02 1.25 -0.01 0.63 0 0 Z " fill="#434B50" transform="translate(87,56)"/>
<path d="M0 0 C3.55 3.13 3.85 6.42 4.5 10.94 C5.33 16.23 6.28 21.38 7.69 26.56 C8.92 31.22 9.28 35.2 9 40 C8.01 40 7.02 40 6 40 C3.12 34.16 2.12 28.68 1.31 22.25 C1.18 21.32 1.05 20.4 0.92 19.45 C0.06 12.93 -0.15 6.56 0 0 Z " fill="#9FA3A6" transform="translate(24,51)"/>
<path d="M0 0 C0.99 0 1.98 0 3 0 C4.17 3.51 4.15 6.66 4.12 10.31 C4.12 11.38 4.12 11.38 4.11 12.46 C3.87 35.4 3.87 35.4 0 43 C-1.48 43.5 -1.48 43.5 -3 44 C-3 44.66 -3 45.32 -3 46 C-3.66 45.67 -4.32 45.34 -5 45 C-4.69 44.37 -4.38 43.75 -4.06 43.11 C-2.62 38.88 -2.4 34.75 -2.06 30.31 C-1.51 23.92 -0.75 18.13 1.4 12.05 C2.39 8.66 2.19 5.51 2 2 C1.34 2 0.68 2 0 2 C0 1.34 0 0.68 0 0 Z " fill="#4E555B" transform="translate(73,34)"/>
<path d="M0 0 C-0.01 0.68 -0.02 1.35 -0.04 2.05 C-0.04 2.94 -0.05 3.83 -0.06 4.75 C-0.07 5.63 -0.09 6.51 -0.1 7.42 C-0.08 10.27 -0.08 10.27 1 14 C-4.28 14 -9.56 14 -15 14 C-15 13.67 -15 13.34 -15 13 C-13.02 13 -11.04 13 -9 13 C-9.48 11.37 -9.96 9.75 -10.44 8.12 C-10.7 7.22 -10.97 6.32 -11.25 5.38 C-11.93 3.02 -11.93 3.02 -13 1 C-8.59 -0.1 -4.52 -0.08 0 0 Z " fill="#596065" transform="translate(69,119)"/>
<path d="M0 0 C3.06 1.8 4.57 3.28 6.38 6.31 C7.21 9.89 6.94 12.46 6 16 C3.94 17.44 3.94 17.44 2 18 C1.34 17.34 0.68 16.68 0 16 C0.66 16 1.32 16 2 16 C2.66 10.07 2.66 10.07 0.31 4.94 C-3.51 3.39 -6.13 3.71 -10 5 C-10.66 8.63 -11.32 12.26 -12 16 C-12.66 16 -13.32 16 -14 16 C-15.57 12.85 -15.35 10.48 -15 7 C-11.3 0.79 -7.09 -0.98 0 0 Z " fill="#030304" transform="translate(79,13)"/>
<path d="M0 0 C8.15 -0.43 15.18 0.71 23 3 C23 4.65 23 6.3 23 8 C22.01 7.67 21.02 7.34 20 7 C18.37 6.85 16.74 6.75 15.11 6.68 C14.18 6.64 13.24 6.6 12.27 6.56 C11.3 6.52 10.32 6.48 9.31 6.44 C8.32 6.39 7.34 6.35 6.32 6.31 C3.88 6.2 1.44 6.1 -1 6 C-1 2 -1 2 0 0 Z " fill="#3E464C" transform="translate(73,109)"/>
<path d="M0 0 C0.66 0 1.32 0 2 0 C2.64 5.13 0.44 8.5 -2 12.81 C-2.38 13.51 -2.76 14.2 -3.16 14.91 C-4.09 16.61 -5.05 18.31 -6 20 C-6.66 20 -7.32 20 -8 20 C-8.25 20.68 -8.5 21.36 -8.75 22.06 C-10.24 25.57 -12.07 28.72 -14 32 C-15.65 32 -17.3 32 -19 32 C-17.53 28.67 -15.48 25.9 -13.35 22.97 C-11.5 20.27 -9.96 17.43 -8.39 14.55 C-6.73 11.5 -5.03 8.46 -3.31 5.44 C-2.73 4.4 -2.15 3.37 -1.55 2.31 C-0.78 1.17 -0.78 1.17 0 0 Z " fill="#93989B" transform="translate(123,47)"/>
<path d="M0 0 C0 0.99 0 1.98 0 3 C-7.58 2.1 -7.58 2.1 -10.2 1.48 C-14.2 0.8 -18.14 0.81 -22.19 0.81 C-23.45 0.81 -23.45 0.81 -24.75 0.81 C-30.73 0.86 -36.19 1.48 -42 3 C-42 2.01 -42 1.02 -42 0 C-28.21 -4.54 -13.79 -4.54 0 0 Z " fill="#0A0B0C" transform="translate(96,118)"/>
<path d="M0 0 C4.53 1.13 4.9 1.61 7.25 5.38 C10.03 10.25 10.35 13.69 10.03 19.2 C9.96 26.55 12.51 33.27 17 39 C16.67 39.66 16.34 40.32 16 41 C11.08 35.23 8.96 30.51 8 23 C7.34 21.33 6.67 19.66 6 18 C5.44 15.67 4.94 13.34 4.46 10.99 C4.07 8.94 4.07 8.94 3 7 C2.67 8.98 2.34 10.96 2 13 C1.67 13 1.34 13 1 13 C0.67 8.71 0.34 4.42 0 0 Z " fill="#52595F" transform="translate(22,45)"/>
<path d="M0 0 C0.66 0 1.32 0 2 0 C2.71 6.74 0.36 11.01 -2.88 16.81 C-3.34 17.67 -3.8 18.53 -4.27 19.41 C-7.66 25.66 -7.66 25.66 -10 28 C-10.7 29.99 -11.37 31.99 -12 34 C-12.33 34.66 -12.66 35.32 -13 36 C-17.62 36 -22.24 36 -27 36 C-22.58 32.68 -21.28 32.7 -16 33 C-14.02 29.37 -12.04 25.74 -10 22 C-9.34 22 -8.68 22 -8 22 C-7.77 21.2 -7.55 20.39 -7.31 19.56 C-6.2 16.55 -5 14.23 -3.38 11.5 C-1.24 7.8 -0.57 5.33 -1 1 C-0.67 0.67 -0.34 0.34 0 0 Z " fill="#6E7378" transform="translate(125,45)"/>
<path d="M0 0 C0.33 0 0.66 0 1 0 C1.1 0.65 1.2 1.3 1.3 1.98 C2.26 7.62 3.35 11.55 7 16 C9.35 17.18 10.82 17.13 13.44 17.12 C14.22 17.13 15 17.13 15.81 17.13 C18.18 17.08 18.18 17.08 21 16 C22.07 14.2 22.07 14.2 23 12 C24.44 9.25 24.44 9.25 26 7 C26.99 7 27.98 7 29 7 C27.51 11.91 24.56 15.4 21 19 C16.82 21.09 11.55 20.43 7 20 C2.61 17.67 0.56 14.69 -1 10 C-0.94 6.62 -0.55 3.34 0 0 Z " fill="#070708" transform="translate(83,59)"/>
<path d="M0 0 C2.25 0.38 2.25 0.38 3.25 1.38 C3.83 8.51 3.83 8.51 1.56 11.88 C-1.18 13.65 -2.54 13.97 -5.75 13.38 C-7.93 10.1 -8.38 9.17 -7.75 5.38 C-5.33 2.27 -3.97 0.54 0 0 Z " fill="#72777C" transform="translate(74.75,15.625)"/>
<path d="M0 0 C2.81 0.38 2.81 0.38 3.81 1.38 C4.61 7.3 4.61 7.3 2.61 9.98 C1.06 11.38 1.06 11.38 -2.19 13.38 C-4.56 13.19 -4.56 13.19 -6.19 12.38 C-7.14 8.31 -7.62 6.2 -5.62 2.44 C-3.19 0.38 -3.19 0.38 0 0 Z " fill="#898E91" transform="translate(19.1875,27.625)"/>
<path d="M0 0 C0.48 7.26 0.48 7.26 -1.62 10.5 C-4.6 12.38 -6.54 12.31 -10 12 C-10.81 8.81 -10.81 8.81 -11 5 C-7.81 0.45 -5.49 -0.64 0 0 Z " fill="#868B8F" transform="translate(133,28)"/>
<path d="M0 0 C3.26 4.15 5.16 7.44 5.62 12.75 C5.7 13.55 5.77 14.35 5.85 15.17 C5.93 16.08 5.93 16.08 6 17 C4.37 16.69 2.75 16.38 1.12 16.06 C0.22 15.89 -0.68 15.71 -1.62 15.54 C-4 15 -4 15 -6 14 C-4.17 9.26 -2.08 4.64 0 0 Z " fill="#3B4147" transform="translate(38,113)"/>
<path d="M0 0 C0.33 1.32 0.66 2.64 1 4 C-0.14 4.27 -1.29 4.53 -2.46 4.8 C-3.96 5.16 -5.45 5.52 -6.94 5.88 C-7.69 6.05 -8.45 6.22 -9.22 6.4 C-11.17 6.87 -13.09 7.43 -15 8 C-15.33 8.66 -15.66 9.32 -16 10 C-17.32 4.59 -17.32 4.59 -16 2.19 C-11.25 -0.63 -5.36 -0.11 0 0 Z " fill="#7E8388" transform="translate(61,103)"/>
<path d="M0 0 C-0.33 1.98 -0.66 3.96 -1 6 C-5.29 6.66 -9.58 7.32 -14 8 C-13.67 6.02 -13.34 4.04 -13 2 C-13.66 1.67 -14.32 1.34 -15 1 C-9.95 -0.04 -5.13 -0.1 0 0 Z " fill="#595F64" transform="translate(73,109)"/>
<path d="M0 0 C1.32 0.66 2.64 1.32 4 2 C4.48 9.26 4.48 9.26 2.38 12.5 C-0.68 14.43 -2.44 14.53 -6 14 C-7.88 12.5 -7.88 12.5 -9 11 C-8.05 10.71 -7.1 10.42 -6.12 10.12 C-2.95 9.23 -2.95 9.23 -1 7 C-0.6 4.68 -0.26 2.34 0 0 Z " fill="#363D42" transform="translate(133,29)"/>
<path d="M0 0 C1.22 -0.04 2.43 -0.07 3.69 -0.11 C7.54 0.38 8.64 1.32 11 4.31 C9.34 5.98 7.22 5.67 4.94 5.88 C4.02 5.96 3.1 6.04 2.15 6.13 C1.44 6.19 0.73 6.25 0 6.31 C-0.33 5.32 -0.66 4.33 -1 3.31 C-5.29 3.31 -9.58 3.31 -14 3.31 C-9.35 0.21 -5.56 0.11 0 0 Z " fill="#575D63" transform="translate(62,100.6875)"/>
<path d="M0 0 C0.99 0.33 1.98 0.66 3 1 C4.44 4.25 4.44 4.25 5 8 C3.56 10.88 3.56 10.88 1 13 C-2.62 13.94 -2.62 13.94 -6 14 C-6.66 13.34 -7.32 12.68 -8 12 C-7.51 11.72 -7.01 11.44 -6.5 11.15 C-2.62 8.72 -1.2 7.83 -0.06 3.19 C-0.04 2.14 -0.02 1.08 0 0 Z " fill="#3F464A" transform="translate(23,29)"/>
<path d="M0 0 C0.99 0 1.98 0 3 0 C6.88 11.64 2 24.63 -1 36 C-1.33 36 -1.66 36 -2 36 C-1.7 27.72 -1.39 20.08 1.37 12.2 C2.37 8.73 2.2 5.58 2 2 C1.34 2 0.68 2 0 2 C0 1.34 0 0.68 0 0 Z " fill="#5F656B" transform="translate(73,34)"/>
<path d="M0 0 C-0.99 2.97 -1.98 5.94 -3 9 C-5.31 9.25 -5.31 9.25 -8 9 C-9.88 7.19 -9.88 7.19 -11 5 C-10 2 -10 2 -8.31 0.81 C-5.45 -0.19 -3.01 -0.14 0 0 Z " fill="#686E73" transform="translate(54,59)"/>
<path d="M0 0 C2 1.06 2 1.06 4 3 C4.75 8.98 4.75 8.98 2.62 11.88 C-0.68 14.16 -3.02 14.09 -7 14 C-7.33 13.34 -7.66 12.68 -8 12 C-7.38 11.9 -6.76 11.79 -6.12 11.69 C-3.63 11.12 -3.63 11.12 -2 8 C-1.34 8 -0.68 8 0 8 C0 5.36 0 2.72 0 0 Z " fill="#31373C" transform="translate(78,17)"/>
<path d="M0 0 C0.69 1.62 0.69 1.62 1 4 C-1.33 9.67 -1.33 9.67 -4 11 C-5.71 11.07 -7.42 11.08 -9.12 11.06 C-10.04 11.05 -10.95 11.04 -11.88 11.04 C-12.58 11.02 -13.28 11.01 -14 11 C-9.25 7 -9.25 7 -7 7 C-6.67 6.01 -6.34 5.02 -6 4 C-5.34 4.33 -4.68 4.66 -4 5 C-0.75 3.28 -0.75 3.28 0 0 Z " fill="#747A7E" transform="translate(70,70)"/>
<path d="M0 0 C-0.99 3.96 -1.98 7.92 -3 12 C-3.99 11.67 -4.98 11.34 -6 11 C-6.75 7.75 -6.75 7.75 -7 4 C-4.73 0.84 -3.94 0 0 0 Z " fill="#8B9093" transform="translate(74,17)"/>
<path d="M0 0 C6.27 0 12.54 0 19 0 C19 0.66 19 1.32 19 2 C18.01 2 17.02 2 16 2 C16 2.66 16 3.32 16 4 C9.8 4.38 5.55 3.84 0 1 C0 0.67 0 0.34 0 0 Z " fill="#4F565C" transform="translate(49,80)"/>
<path d="M0 0 C1.98 0 3.96 0 6 0 C6.48 7.26 6.48 7.26 4.38 10.5 C1.4 12.38 -0.54 12.31 -4 12 C-4 11.67 -4 11.34 -4 11 C-2.35 10.67 -0.7 10.34 1 10 C1.21 8.72 1.41 7.44 1.62 6.12 C1.74 5.41 1.86 4.69 1.98 3.95 C1.98 3.3 1.99 2.66 2 2 C1.34 1.34 0.68 0.68 0 0 Z " fill="#6B7175" transform="translate(127,28)"/>
<path d="M0 0 C5.75 -0.12 5.75 -0.12 8 1 C8 1.99 8 2.98 8 4 C5.5 6.19 5.5 6.19 3 8 C2.34 7.67 1.68 7.34 1 7 C0.59 4.68 0.26 2.34 0 0 Z " fill="#787D82" transform="translate(89,57)"/>
<path d="M0 0 C1.32 0.33 2.64 0.66 4 1 C3.67 1.33 3.34 1.66 3 2 C2.96 4 2.96 6 3 8 C3.99 8 4.98 8 6 8 C6.66 7.01 7.32 6.02 8 5 C8.66 5 9.32 5 10 5 C10.33 4.01 10.66 3.02 11 2 C11.66 2.33 12.32 2.66 13 3 C12.67 3.99 12.34 4.98 12 6 C11.01 6.33 10.02 6.66 9 7 C8.01 8.48 8.01 8.48 7 10 C5.35 9.67 3.7 9.34 2 9 C1.34 6.03 0.68 3.06 0 0 Z " fill="#5C6368" transform="translate(87,56)"/>
<path d="M0 0 C2 -0.04 4 -0.04 6 0 C7 1 7 1 7.31 4.38 C7 8 7 8 5 9.94 C4.34 10.29 3.68 10.64 3 11 C3.03 10.37 3.07 9.75 3.11 9.1 C3.13 8.28 3.16 7.47 3.19 6.62 C3.22 5.81 3.26 5 3.29 4.16 C3.2 3.45 3.1 2.74 3 2 C2.01 1.34 1.02 0.68 0 0 Z " fill="#6B7176" transform="translate(16,28)"/>
<path d="M0 0 C0.33 0 0.66 0 1 0 C1.37 13.63 1.37 13.63 -1 20 C-1.33 20 -1.66 20 -2 20 C-1.86 17.42 -1.71 14.83 -1.56 12.25 C-1.52 11.52 -1.48 10.79 -1.44 10.04 C-1.24 6.57 -0.91 3.35 0 0 Z " fill="#70767B" transform="translate(73,50)"/>
<path d="M0 0 C1.32 0.33 2.64 0.66 4 1 C4 2.98 4 4.96 4 7 C3.67 7 3.34 7 3 7 C2.67 8.98 2.34 10.96 2 13 C1.67 13 1.34 13 1 13 C0.67 8.71 0.34 4.42 0 0 Z " fill="#646A6E" transform="translate(22,45)"/>
<path d="M0 0 C1.16 2.87 0.99 4.02 0 7.02 C-0.71 8.62 -0.71 8.62 -1.44 10.25 C-1.91 11.33 -2.38 12.41 -2.87 13.52 C-3.24 14.34 -3.62 15.16 -4 16 C-5.34 12.35 -4.64 10.38 -3.12 6.88 C-2.76 6.01 -2.39 5.14 -2.01 4.24 C-1.37 2.82 -0.7 1.4 0 0 Z " fill="#40474C" transform="translate(125,54)"/>
<path d="M0 0 C0.99 0 1.98 0 3 0 C2.65 3.24 2.44 4.62 -0.06 6.81 C-0.7 7.2 -1.34 7.6 -2 8 C-2.12 5.12 -2.12 5.12 -2 2 C-1.34 1.34 -0.68 0.68 0 0 Z " fill="#9A9EA1" transform="translate(125,29)"/>
<path d="M0 0 C0.33 0 0.66 0 1 0 C1.49 7.38 1.49 7.38 -1 10.5 C-1.66 10.99 -2.32 11.49 -3 12 C-3.66 11.67 -4.32 11.34 -5 11 C-3.35 7.37 -1.7 3.74 0 0 Z " fill="#575E63" transform="translate(77,17)"/>
<path d="M0 0 C0.66 0 1.32 0 2 0 C3.36 2.73 2.88 4.61 2.56 7.62 C2.41 9.13 2.41 9.13 2.25 10.66 C2.17 11.43 2.09 12.21 2 13 C1.67 13 1.34 13 1 13 C0.86 11.93 0.71 10.86 0.56 9.75 C0.11 6.22 0.11 6.22 -0.62 3.69 C-1 2 -1 2 0 0 Z " fill="#81868A" transform="translate(73,36)"/>
<path d="M0 0 C0.66 0 1.32 0 2 0 C2.3 5.02 1.99 7.9 -1 12 C-1.56 10.06 -1.56 10.06 -2 8 C-1.67 7.67 -1.34 7.34 -1 7 C-1 6.01 -1 5.02 -1 4 C-1 1 -1 1 0 0 Z " fill="#5A6065" transform="translate(125,45)"/>
<path d="M0 0 C1.32 0 2.64 0 4 0 C4 1.98 4 3.96 4 6 C2.68 5.67 1.36 5.34 0 5 C-0.56 3.06 -0.56 3.06 -1 1 C-0.67 0.67 -0.34 0.34 0 0 Z " fill="#898E92" transform="translate(46,60)"/>
<path d="M0 0 C3.9 3.9 3.9 3.9 4 8 C2.68 9.32 1.36 10.64 0 12 C0 8.04 0 4.08 0 0 Z " fill="#292F33" transform="translate(24,29)"/>
<path d="M0 0 C3 1 3 1 5 4 C5 5.32 5 6.64 5 8 C4.34 8 3.68 8 3 8 C0 2.25 0 2.25 0 0 Z " fill="#595F65" transform="translate(45,92)"/>
</svg>
