<?xml version="1.0" encoding="UTF-8"?>
<!-- Generator: visioncortex VTracer 0.6.3 -->
<svg version="1.1" xmlns="http://www.w3.org/2000/svg" width="150" height="150">
<path d="M0 0 C0.96 0.01 1.92 0.01 2.9 0.02 C4.46 0.02 4.46 0.02 6.04 0.03 C7.13 0.03 8.22 0.04 9.34 0.05 C10.98 0.06 10.98 0.06 12.65 0.06 C15.36 0.08 18.07 0.09 20.78 0.11 C20.78 3.41 20.78 6.71 20.78 10.11 C24.08 10.11 27.38 10.11 30.78 10.11 C30.92 8.83 31.06 7.56 31.21 6.24 C31.48 3.86 31.7 2.27 32.78 0.11 C39.38 0.11 45.98 0.11 52.78 0.11 C54.78 6.11 54.78 6.11 54.78 10.11 C57.75 10.11 60.72 10.11 63.78 10.11 C63.75 8.65 63.73 7.18 63.71 5.68 C63.69 4.16 63.7 2.63 63.78 1.11 C64.78 0.11 64.78 0.11 67 0 C67.96 0.01 68.92 0.01 69.9 0.02 C71.46 0.02 71.46 0.02 73.04 0.03 C74.13 0.03 75.22 0.04 76.34 0.05 C77.98 0.06 77.98 0.06 79.65 0.06 C82.36 0.08 85.07 0.09 87.78 0.11 C89.62 3.8 89.35 7.99 89.53 12.05 C89.61 12.95 89.7 13.85 89.79 14.78 C89.9 17.89 89.77 20.15 88.78 23.11 C86.3 25.44 86.3 25.44 83.27 27.86 C79.28 31.22 77.47 33.94 76.87 39.2 C76.56 45.24 76.81 51.26 77.09 57.3 C77.14 59.42 77.19 61.54 77.24 63.65 C77.36 68.81 77.55 73.96 77.78 79.11 C78.98 79.53 78.98 79.53 80.22 79.96 C82.78 81.11 82.78 81.11 83.7 83.5 C83.83 84.4 83.96 85.31 84.09 86.24 C84.23 87.15 84.37 88.06 84.51 89 C84.6 89.7 84.69 90.39 84.78 91.11 C85.41 91.25 86.05 91.38 86.71 91.52 C87.95 91.78 87.95 91.78 89.21 92.05 C90.45 92.31 90.45 92.31 91.71 92.58 C93.78 93.11 93.78 93.11 94.78 94.11 C94.87 96.79 94.91 99.44 94.9 102.11 C94.9 102.86 94.91 103.61 94.91 104.39 C94.9 109.99 94.9 109.99 93.78 111.11 C90.62 111.22 87.49 111.26 84.33 111.26 C82.84 111.26 82.84 111.26 81.32 111.27 C78.03 111.28 74.73 111.28 71.44 111.28 C69.15 111.28 66.87 111.29 64.59 111.29 C59.81 111.3 55.02 111.3 50.23 111.3 C44.08 111.3 37.93 111.31 31.79 111.33 C27.07 111.34 22.36 111.34 17.65 111.34 C15.38 111.34 13.11 111.35 10.85 111.36 C7.68 111.37 4.52 111.36 1.35 111.36 C0.4 111.36 -0.54 111.37 -1.51 111.37 C-2.37 111.37 -3.23 111.37 -4.12 111.36 C-5.24 111.36 -5.24 111.36 -6.39 111.36 C-8.22 111.11 -8.22 111.11 -10.22 109.11 C-10.49 105.93 -10.49 105.93 -10.47 102.11 C-10.48 100.86 -10.49 99.6 -10.49 98.3 C-10.22 95.11 -10.22 95.11 -8.22 93.11 C-6.06 92.48 -6.06 92.48 -3.6 91.99 C-2.78 91.82 -1.97 91.65 -1.12 91.48 C-0.5 91.36 0.13 91.24 0.78 91.11 C0.9 90.12 0.9 90.12 1.04 89.1 C1.18 88.22 1.32 87.34 1.46 86.43 C1.65 85.12 1.65 85.12 1.85 83.79 C2.78 81.11 2.78 81.11 5.28 79.01 C8.69 75.05 8.6 72.12 8.65 67.04 C8.67 66.17 8.69 65.29 8.71 64.39 C8.74 62.53 8.75 60.68 8.76 58.82 C8.77 56.01 8.88 53.22 8.99 50.41 C9.48 40.42 9.48 40.42 5.28 31.78 C3.35 29.94 1.31 28.29 -0.76 26.59 C-3.7 23.64 -4.08 22.15 -4.33 18.04 C-4.27 16.02 -4.15 14 -3.97 11.99 C-3.93 10.95 -3.89 9.91 -3.85 8.84 C-3.44 0.18 -3.44 0.18 0 0 Z " fill="#040404" transform="translate(32.224853515625,26.886474609375)"/>
<path d="M0 0 C0.76 -0 1.52 -0 2.3 -0 C14.95 -0 27.43 0.65 40 2.19 C40.99 7.63 40.99 7.63 42 13.19 C46.95 14.18 46.95 14.18 52 15.19 C52 18.82 52 22.45 52 26.19 C19.66 26.19 -12.68 26.19 -46 26.19 C-46 22.56 -46 18.93 -46 15.19 C-40.55 14.2 -40.55 14.2 -35 13.19 C-34.67 9.56 -34.34 5.93 -34 2.19 C-23.68 -1.25 -10.83 -0.01 0 0 Z " fill="#3C4247" transform="translate(72,107.8125)"/>
<path d="M0 0 C1.58 0.01 3.16 0.02 4.75 0.04 C5.55 0.04 6.36 0.04 7.19 0.05 C9.19 0.06 11.19 0.08 13.18 0.1 C13.18 3.4 13.18 6.7 13.18 10.1 C18.13 10.1 23.08 10.1 28.18 10.1 C28.84 6.8 29.5 3.5 30.18 0.1 C35.13 0.1 40.08 0.1 45.18 0.1 C48.18 7.85 48.18 7.85 48.18 10.1 C52.8 10.1 57.42 10.1 62.18 10.1 C62.18 6.8 62.18 3.5 62.18 0.1 C68.12 0.1 74.06 0.1 80.18 0.1 C81.78 18.37 81.78 18.37 78.27 23.62 C72.15 30.08 67.27 30.88 58.71 31.19 C56.08 31.23 53.45 31.24 50.81 31.23 C49.85 31.23 48.89 31.23 47.9 31.23 C45.87 31.23 43.85 31.23 41.83 31.23 C38.76 31.22 35.69 31.23 32.62 31.23 C30.64 31.23 28.66 31.23 26.69 31.23 C25.33 31.23 25.33 31.23 23.95 31.24 C5.62 31.17 5.62 31.17 -1.37 24.25 C-5.89 19.07 -5.74 13.62 -5.47 7.03 C-4.97 0.13 -4.97 0.13 0 0 Z " fill="#292E33" transform="translate(36.81640625,29.90234375)"/>
<path d="M0 0 C30.5 0 30.5 0 33.77 2.18 C35.53 4.78 35.19 6.65 35 9.75 C34.85 15.14 35.49 18.28 38 23 C39.05 26.14 38.96 27.6 38.56 30.81 C38.1 34.57 37.98 38.21 38 42 C33.94 42.17 29.88 42.34 25.81 42.5 C24.68 42.55 23.55 42.6 22.38 42.64 C21.25 42.69 20.12 42.73 18.96 42.78 C17.94 42.82 16.91 42.87 15.86 42.91 C10.24 43.04 4.62 43 -1 43 C-0.67 28.81 -0.34 14.62 0 0 Z " fill="#454C53" transform="translate(44,63)"/>
<path d="M0 0 C13.53 0 27.06 0 41 0 C41.33 14.52 41.66 29.04 42 44 C25.17 43.67 8.34 43.34 -9 43 C-9 42.67 -9 42.34 -9 42 C-0.42 42 8.16 42 17 42 C16.67 39.03 16.34 36.06 16 33 C16.21 31.62 16.41 30.24 16.62 28.81 C17.07 24.33 16.07 22.9 14 19 C13.18 14.86 12.99 10.78 13.06 6.56 C13.29 3.83 13.29 3.83 11 2 C8.34 1.54 8.34 1.54 5.38 1.38 C3.87 1.26 3.87 1.26 2.34 1.15 C1.57 1.1 0.79 1.05 0 1 C0 0.67 0 0.34 0 0 Z " fill="#2F363B" transform="translate(65,63)"/>
<path d="M0 0 C0.92 0 1.84 0 2.79 0 C4.28 0.01 4.28 0.01 5.79 0.02 C6.81 0.02 7.83 0.02 8.87 0.02 C12.12 0.03 15.37 0.04 18.62 0.05 C20.83 0.06 23.03 0.06 25.23 0.06 C30.63 0.08 36.04 0.09 41.44 0.11 C38.36 2.16 36.25 2.78 32.69 3.61 C31.09 4 31.09 4 29.46 4.39 C28.47 4.63 27.47 4.87 26.44 5.11 C24.05 5.7 21.77 6.33 19.44 7.11 C19.11 7.77 18.78 8.43 18.44 9.11 C24.71 9.11 30.98 9.11 37.44 9.11 C37.93 10.1 37.93 10.1 38.44 11.11 C37.82 11.3 37.2 11.48 36.57 11.66 C33.85 12.47 31.14 13.29 28.44 14.11 C27.64 14.35 26.84 14.59 26.01 14.84 C21.03 16.4 16.91 18.41 12.44 21.11 C8.1 23.57 4.79 24.54 -0.19 24.8 C-1.4 24.87 -2.61 24.93 -3.86 25 C-9.1 25.16 -14.32 25.18 -19.56 25.11 C-19.56 21.48 -19.56 17.85 -19.56 14.11 C-14.12 13.12 -14.12 13.12 -8.56 12.11 C-8.23 8.48 -7.9 4.85 -7.56 1.11 C-4.71 0.16 -2.96 -0.01 0 0 Z " fill="#6F757A" transform="translate(45.563232421875,108.886474609375)"/>
<path d="M0 0 C1.58 0.01 3.16 0.02 4.75 0.04 C5.55 0.04 6.36 0.04 7.19 0.05 C9.19 0.06 11.19 0.08 13.18 0.1 C13.18 3.4 13.18 6.7 13.18 10.1 C18.13 10.1 23.08 10.1 28.18 10.1 C28.84 7.13 29.5 4.16 30.18 1.1 C32.49 1.1 34.8 1.1 37.18 1.1 C36.45 4.24 35.61 7.19 34.18 10.1 C30.51 12.09 27.32 12.34 23.18 12.1 C21.19 17.62 20.73 22.34 22.18 28.1 C22.84 28.76 23.5 29.42 24.18 30.1 C8.43 31.81 8.43 31.81 2.54 28.28 C-2.35 24.09 -4.89 20.78 -5.51 14.39 C-5.67 9.9 -5.41 5.56 -4.82 1.1 C-3.82 0.1 -3.82 0.1 0 0 Z " fill="#71777C" transform="translate(36.81640625,29.90234375)"/>
<path d="M0 0 C4.95 0 9.9 0 15 0 C18 7.75 18 7.75 18 10 C22.62 9.67 27.24 9.34 32 9 C32.33 6.36 32.66 3.72 33 1 C34.98 1 36.96 1 39 1 C38.58 2.46 38.14 3.92 37.69 5.38 C37.44 6.19 37.2 7 36.95 7.84 C36 10 36 10 33 12 C30.08 12.41 30.08 12.41 26.81 12.62 C25.73 12.7 24.64 12.77 23.52 12.85 C22.27 12.93 22.27 12.93 21 13 C20.67 13.99 20.34 14.98 20 16 C19.01 16.49 19.01 16.49 18 17 C16.97 18.65 15.98 20.32 15 22 C14.44 22.68 13.89 23.36 13.31 24.06 C11.63 26.16 11.63 26.16 12 30 C3.31 30.89 -5.27 31.12 -14 31 C-14 30.67 -14 30.34 -14 30 C-12.02 29.67 -10.04 29.34 -8 29 C-8.35 28.15 -8.7 27.31 -9.06 26.44 C-10.31 21.86 -9.77 18.34 -8.29 13.87 C-7 12 -7 12 -4.5 11.23 C-3.53 11.07 -2.56 10.91 -1.56 10.75 C2.56 9.89 2.56 9.89 5.39 7.04 C6.32 4.59 6.32 4.59 7 1 C4.69 1 2.38 1 0 1 C0 0.67 0 0.34 0 0 Z " fill="#3D454A" transform="translate(67,30)"/>
<path d="M0 0 C0 3.63 0 7.26 0 11 C-18.15 11 -36.3 11 -55 11 C-54.67 9.68 -54.34 8.36 -54 7 C-52.76 6.67 -51.51 6.35 -50.23 6.01 C-49.03 5.7 -49.03 5.7 -47.8 5.37 C-46.05 4.91 -44.3 4.45 -42.54 4 C-38.04 2.82 -33.58 1.58 -29.12 0.25 C-19.14 -2.45 -10.03 -2.27 0 0 Z " fill="#2D3338" transform="translate(124,123)"/>
<path d="M0 0 C2.31 0 4.62 0 7 0 C11.58 11.14 14.97 24.97 12 37 C9.19 40.49 6.38 42.1 2 43 C1.01 42.67 0.02 42.34 -1 42 C-0.67 28.14 -0.34 14.28 0 0 Z " fill="#888D91" transform="translate(44,63)"/>
<path d="M0 0 C0.94 0 1.88 0.01 2.84 0.01 C4.31 0.02 4.31 0.02 5.8 0.04 C6.79 0.04 7.78 0.04 8.79 0.05 C11.23 0.06 13.67 0.08 16.11 0.1 C15.45 0.43 14.79 0.76 14.11 1.1 C14.11 1.76 14.11 2.42 14.11 3.1 C12.47 4.35 12.47 4.35 10.3 5.66 C9.24 6.31 9.24 6.31 8.16 6.98 C6.11 8.1 6.11 8.1 3.11 9.1 C10.04 9.43 16.97 9.76 24.11 10.1 C24.11 10.43 24.11 10.76 24.11 11.1 C23.5 11.23 22.88 11.36 22.25 11.5 C21.04 11.76 21.04 11.76 19.8 12.04 C19 12.21 18.2 12.38 17.38 12.56 C14.97 13.1 14.97 13.1 12.11 14.1 C10.72 14.16 9.32 14.18 7.93 14.16 C6.04 14.13 6.04 14.13 4.11 14.1 C4.11 14.76 4.11 15.42 4.11 16.1 C2.67 16.59 2.67 16.59 1.19 17.09 C-0.08 17.53 -1.36 17.97 -2.64 18.41 C-3.59 18.73 -3.59 18.73 -4.56 19.06 C-8.17 20.32 -10.9 21.75 -13.89 24.1 C-17.14 24.79 -17.14 24.79 -19.89 25.1 C-19.89 21.47 -19.89 17.84 -19.89 14.1 C-14.44 13.11 -14.44 13.11 -8.89 12.1 C-8.56 8.47 -8.23 4.84 -7.89 1.1 C-4.95 0.12 -3.06 -0.02 0 0 Z " fill="#858A8E" transform="translate(45.88671875,108.90234375)"/>
<path d="M0 0 C5.61 0 11.22 0 17 0 C17 3.3 17 6.6 17 10 C21.95 10 26.9 10 32 10 C32.66 7.03 33.32 4.06 34 1 C36.31 1 38.62 1 41 1 C40.26 4.14 39.42 7.1 38 10 C34.33 12 31.14 12.24 27 12 C25 17.52 24.55 22.24 26 28 C26.66 28.66 27.32 29.32 28 30 C23.05 30 18.1 30 13 30 C14.32 29.34 15.64 28.68 17 28 C16.34 27.67 15.68 27.34 15 27 C14.67 26.01 14.34 25.02 14 24 C13.34 23.34 12.68 22.68 12 22 C12.3 19.66 12.63 17.33 13 15 C12.67 14.01 12.34 13.02 12 12 C12.32 10.66 12.66 9.33 13 8 C12.67 7.34 12.34 6.68 12 6 C12.66 4.35 13.32 2.7 14 1 C9.38 1 4.76 1 0 1 C0 0.67 0 0.34 0 0 Z " fill="#636A6E" transform="translate(33,30)"/>
<path d="M0 0 C4.29 0.33 8.58 0.66 13 1 C12.12 10.63 12.12 10.63 11 14 C10.85 16.06 10.75 18.13 10.68 20.2 C10.64 21.41 10.6 22.62 10.56 23.86 C10.52 25.12 10.48 26.39 10.44 27.69 C10.39 28.96 10.35 30.24 10.31 31.55 C10.2 34.7 10.1 37.85 10 41 C10.66 41.33 11.32 41.66 12 42 C6.29 42.99 0.79 43.1 -5 43 C-3.72 40.43 -2.5 40.1 0.06 38.88 C0.8 38.52 1.53 38.17 2.29 37.8 C3.13 37.41 3.13 37.41 4 37 C4.48 23.98 3.64 12.53 0 0 Z " fill="#646B70" transform="translate(51,63)"/>
<path d="M0 0 C2.31 0 4.62 0 7 0 C7.8 15.24 6.58 27.76 1 42 C0.67 42 0.34 42 0 42 C0 28.14 0 14.28 0 0 Z " fill="#9CA0A4" transform="translate(44,63)"/>
<path d="M0 0 C4.78 -0.02 9.57 -0.04 14.35 -0.05 C15.97 -0.06 17.59 -0.07 19.22 -0.08 C28.2 -0.12 37.07 -0.09 46 1 C45 3 45 3 42.34 4.04 C36.21 5.89 30.4 7.5 24 8 C24 8.66 24 9.32 24 10 C19.05 10 14.1 10 9 10 C9.33 9.01 9.66 8.02 10 7 C12.22 6.12 12.22 6.12 15.06 5.44 C15.98 5.21 16.9 4.98 17.85 4.75 C18.89 4.5 19.93 4.25 21 4 C23.64 3.34 26.28 2.68 29 2 C19.43 1.67 9.86 1.34 0 1 C0 0.67 0 0.34 0 0 Z " fill="#4F555A" transform="translate(55,108)"/>
<path d="M0 0 C2.39 0.47 4.76 0.98 7.12 1.54 C7.12 1.87 7.12 2.2 7.12 2.54 C6.27 2.49 6.27 2.49 5.4 2.43 C-2.2 2.15 -8.84 3.79 -16.12 5.86 C-17.84 6.32 -17.84 6.32 -19.59 6.79 C-27.53 8.94 -27.53 8.94 -34.88 12.54 C-35.2 13.2 -35.53 13.86 -35.88 14.54 C-38.7 15.48 -40.4 15.66 -43.32 15.64 C-44.17 15.64 -45.02 15.63 -45.89 15.63 C-47.21 15.62 -47.21 15.62 -48.56 15.61 C-49.46 15.6 -50.35 15.6 -51.27 15.59 C-53.47 15.58 -55.67 15.56 -57.88 15.54 C-57.88 15.21 -57.88 14.88 -57.88 14.54 C-56.57 14.54 -56.57 14.54 -55.23 14.54 C-46.02 14.24 -39.79 12.12 -31.88 7.54 C-27.53 5.22 -23.84 3.98 -19.02 3.17 C-16.77 2.65 -16.77 2.65 -14.89 1 C-10.69 -2.04 -4.88 -0.78 0 0 Z " fill="#5A5F64" transform="translate(95.875,118.45703125)"/>
<path d="M0 0 C4.95 0 9.9 0 15 0 C13.68 0.99 12.36 1.98 11 3 C7.21 6.14 6.38 8.4 5.75 13.25 C5.6 14.33 5.45 15.41 5.3 16.52 C5.2 17.34 5.1 18.16 5 19 C3.68 19 2.36 19 1 19 C0 18 0 18 -0.11 16.23 C-0.11 15.49 -0.1 14.74 -0.1 13.96 C-0.09 13.16 -0.09 12.35 -0.09 11.51 C-0.08 10.66 -0.07 9.81 -0.06 8.94 C-0.06 8.08 -0.05 7.23 -0.05 6.35 C-0.04 4.23 -0.02 2.12 0 0 Z " fill="#94989C" transform="translate(32,31)"/>
<path d="M0 0 C0.97 0 1.93 0.01 2.93 0.01 C5.28 0.03 7.64 0.04 10 0.06 C10 0.39 10 0.72 10 1.06 C8.77 1.17 7.54 1.28 6.27 1.39 C-2.06 2.18 -10.06 3.08 -18.13 5.33 C-23.35 6.66 -28.68 7.33 -34 8.06 C-34 6.74 -34 5.42 -34 4.06 C-31.67 3.58 -29.33 3.1 -27 2.62 C-26.03 2.42 -26.03 2.42 -25.04 2.22 C-16.61 0.51 -8.58 -0.08 0 0 Z " fill="#9A9EA2" transform="translate(60,118.9375)"/>
<path d="M0 0 C2.31 0 4.62 0 7 0 C6.01 2.97 5.02 5.94 4 9 C2.35 9.33 0.7 9.66 -1 10 C-1.12 2.25 -1.12 2.25 0 0 Z " fill="#808589" transform="translate(67,31)"/>
<path d="M0 0 C4.29 0 8.58 0 13 0 C10.47 2.53 9.02 3.68 5.94 5.19 C4.9 5.7 4.9 5.7 3.84 6.23 C2 7 2 7 0 7 C0 4.69 0 2.38 0 0 Z " fill="#9A9EA2" transform="translate(38,110)"/>
<path d="M0 0 C1.98 0 3.96 0 6 0 C5.01 2.97 4.02 5.94 3 9 C2.01 9 1.02 9 0 9 C0 6.03 0 3.06 0 0 Z " fill="#6B6F73" transform="translate(100,31)"/>
<path d="M0 0 C0 0.66 0 1.32 0 2 C-2.64 2.66 -5.28 3.32 -8 4 C-8 3.01 -8 2.02 -8 1 C-5.11 0.17 -3.11 0 0 0 Z " fill="#A4A8AC" transform="translate(34,123)"/>
</svg>
