<?xml version="1.0" encoding="UTF-8"?>
<!-- Generator: visioncortex VTracer 0.6.3 -->
<svg version="1.1" xmlns="http://www.w3.org/2000/svg" width="150" height="150">
<path d="M0 0 C3.23 2.87 5.14 5.8 6.25 10 C5.96 12.5 5.96 12.5 5.44 15.06 C4.95 17.59 4.95 17.59 5.25 20 C7.18 22.21 9.26 23.61 11.7 25.23 C20.04 31.03 27.21 40.61 29.04 50.7 C29.63 57.02 28.75 62.63 25.25 68 C23.02 70.45 20.67 72.74 18.25 75 C17.59 75.66 16.93 76.32 16.25 77 C17.1 77.98 17.96 78.95 18.84 79.96 C19.96 81.24 21.07 82.53 22.19 83.81 C22.75 84.46 23.32 85.1 23.9 85.76 C24.43 86.38 24.97 87 25.53 87.64 C26.02 88.22 26.52 88.79 27.03 89.37 C28.25 91 28.25 91 29.25 94 C22.48 98.27 15.61 101.84 8.25 105 C13.06 105.14 17.2 104.71 21.88 103.56 C33.95 100.9 43.63 99.97 55.25 105 C57.62 106.64 57.62 106.64 59.25 108 C58.63 111.15 57.58 113.27 55.75 115.89 C55.25 116.6 54.76 117.31 54.25 118.04 C53.74 118.77 53.22 119.5 52.69 120.25 C52.17 121 51.65 121.74 51.11 122.51 C49.83 124.34 48.54 126.17 47.25 128 C46.55 127.71 45.85 127.42 45.12 127.12 C34.22 122.86 25.2 123.35 14 126.19 C8.1 127.66 3.66 128.62 -2.12 126.09 C-3.9 124.9 -5.3 123.57 -6.75 122 C-7.78 122.8 -8.81 123.61 -9.88 124.44 C-13.26 126.8 -15.51 128 -19.75 128 C-22.57 127.36 -25.32 126.59 -28.09 125.77 C-37.14 123.15 -47.87 122.53 -56.75 126 C-57.74 126.99 -57.74 126.99 -58.75 128 C-59.74 128 -60.73 128 -61.75 128 C-63.43 125.8 -63.43 125.8 -65.19 122.88 C-67.12 119.68 -69.03 116.56 -71.25 113.56 C-72.75 111 -72.75 111 -72.57 108.97 C-71.26 105.81 -68.98 105.23 -65.98 103.89 C-51.65 98.18 -36.3 103.03 -21.75 106 C-23.53 102.45 -28.41 101.7 -32.03 100.39 C-36.21 98.8 -39.36 97.03 -42.75 94 C-41.14 90.3 -38.82 87.47 -36.25 84.38 C-35.46 83.41 -34.66 82.45 -33.84 81.46 C-31.75 79 -31.75 79 -29.75 77 C-30.35 76.52 -30.96 76.03 -31.58 75.53 C-37.69 70.4 -41.9 66.29 -43.19 58.25 C-43.84 47.59 -39.29 39.61 -32.44 31.75 C-28.13 27.22 -23.52 23.04 -18.75 19 C-19.24 17.52 -19.24 17.52 -19.75 16 C-20.14 11.27 -20.23 8.94 -18.06 4.69 C-12.92 -1.28 -7.38 -2.68 0 0 Z " fill="#080909" transform="translate(80.75,10)"/>
<path d="M0 0 C2.94 -0.18 5.82 -0.19 8.77 -0.13 C10.28 -0.16 10.28 -0.16 11.83 -0.19 C14.58 -0.17 17.08 -0.09 19.77 0.49 C21.95 3.03 21.95 3.03 22.77 5.49 C28.36 5.18 33.55 4.67 38.89 2.93 C47.77 0.35 58.74 -0.32 67.33 3.49 C68.46 4.15 69.6 4.81 70.77 5.49 C69.22 8.84 67.27 11.74 65.14 14.74 C64.19 16.08 64.19 16.08 63.23 17.45 C62.74 18.12 62.26 18.8 61.77 19.49 C61.19 19.28 60.62 19.06 60.04 18.84 C48.97 15.04 39.73 15.9 28.78 19.58 C24.68 20.82 20.98 21.49 16.77 20.49 C12.98 18.43 10.28 15.57 8.77 11.49 C8.21 12.42 7.65 13.35 7.08 14.31 C4.71 17.57 3.46 18.98 -0.23 20.49 C-5.58 21.02 -9.29 20.42 -14.18 18.25 C-23.88 14.69 -34.86 15.68 -44.23 19.49 C-45.77 17.56 -47.29 15.63 -48.8 13.68 C-49.45 12.86 -49.45 12.86 -50.12 12.02 C-51.24 10.57 -52.25 9.04 -53.23 7.49 C-52.23 4.49 -52.23 4.49 -49.05 2.81 C-38.93 -0.56 -28.57 1.51 -18.54 4.07 C-14.04 5.2 -9.9 6.14 -5.23 5.49 C-4.62 4.28 -4.62 4.28 -3.98 3.03 C-2.23 0.49 -2.23 0.49 0 0 Z " fill="#CAD9D8" transform="translate(65.234375,113.5068359375)"/>
<path d="M0 0 C-0.13 1.01 -0.26 2.03 -0.39 3.07 C-1.48 10.99 -1.48 10.99 1 18.31 C2 19.21 3 20.1 4 21 C8.97 27.12 11.86 32.17 13 40 C10.03 40 7.06 40 4 40 C4 36.04 4 32.08 4 28 C0.04 28 -3.92 28 -8 28 C-8 32.29 -8 36.58 -8 41 C-12.29 41 -16.58 41 -21 41 C-21 44.63 -21 48.26 -21 52 C-16.71 52 -12.42 52 -8 52 C-8 56.29 -8 60.58 -8 65 C-4.04 65 -0.08 65 4 65 C4 61.04 4 57.08 4 53 C7.96 53 11.92 53 16 53 C15.08 60.8 13.72 64.57 8 70 C7.34 70.99 6.68 71.98 6 73 C6.99 73.5 6.99 73.5 8 74 C-0.82 76.75 -12.71 76.01 -21 72 C-27.08 68.31 -32.42 63.77 -35 57 C-36.83 48.66 -33.35 41.97 -29 35 C-24.25 28.27 -17.76 22.65 -11 18 C-10.01 18 -9.02 18 -8 18 C-8.99 16.7 -8.99 16.7 -10 15.38 C-12.19 11.67 -12.79 10.2 -12 6 C-8.5 0.28 -6.49 -0.32 0 0 Z " fill="#E8F0F0" transform="translate(76,13)"/>
<path d="M0 0 C0.99 0 1.98 0 3 0 C3 0.66 3 1.32 3 2 C3.66 2 4.32 2 5 2 C7.44 5.65 7.55 8.75 7 13 C5.98 15.25 5.98 15.25 5 17 C5.92 17.75 6.84 18.5 7.78 19.27 C29.07 36.92 29.07 36.92 30.27 48.66 C30.54 56.32 29.05 60.93 23.88 66.62 C20.1 70.23 16.04 72.6 11 74 C7.94 73.75 7.94 73.75 6 73 C6.66 71.68 7.32 70.36 8 69 C8.66 69 9.32 69 10 69 C12.74 63.95 14.61 58.56 16 53 C12.04 53 8.08 53 4 53 C4 56.96 4 60.92 4 65 C0.04 65 -3.92 65 -8 65 C-8 60.71 -8 56.42 -8 52 C-12.29 52 -16.58 52 -21 52 C-21 48.37 -21 44.74 -21 41 C-16.71 41 -12.42 41 -8 41 C-8 36.71 -8 32.42 -8 28 C-4.04 28 -0.08 28 4 28 C4 31.96 4 35.92 4 40 C6.97 40 9.94 40 13 40 C10.85 34.21 8.7 29 5 24 C4.49 23.31 3.98 22.61 3.45 21.89 C0.89 18.31 0.89 18.31 -2 15 C-2.33 9.57 -1.45 5.17 0 0 Z " fill="#B0BCBB" transform="translate(76,13)"/>
<path d="M0 0 C0.54 0.14 1.08 0.28 1.64 0.43 C7.32 1.82 12.6 2.31 18.44 2.25 C19.69 2.26 19.69 2.26 20.96 2.26 C25.5 2.23 29.28 1.81 33.62 0.38 C35.85 -0.21 35.85 -0.21 38 0 C42.6 3.62 45.78 8.17 49 13 C49 13.99 49 14.98 49 16 C46.63 17.16 44.25 18.3 41.88 19.44 C41.21 19.76 40.54 20.09 39.86 20.42 C29.18 25.5 14.96 25.7 3.46 23.25 C0.86 22.31 -1.54 21.27 -4 20 C-4.8 19.62 -5.6 19.24 -6.43 18.84 C-8.31 17.93 -10.16 16.97 -12 16 C-11.15 11.5 -8.52 8.97 -5.44 5.75 C-4.92 5.2 -4.4 4.64 -3.86 4.07 C-2.58 2.71 -1.29 1.35 0 0 Z " fill="#EBF1F1" transform="translate(55,88)"/>
<path d="M0 0 C3.63 0 7.26 0 11 0 C11 4.29 11 8.58 11 13 C15.29 13 19.58 13 24 13 C24 16.63 24 20.26 24 24 C19.71 24 15.42 24 11 24 C11 28.29 11 32.58 11 37 C7.37 37 3.74 37 0 37 C0 32.71 0 28.42 0 24 C-4.29 24 -8.58 24 -13 24 C-13 20.37 -13 16.74 -13 13 C-8.71 13 -4.42 13 0 13 C0 8.71 0 4.42 0 0 Z " fill="#161717" transform="translate(68,41)"/>
<path d="M0 0 C4.66 1.19 8.75 1.57 13.56 1.27 C15.48 1.42 15.48 1.42 18.11 3.74 C18.79 5.07 18.79 5.07 19.48 6.42 C18.48 9.42 18.48 9.42 16.36 10.55 C11.21 12.11 6.72 12.85 1.48 11.42 C1.48 10.76 1.48 10.1 1.48 9.42 C-2.77 9.56 -7.02 9.71 -11.27 9.86 C-12.48 9.9 -13.68 9.94 -14.93 9.98 C-16.09 10.02 -17.25 10.06 -18.44 10.11 C-19.51 10.14 -20.58 10.18 -21.68 10.22 C-24.1 10.39 -26.2 10.74 -28.52 11.42 C-29.55 10.16 -30.57 8.89 -31.58 7.61 C-32.43 6.55 -32.43 6.55 -33.3 5.47 C-33.71 4.79 -34.11 4.12 -34.52 3.42 C-33.52 0.42 -33.52 0.42 -30.33 -1.26 C-20.27 -4.61 -9.96 -2.6 0 0 Z " fill="#E9F3F3" transform="translate(46.51904296875,117.576416015625)"/>
<path d="M0 0 C1.89 1.92 3.57 3.79 5.25 5.88 C5.94 6.69 5.94 6.69 6.64 7.52 C10 11.61 10 11.61 10 15 C7.63 16.16 5.25 17.3 2.88 18.44 C2.21 18.76 1.54 19.09 0.86 19.42 C-6.71 23.02 -13.6 23.14 -21.88 23.06 C-22.85 23.06 -23.82 23.05 -24.83 23.05 C-27.22 23.04 -29.61 23.02 -32 23 C-32 22.67 -32 22.34 -32 22 C-31.01 21.94 -30.03 21.88 -29.01 21.82 C-27.73 21.73 -26.45 21.65 -25.12 21.56 C-23.85 21.48 -22.57 21.4 -21.26 21.32 C-18.12 21.21 -18.12 21.21 -16 20 C-17.22 19.84 -17.22 19.84 -18.46 19.67 C-34.47 17.38 -34.47 17.38 -40 15 C-40.33 14.01 -40.66 13.02 -41 12 C-40.39 12.14 -39.78 12.29 -39.16 12.44 C-28.51 14.69 -17.73 14.74 -7 13 C-7.29 12.46 -7.58 11.93 -7.88 11.38 C-9.17 8.65 -10.09 5.87 -11 3 C-14.96 3 -18.92 3 -23 3 C-23 2.67 -23 2.34 -23 2 C-21.82 1.93 -21.82 1.93 -20.62 1.85 C-13.71 1.42 -13.71 1.42 -7 -0.12 C-3.78 -1.06 -3 -1.29 0 0 Z " fill="#ABB6B6" transform="translate(94,89)"/>
<path d="M0 0 C4.29 0 8.58 0 13 0 C13 4.29 13 8.58 13 13 C16.96 13 20.92 13 25 13 C25 9.04 25 5.08 25 1 C28.96 1 32.92 1 37 1 C36.08 8.8 34.72 12.57 29 18 C28.34 18.99 27.68 19.98 27 21 C27.66 21.33 28.32 21.66 29 22 C25.2 23.22 21.53 23.13 17.56 23.12 C16.26 23.13 14.97 23.13 13.63 23.13 C10.6 23.02 7.94 22.71 5 22 C5.99 21.67 6.98 21.34 8 21 C7.67 20.01 7.34 19.02 7 18 C7.66 17.01 8.32 16.02 9 15 C8.68 11.86 8.68 11.86 8 9 C8.99 9.33 9.98 9.66 11 10 C11.33 7.03 11.66 4.06 12 1 C8.04 1 4.08 1 0 1 C0 0.67 0 0.34 0 0 Z " fill="#E2E8E8" transform="translate(55,65)"/>
<path d="M0 0 C-0.66 1.32 -1.32 2.64 -2 4 C-3.32 4 -4.64 4 -6 4 C-6 4.66 -6 5.32 -6 6 C-7.02 5.98 -8.03 5.95 -9.08 5.93 C-15.72 5.83 -22.01 5.83 -28.56 7.12 C-33.43 8.08 -36.42 7.87 -41 6 C-40.38 4.12 -40.38 4.12 -39 2 C-37.02 1.28 -35.02 0.62 -33 0 C-31.98 -0.98 -30.98 -1.98 -30 -3 C-20.69 -6.37 -8.33 -4.85 0 0 Z " fill="#DBE6E6" transform="translate(136,119)"/>
<path d="M0 0 C1.65 0 3.3 0 5 0 C5 4.29 5 8.58 5 13 C9.29 13 13.58 13 18 13 C18 14.65 18 16.3 18 18 C14.04 18 10.08 18 6 18 C6 22.29 6 26.58 6 31 C4.02 31 2.04 31 0 31 C0 26.71 0 22.42 0 18 C-4.29 18 -8.58 18 -13 18 C-13 16.35 -13 14.7 -13 13 C-8.71 13 -4.42 13 0 13 C0 8.71 0 4.42 0 0 Z " fill="#EDF2F2" transform="translate(71,44)"/>
<path d="M0 0 C3.6 -0.15 7.21 -0.23 10.81 -0.31 C11.84 -0.35 12.86 -0.4 13.92 -0.44 C16.7 -0.49 19.26 -0.48 22 0 C24.06 2.44 24.06 2.44 25 5 C27.07 6.33 27.07 6.33 29 7 C21.96 9.35 13.89 8.48 7 6 C5.33 5.57 5.33 5.57 3.62 5.12 C2.76 4.75 1.89 4.38 1 4 C0.34 1.93 0.34 1.93 0 0 Z " fill="#A4AFAF" transform="translate(63,114)"/>
<path d="M0 0 C3.63 0 7.26 0 11 0 C10.01 0.49 10.01 0.49 9 1 C9 5.62 9 10.24 9 15 C12.96 15 16.92 15 21 15 C21 15.33 21 15.66 21 16 C16.71 16 12.42 16 8 16 C8 11.71 8 7.42 8 3 C6.35 3 4.7 3 3 3 C3 7.29 3 11.58 3 16 C-6.96 16.2 -6.96 16.2 -10 16 C-10.66 15.34 -11.32 14.68 -12 14 C-12 17.3 -12 20.6 -12 24 C-12.33 24 -12.66 24 -13 24 C-13 20.37 -13 16.74 -13 13 C-8.71 13 -4.42 13 0 13 C0 8.71 0 4.42 0 0 Z " fill="#363838" transform="translate(68,41)"/>
<path d="M0 0 C1.32 0 2.64 0 4 0 C3.08 7.8 1.72 11.57 -4 17 C-4.66 17.99 -5.32 18.98 -6 20 C-5.34 20.33 -4.68 20.66 -4 21 C-5.98 21.33 -7.96 21.66 -10 22 C-10.69 20.31 -10.69 20.31 -11 18 C-9.36 14.55 -8.21 13.14 -5 11 C-3.81 8.63 -3.81 8.63 -2.88 5.94 C-1.08 1.08 -1.08 1.08 0 0 Z " fill="#D1D6D6" transform="translate(88,66)"/>
<path d="M0 0 C0.61 0.14 1.22 0.29 1.84 0.44 C12.71 2.74 24.16 3.16 34.98 0.44 C37 0 37 0 41 0 C40.67 0.99 40.34 1.98 40 3 C29.22 8.37 14.12 7.14 2.91 3.95 C2.28 3.64 1.65 3.32 1 3 C0.67 2.01 0.34 1.02 0 0 Z " fill="#1D1E1E" transform="translate(53,101)"/>
<path d="M0 0 C0.66 0 1.32 0 2 0 C2 0.66 2 1.32 2 2 C2.66 2 3.32 2 4 2 C6.48 5.72 6.44 8.7 6 13 C5 16 5 16 4 18 C3.34 18 2.68 18 2 18 C-0.64 14.51 -2.09 12.53 -1.82 8.09 C-1.31 5.36 -0.72 2.68 0 0 Z " fill="#A5B3B3" transform="translate(77,13)"/>
<path d="M0 0 C2.79 -0.03 5.58 -0.05 8.38 -0.06 C9.57 -0.08 9.57 -0.08 10.78 -0.09 C16.77 -0.11 16.77 -0.11 19 1 C19.33 2.65 19.66 4.3 20 6 C12.74 5.34 5.48 4.68 -2 4 C-2 3.67 -2 3.34 -2 3 C-0.02 2.67 1.96 2.34 4 2 C2.68 1.34 1.36 0.68 0 0 Z " fill="#ECF5F5" transform="translate(112,116)"/>
<path d="M0 0 C-0.99 1.48 -0.99 1.48 -2 3 C-2.66 3 -3.32 3 -4 3 C-4 3.66 -4 4.32 -4 5 C-7.13 6.83 -9.38 7.24 -12.98 7.2 C-13.92 7.19 -14.85 7.18 -15.82 7.18 C-16.78 7.16 -17.75 7.14 -18.75 7.12 C-19.73 7.12 -20.72 7.11 -21.73 7.1 C-24.15 7.07 -26.58 7.04 -29 7 C-29 6.67 -29 6.34 -29 6 C-28.01 5.94 -27.03 5.88 -26.01 5.82 C-24.73 5.73 -23.45 5.65 -22.12 5.56 C-20.85 5.48 -19.57 5.4 -18.26 5.32 C-15.12 5.21 -15.12 5.21 -13 4 C-16.3 3.67 -19.6 3.34 -23 3 C-23 2.67 -23 2.34 -23 2 C-22.02 1.94 -21.05 1.88 -20.04 1.82 C-18.77 1.73 -17.5 1.65 -16.19 1.56 C-14.92 1.48 -13.66 1.4 -12.36 1.32 C-8.04 0.91 -4.41 -0.1 0 0 Z " fill="#C2CCCC" transform="translate(91,105)"/>
<path d="M0 0 C0.97 -0 1.95 -0 2.95 -0 C3.97 -0 4.98 0 6.03 0.01 C7.05 0 8.07 0 9.12 -0 C10.09 -0 11.06 -0 12.06 0 C12.95 0 13.85 0 14.77 0 C16.96 0.13 16.96 0.13 18.96 1.13 C18.96 1.79 18.96 2.45 18.96 3.13 C17.91 3.1 16.86 3.06 15.78 3.03 C7.87 2.85 1.37 2.96 -6.04 6.13 C-6.7 5.47 -7.36 4.81 -8.04 4.13 C-8.04 3.14 -8.04 2.15 -8.04 1.13 C-5.07 0.14 -3.1 0 0 0 Z " fill="#ACBBBB" transform="translate(27.03515625,126.8671875)"/>
<path d="M0 0 C3.63 0 7.26 0 11 0 C10.34 0.66 9.68 1.32 9 2 C7.68 2 6.36 2 5 2 C5 2.66 5 3.32 5 4 C11.27 4 17.54 4 24 4 C19.01 7.33 12.61 6.63 6.8 5.62 C3.69 4.77 0.81 3.57 -2 2 C-1.34 2 -0.68 2 0 2 C0 1.34 0 0.68 0 0 Z " fill="#B5C1C1" transform="translate(68,116)"/>
<path d="M0 0 C-1.31 2.94 -1.31 2.94 -3 6 C-6.41 7.14 -7 6.87 -10.19 5.56 C-10.9 5.28 -11.62 4.99 -12.36 4.69 C-13.17 4.35 -13.17 4.35 -14 4 C-13.67 3.01 -13.34 2.02 -13 1 C-8.61 0.14 -4.47 -0.09 0 0 Z " fill="#B2C1C1" transform="translate(131,126)"/>
<path d="M0 0 C1.89 0.2 3.78 0.41 5.66 0.7 C9.76 1.22 13.87 1.1 18 1.06 C18.87 1.06 19.74 1.05 20.64 1.05 C22.76 1.04 24.88 1.02 27 1 C25 3 25 3 22.4 3.2 C21.4 3.17 20.4 3.15 19.38 3.12 C17.87 3.1 17.87 3.1 16.34 3.07 C15.57 3.05 14.79 3.02 14 3 C14 3.66 14 4.32 14 5 C8.07 5.38 3.53 4.11 -2 2 C-1.34 1.34 -0.68 0.68 0 0 Z " fill="#242626" transform="translate(57,86)"/>
<path d="M0 0 C8.28 -0.35 15.21 0.1 23 3 C23.99 3.33 24.98 3.66 26 4 C25.34 5.65 24.68 7.3 24 9 C20.66 7.83 18.23 6.81 16 4 C16 3.34 16 2.68 16 2 C10.72 1.67 5.44 1.34 0 1 C0 0.67 0 0.34 0 0 Z " fill="#181A1A" transform="translate(104,129)"/>
<path d="M0 0 C1.08 0.01 2.17 0.01 3.28 0.02 C6.42 0.18 9.41 0.61 12.5 1.19 C12.5 1.52 12.5 1.85 12.5 2.19 C7.98 2.26 3.91 2.29 -0.5 1.19 C-0.83 2.18 -1.16 3.17 -1.5 4.19 C-4.14 4.52 -6.78 4.85 -9.5 5.19 C-9.5 4.53 -9.5 3.87 -9.5 3.19 C-10.82 3.52 -12.14 3.85 -13.5 4.19 C-12.5 2.19 -12.5 2.19 -9.84 1.07 C-6.4 0.16 -3.55 -0.05 0 0 Z " fill="#1D1F1F" transform="translate(36.5,128.8125)"/>
<path d="M0 0 C1.32 0 2.64 0 4 0 C5.52 1.64 5.52 1.64 6.81 3.81 C7.47 4.87 7.47 4.87 8.14 5.96 C9 8 9 8 8 11 C3.25 10.25 3.25 10.25 1 8 C0.43 5.34 0.26 2.71 0 0 Z " fill="#D7DEDE" transform="translate(79,92)"/>
<path d="M0 0 C3.96 0 7.92 0 12 0 C12 0.33 12 0.66 12 1 C8.7 1 5.4 1 2 1 C2 3.31 2 5.62 2 8 C5.63 8 9.26 8 13 8 C13 8.66 13 9.32 13 10 C8.71 10 4.42 10 0 10 C0 6.7 0 3.4 0 0 Z " fill="#000101" transform="translate(56,55)"/>
<path d="M0 0 C0.72 0 1.44 0 2.18 0.01 C7.33 0.05 12.34 0.4 17.44 1.12 C17.44 1.45 17.44 1.78 17.44 2.12 C16.82 2.15 16.21 2.18 15.57 2.2 C12.78 2.32 9.98 2.44 7.19 2.56 C6.22 2.6 5.25 2.64 4.25 2.68 C2.85 2.74 2.85 2.74 1.42 2.81 C0.56 2.85 -0.3 2.88 -1.18 2.92 C-3.41 3.11 -5.41 3.51 -7.56 4.12 C-8.22 3.13 -8.88 2.14 -9.56 1.12 C-6.51 -0.4 -3.34 -0.02 0 0 Z " fill="#D0DCDC" transform="translate(25.5625,124.875)"/>
<path d="M0 0 C0.66 0.99 1.32 1.98 2 3 C1.34 4.32 0.68 5.64 0 7 C-0.33 6.01 -0.66 5.02 -1 4 C-4.96 4 -8.92 4 -13 4 C-13 7.96 -13 11.92 -13 16 C-13.33 16 -13.66 16 -14 16 C-14 11.71 -14 7.42 -14 3 C-9.71 3 -5.42 3 -1 3 C-0.67 2.01 -0.34 1.02 0 0 Z " fill="#A0A8A8" transform="translate(93,62)"/>
<path d="M0 0 C0.66 0.66 1.32 1.32 2 2 C-2.47 4.31 -7.05 4.66 -12 4 C-12.66 3.34 -13.32 2.68 -14 2 C-13 1 -13 1 -10.57 0.94 C-8.57 0.98 -6.57 1.02 -4.57 1.06 C-2.01 1.18 -2.01 1.18 0 0 Z " fill="#A4B0B0" transform="translate(94,130)"/>
<path d="M0 0 C0.33 0.66 0.66 1.32 1 2 C1.66 2 2.32 2 3 2 C3.33 2.99 3.66 3.98 4 5 C0.49 7.41 -1.73 8.37 -6 8 C-5.2 7.24 -4.39 6.47 -3.56 5.69 C-0.83 3.21 -0.83 3.21 0 0 Z " fill="#B5C1C1" transform="translate(95,101)"/>
<path d="M0 0 C0.99 0.33 1.98 0.66 3 1 C0.06 3.94 -2 5.3 -6.12 5.38 C-10 5 -10 5 -13 3 C-11.97 2.93 -11.97 2.93 -10.92 2.85 C-9.57 2.74 -9.57 2.74 -8.19 2.62 C-7.29 2.56 -6.4 2.49 -5.48 2.41 C-2.76 2.13 -2.76 2.13 0 0 Z " fill="#B2BFBF" transform="translate(67,129)"/>
<path d="M0 0 C2.44 0.38 2.44 0.38 5 1 C5.33 1.66 5.66 2.32 6 3 C6.99 3.66 7.98 4.32 9 5 C-0.41 4.04 -0.41 4.04 -5 3 C-5 2.67 -5 2.34 -5 2 C-3.35 2 -1.7 2 0 2 C0 1.34 0 0.68 0 0 Z " fill="#202121" transform="translate(40,113)"/>
<path d="M0 0 C0.66 0.33 1.32 0.66 2 1 C0.02 3.97 0.02 3.97 -2 7 C-3.32 6.34 -4.64 5.68 -6 5 C-5.67 4.34 -5.34 3.68 -5 3 C-4.01 3 -3.02 3 -2 3 C-2 2.34 -2 1.68 -2 1 C-1.34 0.67 -0.68 0.34 0 0 Z " fill="#9AAAAA" transform="translate(129,126)"/>
<path d="M0 0 C0.33 0.99 0.66 1.98 1 3 C-0.06 4.5 -0.06 4.5 -2 6 C-5.69 6.19 -5.69 6.19 -9 6 C-6.12 3.76 -3.15 1.84 0 0 Z " fill="#222424" transform="translate(62,114)"/>
<path d="M0 0 C-0.99 0 -1.98 0 -3 0 C-3 0.66 -3 1.32 -3 2 C-4.98 2.66 -6.96 3.32 -9 4 C-8 1 -8 1 -6.19 -0.25 C-3.66 -1.12 -2.48 -0.88 0 0 Z " fill="#D8DADA" transform="translate(21,117)"/>
</svg>
