<?xml version="1.0" encoding="UTF-8"?>
<!-- Generator: visioncortex VTracer 0.6.3 -->
<svg version="1.1" xmlns="http://www.w3.org/2000/svg" width="150" height="150">
<path d="M0 0 C3.13 2.52 5.88 5.09 7 9 C6.75 14.26 6.13 17.64 3 22 C3.42 22.54 3.84 23.09 4.28 23.64 C4.83 24.36 5.37 25.08 5.94 25.81 C6.48 26.52 7.03 27.23 7.59 27.96 C9 30 9 30 10 33 C10.59 32.64 11.19 32.28 11.8 31.91 C19.23 27.75 25.28 26.62 33.6 28.63 C42.24 31.61 48.82 37.12 53 45.25 C56.48 52.84 57.03 59.52 54.44 67.5 C52.28 72.94 49.55 77.26 45 81 C43.21 81.71 41.42 82.42 39.62 83.12 C36.86 84.37 36.86 84.37 35 87 C34.11 91.64 34.18 96.33 34.37 101.04 C34.58 108.31 34.58 108.31 31.46 112.04 C27.82 114.1 24.44 115.39 20.38 116.25 C19.64 116.41 18.91 116.57 18.15 116.74 C-0.3 120.49 -26.68 121.9 -43.34 111.54 C-46.04 107.4 -45.2 103.01 -45.06 98.19 C-44.91 90.68 -44.91 90.68 -48.25 84.31 C-51.1 82.64 -51.1 82.64 -54.13 81.34 C-59.63 78.77 -62.75 73.92 -65.09 68.45 C-67.71 60.5 -67.66 54.26 -64.32 46.56 C-59.8 37.81 -53.98 32.79 -45.19 28.69 C-37.22 26.97 -30.37 27.58 -23 31 C-22.01 31.66 -21.02 32.32 -20 33 C-19.92 32.46 -19.84 31.93 -19.75 31.38 C-19 29 -19 29 -16.94 25.94 C-14.72 23.17 -14.72 23.17 -15 20 C-15.52 18.91 -16.03 17.81 -16.56 16.69 C-18.15 12.63 -18.39 11.08 -17 7 C-12.2 0.26 -8.33 -2.58 0 0 Z " fill="#6A7070" transform="translate(80,19)"/>
<path d="M0 0 C6.85 3.11 11.65 6.75 15.95 12.92 C16.58 13.81 17.22 14.7 17.88 15.61 C20.19 22.8 20.08 30.38 16.95 37.3 C13.54 43.28 8.6 47.15 2.95 50.92 C1.96 50.92 0.97 50.92 -0.05 50.92 C-0.69 50.2 -1.33 49.48 -1.99 48.73 C-10.45 39.98 -24.66 39.39 -36.05 37.92 C-33.39 30.38 -30.55 22.95 -27.37 15.61 C-26.98 14.66 -26.6 13.71 -26.21 12.73 C-21.22 1.35 -12.16 -4.29 0 0 Z " fill="#F2F6F6" transform="translate(113.0546875,51.078125)"/>
<path d="M0 0 C7.96 4.35 10.44 10.63 14 18.69 C14.49 19.75 14.97 20.81 15.47 21.91 C17.83 27.15 19.95 32.23 21.31 37.81 C20.07 37.98 18.82 38.15 17.54 38.33 C8.43 39.63 -0.23 40.98 -8.69 44.81 C-9.78 45.3 -9.78 45.3 -10.89 45.8 C-13.17 47.09 -13.73 48.42 -14.69 50.81 C-20.92 49.67 -25.58 45.27 -29.61 40.58 C-34.17 33.94 -34.96 27.71 -33.69 19.81 C-31.13 11.44 -25.9 5.88 -18.45 1.5 C-12 -1.7 -6.97 -2.25 0 0 Z " fill="#F1F7F6" transform="translate(50.6875,51.1875)"/>
<path d="M0 0 C0 0.66 0 1.32 0 2 C-0.9 2.06 -0.9 2.06 -1.81 2.12 C-4.35 2.88 -4.35 2.88 -5.75 6.06 C-6.37 7.52 -6.37 7.52 -7 9 C-7.66 9 -8.32 9 -9 9 C-9 9.66 -9 10.32 -9 11 C-9.69 11.01 -10.38 11.03 -11.09 11.04 C-29.27 11.37 -29.27 11.37 -47 15 C-48.33 15.34 -49.66 15.68 -51 16 C-51 16.66 -51 17.32 -51 18 C-49.91 17.71 -48.82 17.42 -47.7 17.12 C-34.81 13.89 -22.18 12.45 -9 15 C-9.5 17.47 -9.5 17.47 -10 20 C-10.64 20.02 -11.29 20.04 -11.95 20.06 C-14.93 20.16 -17.9 20.27 -20.88 20.38 C-22.39 20.42 -22.39 20.42 -23.95 20.47 C-30.48 20.72 -36.64 21.5 -43 23 C-43 23.99 -43 24.98 -43 26 C-42.39 25.78 -41.78 25.57 -41.16 25.34 C-30.99 22.11 -20.48 21.99 -10 24 C-11.28 28.99 -13.13 31.61 -17 35 C-17.99 35.5 -17.99 35.5 -19 36 C-19.99 36.66 -20.98 37.32 -22 38 C-25.46 38.46 -28.95 38.38 -32.44 38.38 C-33.43 38.37 -34.42 38.37 -35.44 38.37 C-44.22 38.24 -51.56 36.96 -59 32 C-59.7 28.1 -59.51 24.14 -59.5 20.19 C-59.53 19.09 -59.56 18 -59.59 16.87 C-59.61 8.81 -59.61 8.81 -56.66 4.86 C-40.62 -6.39 -18.15 -4.38 0 0 Z " fill="#F1F6F6" transform="translate(97,95)"/>
<path d="M0 0 C2.5 1.56 2.5 1.56 4 3 C3.67 4.65 3.34 6.3 3 8 C2.32 7.34 1.64 6.68 0.94 6 C-2.73 3.5 -4.64 3.37 -9 4 C-11.58 5.42 -11.58 5.42 -13 8 C-13.56 11.94 -13.6 14.06 -11.44 17.44 C-8.1 19.57 -5.89 19.42 -2 19 C0.35 18.12 0.35 18.12 2 17 C0.8 19.49 -0.45 21.68 -2 24 C-3.09 23.98 -4.19 23.96 -5.31 23.94 C-9.84 24.01 -10.81 24.88 -14 28 C-15.87 31.22 -15.87 31.22 -17.31 34.75 C-17.82 35.92 -18.34 37.09 -18.86 38.3 C-19.24 39.19 -19.61 40.08 -20 41 C-20.61 40.21 -21.22 39.42 -21.84 38.61 C-26.01 33.57 -30.26 32.34 -36.5 31.56 C-43.3 31.66 -49.93 35.37 -55 39.71 C-60.99 46.32 -62.77 52.81 -62.53 61.65 C-61.43 68.62 -57.72 73.68 -52.41 78.2 C-49.02 80.65 -45.98 82.67 -42 84 C-41.67 91.92 -41.34 99.84 -41 108 C-28.62 112.5 -19.52 114.34 -6.62 114.25 C-4.91 114.26 -4.91 114.26 -3.16 114.27 C6.59 114.25 15.77 113.23 25 110 C26.32 110 27.64 110 29 110 C29 109.34 29 108.68 29 108 C29.66 107.67 30.32 107.34 31 107 C30.99 106.32 30.99 105.65 30.98 104.95 C30.97 101.88 31.02 98.82 31.06 95.75 C31.05 94.69 31.04 93.62 31.03 92.53 C31.2 84.82 31.2 84.82 33.49 82.47 C35.33 81.43 35.33 81.43 39 80 C45.06 75.98 48.83 70.96 51 64 C52.1 56.6 51.69 50.28 47.54 43.93 C42.7 37.88 37.17 34.76 30 32 C30.99 31.34 31.98 30.68 33 30 C33 30.66 33 31.32 33 32 C34.32 31.34 35.64 30.68 37 30 C47.26 36.22 52.94 42.17 56 54 C57.36 61.46 54.57 69.04 50.53 75.27 C47.2 79.39 44.53 81.2 39.62 83.12 C36.86 84.37 36.86 84.37 35 87 C34.11 91.64 34.18 96.33 34.37 101.04 C34.58 108.31 34.58 108.31 31.46 112.04 C27.82 114.1 24.44 115.39 20.38 116.25 C19.64 116.41 18.91 116.57 18.15 116.74 C-0.3 120.49 -26.68 121.9 -43.34 111.54 C-46.04 107.4 -45.2 103.01 -45.06 98.19 C-44.91 90.68 -44.91 90.68 -48.25 84.31 C-51.1 82.64 -51.1 82.64 -54.13 81.34 C-59.63 78.77 -62.75 73.92 -65.09 68.45 C-67.71 60.5 -67.66 54.26 -64.32 46.56 C-59.8 37.81 -53.98 32.79 -45.19 28.69 C-37.22 26.97 -30.37 27.58 -23 31 C-22.01 31.66 -21.02 32.32 -20 33 C-19.92 32.46 -19.84 31.93 -19.75 31.38 C-19 29 -19 29 -16.94 25.94 C-14.72 23.17 -14.72 23.17 -15 20 C-15.52 18.91 -16.03 17.81 -16.56 16.69 C-18.15 12.63 -18.39 11.08 -17 7 C-11.99 -0.04 -8.34 -2.15 0 0 Z " fill="#080808" transform="translate(80,19)"/>
<path d="M0 0 C4.54 2.97 7.16 5.89 9 11 C9.47 16.58 8.27 20.43 5.75 25.31 C5.1 26.62 4.46 27.94 3.82 29.25 C3.5 29.89 3.19 30.52 2.87 31.18 C1.32 34.42 0.07 37.78 -1.18 41.14 C-2 43 -2 43 -4 45 C-4.3 44.31 -4.6 43.62 -4.9 42.9 C-6.24 39.79 -7.59 36.68 -8.94 33.56 C-9.41 32.47 -9.87 31.39 -10.36 30.26 C-10.81 29.23 -11.25 28.19 -11.71 27.13 C-12.13 26.17 -12.54 25.21 -12.97 24.22 C-13.81 22.08 -13.81 22.08 -15 21 C-15.53 15.4 -15.76 10.54 -13.25 5.44 C-8.93 0.76 -6.64 -0.92 0 0 Z " fill="#B7BCBC" transform="translate(78,42)"/>
<path d="M0 0 C5.1 2.86 7.31 5.62 9.56 11.06 C9.85 11.73 10.14 12.39 10.44 13.07 C11.03 14.41 11.61 15.76 12.18 17.1 C13.33 19.76 14.58 22.38 15.81 25 C17.65 28.91 18.87 32.83 20 37 C18.76 37.17 17.51 37.34 16.23 37.52 C7.12 38.82 -1.54 40.17 -10 44 C-11.09 44.49 -11.09 44.49 -12.21 44.99 C-14.49 46.27 -15.04 47.61 -16 50 C-18.17 49.49 -20 49 -22 48 C-21.67 47.01 -21.34 46.02 -21 45 C-19.68 45 -18.36 45 -17 45 C-17 41.7 -17 38.4 -17 35 C-16.01 34.5 -16.01 34.5 -15 34 C-13.87 31.98 -13.87 31.98 -13 30 C-12.34 31.98 -11.68 33.96 -11 36 C-8.69 35.34 -6.38 34.68 -4 34 C-4.33 33.34 -4.66 32.68 -5 32 C-4.07 31.41 -4.07 31.41 -3.12 30.81 C-0.59 28.65 0.16 27.2 1 24 C0.86 21.29 0.86 21.29 0 19 C-0.66 18.67 -1.32 18.34 -2 18 C-1.34 18 -0.68 18 0 18 C-0.19 17.24 -0.37 16.47 -0.56 15.69 C-1 13 -1 13 0 10 C0.07 8.27 0.08 6.54 0.06 4.81 C0.05 3.91 0.04 3.01 0.04 2.08 C0.02 1.39 0.01 0.71 0 0 Z " fill="#E4EAE9" transform="translate(52,52)"/>
<path d="M0 0 C4.74 4.59 6.23 8.65 6.5 15.25 C6.29 22.87 4.29 28.56 -1.01 34.1 C-8.7 41 -8.7 41 -13 41 C-13.64 40.28 -14.28 39.56 -14.94 38.81 C-18.87 34.54 -24.69 32.99 -30 31 C-28.67 29.02 -28.67 29.02 -27 27 C-24.31 26.75 -24.31 26.75 -22 27 C-22 26.34 -22 25.68 -22 25 C-21.23 24.59 -20.46 24.18 -19.66 23.76 C-18.66 23.22 -17.66 22.68 -16.62 22.12 C-15.13 21.32 -15.13 21.32 -13.6 20.51 C-9.89 18.36 -8.84 16.89 -7.75 12.88 C-6.15 7.77 -3.42 4.06 0 0 Z " fill="#AEB7B7" transform="translate(126,61)"/>
<path d="M0 0 C1.43 -0 1.43 -0 2.89 -0 C12.34 0.14 20.74 2.12 29.68 5.13 C31.79 5.62 31.79 5.62 34.44 3.38 C34.11 5.36 33.78 7.33 33.44 9.38 C32.78 9.05 32.12 8.72 31.44 8.38 C31.19 9.1 30.94 9.82 30.69 10.56 C29.31 13.66 27.73 15.88 25.44 18.38 C24.45 18.7 23.46 19.03 22.44 19.38 C21.94 17.89 21.94 17.89 21.44 16.38 C9.38 11.08 -7.03 12.4 -19.56 15.38 C-19.56 14.39 -19.56 13.39 -19.56 12.38 C-12.13 9.71 -5.3 8.86 2.56 8.69 C3.61 8.65 4.67 8.62 5.75 8.58 C8.31 8.5 10.87 8.43 13.44 8.38 C13.77 7.06 14.1 5.73 14.44 4.38 C-3.01 3.72 -3.01 3.72 -20.07 6.72 C-22.67 7.4 -24.89 7.49 -27.56 7.38 C-27.56 6.72 -27.56 6.06 -27.56 5.38 C-18.36 1.7 -9.93 -0.01 0 0 Z " fill="#A8B1B1" transform="translate(73.5625,105.625)"/>
<path d="M0 0 C1.98 1.65 3.96 3.3 6 5 C5.41 8.02 4.54 9.86 2.62 12.25 C0.67 14.83 -0.38 16.95 -1.25 20.06 C-3 25.28 -7.26 27.63 -12 30 C-14.29 30.66 -14.29 30.66 -16 31 C-16 31.66 -16 32.32 -16 33 C-17.65 33 -19.3 33 -21 33 C-21.33 33.99 -21.66 34.98 -22 36 C-26.29 35.67 -30.58 35.34 -35 35 C-29.72 28.01 -24.41 25.9 -16 24 C-14.67 23.67 -13.33 23.34 -12 23 C-11.67 20.69 -11.34 18.38 -11 16 C-10.01 15.67 -9.02 15.34 -8 15 C-8 14.34 -8 13.68 -8 13 C-8.66 12.67 -9.32 12.34 -10 12 C-9.01 11.01 -8.02 10.02 -7 9 C-7.66 8.67 -8.32 8.34 -9 8 C-7.33 7.13 -7.33 7.13 -5.62 6.25 C-2.67 4.58 -1.08 3.35 0 0 Z " fill="#E5EAEA" transform="translate(120,55)"/>
<path d="M0 0 C2.06 1.62 2.06 1.62 3 4 C2.38 6.69 2.38 6.69 1 10 C0.56 11.52 0.12 13.04 -0.31 14.56 C-1.73 18.88 -3.54 21.1 -7 24 C-13.88 20.12 -13.88 20.12 -15 19 C-15.57 14 -15.55 10.09 -13.25 5.56 C-9.01 0.74 -6.67 -0.85 0 0 Z " fill="#EFF5F4" transform="translate(78,42)"/>
<path d="M0 0 C2.27 2.85 3.9 5.64 5.41 8.96 C5.84 9.91 6.28 10.85 6.72 11.83 C7.16 12.81 7.61 13.8 8.06 14.81 C8.51 15.79 8.96 16.76 9.42 17.76 C9.85 18.71 10.28 19.66 10.72 20.64 C11.11 21.5 11.5 22.36 11.9 23.25 C13.17 26.42 14.06 29.72 15 33 C7.74 33.99 0.48 34.98 -7 36 C-6.34 34.68 -5.68 33.36 -5 32 C-4.34 32 -3.68 32 -3 32 C-2.9 31.48 -2.79 30.97 -2.69 30.44 C-2 28 -2 28 -0.5 24.88 C1.49 20.42 1.72 15.83 2 11 C1.34 10.67 0.68 10.34 0 10 C-0.78 6.18 -1.24 3.73 0 0 Z " fill="#CED2D2" transform="translate(57,56)"/>
<path d="M0 0 C4.46 0.8 5.91 1.93 8.5 5.62 C9.12 9.12 9.12 9.12 8.5 12.62 C5.91 16.32 4.46 17.45 0 18.25 C-4.46 17.45 -5.91 16.32 -8.5 12.62 C-9.12 9.12 -9.12 9.12 -8.5 5.62 C-5.91 1.93 -4.46 0.8 0 0 Z " fill="#DBE3E3" transform="translate(74.5,21.375)"/>
<path d="M0 0 C0 4.03 -1.69 6.82 -4 10 C-6.06 11.31 -6.06 11.31 -8 12 C-8.99 12.66 -9.98 13.32 -11 14 C-14.46 14.46 -17.95 14.38 -21.44 14.38 C-22.92 14.37 -22.92 14.37 -24.44 14.37 C-32.27 14.25 -41.14 13.86 -47 8 C-46.34 8 -45.68 8 -45 8 C-45 6.68 -45 5.36 -45 4 C-44.34 4 -43.68 4 -43 4 C-43 4.99 -43 5.98 -43 7 C-42.11 7.14 -41.23 7.29 -40.31 7.44 C-37.53 7.91 -34.77 8.43 -32 9 C-32 9.66 -32 10.32 -32 11 C-31.46 10.84 -30.93 10.67 -30.38 10.5 C-27.54 9.9 -24.89 10 -22 10 C-21.3 9.79 -20.6 9.59 -19.88 9.38 C-17.35 8.87 -16.15 9.69 -14 11 C-14 10.34 -14 9.68 -14 9 C-13.4 8.91 -12.8 8.81 -12.19 8.72 C-9.49 7.83 -8.69 6.74 -7 4.5 C-4.85 1.65 -3.57 0.55 0 0 Z " fill="#D2DCDB" transform="translate(86,119)"/>
<path d="M0 0 C0.33 0 0.66 0 1 0 C0.99 0.56 0.98 1.12 0.97 1.7 C1.24 8.94 3.84 14.34 7.21 20.61 C12.64 30.9 12.64 30.9 11 37 C8.36 37.33 5.72 37.66 3 38 C3.33 38.66 3.66 39.32 4 40 C3.24 40.11 2.48 40.22 1.69 40.33 C-4.82 41.33 -10.84 42.68 -17 45 C-18.48 45.5 -18.48 45.5 -20 46 C-20.99 46.5 -20.99 46.5 -22 47 C-22.33 47.99 -22.66 48.98 -23 50 C-24.32 49.67 -25.64 49.34 -27 49 C-21.12 42.78 -15.88 39.55 -7.62 37.81 C-6.91 37.65 -6.19 37.48 -5.45 37.31 C-0.66 36.25 4.12 35.55 9 35 C8.29 33.29 7.58 31.58 6.88 29.88 C6.43 28.78 5.98 27.69 5.52 26.57 C4.49 24.15 3.4 21.76 2.26 19.4 C-2.61 9.12 -2.61 9.12 -1.38 3.62 C-0.92 2.43 -0.47 1.23 0 0 Z " fill="#1F2020" transform="translate(62,53)"/>
<path d="M0 0 C0.95 -0 1.91 -0 2.89 -0 C11.85 0.14 21.31 1.31 29.44 5.38 C29.44 6.03 29.44 6.69 29.44 7.38 C24.36 6.96 19.42 6.4 14.44 5.31 C3.02 3.18 -8.7 3.57 -19.86 6.72 C-22.54 7.37 -24.82 7.49 -27.56 7.38 C-27.56 6.72 -27.56 6.06 -27.56 5.38 C-18.36 1.7 -9.93 -0.01 0 0 Z " fill="#1F2020" transform="translate(73.5625,105.625)"/>
<path d="M0 0 C11.79 -0.71 24.2 2.28 34 9 C35.2 11.13 35.2 11.13 36 13 C36.66 13.33 37.32 13.66 38 14 C37.01 14 36.02 14 35 14 C35 21.59 35 29.18 35 37 C34.67 37 34.34 37 34 37 C33.99 36.32 33.98 35.65 33.97 34.95 C33.92 31.88 33.83 28.82 33.75 25.75 C33.74 24.69 33.72 23.62 33.71 22.53 C33.67 21.5 33.64 20.48 33.61 19.42 C33.59 18.48 33.57 17.54 33.55 16.57 C32.85 13.29 31.56 12.1 29 10 C20.04 5.7 9.73 4.52 0 3 C0 2.01 0 1.02 0 0 Z " fill="#1F2020" transform="translate(77,89)"/>
<path d="M0 0 C1.98 1.65 3.96 3.3 6 5 C5.41 8.02 4.54 9.86 2.62 12.25 C0.67 14.83 -0.38 16.95 -1.25 20.06 C-3 25.28 -7.26 27.63 -12 30 C-14.29 30.66 -14.29 30.66 -16 31 C-16 31.66 -16 32.32 -16 33 C-17.65 33 -19.3 33 -21 33 C-21.33 33.99 -21.66 34.98 -22 36 C-23.98 36 -25.96 36 -28 36 C-27.5 34.12 -27.5 34.12 -26 32 C-24.15 31.53 -22.3 31.07 -20.43 30.68 C-14.27 28.96 -8.66 25.78 -4.31 21.12 C-3.07 18.16 -2.88 17.01 -3 13.94 C-3 9.36 -2.11 8.2 1 5 C1.33 4.34 1.66 3.68 2 3 C1.01 2.67 0.02 2.34 -1 2 C-0.67 1.34 -0.34 0.68 0 0 Z " fill="#D0D6D6" transform="translate(120,55)"/>
<path d="M0 0 C4.45 0.99 4.45 0.99 9 2 C8.66 5.05 8.17 6.77 6.31 9.25 C3.53 11.35 1.43 11.69 -2 12 C-2 12.66 -2 13.32 -2 14 C-5.3 14 -8.6 14 -12 14 C-11.01 12.68 -10.02 11.36 -9 10 C-7.68 10 -6.36 10 -5 10 C-4.73 9.46 -4.46 8.93 -4.19 8.38 C-2.79 5.58 -1.4 2.79 0 0 Z " fill="#B9C3C3" transform="translate(87,119)"/>
<path d="M0 0 C0 0.99 0 1.98 0 3 C-0.9 2.86 -1.79 2.71 -2.72 2.56 C-15.96 0.59 -28.84 -0.12 -42 3 C-42 2.01 -42 1.02 -42 0 C-28.97 -5.63 -13.26 -4 0 0 Z " fill="#1B1C1C" transform="translate(96,118)"/>
<path d="M0 0 C2 1.25 2 1.25 4 3 C4 7 4 7 2.59 8.51 C2.07 9 1.54 9.49 1 10 C0.11 11.84 0.11 11.84 -0.5 13.87 C-0.75 14.61 -1 15.35 -1.25 16.11 C-1.62 17.26 -1.62 17.26 -2 18.44 C-4.98 27.63 -4.98 27.63 -8 31 C-11 30 -11 30 -12.42 27.79 C-12.86 26.89 -13.3 25.99 -13.75 25.06 C-14.2 24.17 -14.65 23.27 -15.11 22.35 C-15.4 21.57 -15.7 20.8 -16 20 C-15.67 19.34 -15.34 18.68 -15 18 C-12.98 18.6 -10.98 19.27 -9 20 C-8.67 20.66 -8.34 21.32 -8 22 C-5.97 21.34 -5.97 21.34 -4 20 C-3.19 17.8 -3.19 17.8 -2.94 15.25 C-2.26 10.98 -0.94 7.87 1 4 C0.8 1.7 0.8 1.7 0 0 Z " fill="#D0D8D8" transform="translate(79,43)"/>
<path d="M0 0 C0.62 2.88 0.62 2.88 1 6 C0.34 6.66 -0.32 7.32 -1 8 C-1.72 10.32 -2.39 12.65 -3 15 C-4.88 14.69 -4.88 14.69 -7 14 C-9.47 10.29 -9.39 8.39 -9 4 C-6.93 -0.49 -4.68 -0.42 0 0 Z " fill="#ECF1F1" transform="translate(75,23)"/>
<path d="M0 0 C2.3 2.3 3.22 4.36 4.56 7.31 C5 8.26 5.43 9.2 5.88 10.18 C6.93 12.82 7.64 15.19 8 18 C7 19 7 19 5.15 19.1 C3.1 19.07 1.05 19.03 -1 19 C-2.12 15.25 -2.12 15.25 -1 13 C-0.95 11.17 -0.96 9.33 -1 7.5 C-1.11 2.22 -1.11 2.22 0 0 Z " fill="#BEC1C1" transform="translate(63,69)"/>
<path d="M0 0 C0.99 0.33 1.98 0.66 3 1 C2.67 1.99 2.34 2.98 2 4 C1.01 4 0.02 4 -1 4 C-1.14 5.13 -1.29 6.27 -1.44 7.44 C-2 11 -2 11 -3 12 C-4.52 12.07 -6.04 12.08 -7.56 12.06 C-8.39 12.05 -9.22 12.04 -10.07 12.04 C-10.7 12.02 -11.34 12.01 -12 12 C-11.01 11.67 -10.02 11.34 -9 11 C-9 10.34 -9 9.68 -9 9 C-8.34 9 -7.68 9 -7 9 C-6.34 7.02 -5.68 5.04 -5 3 C-3.35 2.67 -1.7 2.34 0 2 C0 1.34 0 0.68 0 0 Z " fill="#CCCFCF" transform="translate(97,95)"/>
<path d="M0 0 C0.56 0.27 1.11 0.54 1.69 0.81 C1.27 1.26 0.84 1.71 0.41 2.17 C-0.14 2.77 -0.69 3.38 -1.25 4 C-1.8 4.59 -2.34 5.18 -2.9 5.79 C-5.98 10.19 -5.59 15.92 -5.88 21.12 C-5.92 21.87 -5.96 22.61 -6.01 23.37 C-6.11 25.18 -6.21 27 -6.31 28.81 C-6.64 28.81 -6.97 28.81 -7.31 28.81 C-7.46 24.92 -7.55 21.02 -7.62 17.12 C-7.67 16.02 -7.71 14.92 -7.75 13.78 C-7.89 4.63 -7.89 4.63 -5.04 1.48 C-2.31 -0.19 -2.31 -0.19 0 0 Z " fill="#D5D6D6" transform="translate(45.3125,98.1875)"/>
<path d="M0 0 C1.5 1.06 1.5 1.06 3 3 C3.44 6.44 3.44 6.44 3 10 C1 12.44 1 12.44 -1 14 C-2.9 11.2 -2.99 9.9 -2.75 6.44 C-2 3 -2 3 0 0 Z " fill="#9DB2B2" transform="translate(80,24)"/>
<path d="M0 0 C2.64 0.66 5.28 1.32 8 2 C7.67 3.65 7.34 5.3 7 7 C3.04 6.67 -0.92 6.34 -5 6 C-3.68 5.34 -2.36 4.68 -1 4 C-0.67 2.68 -0.34 1.36 0 0 Z " fill="#C5CBCB" transform="translate(88,110)"/>
<path d="M0 0 C0 0.66 0 1.32 0 2 C-0.9 2.06 -0.9 2.06 -1.81 2.12 C-4.35 2.88 -4.35 2.88 -5.75 6.06 C-6.16 7.03 -6.58 8 -7 9 C-7.66 9 -8.32 9 -9 9 C-9.33 9.66 -9.66 10.32 -10 11 C-10.12 5.25 -10.12 5.25 -9 3 C-8.34 3 -7.68 3 -7 3 C-6.67 2.01 -6.34 1.02 -6 0 C-3.51 -1.25 -2.59 -0.78 0 0 Z " fill="#E2E4E4" transform="translate(97,95)"/>
<path d="M0 0 C0.99 0 1.98 0 3 0 C4.69 2 4.69 2 6 4 C2.69 5.65 -0.99 5.1 -4.62 5.06 C-5.43 5.06 -6.23 5.05 -7.05 5.05 C-9.04 5.04 -11.02 5.02 -13 5 C-13 4.67 -13 4.34 -13 4 C-8.59 2.9 -4.52 2.92 0 3 C0 2.01 0 1.02 0 0 Z " fill="#030303" transform="translate(73,87)"/>
<path d="M0 0 C6 -0.22 11.19 0.49 17 2 C13.33 4.38 10.51 4.05 6.25 3.62 C5.08 3.51 3.91 3.4 2.7 3.29 C1.81 3.19 0.92 3.1 0 3 C0 2.01 0 1.02 0 0 Z " fill="#1B1C1C" transform="translate(77,89)"/>
<path d="M0 0 C6.33 -0.35 11.1 0.71 17 3 C17 3.66 17 4.32 17 5 C13.7 4.67 10.4 4.34 7 4 C7 3.34 7 2.68 7 2 C4.69 1.67 2.38 1.34 0 1 C0 0.67 0 0.34 0 0 Z " fill="#050606" transform="translate(86,108)"/>
<path d="M0 0 C0.33 0 0.66 0 1 0 C1.05 0.66 1.1 1.33 1.15 2.01 C1.71 8.71 1.71 8.71 4 15 C3.01 15.33 2.02 15.66 1 16 C-1.98 10.61 -2.18 7.66 -0.54 1.72 C-0.27 0.87 -0.27 0.87 0 0 Z " fill="#2A2B2B" transform="translate(62,53)"/>
<path d="M0 0 C0.66 0.33 1.32 0.66 2 1 C1.43 2.3 0.85 3.59 0.25 4.88 C-0.07 5.59 -0.4 6.31 -0.73 7.05 C-2.22 9.34 -3.5 10 -6 11 C-5.56 5.96 -3.29 3.62 0 0 Z " fill="#E8EAEA" transform="translate(69,43)"/>
<path d="M0 0 C0.66 0.33 1.32 0.66 2 1 C1.84 1.68 1.69 2.35 1.53 3.05 C1.33 3.94 1.14 4.83 0.94 5.75 C0.74 6.63 0.54 7.51 0.34 8.42 C0 10.99 0.19 12.57 1 15 C0.01 15.5 0.01 15.5 -1 16 C-1.66 15.67 -2.32 15.34 -3 15 C-2.45 9.76 -1.57 5.03 0 0 Z " fill="#C2CDCD" transform="translate(78,23)"/>
<path d="M0 0 C0.66 0.99 1.32 1.98 2 3 C2.99 3.66 3.98 4.32 5 5 C4.34 5 3.68 5 3 5 C3 5.99 3 6.98 3 8 C1.02 8.33 -0.96 8.66 -3 9 C-2.01 6.03 -1.02 3.06 0 0 Z " fill="#DBE2E2" transform="translate(80,80)"/>
<path d="M0 0 C0.99 0.33 1.98 0.66 3 1 C2.34 1.95 1.68 2.9 1 3.88 C-1.18 6.66 -1.18 6.66 -1 9 C-2.32 9.33 -3.64 9.66 -5 10 C-3.84 6.09 -2.64 3.13 0 0 Z " fill="#DBDEDE" transform="translate(93,54)"/>
<path d="M0 0 C0.8 0.11 1.6 0.22 2.42 0.34 C3.33 0.48 3.33 0.48 4.25 0.62 C4.25 0.95 4.25 1.28 4.25 1.62 C-4.18 3.91 -4.18 3.91 -8.75 3.62 C-8.75 2.97 -8.75 2.31 -8.75 1.62 C-5.58 -0.28 -3.64 -0.54 0 0 Z " fill="#242626" transform="translate(54.75,109.375)"/>
<path d="M0 0 C0 0.66 0 1.32 0 2 C-0.66 2 -1.32 2 -2 2 C-2 2.66 -2 3.32 -2 4 C-4.64 3.67 -7.28 3.34 -10 3 C-6.26 0.51 -4.52 0 0 0 Z " fill="#E7E9E9" transform="translate(61,93)"/>
<path d="M0 0 C0 3.52 -0.82 4.37 -3 7 C-5.38 6.69 -5.38 6.69 -8 6 C-8.66 5.01 -9.32 4.02 -10 3 C-9.04 2.8 -9.04 2.8 -8.07 2.6 C-7.24 2.42 -6.41 2.24 -5.56 2.06 C-4.74 1.89 -3.92 1.71 -3.07 1.54 C-1.02 1.19 -1.02 1.19 0 0 Z " fill="#1B1C1C" transform="translate(81,36)"/>
<path d="M0 0 C0 0.66 0 1.32 0 2 C-3.3 1.67 -6.6 1.34 -10 1 C-5.64 -1.18 -4.53 -1.03 0 0 Z " fill="#1D1E1E" transform="translate(103,111)"/>
<path d="M0 0 C1.81 0.81 1.81 0.81 2.81 2.81 C-0.16 2.81 -3.13 2.81 -6.19 2.81 C-2.77 -0.24 -2.77 -0.24 0 0 Z " fill="#353636" transform="translate(48.1875,93.1875)"/>
<path d="M0 0 C0.66 0 1.32 0 2 0 C2 3.96 2 7.92 2 12 C1.67 12 1.34 12 1 12 C1 9.03 1 6.06 1 3 C0.34 3 -0.32 3 -1 3 C-0.67 2.01 -0.34 1.02 0 0 Z " fill="#202121" transform="translate(15,69)"/>
</svg>
