<?xml version="1.0" encoding="UTF-8"?>
<!-- Generator: visioncortex VTracer 0.6.3 -->
<svg version="1.1" xmlns="http://www.w3.org/2000/svg" width="150" height="150">
<path d="M0 0 C0.94 1.51 1.83 3.06 2.69 4.62 C4.1 7.1 4.1 7.1 6 9 C8.77 9.57 11.12 9.37 13.94 9.14 C24.51 8.66 33.88 13.05 41.93 19.56 C52.35 29.2 56.58 41.62 60 55 C60.18 55.69 60.36 56.39 60.55 57.1 C64.24 72.2 63.34 88.14 63.2 103.57 C63.2 104.3 63.19 105.03 63.19 105.79 C63.01 118.99 63.01 118.99 61 121 C58.34 121.11 55.7 121.16 53.04 121.16 C51.79 121.17 51.79 121.17 50.51 121.18 C47.74 121.19 44.97 121.2 42.2 121.2 C40.28 121.21 38.36 121.21 36.44 121.22 C32.41 121.23 28.38 121.24 24.35 121.24 C19.18 121.25 14 121.27 8.83 121.3 C4.87 121.32 0.9 121.32 -3.07 121.32 C-4.97 121.33 -6.88 121.33 -8.79 121.35 C-11.45 121.36 -14.12 121.36 -16.78 121.36 C-17.57 121.37 -18.36 121.37 -19.18 121.38 C-24.52 121.34 -24.52 121.34 -26.95 119.6 C-29.81 115.24 -29.68 111.08 -29 106 C-24.68 92.83 -14.17 83.29 -3.51 75.04 C-0.8 72.84 1.64 70.56 4 68 C4 67.34 4 66.68 4 66 C3.5 66.39 3 66.78 2.49 67.18 C-1.59 70.36 -5.67 73.52 -9.78 76.66 C-14.35 80.17 -18.89 83.7 -23.38 87.31 C-24.17 87.95 -24.97 88.58 -25.79 89.23 C-27.19 90.35 -28.58 91.49 -29.96 92.64 C-32.87 94.96 -34.54 95.99 -38.31 96.06 C-41 95 -41 95 -42.38 92.94 C-42.58 92.3 -42.79 91.66 -43 91 C-43.89 91.08 -44.77 91.17 -45.69 91.25 C-49.79 90.94 -51.16 89.92 -54 87 C-56.27 83.01 -56.45 79.53 -56 75 C-53.6 68.33 -49.96 62.21 -46.38 56.12 C-45.64 54.86 -45.64 54.86 -44.89 53.58 C-42.99 50.33 -41.09 47.13 -39 44 C-38.73 42.65 -38.5 41.3 -38.31 39.94 C-37.51 35.79 -36 33.54 -33.31 30.31 C-29.92 25.88 -29.68 23.09 -30.19 17.56 C-30.37 16.39 -30.55 15.21 -30.73 14 C-31 11 -31 11 -29 8 C-23.09 6.85 -18.83 9.99 -14 13 C-13.76 12.08 -13.52 11.17 -13.27 10.23 C-12.93 9.04 -12.6 7.85 -12.25 6.62 C-11.93 5.44 -11.6 4.26 -11.27 3.04 C-10 0 -10 0 -8.04 -1.43 C-4.63 -2.38 -3.11 -1.68 0 0 Z " fill="#E2E9E9" transform="translate(71,17)"/>
<path d="M0 0 C0.94 1.51 1.83 3.06 2.69 4.62 C4.1 7.1 4.1 7.1 6 9 C8.77 9.57 11.12 9.37 13.94 9.14 C24.51 8.66 33.88 13.05 41.93 19.56 C52.35 29.2 56.58 41.62 60 55 C60.18 55.69 60.36 56.39 60.55 57.1 C64.24 72.2 63.34 88.14 63.2 103.57 C63.2 104.3 63.19 105.03 63.19 105.79 C63.01 118.99 63.01 118.99 61 121 C58.34 121.11 55.7 121.16 53.04 121.16 C51.79 121.17 51.79 121.17 50.51 121.18 C47.74 121.19 44.97 121.2 42.2 121.2 C40.28 121.21 38.36 121.21 36.44 121.22 C32.41 121.23 28.38 121.24 24.35 121.24 C19.18 121.25 14 121.27 8.83 121.3 C4.87 121.32 0.9 121.32 -3.07 121.32 C-4.97 121.33 -6.88 121.33 -8.79 121.35 C-11.45 121.36 -14.12 121.36 -16.78 121.36 C-17.57 121.37 -18.36 121.37 -19.18 121.38 C-24.52 121.34 -24.52 121.34 -26.95 119.6 C-29.81 115.24 -29.68 111.08 -29 106 C-24.68 92.83 -14.17 83.29 -3.51 75.04 C-0.8 72.84 1.64 70.56 4 68 C4 67.34 4 66.68 4 66 C3.5 66.39 3 66.78 2.49 67.18 C-1.59 70.36 -5.67 73.52 -9.78 76.66 C-14.35 80.17 -18.89 83.7 -23.38 87.31 C-24.17 87.95 -24.97 88.58 -25.79 89.23 C-27.19 90.35 -28.58 91.49 -29.96 92.64 C-32.87 94.96 -34.54 95.99 -38.31 96.06 C-41 95 -41 95 -42.38 92.94 C-42.58 92.3 -42.79 91.66 -43 91 C-43.89 91.08 -44.77 91.17 -45.69 91.25 C-49.79 90.94 -51.16 89.92 -54 87 C-56.27 83.01 -56.45 79.53 -56 75 C-53.6 68.33 -49.96 62.21 -46.38 56.12 C-45.64 54.86 -45.64 54.86 -44.89 53.58 C-42.99 50.33 -41.09 47.13 -39 44 C-38.73 42.65 -38.5 41.3 -38.31 39.94 C-37.51 35.79 -36 33.54 -33.31 30.31 C-29.92 25.88 -29.68 23.09 -30.19 17.56 C-30.37 16.39 -30.55 15.21 -30.73 14 C-31 11 -31 11 -29 8 C-23.09 6.85 -18.83 9.99 -14 13 C-13.76 12.08 -13.52 11.17 -13.27 10.23 C-12.93 9.04 -12.6 7.85 -12.25 6.62 C-11.93 5.44 -11.6 4.26 -11.27 3.04 C-10 0 -10 0 -8.04 -1.43 C-4.63 -2.38 -3.11 -1.68 0 0 Z M-7 2 C-7.27 2.82 -7.54 3.65 -7.81 4.5 C-8.2 5.66 -8.6 6.81 -9 8 C-9.14 8.64 -9.27 9.28 -9.41 9.93 C-10.72 14.95 -12.75 16.79 -17.19 19.44 C-18.16 20 -19.13 20.57 -20.14 21.15 C-28.09 26.28 -32.63 33.31 -34.81 42.38 C-36.12 46.37 -37.96 49.13 -40.35 52.54 C-42.7 56.04 -44.64 59.71 -46.61 63.44 C-47.78 65.59 -49.03 67.58 -50.38 69.62 C-52.45 73.93 -52.72 77.31 -52 82 C-51.03 85.07 -51.03 85.07 -49 87 C-45.96 87.4 -44.43 87.25 -41.76 85.69 C-41.08 85.13 -40.39 84.57 -39.69 84 C-38.99 83.44 -38.29 82.89 -37.57 82.31 C-37.05 81.88 -36.54 81.45 -36 81 C-36.71 82.08 -36.71 82.08 -37.44 83.19 C-38.94 85.89 -39.57 87.96 -40 91 C-37.79 91.92 -37.79 91.92 -35 92 C-32.81 90.55 -31.09 89.2 -29.19 87.44 C-28.12 86.5 -27.05 85.56 -25.97 84.62 C-24.99 83.75 -24.01 82.89 -23 82 C-21.72 81 -20.43 80.02 -19.12 79.06 C-15.29 76.25 -11.55 73.32 -7.81 70.38 C-6.92 69.67 -6.92 69.67 -6.01 68.96 C-4.87 68.06 -3.73 67.16 -2.59 66.26 C-1.12 65.09 0.37 63.94 1.86 62.79 C4.08 61.18 4.08 61.18 5 59 C5.51 52.66 4.8 47.07 3 41 C6.71 44.39 7.14 47.4 7.38 52.3 C7.45 54.45 7.51 56.6 7.56 58.75 C7.63 59.82 7.69 60.9 7.75 62 C7.91 69.79 7.91 69.79 5.37 73.17 C3.33 74.97 1.26 76.5 -1 78 C-1.95 78.76 -2.89 79.52 -3.87 80.3 C-4.72 80.96 -5.56 81.63 -6.44 82.31 C-11.88 86.75 -16.58 91.54 -21 97 C-21.48 97.57 -21.95 98.14 -22.45 98.73 C-25.21 102.65 -25.16 106.13 -25.09 110.73 C-25.08 111.9 -25.06 113.08 -25.05 114.29 C-25.03 115.63 -25.03 115.63 -25 117 C-19.91 117.05 -14.82 117.09 -9.73 117.11 C-8 117.12 -6.26 117.13 -4.53 117.15 C-2.04 117.18 0.44 117.19 2.93 117.2 C3.71 117.21 4.48 117.22 5.28 117.23 C7.19 117.23 9.1 117.12 11 117 C11.66 116.34 12.32 115.68 13 115 C12.7 113.33 12.36 111.66 12 110 C12.8 99.99 16.18 90.37 21.7 82.03 C25.77 75.67 28.4 69.34 30 62 C30.33 61.67 30.66 61.34 31 61 C31.13 59.09 31.18 57.17 31.19 55.25 C31.2 54.2 31.22 53.16 31.23 52.08 C31 48.95 30.2 46.87 29 44 C28.76 41.29 28.91 38.72 29 36 C27.52 35.51 27.52 35.51 26 35 C26.33 34.24 26.66 33.47 27 32.69 C28.17 30.01 28.17 30.01 28 27 C25.69 27.99 23.38 28.98 21 30 C20.5 28.52 20.5 28.52 20 27 C19.34 26.67 18.68 26.34 18 26 C19.29 23.12 20.57 21.04 23 19 C23.99 18.67 24.98 18.34 26 18 C26.5 19.48 26.5 19.48 27 21 C27 20.01 27 19.02 27 18 C27.99 18.99 27.99 18.99 29 20 C31.32 20.4 33.66 20.74 36 21 C32.37 16.39 27.57 14.38 22 13 C17.31 12.69 12.69 12.76 8 13 C8.66 14.98 9.32 16.96 10 19 C5.34 14.63 2.27 9.88 -1.04 4.45 C-2.01 3.24 -2.01 3.24 -3 2 C-4.32 2 -5.64 2 -7 2 Z " fill="#AFB4B4" transform="translate(71,17)"/>
<path d="M0 0 C0.94 1.51 1.83 3.06 2.69 4.62 C4.1 7.1 4.1 7.1 6 9 C8.77 9.57 11.12 9.37 13.94 9.14 C24.51 8.66 33.88 13.05 41.93 19.56 C52.35 29.2 56.58 41.62 60 55 C60.18 55.69 60.36 56.39 60.55 57.1 C64.24 72.2 63.34 88.14 63.2 103.57 C63.2 104.3 63.19 105.03 63.19 105.79 C63.01 118.99 63.01 118.99 61 121 C58.34 121.11 55.7 121.16 53.04 121.16 C51.79 121.17 51.79 121.17 50.51 121.18 C47.74 121.19 44.97 121.2 42.2 121.2 C40.28 121.21 38.36 121.21 36.44 121.22 C32.41 121.23 28.38 121.24 24.35 121.24 C19.18 121.25 14 121.27 8.83 121.3 C4.87 121.32 0.9 121.32 -3.07 121.32 C-4.97 121.33 -6.88 121.33 -8.79 121.35 C-11.45 121.36 -14.12 121.36 -16.78 121.36 C-17.57 121.37 -18.36 121.37 -19.18 121.38 C-24.52 121.34 -24.52 121.34 -26.95 119.6 C-29.81 115.24 -29.68 111.08 -29 106 C-24.68 92.83 -14.17 83.29 -3.51 75.04 C-0.8 72.84 1.64 70.56 4 68 C4 67.34 4 66.68 4 66 C3.5 66.39 3 66.78 2.49 67.18 C-1.59 70.36 -5.67 73.52 -9.78 76.66 C-14.35 80.17 -18.89 83.7 -23.38 87.31 C-24.17 87.95 -24.97 88.58 -25.79 89.23 C-27.19 90.35 -28.58 91.49 -29.96 92.64 C-32.87 94.96 -34.54 95.99 -38.31 96.06 C-41 95 -41 95 -42.38 92.94 C-42.58 92.3 -42.79 91.66 -43 91 C-43.89 91.08 -44.77 91.17 -45.69 91.25 C-49.79 90.94 -51.16 89.92 -54 87 C-56.27 83.01 -56.45 79.53 -56 75 C-53.6 68.33 -49.96 62.21 -46.38 56.12 C-45.64 54.86 -45.64 54.86 -44.89 53.58 C-42.99 50.33 -41.09 47.13 -39 44 C-38.73 42.65 -38.5 41.3 -38.31 39.94 C-37.51 35.79 -36 33.54 -33.31 30.31 C-29.92 25.88 -29.68 23.09 -30.19 17.56 C-30.37 16.39 -30.55 15.21 -30.73 14 C-31 11 -31 11 -29 8 C-23.09 6.85 -18.83 9.99 -14 13 C-13.76 12.08 -13.52 11.17 -13.27 10.23 C-12.93 9.04 -12.6 7.85 -12.25 6.62 C-11.93 5.44 -11.6 4.26 -11.27 3.04 C-10 0 -10 0 -8.04 -1.43 C-4.63 -2.38 -3.11 -1.68 0 0 Z M-7 2 C-7.27 2.82 -7.54 3.65 -7.81 4.5 C-8.2 5.66 -8.6 6.81 -9 8 C-9.14 8.64 -9.27 9.28 -9.41 9.93 C-10.72 14.95 -12.75 16.79 -17.19 19.44 C-18.16 20 -19.13 20.57 -20.14 21.15 C-28.09 26.28 -32.63 33.31 -34.81 42.38 C-36.12 46.37 -37.96 49.13 -40.35 52.54 C-42.7 56.04 -44.64 59.71 -46.61 63.44 C-47.78 65.59 -49.03 67.58 -50.38 69.62 C-52.45 73.93 -52.72 77.31 -52 82 C-51.03 85.07 -51.03 85.07 -49 87 C-45.96 87.4 -44.43 87.25 -41.76 85.69 C-41.08 85.13 -40.39 84.57 -39.69 84 C-38.99 83.44 -38.29 82.89 -37.57 82.31 C-37.05 81.88 -36.54 81.45 -36 81 C-36.71 82.08 -36.71 82.08 -37.44 83.19 C-38.94 85.89 -39.57 87.96 -40 91 C-37.79 91.92 -37.79 91.92 -35 92 C-32.81 90.55 -31.09 89.2 -29.19 87.44 C-28.12 86.5 -27.05 85.56 -25.97 84.62 C-24.99 83.75 -24.01 82.89 -23 82 C-21.72 81 -20.43 80.02 -19.12 79.06 C-15.29 76.25 -11.55 73.32 -7.81 70.38 C-6.92 69.67 -6.92 69.67 -6.01 68.96 C-4.87 68.06 -3.73 67.16 -2.59 66.26 C-1.12 65.09 0.37 63.94 1.86 62.79 C4.08 61.18 4.08 61.18 5 59 C5.51 52.66 4.8 47.07 3 41 C6.71 44.39 7.14 47.4 7.38 52.3 C7.45 54.45 7.51 56.6 7.56 58.75 C7.63 59.82 7.69 60.9 7.75 62 C7.91 69.79 7.91 69.79 5.37 73.17 C3.33 74.97 1.26 76.5 -1 78 C-1.95 78.76 -2.89 79.52 -3.87 80.3 C-4.72 80.96 -5.56 81.63 -6.44 82.31 C-11.88 86.75 -16.58 91.54 -21 97 C-21.48 97.57 -21.95 98.14 -22.45 98.73 C-26.63 104.65 -25 109.01 -25 117 C2.39 117 29.78 117 58 117 C58.84 111.43 58.84 111.43 59.16 105.93 C59.17 105.21 59.18 104.49 59.19 103.75 C59.19 102.99 59.2 102.23 59.2 101.45 C59.21 100.64 59.21 99.83 59.22 99 C59.23 97.28 59.24 95.57 59.24 93.85 C59.25 91.3 59.28 88.75 59.31 86.19 C59.44 65.89 57.38 43.33 44 27 C43.5 26.38 43 25.76 42.49 25.12 C37.06 19.05 29.65 15.55 22 13 C19.61 12.93 17.21 12.92 14.81 12.94 C13.54 12.95 12.27 12.96 10.96 12.96 C9.98 12.98 9.01 12.99 8 13 C8.66 14.98 9.32 16.96 10 19 C5.34 14.63 2.27 9.88 -1.04 4.45 C-2.01 3.24 -2.01 3.24 -3 2 C-4.32 2 -5.64 2 -7 2 Z " fill="#0B0B0B" transform="translate(71,17)"/>
<path d="M0 0 C5.61 2.18 5.61 2.18 6.94 5 C7 7 7 7 6 10 C7.18 12.82 7.18 12.82 8.88 15.81 C12.33 22.16 13.54 27.76 13 35 C11.56 37.12 11.56 37.12 10 39 C9.63 40.66 9.29 42.33 9 44 C7.94 46.31 7.94 46.31 7 48 C6.34 48 5.68 48 5 48 C4.9 48.89 4.79 49.77 4.69 50.69 C3.99 54.06 2.91 56.17 1 59 C0.67 58.34 0.34 57.68 0 57 C-0.66 57 -1.32 57 -2 57 C-2.19 57.96 -2.19 57.96 -2.38 58.94 C-2.58 59.62 -2.79 60.3 -3 61 C-3.99 61.5 -3.99 61.5 -5 62 C-6.69 66.21 -7.45 70.33 -8.06 74.81 C-8.89 80.89 -8.89 80.89 -10 82 C-10.25 86.14 -10.25 86.14 -9 90 C-17.58 90 -26.16 90 -35 90 C-36.89 86.21 -36.6 82.12 -36 78 C-34.48 74.58 -32.38 71.87 -30 69 C-29.31 68.16 -28.62 67.32 -27.91 66.46 C-22.39 60.05 -16.32 53.56 -8.31 50.38 C-3.84 48.52 -0.18 46.26 2.14 41.82 C4.39 34.45 4.37 24.56 0.94 17.62 C-1.1 14.6 -1.93 14.03 -5.44 12.56 C-6.61 12.38 -7.79 12.19 -9 12 C-11 11.34 -13 10.68 -15 10 C-17.36 12.89 -17.36 12.89 -16.81 16.56 C-16.62 22.09 -19.32 26.33 -22 31 C-22.66 31 -23.32 31 -24 31 C-24.21 31.56 -24.41 32.11 -24.62 32.69 C-26.55 35.93 -29.04 37.68 -32 40 C-31.68 38.66 -31.34 37.33 -31 36 C-30.71 34.78 -30.42 33.57 -30.12 32.31 C-29.75 31.22 -29.38 30.13 -29 29 C-28.01 28.67 -27.02 28.34 -26 28 C-24.92 26.25 -24.92 26.25 -24 24 C-23.46 23.01 -22.93 22.02 -22.38 21 C-20.72 17.94 -20.72 17.94 -21 14 C-21.66 14 -22.32 14 -23 14 C-22.93 10.85 -22.6 8.7 -20.52 6.27 C-15.76 2 -15.76 2 -11 2 C-9.31 2.96 -7.64 3.96 -6 5 C-5.34 5 -4.68 5 -4 5 C-3.71 4.36 -3.42 3.72 -3.12 3.06 C-2 1 -2 1 0 0 Z " fill="#F0F6F6" transform="translate(82,43)"/>
<path d="M0 0 C3 1 3 1 4.16 3.22 C6.65 11.43 6.32 21.58 5 30 C2.77 34.17 0.06 35.75 -4 38 C-5.88 39.45 -7.73 40.93 -9.56 42.44 C-10.48 43.19 -11.4 43.94 -12.35 44.71 C-16.33 48.15 -19.74 51.88 -23 56 C-23.46 56.55 -23.91 57.1 -24.38 57.66 C-28.62 63.66 -27 67.83 -27 76 C14.09 76.5 14.09 76.5 56 77 C56.5 75.02 56.5 75.02 57 73 C58.04 76.13 57.93 76.99 57 80 C45.97 80.07 34.94 80.12 23.91 80.16 C18.79 80.17 13.66 80.19 8.54 80.23 C3.6 80.26 -1.34 80.28 -6.28 80.28 C-8.17 80.29 -10.05 80.3 -11.94 80.32 C-14.58 80.34 -17.22 80.34 -19.86 80.34 C-20.64 80.35 -21.42 80.36 -22.23 80.37 C-27.52 80.34 -27.52 80.34 -29.95 78.6 C-32.81 74.24 -32.68 70.08 -32 65 C-27.68 51.83 -17.17 42.29 -6.51 34.04 C-3.8 31.84 -1.36 29.56 1 27 C1 26.34 1 25.68 1 25 C0.5 25.39 0 25.78 -0.51 26.18 C-4.59 29.36 -8.67 32.52 -12.78 35.66 C-17.35 39.17 -21.89 42.7 -26.38 46.31 C-27.17 46.95 -27.97 47.58 -28.79 48.23 C-30.19 49.35 -31.58 50.49 -32.96 51.64 C-35.87 53.96 -37.54 54.99 -41.31 55.06 C-44 54 -44 54 -45.38 51.94 C-45.58 51.3 -45.79 50.66 -46 50 C-46.95 50.02 -47.9 50.04 -48.88 50.06 C-52 50 -52 50 -54 49 C-54 48.34 -54 47.68 -54 47 C-52.91 47.1 -51.81 47.21 -50.69 47.31 C-48.86 47.16 -48.86 47.16 -47 47 C-45.32 44.64 -45.32 44.64 -44 42 C-41.31 40.69 -41.31 40.69 -39 40 C-39.57 42.87 -39.86 43.86 -42 46 C-42 47.32 -42 48.64 -42 50 C-37.14 49.55 -34.2 47.14 -30.56 44.12 C-29.32 43.12 -28.08 42.12 -26.84 41.12 C-26.21 40.6 -25.57 40.09 -24.92 39.55 C-22.45 37.55 -19.94 35.6 -17.42 33.65 C-12.27 29.64 -7.24 25.59 -2.45 21.14 C-1 20 -1 20 1 20 C1.1 13.23 1.03 6.7 0 0 Z " fill="#070808" transform="translate(74,58)"/>
<path d="M0 0 C2.79 0.61 4.23 1.33 6.15 3.47 C8.98 8.15 9.62 12.09 9.53 17.47 C9.54 18.15 9.55 18.84 9.56 19.55 C9.53 25.14 8.22 29.13 4.5 33.33 C1.16 36.14 -1.3 38.19 -5.85 38.47 C-3.51 36.14 -1.18 33.8 1.15 31.47 C1.46 29.03 1.46 29.03 1.42 26.2 C1.42 25.15 1.42 24.09 1.43 23.01 C1.41 21.35 1.41 21.35 1.4 19.66 C1.41 18.56 1.42 17.47 1.43 16.34 C1.42 15.28 1.42 14.23 1.42 13.14 C1.42 12.17 1.41 11.2 1.41 10.21 C1.13 7.26 0.48 5.11 -0.85 2.47 C-1.51 2.14 -2.17 1.81 -2.85 1.47 C-2.35 3.14 -2.35 3.14 -1.85 4.84 C-1.05 8.12 -0.58 11.28 -0.41 14.66 C-0.35 15.85 -0.35 15.85 -0.29 17.07 C-2.38 26.04 -18.7 35.23 -26.11 40.83 C-30.44 44.11 -34.56 47.58 -38.63 51.17 C-40.85 52.47 -40.85 52.47 -43.63 52.18 C-44.36 51.94 -45.09 51.71 -45.85 51.47 C-45.4 46.57 -43.23 42.94 -39.85 39.47 C-36.54 38.03 -36.54 38.03 -33.85 37.47 C-33.85 36.81 -33.85 36.15 -33.85 35.47 C-32.75 34.93 -31.66 34.4 -30.54 33.84 C-26.7 31.67 -25.79 29.43 -23.85 25.47 C-21.88 23.58 -19.82 21.87 -17.69 20.18 C-15.77 18.39 -14.86 16.87 -13.85 14.47 C-13.19 14.47 -12.53 14.47 -11.85 14.47 C-11.74 13.55 -11.63 12.64 -11.52 11.7 C-11.36 10.51 -11.2 9.32 -11.04 8.09 C-10.88 6.91 -10.73 5.73 -10.58 4.51 C-9.12 -1.57 -5.09 -0.73 0 0 Z " fill="#AFB5B5" transform="translate(76.84765625,56.53125)"/>
<path d="M0 0 C0.66 0 1.32 0 2 0 C1.45 3.84 -0.28 5.36 -3 8 C-3.33 8.99 -3.66 9.98 -4 11 C-2.02 10.34 -0.04 9.68 2 9 C1.69 9.6 1.38 10.2 1.06 10.81 C-0.1 13.09 -0.1 13.09 -1 16 C-0.34 16 0.32 16 1 16 C1 17.98 1 19.96 1 22 C5.03 19.93 6.93 18.03 9 14 C8.01 14 7.02 14 6 14 C6 13.01 6 12.02 6 11 C7.32 10.34 8.64 9.68 10 9 C16.79 19.1 15.29 33.6 15.21 45.33 C15.19 47.96 15.19 50.58 15.19 53.21 C15.18 54.9 15.17 56.59 15.17 58.28 C15.17 59.05 15.17 59.82 15.16 60.62 C15.13 65.18 14.74 69.5 14 74 C6.25 73.12 6.25 73.12 4 72 C2.33 71.85 0.66 71.75 -1.01 71.68 C-1.99 71.64 -2.98 71.6 -4 71.56 C-5.03 71.52 -6.06 71.48 -7.12 71.44 C-8.17 71.39 -9.21 71.35 -10.28 71.31 C-12.85 71.2 -15.43 71.1 -18 71 C-18.33 69.68 -18.66 68.36 -19 67 C-17.67 67.56 -17.67 67.56 -16.31 68.12 C-12.59 69.11 -11.33 68.76 -8 67 C-8 66.67 -8 66.34 -8 66 C-6.02 66 -4.04 66 -2 66 C-1.67 65.34 -1.34 64.68 -1 64 C-0.13 63.85 -0.13 63.85 0.75 63.69 C4.61 62.51 7.02 59.52 9.17 56.18 C10.24 53.37 10.02 51.35 9.69 48.38 C9.54 46.93 9.54 46.93 9.39 45.46 C9.13 43 9.13 43 8 41 C8.99 40.34 9.98 39.68 11 39 C11.33 38.01 11.66 37.02 12 36 C10.35 35.67 8.7 35.34 7 35 C7 36.65 7 38.3 7 40 C6.01 40 5.02 40 4 40 C4 37.69 4 35.38 4 33 C4.78 32.92 5.57 32.84 6.38 32.75 C9.15 32.27 9.15 32.27 10.31 29.94 C10.54 29.3 10.77 28.66 11 28 C9.02 29.32 7.04 30.64 5 32 C4.34 30.68 3.68 29.36 3 28 C4.32 28 5.64 28 7 28 C8.21 25.67 9.17 23.5 10 21 C9.26 21.5 8.52 21.99 7.75 22.5 C5 24 5 24 1 24 C0.34 29.61 -0.32 35.22 -1 41 C-1.66 41 -2.32 41 -3 41 C-6.17 22.72 -6.17 22.72 -6.82 15.06 C-7.09 12.02 -7.54 9.02 -8 6 C-6.86 5.35 -6.86 5.35 -5.69 4.69 C-3.04 3.16 -3.04 3.16 -1.31 1.31 C-0.88 0.88 -0.45 0.45 0 0 Z " fill="#AEB7B6" transform="translate(115,60)"/>
<path d="M0 0 C2.19 0.94 2.19 0.94 4 2 C4.62 2.12 5.24 2.24 5.88 2.37 C11.46 4.03 15.14 9.54 17.97 14.33 C26.63 30.8 26.63 30.8 25.56 36.24 C25.28 37.11 25.28 37.11 25 38 C24.34 37.01 23.68 36.02 23 35 C22.01 35.33 21.02 35.66 20 36 C20 36.99 20 37.98 20 39 C20.99 39 21.98 39 23 39 C22.46 42.79 20.92 44.59 18 47 C17.01 47 16.02 47 15 47 C15 45.02 15 43.04 15 41 C14.34 41 13.68 41 13 41 C13.16 40.36 13.33 39.72 13.5 39.06 C14.04 37.19 14.04 37.19 14 36 C12.68 36 11.36 36 10 36 C10.55 32.16 12.28 30.64 15 28 C15.33 27.01 15.66 26.02 16 25 C15.07 25.83 14.14 26.65 13.19 27.5 C10.38 30 10.38 30 7 30 C7 28.68 7 27.36 7 26 C5.68 25.67 4.36 25.34 3 25 C4.4 21.84 6.05 19.68 8.5 17.25 C9.41 16.33 9.41 16.33 10.34 15.39 C12 14 12 14 14 14 C13.67 13.34 13.34 12.68 13 12 C9.07 14.08 6.37 16.53 3.43 19.79 C2 21 2 21 -1 21 C-1.33 20.01 -1.66 19.02 -2 18 C-2.66 17.67 -3.32 17.34 -4 17 C-3.84 16.2 -3.67 15.39 -3.5 14.56 C-2.97 12.27 -2.97 12.27 -3 11 C-3.91 11.25 -4.81 11.49 -5.75 11.75 C-9 12 -9 12 -11.38 10.06 C-11.91 9.38 -12.45 8.7 -13 8 C-10.19 1.44 -7.24 -0.78 0 0 Z " fill="#B5BDBD" transform="translate(101,35)"/>
<path d="M0 0 C1.32 0 2.64 0 4 0 C4.5 0.99 4.5 0.99 5 2 C7.09 2.61 7.09 2.61 9.5 3 C11.97 3.44 11.97 3.44 14 4 C14.5 4.99 14.5 4.99 15 6 C14.23 5.92 13.46 5.83 12.66 5.75 C11.66 5.64 10.66 5.54 9.62 5.44 C8.63 5.33 7.63 5.23 6.6 5.12 C4.02 4.79 4.02 4.79 2 6 C1.37 8.16 0.85 10.36 0.38 12.56 C0.11 13.76 -0.15 14.96 -0.41 16.19 C-0.61 17.12 -0.8 18.05 -1 19 C-1.66 19 -2.32 19 -3 19 C-3.21 19.7 -3.41 20.4 -3.62 21.12 C-5.38 24.8 -7.8 27.47 -11 30 C-11.66 30 -12.32 30 -13 30 C-13.08 30.58 -13.16 31.16 -13.25 31.75 C-14.24 34.72 -15.61 36.01 -18 38 C-20.75 39.25 -20.75 39.25 -23 40 C-23 40.66 -23 41.32 -23 42 C-23.9 42.47 -24.81 42.94 -25.74 43.43 C-26.93 44.05 -28.12 44.68 -29.31 45.31 C-30.2 45.78 -30.2 45.78 -31.12 46.25 C-34.19 47.88 -36.61 49.49 -39 52 C-41.5 52.5 -41.5 52.5 -44 52 C-47.26 48.51 -47.5 44.87 -47.37 40.29 C-46.77 36.57 -45.11 34.09 -43 31 C-42.45 33.08 -42 34.84 -42 37 C-40.68 37.33 -39.36 37.66 -38 38 C-38.63 40.93 -39.59 43.36 -41 46 C-38.88 44.91 -38.88 44.91 -37 43 C-36.58 39.14 -37.21 35.77 -38 32 C-36.61 31.18 -35.21 30.37 -33.81 29.56 C-33.04 29.11 -32.26 28.66 -31.46 28.19 C-28.95 26.98 -26.74 26.42 -24 26 C-24 26.99 -24 27.98 -24 29 C-23.35 30.34 -22.68 31.68 -22 33 C-22 33.66 -22 34.32 -22 35 C-19.75 35.22 -19.75 35.22 -17.81 33 C-14.9 29.99 -12.23 26.79 -9.55 23.57 C-8.78 22.79 -8.78 22.79 -8 22 C-7.34 22 -6.68 22 -6 22 C-5.8 21.36 -5.59 20.72 -5.38 20.07 C-5.11 19.24 -4.84 18.41 -4.56 17.56 C-4.3 16.74 -4.03 15.92 -3.75 15.07 C-3 13 -3 13 -2 12 C-1.97 9.74 -2.07 7.49 -2.16 5.23 C-2 3 -2 3 0 0 Z " fill="#E2ECEC" transform="translate(66,52)"/>
<path d="M0 0 C3.79 3.58 6.52 7.54 9.41 11.86 C10.82 14.1 10.82 14.1 13 15 C12.34 13.02 11.68 11.04 11 9 C15.62 9 20.24 9 25 9 C25 9.33 25 9.66 25 10 C22.36 10 19.72 10 17 10 C17 10.99 17 11.98 17 13 C18.65 13 20.3 13 22 13 C21.31 14.94 21.31 14.94 20 17 C17.62 17.69 17.62 17.69 15 18 C13.66 18.32 12.33 18.66 11 19 C10.67 20.98 10.34 22.96 10 25 C9.01 25.33 8.02 25.66 7 26 C4.31 24.56 4.31 24.56 2 23 C-0.04 24.27 -2.04 25.61 -4 27 C-4 27.66 -4 28.32 -4 29 C-4.66 29 -5.32 29 -6 29 C-6.23 29.56 -6.45 30.11 -6.69 30.69 C-8.4 33.7 -10.37 35.75 -13 38 C-14.32 38 -15.64 38 -17 38 C-18.6 34.8 -18.64 31.46 -18 28 C-15.5 25.5 -15.5 25.5 -13 24 C-11 25 -11 25 -10 27 C-4.28 22.78 -4.28 22.78 -0.94 16.75 C-0.87 13.91 -0.87 13.91 -2 11 C-1.66 8.3 -1.66 8.3 -1.06 5.31 C-0.87 4.32 -0.67 3.32 -0.47 2.3 C-0.32 1.54 -0.16 0.78 0 0 Z " fill="#BBC4C4" transform="translate(68,21)"/>
<path d="M0 0 C1.67 0.65 3.34 1.32 5 2 C5.74 2.27 6.48 2.54 7.25 2.81 C9 4 9 4 9.75 6.62 C9.83 7.41 9.91 8.19 10 9 C9.5 9.33 9.01 9.66 8.5 10 C-0.07 15.99 -4.88 22.1 -7.2 32.31 C-8.29 35.97 -10.17 38.61 -12.39 41.68 C-14.77 45.1 -16.66 48.75 -18.61 52.44 C-19.78 54.59 -21.03 56.58 -22.38 58.62 C-24.41 62.84 -24.73 66.39 -24 71 C-23.04 73.21 -23.04 73.21 -22 75 C-18.37 75.15 -18.37 75.15 -15 74 C-15.66 75.32 -16.32 76.64 -17 78 C-22.3 78.35 -22.3 78.35 -25 78 C-28.09 75.11 -28.9 72.04 -29.31 67.88 C-28.64 59.54 -23.55 52.2 -19.38 45.12 C-18.64 43.86 -18.64 43.86 -17.89 42.58 C-15.99 39.33 -14.09 36.13 -12 33 C-11.68 31.59 -11.41 30.17 -11.19 28.75 C-10.2 23.98 -8.33 20.55 -5 17 C-4.29 16.57 -3.58 16.13 -2.85 15.68 C-0.7 14.09 -0.7 14.09 -0.64 11.15 C-0.7 10.09 -0.76 9.03 -0.81 7.94 C-1.07 2.14 -1.07 2.14 0 0 Z " fill="#0E0E0E" transform="translate(44,28)"/>
<path d="M0 0 C2.79 0.61 4.23 1.33 6.15 3.47 C8.98 8.15 9.62 12.09 9.53 17.47 C9.54 18.15 9.55 18.84 9.56 19.55 C9.53 25.14 8.22 29.13 4.5 33.33 C1.16 36.14 -1.3 38.19 -5.85 38.47 C-3.51 36.14 -1.18 33.8 1.15 31.47 C1.46 29.03 1.46 29.03 1.42 26.2 C1.42 25.15 1.42 24.09 1.43 23.01 C1.41 21.35 1.41 21.35 1.4 19.66 C1.41 18.56 1.42 17.47 1.43 16.34 C1.42 15.28 1.42 14.23 1.42 13.14 C1.42 12.17 1.41 11.2 1.41 10.21 C1.13 7.24 0.55 5.1 -0.85 2.47 C-1.84 2.14 -2.83 1.81 -3.85 1.47 C-3.85 2.46 -3.85 3.45 -3.85 4.47 C-5.17 4.8 -6.49 5.13 -7.85 5.47 C-8.84 9.1 -9.83 12.73 -10.85 16.47 C-11.51 16.47 -12.17 16.47 -12.85 16.47 C-13.03 17.17 -13.22 17.87 -13.41 18.59 C-14.85 21.48 -15.83 22.44 -18.29 24.41 C-20.86 26.46 -21.81 27.39 -23.22 30.47 C-25.67 34.98 -29.5 36.91 -33.85 39.47 C-34.56 39.89 -35.26 40.3 -35.99 40.73 C-37.6 41.66 -39.22 42.57 -40.85 43.47 C-40.72 41.59 -40.72 41.59 -39.85 39.47 C-36.79 38.22 -36.79 38.22 -33.85 37.47 C-33.85 36.81 -33.85 36.15 -33.85 35.47 C-32.75 34.93 -31.66 34.4 -30.54 33.84 C-26.7 31.67 -25.79 29.43 -23.85 25.47 C-21.88 23.58 -19.82 21.87 -17.69 20.18 C-15.77 18.39 -14.86 16.87 -13.85 14.47 C-13.19 14.47 -12.53 14.47 -11.85 14.47 C-11.74 13.55 -11.63 12.64 -11.52 11.7 C-11.36 10.51 -11.2 9.32 -11.04 8.09 C-10.88 6.91 -10.73 5.73 -10.58 4.51 C-9.12 -1.57 -5.09 -0.73 0 0 Z " fill="#B5B8B8" transform="translate(76.84765625,56.53125)"/>
<path d="M0 0 C-0.33 2.31 -0.66 4.62 -1 7 C-0.01 7 0.98 7 2 7 C2 8.65 2 10.3 2 12 C2.99 11.67 3.98 11.34 5 11 C5.73 8.98 5.73 8.98 6 7 C6.87 9.25 7.72 11.5 8.56 13.75 C8.81 14.38 9.06 15.02 9.31 15.67 C10.58 19.11 11.47 21.52 10 25 C9.34 24.01 8.68 23.02 8 22 C7.01 22.33 6.02 22.66 5 23 C5 23.99 5 24.98 5 26 C5.99 26 6.98 26 8 26 C7.46 29.79 5.92 31.59 3 34 C2.01 34 1.02 34 0 34 C0 32.02 0 30.04 0 28 C-0.66 28 -1.32 28 -2 28 C-1.84 27.36 -1.67 26.72 -1.5 26.06 C-0.96 24.19 -0.96 24.19 -1 23 C-2.32 23 -3.64 23 -5 23 C-4.45 19.16 -2.72 17.64 0 15 C0.33 14.01 0.66 13.02 1 12 C-0.39 13.24 -0.39 13.24 -1.81 14.5 C-4.62 17 -4.62 17 -8 17 C-8 15.68 -8 14.36 -8 13 C-9.32 12.67 -10.64 12.34 -12 12 C-10.61 8.84 -8.96 6.72 -6.5 4.31 C-5.89 3.71 -5.28 3.11 -4.66 2.49 C-1.89 0 -1.89 0 0 0 Z " fill="#A9B1B1" transform="translate(116,48)"/>
<path d="M0 0 C0.5 1.98 0.5 1.98 1 4 C1.66 4 2.32 4 3 4 C4.12 8.5 4.14 12.91 4.13 17.52 C4.13 18.34 4.13 19.15 4.14 20 C4.14 21.72 4.13 23.45 4.13 25.17 C4.13 27.79 4.13 30.41 4.14 33.03 C4.14 34.72 4.13 36.4 4.13 38.08 C4.13 38.86 4.14 39.63 4.14 40.43 C4.12 45.37 3.86 50.13 3 55 C2.01 55.5 2.01 55.5 1 56 C1 54.02 1 52.04 1 50 C0.67 50.99 0.34 51.98 0 53 C-27.39 53 -54.78 53 -83 53 C-83 52.67 -83 52.34 -83 52 C-55.94 52 -28.88 52 -1 52 C-0.67 34.84 -0.34 17.68 0 0 Z " fill="#1B1C1C" transform="translate(130,82)"/>
<path d="M0 0 C0.66 0.33 1.32 0.66 2 1 C2 1.66 2 2.32 2 3 C2.63 4.35 3.3 5.68 4 7 C3.34 7 2.68 7 2 7 C1.67 7.99 1.34 8.98 1 10 C0.01 9.67 -0.98 9.34 -2 9 C-2.99 9 -3.98 9 -5 9 C-5.25 9.66 -5.49 10.32 -5.75 11 C-7.32 14.76 -9.15 18.37 -11 22 C-11.67 23.33 -12.33 24.67 -13 26 C-15.31 26.31 -15.31 26.31 -18 26 C-21.26 22.51 -21.5 18.87 -21.37 14.29 C-20.77 10.57 -19.11 8.09 -17 5 C-16.45 7.08 -16 8.84 -16 11 C-14.68 11.33 -13.36 11.66 -12 12 C-12.63 14.93 -13.59 17.36 -15 20 C-12.88 18.91 -12.88 18.91 -11 17 C-10.58 13.14 -11.21 9.77 -12 6 C-10.56 5.18 -9.13 4.37 -7.69 3.56 C-6.89 3.11 -6.09 2.66 -5.26 2.19 C-3 1 -3 1 0 0 Z " fill="#E5F1F1" transform="translate(40,78)"/>
<path d="M0 0 C-0.61 2.96 -1.25 4.38 -3 7 C-4.32 7 -5.64 7 -7 7 C-6.01 7.99 -5.02 8.98 -4 10 C-3.32 9.26 -3.32 9.26 -2.62 8.5 C-1 7 -1 7 1 7 C0.75 8.88 0.75 8.88 0 11 C-1.94 12.31 -1.94 12.31 -4 13 C-4.66 12.67 -5.32 12.34 -6 12 C-6 14.64 -6 17.28 -6 20 C-5.34 20.33 -4.68 20.66 -4 21 C-4.33 22.32 -4.66 23.64 -5 25 C-5.66 25 -6.32 25 -7 25 C-7.02 25.89 -7.02 25.89 -7.04 26.79 C-7.31 31.17 -7.57 33.44 -10.31 37 C-14.07 39.79 -17.02 40.14 -21.62 40.12 C-22.4 40.13 -23.18 40.13 -23.98 40.13 C-26 40 -26 40 -28 39 C-28 38.01 -28 37.02 -28 36 C-26.68 36 -25.36 36 -24 36 C-24 36.66 -24 37.32 -24 38 C-23.08 37.57 -23.08 37.57 -22.14 37.12 C-21.33 36.75 -20.52 36.38 -19.69 36 C-18.89 35.63 -18.09 35.26 -17.26 34.88 C-15 34 -15 34 -12 34 C-10.16 27 -9.75 20.65 -9.88 13.44 C-9.88 12.43 -9.89 11.42 -9.9 10.38 C-9.93 7.92 -9.96 5.46 -10 3 C-9.24 2.88 -8.47 2.75 -7.69 2.62 C-4.74 1.94 -2.98 0 0 0 Z " fill="#AEB2B2" transform="translate(125,81)"/>
<path d="M0 0 C1.67 0.65 3.34 1.32 5 2 C5.74 2.27 6.48 2.54 7.25 2.81 C9 4 9 4 9.75 6.62 C9.87 7.8 9.87 7.8 10 9 C9.26 9.49 9.26 9.49 8.5 10 C1.52 14.88 -4.51 20.5 -6.44 29.06 C-6.62 30.36 -6.81 31.66 -7 33 C-7.66 31.68 -8.32 30.36 -9 29 C-9.66 29 -10.32 29 -11 29 C-9.52 23.83 -7.65 18.62 -2.88 15.7 C-0.7 14.1 -0.7 14.1 -0.64 11.15 C-0.7 10.09 -0.76 9.03 -0.81 7.94 C-1.07 2.14 -1.07 2.14 0 0 Z " fill="#151616" transform="translate(44,28)"/>
<path d="M0 0 C0.66 0 1.32 0 2 0 C2.33 1.98 2.66 3.96 3 6 C2.01 6.62 1.02 7.24 0 7.88 C-0.99 8.58 -1.98 9.28 -3 10 C-3 10.66 -3 11.32 -3 12 C-3.66 12 -4.32 12 -5 12 C-5.23 12.56 -5.45 13.11 -5.69 13.69 C-7.4 16.7 -9.37 18.75 -12 21 C-13.32 21 -14.64 21 -16 21 C-17.6 17.8 -17.64 14.46 -17 11 C-14.5 8.5 -14.5 8.5 -12 7 C-10 8 -10 8 -9 10 C-7.68 8.9 -6.37 7.8 -5.06 6.69 C-4.33 6.07 -3.6 5.46 -2.85 4.82 C-0.76 3.04 -0.76 3.04 0 0 Z " fill="#E3EFEF" transform="translate(67,38)"/>
<path d="M0 0 C2.8 0.61 4.27 1.28 6.16 3.47 C7.41 6.66 7.41 6.66 8.16 9.47 C5.16 7.47 5.16 7.47 4.41 5.47 C3.19 3.05 3.19 3.05 -0.47 2.22 C-2.14 1.85 -2.14 1.85 -3.84 1.47 C-3.84 2.46 -3.84 3.45 -3.84 4.47 C-5.16 4.8 -6.48 5.13 -7.84 5.47 C-8.83 9.1 -9.82 12.73 -10.84 16.47 C-11.5 16.47 -12.16 16.47 -12.84 16.47 C-13.03 17.17 -13.22 17.87 -13.41 18.59 C-14.85 21.48 -15.83 22.44 -18.28 24.41 C-20.85 26.46 -21.81 27.39 -23.22 30.47 C-25.66 34.98 -29.5 36.91 -33.84 39.47 C-34.55 39.89 -35.26 40.3 -35.99 40.73 C-37.6 41.66 -39.22 42.57 -40.84 43.47 C-40.72 41.59 -40.72 41.59 -39.84 39.47 C-36.78 38.22 -36.78 38.22 -33.84 37.47 C-33.84 36.81 -33.84 36.15 -33.84 35.47 C-32.75 34.93 -31.66 34.4 -30.53 33.84 C-26.7 31.67 -25.79 29.43 -23.84 25.47 C-21.87 23.58 -19.82 21.87 -17.68 20.18 C-15.76 18.39 -14.85 16.87 -13.84 14.47 C-13.18 14.47 -12.52 14.47 -11.84 14.47 C-11.73 13.55 -11.62 12.64 -11.51 11.7 C-11.35 10.51 -11.19 9.32 -11.03 8.09 C-10.88 6.91 -10.73 5.73 -10.57 4.51 C-9.11 -1.57 -5.09 -0.73 0 0 Z " fill="#CFD4D4" transform="translate(76.84375,56.53125)"/>
<path d="M0 0 C0.33 0.66 0.66 1.32 1 2 C1.99 2.33 2.98 2.66 4 3 C3.44 6.8 1.82 8.59 -0.88 11.25 C-1.57 11.96 -2.27 12.66 -2.99 13.39 C-5 15 -5 15 -8 15 C-8.33 14.01 -8.66 13.02 -9 12 C-9.66 11.67 -10.32 11.34 -11 11 C-10.92 8.15 -10.41 6.45 -8.48 4.33 C-3.59 0 -3.59 0 0 0 Z " fill="#A6AEAE" transform="translate(108,41)"/>
<path d="M0 0 C-0.33 2.31 -0.66 4.62 -1 7 C-0.01 7 0.98 7 2 7 C1.42 10.25 0.47 11.94 -1.88 14.25 C-2.39 14.77 -2.9 15.29 -3.43 15.83 C-5 17 -5 17 -8 17 C-8 15.68 -8 14.36 -8 13 C-9.32 12.67 -10.64 12.34 -12 12 C-10.61 8.84 -8.96 6.72 -6.5 4.31 C-5.89 3.71 -5.28 3.11 -4.66 2.49 C-1.89 0 -1.89 0 0 0 Z " fill="#9BA0A0" transform="translate(116,48)"/>
<path d="M0 0 C-0.33 0.99 -0.66 1.98 -1 3 C-0.34 3 0.32 3 1 3 C-0.53 6.45 -2.41 9.25 -5 12 C-9 12 -9 12 -11.25 10 C-11.83 9.34 -12.41 8.68 -13 8 C-10.15 1.35 -7.28 -0.56 0 0 Z " fill="#C4CBCB" transform="translate(101,35)"/>
<path d="M0 0 C-0.33 2.31 -0.66 4.62 -1 7 C-0.01 7 0.98 7 2 7 C1.46 10.79 -0.08 12.59 -3 15 C-3.99 15 -4.98 15 -6 15 C-6 13.02 -6 11.04 -6 9 C-6.66 9 -7.32 9 -8 9 C-7.54 4.85 -4.48 0 0 0 Z " fill="#99A0A0" transform="translate(122,67)"/>
<path d="M0 0 C0.33 0 0.66 0 1 0 C1.08 2.54 1.14 5.08 1.19 7.62 C1.23 8.69 1.23 8.69 1.26 9.79 C1.34 15.47 0.23 19.48 -3.65 23.86 C-7 26.67 -9.45 28.72 -14 29 C-13.24 28.26 -12.47 27.52 -11.69 26.75 C-7.1 22.06 -7.1 22.06 -5 16 C-3.68 15.67 -2.36 15.34 -1 15 C-0.67 10.05 -0.34 5.1 0 0 Z " fill="#C7CECE" transform="translate(85,66)"/>
<path d="M0 0 C0.55 2.08 1 3.84 1 6 C2.32 6.33 3.64 6.66 5 7 C4.39 9.96 3.75 11.38 2 14 C-0.12 14.69 -0.12 14.69 -2 15 C-2 13.68 -2 12.36 -2 11 C-2.66 11 -3.32 11 -4 11 C-3.49 6.61 -2.48 3.66 0 0 Z " fill="#D7E0E0" transform="translate(23,83)"/>
<path d="M0 0 C0.66 1.32 1.32 2.64 2 4 C-0.25 6.5 -0.25 6.5 -3 9 C-4.32 9 -5.64 9 -7 9 C-8.33 3.55 -8.33 3.55 -6.88 1.12 C-4.46 -0.32 -2.76 -0.22 0 0 Z " fill="#343636" transform="translate(58,50)"/>
<path d="M0 0 C3 1 3 1 4.18 3.04 C5.23 6.83 5.22 10.42 5.12 14.31 C5.12 15.05 5.11 15.79 5.1 16.56 C5.07 18.37 5.04 20.19 5 22 C4.34 22 3.68 22 3 22 C1.19 18.91 0.8 16.8 0.94 13.25 C1.04 8.71 0.66 4.49 0 0 Z " fill="#1B1D1D" transform="translate(74,58)"/>
<path d="M0 0 C4.62 0 9.24 0 14 0 C14 0.33 14 0.66 14 1 C11.36 1 8.72 1 6 1 C6 1.99 6 2.98 6 4 C7.65 4 9.3 4 11 4 C10.31 5.94 10.31 5.94 9 8 C6.38 8.75 6.38 8.75 4 9 C4 7.68 4 6.36 4 5 C3.34 5 2.68 5 2 5 C1.34 3.35 0.68 1.7 0 0 Z " fill="#A6ADAD" transform="translate(79,30)"/>
<path d="M0 0 C0.66 0 1.32 0 2 0 C2 0.66 2 1.32 2 2 C2.66 2 3.32 2 4 2 C4 11.24 4 20.48 4 30 C3.67 30 3.34 30 3 30 C2.66 26.81 2.33 23.63 2 20.44 C1.86 19.09 1.86 19.09 1.71 17.72 C1.2 12.79 0.89 7.97 1 3 C0.34 2.67 -0.32 2.34 -1 2 C-0.67 1.34 -0.34 0.68 0 0 Z " fill="#C5CECE" transform="translate(126,93)"/>
<path d="M0 0 C3.08 1.2 6.06 2.48 9 4 C9 4.66 9 5.32 9 6 C3.59 10 3.59 10 1 10 C-0.8 7.24 -1.01 6.11 -0.62 2.75 C-0.42 1.84 -0.21 0.93 0 0 Z " fill="#C5CFCF" transform="translate(44,28)"/>
<path d="M0 0 C0.66 0 1.32 0 2 0 C2.66 2.31 3.32 4.62 4 7 C5.98 6.34 7.96 5.68 10 5 C10.33 5.66 10.66 6.32 11 7 C10.34 7 9.68 7 9 7 C8.67 8.98 8.34 10.96 8 13 C6.19 12.88 6.19 12.88 4 12 C1.55 8.1 0.54 4.55 0 0 Z " fill="#B8C1C1" transform="translate(69,31)"/>
<path d="M0 0 C-1.4 3.16 -3.05 5.32 -5.5 7.75 C-6.41 8.67 -6.41 8.67 -7.34 9.61 C-9 11 -9 11 -11 11 C-10.42 7.46 -9.16 5.75 -6.62 3.25 C-6.02 2.64 -5.41 2.02 -4.79 1.39 C-3 0 -3 0 0 0 Z " fill="#151616" transform="translate(112,45)"/>
<path d="M0 0 C-0.58 3.25 -1.53 4.94 -3.88 7.25 C-4.39 7.77 -4.9 8.29 -5.43 8.83 C-7 10 -7 10 -10 10 C-9.44 6.46 -8.3 5.01 -5.56 2.75 C-4.95 2.23 -4.33 1.71 -3.69 1.17 C-2 0 -2 0 0 0 Z " fill="#1A1B1B" transform="translate(107,41)"/>
<path d="M0 0 C0.99 0 1.98 0 3 0 C2.42 3.25 1.47 4.94 -0.88 7.25 C-1.39 7.77 -1.9 8.29 -2.43 8.83 C-4 10 -4 10 -7 10 C-5.32 6.03 -2.92 3.13 0 0 Z " fill="#181919" transform="translate(115,55)"/>
<path d="M0 0 C-1.57 4.09 -4.54 7.36 -8 10 C-8.99 10 -9.98 10 -11 10 C-9.16 5.21 -5.33 0 0 0 Z " fill="#161717" transform="translate(115,50)"/>
<path d="M0 0 C-1.59 4.14 -4.6 7.23 -8 10 C-8.66 10 -9.32 10 -10 10 C-9.42 6.75 -8.47 5.06 -6.12 2.75 C-5.61 2.23 -5.1 1.71 -4.57 1.17 C-3 0 -3 0 0 0 Z " fill="#171818" transform="translate(121,61)"/>
<path d="M0 0 C1.32 0.33 2.64 0.66 4 1 C3.67 1.66 3.34 2.32 3 3 C4.32 3.33 5.64 3.66 7 4 C5.93 4.87 4.84 5.72 3.75 6.56 C3.15 7.04 2.54 7.51 1.92 8 C0 9 0 9 -4 8 C-2.02 5.69 -0.04 3.38 2 1 C1.34 0.67 0.68 0.34 0 0 Z " fill="#989E9E" transform="translate(100,37)"/>
<path d="M0 0 C-1.53 3.44 -3.45 6.22 -6 9 C-6.99 9 -7.98 9 -9 9 C-8.45 4.02 -5.07 0 0 0 Z " fill="#191A1A" transform="translate(102,38)"/>
<path d="M0 0 C-0.47 4.25 -2.89 6.27 -6 9 C-6.66 9 -7.32 9 -8 9 C-7.54 4.85 -4.48 0 0 0 Z " fill="#191A1A" transform="translate(122,67)"/>
<path d="M0 0 C-0.54 3.79 -2.08 5.59 -5 8 C-5.99 8 -6.98 8 -8 8 C-6.48 4.46 -4.25 0 0 0 Z " fill="#151616" transform="translate(96,35)"/>
<path d="M0 0 C-0.56 3.23 -1.37 4.98 -4 7 C-4.99 7 -5.98 7 -7 7 C-3.86 0 -3.86 0 0 0 Z " fill="#121313" transform="translate(124,74)"/>
<path d="M0 0 C0.66 0.33 1.32 0.66 2 1 C2.41 3.32 2.74 5.66 3 8 C2.34 7.34 1.68 6.68 1 6 C-1.07 5.36 -1.07 5.36 -3 5 C-3 4.01 -3 3.02 -3 2 C-2.01 1.34 -1.02 0.68 0 0 Z " fill="#BFC8C8" transform="translate(124,69)"/>
<path d="M0 0 C0.66 0 1.32 0 2 0 C2 0.99 2 1.98 2 3 C3.65 2.67 5.3 2.34 7 2 C6.34 3.32 5.68 4.64 5 6 C3.68 6 2.36 6 1 6 C0.67 4.02 0.34 2.04 0 0 Z " fill="#141515" transform="translate(50,53)"/>
<path d="M0 0 C0.99 0 1.98 0 3 0 C2.49 2.17 2 4 1 6 C-0.32 6 -1.64 6 -3 6 C-2 4 -1 2 0 0 Z " fill="#272929" transform="translate(25,90)"/>
<path d="M0 0 C0.66 0 1.32 0 2 0 C1.43 2.87 1.14 3.86 -1 6 C-1.99 6 -2.98 6 -4 6 C-2.85 3.53 -1.95 1.95 0 0 Z " fill="#121313" transform="translate(123,81)"/>
<path d="M0 0 C0.99 0.33 1.98 0.66 3 1 C3.33 2.98 3.66 4.96 4 7 C3.01 7.33 2.02 7.66 1 8 C0.67 5.36 0.34 2.72 0 0 Z " fill="#151616" transform="translate(74,58)"/>
<path d="M0 0 C2 0.25 2 0.25 4 1 C4.33 1.99 4.66 2.98 5 4 C3.68 4.33 2.36 4.66 1 5 C0.34 3.68 -0.32 2.36 -1 1 C-0.67 0.67 -0.34 0.34 0 0 Z " fill="#D0E0E0" transform="translate(21,99)"/>
<path d="M0 0 C0.66 0 1.32 0 2 0 C1.75 1.88 1.75 1.88 1 4 C-1.06 5.25 -1.06 5.25 -3 6 C-2.43 3.13 -2.14 2.14 0 0 Z " fill="#1F2020" transform="translate(124,88)"/>
<path d="M0 0 C1.32 0 2.64 0 4 0 C4 0.99 4 1.98 4 3 C2.68 3 1.36 3 0 3 C-0.33 4.32 -0.66 5.64 -1 7 C-1.04 5 -1.04 3 -1 1 C-0.67 0.67 -0.34 0.34 0 0 Z " fill="#9FA6A6" transform="translate(80,79)"/>
<path d="M0 0 C0.99 0 1.98 0 3 0 C2.25 1.94 2.25 1.94 1 4 C-1.12 4.75 -1.12 4.75 -3 5 C-1.12 1.12 -1.12 1.12 0 0 Z " fill="#1A1B1B" transform="translate(87,34)"/>
<path d="M0 0 C1.65 1.65 3.3 3.3 5 5 C3.02 5.99 3.02 5.99 1 7 C0.67 4.69 0.34 2.38 0 0 Z " fill="#EFF4F4" transform="translate(44,31)"/>
</svg>
