<?xml version="1.0" encoding="UTF-8"?>
<!-- Generator: visioncortex VTracer 0.6.3 -->
<svg version="1.1" xmlns="http://www.w3.org/2000/svg" width="150" height="150">
<path d="M0 0 C4.96 3.45 7.93 7.24 9.45 13.13 C10.31 18.62 9.05 23.26 6.89 28.32 C6.4 28.81 6.4 28.81 5.89 29.32 C6.46 29.59 7.02 29.87 7.61 30.16 C8.34 30.52 9.07 30.88 9.83 31.25 C10.56 31.61 11.29 31.97 12.04 32.34 C13.89 33.32 13.89 33.32 14.89 34.32 C15.33 37.63 15.33 37.63 14.89 41.32 C10.82 45.09 7.26 45.66 1.89 46.32 C5.31 63.02 5.31 63.02 14.89 76.32 C17.26 76.96 17.26 76.96 19.83 77.25 C24.03 77.98 26.31 78.72 28.89 82.32 C30.26 85.06 30.01 87.28 29.89 90.32 C29.4 91.8 29.4 91.8 28.89 93.32 C29.22 93.65 29.55 93.98 29.89 94.32 C30.16 96.46 30.16 96.46 30.27 99.13 C30.31 100 30.36 100.87 30.41 101.77 C29.89 104.32 29.89 104.32 27.8 106.44 C24.22 108.75 22.12 108.83 17.88 108.85 C17.2 108.86 16.51 108.87 15.81 108.88 C13.55 108.9 11.3 108.89 9.05 108.88 C7.47 108.89 5.9 108.89 4.33 108.9 C1.04 108.91 -2.25 108.91 -5.55 108.89 C-9.76 108.88 -13.97 108.9 -18.19 108.93 C-21.43 108.96 -24.68 108.95 -27.92 108.95 C-29.48 108.95 -31.03 108.95 -32.58 108.97 C-34.76 108.98 -36.93 108.97 -39.1 108.95 C-40.34 108.95 -41.57 108.95 -42.85 108.94 C-47 108.15 -48.49 106.56 -51.11 103.32 C-51.95 99.95 -51.44 96.55 -50.55 93.19 C-49.93 91.14 -49.93 91.14 -50.73 88.38 C-51.11 85.32 -51.11 85.32 -49.98 82.63 C-47.81 79.95 -46.27 78.72 -43.11 77.32 C-41.83 77.32 -40.55 77.32 -39.23 77.32 C-36.37 77 -35.33 76.53 -33.25 74.48 C-27.37 66.03 -24.88 56.11 -22.11 46.32 C-22.78 46.23 -23.46 46.14 -24.16 46.05 C-31.42 44.91 -31.42 44.91 -34.8 42 C-36.11 39.32 -36.11 39.32 -36.36 36.82 C-34.4 32.89 -30.89 31.34 -27.11 29.32 C-27.6 28.37 -28.1 27.42 -28.61 26.44 C-30.86 21.11 -31.13 15.62 -29.42 10.07 C-26.78 4.22 -23.12 0.69 -17.23 -2 C-10.68 -3.44 -5.84 -3.3 0 0 Z " fill="#090909" transform="translate(85.109375,29.68359375)"/>
<path d="M0 0 C0.66 0 1.32 0 2 0 C2.71 1.62 2.71 1.62 3 4 C1.64 6.95 1.64 6.95 -0.31 10.12 C-0.95 11.18 -1.58 12.23 -2.24 13.32 C-4 16 -4 16 -6 18 C-5.67 18.66 -5.34 19.32 -5 20 C12.82 20.33 30.64 20.66 49 21 C48.67 21.66 48.34 22.32 48 23 C47.17 23 46.33 22.99 45.47 22.99 C37.61 22.95 29.75 22.92 21.9 22.9 C17.86 22.89 13.82 22.87 9.78 22.85 C5.88 22.83 1.98 22.82 -1.91 22.81 C-3.4 22.81 -4.89 22.8 -6.38 22.79 C-8.46 22.77 -10.54 22.77 -12.62 22.77 C-13.81 22.77 -14.99 22.76 -16.22 22.76 C-19.14 22.71 -19.14 22.71 -21 25 C-21.17 28.58 -21.17 28.58 -21 32 C-20.11 31.99 -19.21 31.99 -18.29 31.98 C-9.88 31.92 -1.46 31.87 6.96 31.84 C11.28 31.83 15.61 31.81 19.94 31.77 C24.11 31.74 28.29 31.72 32.46 31.72 C34.06 31.71 35.65 31.7 37.24 31.68 C39.47 31.66 41.71 31.66 43.94 31.66 C45.21 31.65 46.48 31.65 47.79 31.64 C51.21 32.02 52.61 32.56 55 35 C55.57 37.34 55.57 37.34 55.56 39.94 C55.58 40.79 55.61 41.65 55.63 42.53 C54.72 46.1 53.06 47.02 50 49 C46.74 49.51 46.74 49.51 42.99 49.53 C42.31 49.54 41.62 49.55 40.92 49.56 C38.66 49.58 36.41 49.58 34.16 49.57 C32.58 49.57 31.01 49.58 29.44 49.59 C26.15 49.6 22.85 49.59 19.56 49.58 C15.35 49.56 11.14 49.58 6.92 49.62 C3.68 49.64 0.43 49.64 -2.82 49.63 C-4.37 49.63 -5.92 49.64 -7.48 49.65 C-9.65 49.67 -11.82 49.65 -13.99 49.63 C-15.23 49.63 -16.46 49.63 -17.74 49.63 C-21.89 48.83 -23.38 47.24 -26 44 C-26.84 40.63 -26.33 37.23 -25.44 33.88 C-24.82 31.83 -24.82 31.83 -25.62 29.06 C-26 26 -26 26 -24.88 23.31 C-22.7 20.64 -21.16 19.4 -18 18 C-16.72 18 -15.44 18 -14.12 18 C-10.94 17.73 -10.16 17.19 -8.04 14.71 C-6.22 11.86 -4.57 8.99 -3 6 C-2.64 5.32 -2.27 4.64 -1.9 3.94 C-1.23 2.64 -0.61 1.32 0 0 Z " fill="#151616" transform="translate(60,89)"/>
<path d="M0 0 C5.61 0 11.22 0 17 0 C17.6 2.12 18.2 4.25 18.81 6.44 C19.18 7.73 19.56 9.03 19.93 10.32 C20.54 12.41 21.14 14.49 21.72 16.58 C23.65 23 26.3 26.84 30 33 C15.81 33 1.62 33 -13 33 C-10.69 29.37 -8.38 25.74 -6 22 C-4.46 18.92 -3.62 16.91 -2.93 13.67 C-2.76 12.87 -2.58 12.07 -2.4 11.25 C-2.23 10.42 -2.05 9.6 -1.88 8.75 C-1.6 7.49 -1.6 7.49 -1.32 6.2 C-0.88 4.14 -0.44 2.07 0 0 Z " fill="#DEE8E8" transform="translate(66,75)"/>
<path d="M0 0 C5 2.46 8.5 6 11 11 C11.56 16.1 11.58 19.92 9.12 24.5 C5.34 28.95 5.34 28.95 2.91 29.31 C0.15 29.38 -2.61 29.42 -5.38 29.44 C-6.33 29.47 -7.29 29.5 -8.28 29.54 C-15.36 29.59 -15.36 29.59 -18.59 26.62 C-21.33 21.53 -22.7 17.9 -22 12 C-17.65 2.03 -10.68 -1.58 0 0 Z " fill="#EFF5F5" transform="translate(80,31)"/>
<path d="M0 0 C0.69 -0 1.38 -0 2.09 -0.01 C4.39 -0.01 6.68 -0.01 8.98 -0 C10.57 -0 12.15 -0.01 13.74 -0.01 C17.07 -0.01 20.41 -0.01 23.74 -0 C28.02 0 32.3 0 36.58 -0 C39.86 -0.01 43.14 -0.01 46.42 -0 C48 -0 49.58 -0 51.16 -0.01 C53.36 -0.01 55.57 -0.01 57.77 0 C59.65 0 59.65 0 61.58 0 C64.38 0.13 64.38 0.13 65.38 1.13 C65.52 2.94 65.52 2.94 65.51 5.13 C65.51 6.21 65.51 6.21 65.52 7.32 C65.38 9.13 65.38 9.13 64.38 10.13 C62.18 10.23 59.98 10.26 57.77 10.26 C57.08 10.26 56.39 10.26 55.68 10.26 C53.38 10.27 51.09 10.27 48.79 10.26 C47.2 10.26 45.61 10.26 44.03 10.27 C40.69 10.27 37.36 10.26 34.03 10.26 C29.75 10.25 25.47 10.26 21.19 10.26 C17.91 10.27 14.63 10.27 11.35 10.26 C9.77 10.26 8.19 10.26 6.61 10.27 C4.41 10.27 2.2 10.26 0 10.26 C-1.88 10.26 -1.88 10.26 -3.81 10.26 C-6.62 10.13 -6.62 10.13 -7.62 9.13 C-7.75 7.32 -7.75 7.32 -7.74 5.13 C-7.74 4.41 -7.75 3.69 -7.75 2.94 C-7.44 -1.33 -3.43 0 0 0 Z " fill="#ECF3F3" transform="translate(45.615234375,123.87060546875)"/>
<path d="M0 0 C0.97 -0.01 0.97 -0.01 1.97 -0.01 C4.11 -0.02 6.26 -0.01 8.4 0.01 C9.89 0.01 11.38 0.01 12.87 0.01 C16 0.01 19.12 0.02 22.24 0.04 C26.25 0.06 30.25 0.06 34.26 0.05 C37.34 0.05 40.41 0.06 43.49 0.07 C44.97 0.07 46.45 0.07 47.92 0.07 C49.99 0.07 52.05 0.08 54.11 0.1 C55.88 0.1 55.88 0.1 57.67 0.11 C60.56 0.37 60.56 0.37 63.56 2.37 C63.81 5.93 63.81 5.93 63.56 9.37 C62.56 10.37 62.56 10.37 59.74 10.49 C57.85 10.49 57.85 10.49 55.93 10.49 C55.23 10.49 54.54 10.49 53.83 10.49 C51.53 10.49 49.23 10.48 46.93 10.47 C45.34 10.47 43.75 10.47 42.16 10.47 C37.96 10.46 33.77 10.45 29.58 10.44 C25.3 10.43 21.02 10.43 16.75 10.42 C8.35 10.41 -0.05 10.39 -8.44 10.37 C-9.77 3.98 -9.77 3.98 -8.41 1.46 C-5.55 -0.12 -3.26 -0 0 0 Z " fill="#E9F2F2" transform="translate(47.443359375,110.627685546875)"/>
<path d="M0 0 C5.03 1.44 6.96 3.94 10 8 C11.85 11.71 11.47 15.96 11 20 C9.26 23.24 7.58 25.42 5 28 C1.56 28.5 -1.91 28.42 -5.38 28.44 C-6.33 28.47 -7.29 28.5 -8.28 28.54 C-15.38 28.59 -15.38 28.59 -18.66 25.47 C-19.1 24.66 -19.55 23.84 -20 23 C-16.98 21.49 -13.85 21.61 -10.51 21.38 C-7.92 20.99 -6.21 20.38 -4 19 C-1.71 14.9 -1.51 10.59 -1 6 C-0.68 4.66 -0.36 3.33 0 2 C0 1.34 0 0.68 0 0 Z " fill="#DEE7E7" transform="translate(80,32)"/>
<path d="M0 0 C0.73 -0 1.47 -0.01 2.23 -0.01 C3.78 -0.01 5.33 -0.01 6.88 0.01 C9.24 0.02 11.6 0.01 13.96 -0.01 C15.48 -0.01 16.99 -0.01 18.5 0 C19.2 -0.01 19.9 -0.01 20.62 -0.02 C25.26 0.05 28.4 1.05 32.38 3.4 C32.26 5.27 32.26 5.27 31.38 7.4 C26.83 9.36 22.86 9.64 17.94 9.63 C17.25 9.63 16.55 9.63 15.84 9.63 C14.39 9.62 12.93 9.62 11.48 9.6 C9.26 9.59 7.04 9.58 4.82 9.58 C-6.99 9.54 -6.99 9.54 -10.62 8.4 C-10.95 6.75 -11.28 5.1 -11.62 3.4 C-8.07 -0.03 -4.69 -0.04 0 0 Z " fill="#EAF3F3" transform="translate(64.6171875,62.6015625)"/>
<path d="M0 0 C5.38 8.07 5.36 14.4 5 24 C5.33 24 5.66 24 6 24 C6.33 26.31 6.66 28.62 7 31 C-0.59 31 -8.18 31 -16 31 C-14.24 28.27 -12.48 25.53 -10.73 22.8 C-8.38 18.99 -6.87 15.97 -6.12 11.56 C-5.28 7.47 -3.9 5.09 -1 2 C-0.67 1.34 -0.34 0.68 0 0 Z " fill="#F0F6F5" transform="translate(69,77)"/>
<path d="M0 0 C0.04 2.33 0.04 4.67 0 7 C-1 8 -1 8 -3.82 8.12 C-5.7 8.12 -5.7 8.12 -7.63 8.11 C-8.32 8.11 -9.02 8.11 -9.73 8.11 C-12.03 8.11 -14.33 8.11 -16.63 8.1 C-18.22 8.1 -19.81 8.09 -21.4 8.09 C-25.59 8.09 -29.79 8.08 -33.98 8.07 C-38.26 8.06 -42.53 8.05 -46.81 8.05 C-55.21 8.04 -63.6 8.02 -72 8 C-72 7.67 -72 7.34 -72 7 C-71.02 6.98 -70.04 6.96 -69.03 6.94 C-65.4 6.86 -61.76 6.78 -58.12 6.68 C-56.55 6.64 -54.97 6.61 -53.4 6.58 C-51.14 6.53 -48.87 6.47 -46.61 6.41 C-45.91 6.4 -45.21 6.39 -44.48 6.38 C-40.81 6.27 -38.16 5.91 -35 4 C-33.43 3.58 -31.84 3.2 -30.25 2.88 C-29.45 2.71 -28.65 2.54 -27.83 2.37 C-27.22 2.25 -26.62 2.12 -26 2 C-26 1.01 -26 0.02 -26 -1 C-22.42 -1.23 -18.83 -1.43 -15.25 -1.62 C-14.23 -1.69 -13.22 -1.75 -12.17 -1.82 C-11.19 -1.87 -10.21 -1.92 -9.2 -1.98 C-7.85 -2.06 -7.85 -2.06 -6.47 -2.14 C-3.81 -1.99 -2.27 -1.36 0 0 Z " fill="#ABB6B6" transform="translate(111,113)"/>
<path d="M0 0 C2.65 -0.03 5.29 -0.05 7.94 -0.06 C8.69 -0.07 9.45 -0.08 10.22 -0.09 C12.15 -0.1 14.08 -0.05 16 0 C17 1 17 1 17.13 2.81 C17.13 3.53 17.13 4.26 17.12 5 C17.13 6.08 17.13 6.08 17.13 7.19 C17 9 17 9 16 10 C14.28 10.09 12.56 10.12 10.84 10.11 C9.74 10.11 8.64 10.11 7.5 10.11 C6.3 10.11 5.11 10.1 3.87 10.1 C2.65 10.1 1.43 10.09 0.18 10.09 C-3.74 10.09 -7.65 10.08 -11.56 10.06 C-14.21 10.06 -16.85 10.05 -19.5 10.05 C-26 10.04 -32.5 10.02 -39 10 C-39 9.67 -39 9.34 -39 9 C-38.11 9 -37.23 9 -36.31 9 C-32.98 8.99 -29.64 8.96 -26.3 8.9 C-24.87 8.88 -23.43 8.88 -22 8.88 C-12.64 8.89 -5.62 8.03 2 2 C1.34 1.34 0.68 0.68 0 0 Z " fill="#BCC8C7" transform="translate(94,124)"/>
<path d="M0 0 C1.64 -0.01 1.64 -0.01 3.31 -0.02 C5.09 -0.02 5.09 -0.02 6.91 -0.02 C8.12 -0.03 9.33 -0.03 10.58 -0.03 C13.15 -0.04 15.72 -0.04 18.29 -0.04 C22.24 -0.04 26.18 -0.06 30.12 -0.08 C32.61 -0.08 35.1 -0.08 37.6 -0.09 C38.78 -0.09 39.97 -0.1 41.19 -0.11 C42.83 -0.1 42.83 -0.1 44.51 -0.1 C45.48 -0.1 46.45 -0.1 47.44 -0.1 C49.89 0.15 49.89 0.15 52.89 2.15 C44.38 8.95 37.38 10.18 26.7 10.08 C25.32 10.09 23.94 10.11 22.56 10.13 C18.67 10.17 14.78 10.16 10.89 10.15 C9.04 10.17 7.19 10.19 5.34 10.22 C-1.94 10.31 -1.94 10.31 -5.11 10.15 C-6.11 9.15 -6.11 9.15 -6.25 7.33 C-6.24 6.61 -6.24 5.89 -6.24 5.15 C-6.24 4.42 -6.24 3.7 -6.25 2.96 C-5.97 -0.88 -3.24 0.01 0 0 Z M-5.11 2.15 C-5.11 4.46 -5.11 6.77 -5.11 9.15 C-2.99 9.23 -0.87 9.28 1.26 9.33 C2.44 9.37 3.63 9.4 4.85 9.44 C5.85 9.34 6.85 9.24 7.89 9.15 C8.55 8.16 9.21 7.17 9.89 6.15 C11.84 5.82 11.84 5.82 14.14 5.9 C14.95 5.92 15.76 5.95 16.6 5.97 C18.89 6.15 18.89 6.15 21.76 6.65 C29.04 7.81 35.93 7.62 42.89 5.15 C42.89 4.49 42.89 3.83 42.89 3.15 C44.21 2.49 45.53 1.83 46.89 1.15 C40.93 1.12 34.97 1.1 29.01 1.09 C26.98 1.09 24.96 1.08 22.94 1.07 C20.01 1.06 17.09 1.05 14.17 1.05 C13.28 1.04 12.38 1.04 11.46 1.03 C5.86 1.03 0.44 1.43 -5.11 2.15 Z " fill="#D7E1E1" transform="translate(44.11474609375,123.854736328125)"/>
<path d="M0 0 C1.98 0 3.96 0 6 0 C6.25 0.91 6.51 1.81 6.77 2.75 C7.83 6.5 8.91 10.25 10 14 C10.24 14.85 10.48 15.7 10.72 16.58 C12.55 22.67 15.6 27.64 19 33 C15.04 33 11.08 33 7 33 C6.75 31.54 6.49 30.08 6.23 28.57 C3.74 14.14 3.74 14.14 0 0 Z " fill="#AFBBBB" transform="translate(77,75)"/>
<path d="M0 0 C7.56 5.92 7.56 5.92 8.34 11.37 C8.43 17.13 7.88 20.43 4 25 C2 27 2 27 -0.15 27.23 C-1.02 27.22 -1.89 27.21 -2.79 27.2 C-3.73 27.19 -4.67 27.18 -5.64 27.18 C-6.63 27.16 -7.61 27.14 -8.62 27.12 C-9.62 27.12 -10.61 27.11 -11.63 27.1 C-14.09 27.07 -16.54 27.04 -19 27 C-19 26.67 -19 26.34 -19 26 C-14.05 26 -9.1 26 -4 26 C-3.67 24.35 -3.34 22.7 -3 21 C-2.06 19.08 -2.06 19.08 -1 17.25 C1.28 12.92 1.78 8.84 2 4 C1.34 4 0.68 4 0 4 C0 2.68 0 1.36 0 0 Z " fill="#C4CFCF" transform="translate(83,33)"/>
<path d="M0 0 C0.66 0 1.32 0 2 0 C2.99 2.31 3.98 4.62 5 7 C27.77 7.33 50.54 7.66 74 8 C74 8.33 74 8.66 74 9 C73.14 9.01 72.28 9.02 71.39 9.03 C63.28 9.13 55.17 9.23 47.06 9.34 C42.89 9.39 38.72 9.45 34.56 9.5 C30.54 9.54 26.52 9.6 22.5 9.65 C20.96 9.67 19.42 9.69 17.88 9.71 C15.74 9.73 13.59 9.76 11.45 9.79 C9.61 9.82 9.61 9.82 7.74 9.84 C5.09 9.69 5.09 9.69 4 11 C3.96 13.68 3.96 16.33 4 19 C4 20.32 4 21.64 4 23 C0.12 21.25 0.12 21.25 -1 19 C-1.23 11.87 -1.23 11.87 -0.44 8.88 C0.2 6.14 -0.51 3.74 -1 1 C-0.67 0.67 -0.34 0.34 0 0 Z " fill="#010101" transform="translate(35,114)"/>
<path d="M0 0 C0.99 0.33 1.98 0.66 3 1 C6.28 8.98 7.57 17.63 8.61 26.14 C8.92 29.07 8.92 29.07 10 32 C9 33 9 33 6.44 33.06 C5.63 33.04 4.83 33.02 4 33 C3.87 32.16 3.87 32.16 3.74 31.3 C3.35 28.76 2.96 26.23 2.56 23.69 C2.36 22.37 2.36 22.37 2.15 21.02 C2.02 20.17 1.89 19.32 1.75 18.45 C1.63 17.67 1.51 16.89 1.39 16.08 C1.02 13.82 1.02 13.82 0 11 C-0.07 9.11 -0.08 7.21 -0.06 5.31 C-0.05 4.32 -0.04 3.32 -0.04 2.3 C-0.02 1.54 -0.01 0.78 0 0 Z " fill="#C8D4D4" transform="translate(75,75)"/>
<path d="M0 0 C1.12 0.01 1.12 0.01 2.27 0.01 C4.65 0.03 7.04 0.07 9.42 0.11 C11.04 0.12 12.66 0.13 14.28 0.15 C18.25 0.18 22.21 0.23 26.17 0.29 C26.17 0.62 26.17 0.95 26.17 1.29 C16.6 1.62 7.03 1.95 -2.83 2.29 C0.8 2.29 4.43 2.29 8.17 2.29 C7.84 3.61 7.51 4.93 7.17 6.29 C7.5 6.95 7.83 7.61 8.17 8.29 C1.9 8.29 -4.37 8.29 -10.83 8.29 C-11.16 6.64 -11.49 4.99 -11.83 3.29 C-8.24 -0.23 -4.75 -0.1 0 0 Z " fill="#DFE7E7" transform="translate(64.828125,62.70703125)"/>
<path d="M0 0 C3.96 0 7.92 0 12 0 C8.17 6.39 8.17 6.39 5 8 C2.07 8.35 -0.81 8.28 -3.75 8.19 C-4.54 8.17 -5.34 8.16 -6.15 8.15 C-8.1 8.11 -10.05 8.06 -12 8 C-12.33 7.34 -12.66 6.68 -13 6 C-8.71 5.01 -4.42 4.02 0 3 C0 2.01 0 1.02 0 0 Z " fill="#C8D3D3" transform="translate(85,112)"/>
<path d="M0 0 C3.35 3.86 3.5 6.56 3.36 11.52 C2.7 16.07 0.15 18.85 -3 22 C-5.12 21.62 -5.12 21.62 -7 21 C-6.34 21 -5.68 21 -5 21 C-4.88 20.44 -4.76 19.89 -4.63 19.31 C-3.51 14.18 -2.29 9.09 -1 4 C-0.67 2.67 -0.33 1.33 0 0 Z " fill="#ADBABA" transform="translate(88,38)"/>
<path d="M0 0 C0.99 0.33 1.98 0.66 3 1 C2.88 2.88 2.88 2.88 2 5 C-2.6 7 -6.61 7.24 -11.59 7.2 C-12.29 7.19 -12.99 7.19 -13.71 7.19 C-15.93 7.18 -18.15 7.15 -20.38 7.12 C-21.89 7.11 -23.4 7.11 -24.92 7.1 C-28.61 7.08 -32.31 7.04 -36 7 C-36 6.67 -36 6.34 -36 6 C-29.4 6 -22.8 6 -16 6 C-16 5.34 -16 4.68 -16 4 C-11.05 3.67 -6.1 3.34 -1 3 C-0.67 2.01 -0.34 1.02 0 0 Z " fill="#ADB9B9" transform="translate(94,65)"/>
<path d="M0 0 C0.5 0.16 0.99 0.33 1.5 0.5 C1.17 2.15 0.84 3.8 0.5 5.5 C-5.11 5.5 -10.72 5.5 -16.5 5.5 C-15.51 5.17 -14.52 4.84 -13.5 4.5 C-13.13 3.18 -12.79 1.84 -12.5 0.5 C-8.76 -1.37 -4.03 -0.81 0 0 Z " fill="#A9B5B5" transform="translate(109.5,128.5)"/>
<path d="M0 0 C-0.33 1.32 -0.66 2.64 -1 4 C-5.96 5.32 -10.91 5.09 -16 5 C-16 5.66 -16 6.32 -16 7 C-17.32 6.67 -18.64 6.34 -20 6 C-19.37 4.04 -19.37 4.04 -18 2 C-15.29 1.43 -15.29 1.43 -12.06 1.31 C-7.9 1.14 -4.08 0 0 0 Z " fill="#CBD7D7" transform="translate(94,64)"/>
<path d="M0 0 C1.32 0 2.64 0 4 0 C6.43 7.43 6.43 7.43 5 11 C5 10.34 5 9.68 5 9 C4.01 8.67 3.02 8.34 2 8 C1.27 6.15 1.27 6.15 0.81 3.94 C0.65 3.2 0.5 2.47 0.33 1.71 C0.22 1.15 0.11 0.58 0 0 Z " fill="#9DA9A9" transform="translate(79,75)"/>
<path d="M0 0 C0.66 0 1.32 0 2 0 C2.69 1.75 2.69 1.75 3 4 C1.56 6.25 1.56 6.25 0 8 C-1.12 5.69 -1.12 5.69 -2 3 C-1.34 2.01 -0.68 1.02 0 0 Z " fill="#181919" transform="translate(60,89)"/>
<path d="M0 0 C2.3 3.44 2.54 5.94 3 10 C0.53 9.01 0.53 9.01 -2 8 C-1.67 7.34 -1.34 6.68 -1 6 C-0.34 6 0.32 6 1 6 C0.67 4.02 0.34 2.04 0 0 Z " fill="#949F9F" transform="translate(85,86)"/>
<path d="M0 0 C0.99 0.33 1.98 0.66 3 1 C2.69 2.94 2.69 2.94 2 5 C1.01 5.33 0.02 5.66 -1 6 C-1.04 4.33 -1.04 2.67 -1 1 C-0.67 0.67 -0.34 0.34 0 0 Z " fill="#A1ADAD" transform="translate(94,65)"/>
</svg>
