<?xml version="1.0" encoding="UTF-8"?>
<!-- Generator: visioncortex VTracer 0.6.3 -->
<svg version="1.1" xmlns="http://www.w3.org/2000/svg" width="150" height="150">
<path d="M0 0 C3.24 1.89 5.33 3.29 6.73 6.87 C7.52 10.87 7.07 13.44 5.06 17 C4.38 17.99 3.7 18.98 3 20 C2.34 20 1.68 20 1 20 C1.22 21.04 1.43 22.07 1.66 23.14 C1.94 24.51 2.22 25.88 2.5 27.25 C2.64 27.93 2.79 28.61 2.93 29.32 C3.61 32.65 4 35.58 4 39 C5.3 39.04 6.6 39.08 7.94 39.12 C14.06 39.69 19.51 41.79 25.2 44 C29.52 45.78 29.52 45.78 34 45 C35.62 42.59 35.62 42.59 37.06 39.69 C37.57 38.72 38.08 37.76 38.6 36.76 C39.74 34.51 40.88 32.26 42 30 C41.01 28.52 41.01 28.52 40 27 C39.32 23.26 39.28 19.62 40.84 16.11 C43.06 13.03 45.3 11.6 48.94 10.94 C52.99 10.73 55.64 11.65 59 14 C61.85 17.33 62.7 20.58 62.56 25 C61.49 28.82 58.36 31.1 55 33 C54.01 33 53.02 33 52 33 C51.89 33.96 51.78 34.92 51.67 35.91 C51.23 39.7 50.78 43.49 50.33 47.27 C50.1 49.16 49.88 51.06 49.66 52.95 C49.3 56.01 48.93 59.07 48.56 62.12 C48.4 63.58 48.4 63.58 48.23 65.07 C47.02 74.76 43.98 80.6 37.32 87.64 C34.62 90.63 34.62 90.63 34.05 94.48 C34.36 95.31 34.68 96.14 35 97 C35.55 98.49 35.55 98.49 36.12 100.01 C36.77 101.55 36.77 101.55 37.44 103.12 C38.09 104.68 38.09 104.68 38.75 106.26 C39.97 109.13 39.97 109.13 42 112 C42 113.32 42 114.64 42 116 C13.62 127.38 -19.55 128.28 -48.21 117.06 C-50 116 -50 116 -51 113 C-49.97 110.66 -48.91 108.48 -47.69 106.25 C-43.99 99.44 -43.99 99.44 -42 92 C-43.59 89.14 -43.59 89.14 -46.19 86.81 C-54.18 78.82 -54.18 78.82 -55.1 72.6 C-55.34 71.02 -55.34 71.02 -55.58 69.42 C-55.74 68.31 -55.9 67.2 -56.06 66.06 C-56.23 64.93 -56.4 63.81 -56.58 62.65 C-56.91 60.42 -57.24 58.2 -57.56 55.97 C-57.92 53.55 -58.3 51.13 -58.7 48.71 C-59.58 43.4 -60.25 38.38 -60 33 C-60.72 32.94 -61.44 32.88 -62.19 32.81 C-65.98 31.72 -67.55 30.06 -70 27 C-71.3 23.19 -71.22 21.57 -69.75 17.81 C-66.91 13.25 -66.91 13.25 -65 12 C-60.5 10.97 -58.09 10.65 -53.69 12.06 C-50.35 14.47 -49.26 16.08 -48 20 C-48.02 23.4 -48.43 26.68 -49.78 29.82 C-50.14 33.36 -48.1 35.83 -46.25 38.69 C-45.89 39.28 -45.53 39.87 -45.16 40.49 C-42.86 44.17 -42.86 44.17 -39 46 C-36.44 45.11 -33.99 44.17 -31.5 43.12 C-24.98 40.52 -19.09 39.03 -12 39 C-11.91 37.93 -11.91 37.93 -11.82 36.84 C-11.73 35.88 -11.65 34.92 -11.56 33.94 C-11.48 32.93 -11.39 31.93 -11.3 30.89 C-11 28 -11 28 -10.19 24.12 C-9.68 20.87 -9.68 20.87 -11.88 18.19 C-12.58 17.47 -13.28 16.74 -14 16 C-15.53 12.94 -15.23 10.38 -15 7 C-13.76 4.21 -12.72 2.56 -10.31 0.69 C-6.81 -0.35 -3.58 -0.65 0 0 Z " fill="#080909" transform="translate(79,13)"/>
<path d="M0 0 C0.99 0 1.98 0 3 0 C5.24 7.95 6.71 15.89 7.82 24.06 C9.24 34.43 9.24 34.43 14.62 43.06 C18.96 45.55 22.12 45.93 27 45 C34.98 41.16 38.39 33.38 42.39 25.93 C44.08 22.86 45.85 19.86 47.69 16.88 C48.25 15.96 48.81 15.05 49.39 14.12 C51 12 51 12 54 11 C54.26 18 53.25 24.55 52.06 31.44 C51.7 33.6 51.33 35.77 50.97 37.93 C50.8 38.97 50.63 40 50.45 41.06 C50.04 43.71 49.77 46.33 49.54 49 C48.97 54.45 46.3 57.76 43 62 C42.5 62.71 42 63.42 41.48 64.16 C40.09 66.01 38.81 67.56 37 69 C33.26 69.16 30.8 67.92 27.31 66.56 C11.81 60.65 -6.24 61.65 -22 66 C-23.09 66.29 -24.18 66.57 -25.3 66.87 C-27.87 67.55 -30.44 68.26 -33 69 C-34.63 67.28 -36.26 65.55 -37.88 63.81 C-38.34 63.33 -38.8 62.85 -39.27 62.35 C-44.37 56.84 -45.41 51.52 -46.51 44.34 C-46.7 43.1 -46.7 43.1 -46.9 41.83 C-47.18 40.09 -47.45 38.35 -47.71 36.61 C-48.12 33.94 -48.54 31.28 -48.96 28.62 C-49.23 26.92 -49.49 25.22 -49.76 23.53 C-49.88 22.73 -50.01 21.94 -50.14 21.12 C-50.66 17.69 -51 14.48 -51 11 C-49.18 11.19 -49.18 11.19 -47 12 C-45.51 14.19 -45.51 14.19 -44.12 17 C-41.82 21.5 -39.31 25.64 -36.43 29.8 C-34.95 32.07 -33.73 34.4 -32.5 36.81 C-30.29 40.83 -28.29 43.07 -24 45 C-19.47 45.69 -14.86 45.58 -11 43 C-7.73 37.88 -6.12 32.46 -4.94 26.56 C-4.78 25.8 -4.61 25.03 -4.45 24.24 C-2.77 16.2 -1.35 8.1 0 0 Z " fill="#EAF2F2" transform="translate(73,34)"/>
<path d="M0 0 C1.26 0.2 2.53 0.4 3.83 0.6 C12.95 2.49 12.95 2.49 15.85 6.65 C17.12 9.73 18.07 12.8 19 16 C19.73 17.56 20.5 19.11 21.31 20.62 C23 24 23 24 23 26 C-4.93 35.57 -33.1 35.67 -61 26 C-60.72 25.17 -60.44 24.33 -60.16 23.48 C-59.36 21.08 -58.59 18.68 -57.84 16.27 C-54.47 6.15 -54.47 6.15 -50.7 3.21 C-48.13 2.16 -45.72 1.52 -43 1 C-42.23 0.8 -41.46 0.59 -40.67 0.38 C-27.16 -3.07 -13.62 -2.48 0 0 Z " fill="#E7EFEF" transform="translate(94,101)"/>
<path d="M0 0 C3.5 0.88 3.5 0.88 5.44 2.56 C6.82 5.58 6.91 7.58 6.5 10.88 C5.38 13.19 5.38 13.19 3.5 14.88 C0.31 15.62 0.31 15.62 -2.5 15.88 C-1.51 16.53 -0.52 17.2 0.5 17.88 C-0.49 17.88 -1.48 17.88 -2.5 17.88 C-2.6 18.89 -2.7 19.91 -2.8 20.96 C-3.61 28.87 -4.7 36.66 -6.38 44.44 C-6.6 45.52 -6.6 45.52 -6.83 46.63 C-8.21 52.77 -10.01 59.07 -15.25 62.88 C-20.65 64.54 -24.55 64.83 -29.69 62.31 C-35.34 57.41 -38.47 51.25 -41.95 44.73 C-43.95 41.04 -46.11 37.46 -48.3 33.87 C-49.5 31.88 -49.5 31.88 -50.5 29.88 C-51.49 29.55 -52.48 29.22 -53.5 28.88 C-53.17 31.84 -52.84 34.81 -52.5 37.88 C-53.49 37.88 -54.48 37.88 -55.5 37.88 C-56.5 36.88 -56.5 36.88 -56.56 33.31 C-56.54 32.18 -56.52 31.04 -56.5 29.88 C-57.22 29.81 -57.94 29.75 -58.69 29.69 C-62.48 28.59 -64.05 26.94 -66.5 23.88 C-67.8 20.07 -67.72 18.45 -66.25 14.69 C-63.41 10.13 -63.41 10.13 -61.5 8.88 C-57 7.84 -54.59 7.53 -50.19 8.94 C-46.85 11.35 -45.76 12.95 -44.5 16.88 C-44.52 20.27 -44.93 23.55 -46.28 26.7 C-46.64 30.23 -44.6 32.7 -42.75 35.56 C-42.39 36.16 -42.03 36.75 -41.66 37.36 C-39.36 41.05 -39.36 41.05 -35.5 42.88 C-32.94 41.99 -30.49 41.04 -28 40 C-21.48 37.39 -15.59 35.91 -8.5 35.88 C-8.41 34.81 -8.41 34.81 -8.32 33.71 C-8.23 32.76 -8.15 31.8 -8.06 30.81 C-7.98 29.81 -7.89 28.8 -7.8 27.77 C-7.5 24.88 -7.5 24.88 -6.69 21 C-6.16 17.76 -6.16 17.76 -8.38 15.25 C-9.08 14.47 -9.78 13.68 -10.5 12.88 C-11.25 10.06 -11.25 10.06 -11.5 7.88 C-10.51 7.55 -9.52 7.21 -8.5 6.88 C-7.82 5.21 -7.15 3.55 -6.5 1.88 C-3.5 -0.12 -3.5 -0.12 0 0 Z " fill="#090909" transform="translate(75.5,16.125)"/>
<path d="M0 0 C0.66 0 1.32 0 2 0 C2.84 6.93 2.84 6.93 0.55 9.87 C-4.16 14 -4.16 14 -8 14 C-8.11 14.96 -8.22 15.92 -8.33 16.91 C-8.77 20.7 -9.22 24.49 -9.67 28.27 C-9.9 30.16 -10.12 32.06 -10.34 33.95 C-10.7 37.01 -11.07 40.07 -11.44 43.12 C-11.6 44.58 -11.6 44.58 -11.77 46.07 C-12.98 55.76 -16.02 61.6 -22.68 68.64 C-25.38 71.63 -25.38 71.63 -25.95 75.48 C-25.64 76.31 -25.32 77.14 -25 78 C-24.45 79.49 -24.45 79.49 -23.88 81.01 C-23.23 82.55 -23.23 82.55 -22.56 84.12 C-21.91 85.68 -21.91 85.68 -21.25 87.26 C-20.03 90.13 -20.03 90.13 -18 93 C-18 94.32 -18 95.64 -18 97 C-46.38 108.38 -79.55 109.28 -108.21 98.06 C-110 97 -110 97 -111 94 C-109.97 91.66 -108.91 89.48 -107.69 87.25 C-103.99 80.44 -103.99 80.44 -102 73 C-103.59 70.14 -103.59 70.14 -106.19 67.81 C-114.17 59.83 -114.17 59.83 -115.13 53.56 C-115.3 52.5 -115.47 51.44 -115.64 50.35 C-115.8 49.24 -115.96 48.14 -116.12 47 C-116.29 45.93 -116.46 44.85 -116.64 43.75 C-117.74 36.52 -118.49 29.3 -119 22 C-117.68 22.33 -116.36 22.66 -115 23 C-114.8 24.41 -114.8 24.41 -114.59 25.84 C-114.08 29.34 -113.56 32.84 -113.03 36.34 C-112.8 37.85 -112.58 39.36 -112.36 40.88 C-112.05 43.06 -111.72 45.24 -111.39 47.41 C-111.29 48.08 -111.2 48.75 -111.1 49.44 C-110.04 56.22 -107.42 60.89 -102.81 65.88 C-101.74 67.05 -101.74 67.05 -100.64 68.24 C-100.1 68.82 -99.56 69.4 -99 70 C-98.37 69.82 -97.74 69.64 -97.09 69.45 C-94.07 68.6 -91.03 67.8 -88 67 C-86.96 66.71 -85.92 66.43 -84.86 66.13 C-68.6 62.08 -51.03 62.53 -35.38 68.75 C-31.56 70.25 -31.56 70.25 -28 69 C-26.29 67.05 -24.8 65.17 -23.31 63.06 C-22.91 62.51 -22.51 61.96 -22.09 61.39 C-18.91 57.01 -17.82 54.27 -17.13 48.92 C-16.97 47.67 -16.81 46.43 -16.64 45.15 C-16.3 42.55 -15.97 39.95 -15.64 37.35 C-12.63 14.63 -12.63 14.63 -9.03 11.03 C-7.68 10.09 -6.29 9.2 -4.88 8.34 C-1.8 6.14 -1.13 3.52 0 0 Z M-83 69 C-84.24 69.2 -85.48 69.4 -86.76 69.6 C-93.81 70.95 -93.81 70.95 -98.85 75.65 C-100.12 78.73 -101.07 81.8 -102 85 C-102.73 86.56 -103.5 88.11 -104.31 89.62 C-106.15 92.67 -106.15 92.67 -106 95 C-103.4 95.8 -100.79 96.59 -98.19 97.38 C-97.11 97.71 -97.11 97.71 -96.01 98.05 C-85.8 101.1 -76.03 102.37 -65.38 102.31 C-64.24 102.31 -63.1 102.3 -61.93 102.3 C-47.93 102.11 -35.23 99.53 -22 95 C-22.66 93 -23.33 91 -24 89 C-24.4 87.76 -24.81 86.52 -25.23 85.24 C-27.45 78.21 -27.45 78.21 -31.75 72.46 C-33.85 71.66 -35.78 71.32 -38 71 C-39.98 70.46 -41.96 69.92 -43.94 69.38 C-57.12 66.22 -69.71 66.42 -83 69 Z " fill="#080909" transform="translate(139,32)"/>
<path d="M0 0 C0.33 0 0.66 0 1 0 C1.26 7 0.25 13.55 -0.94 20.44 C-1.3 22.6 -1.67 24.77 -2.03 26.93 C-2.2 27.97 -2.37 29 -2.55 30.06 C-2.96 32.71 -3.23 35.33 -3.46 38 C-4.03 43.45 -6.7 46.76 -10 51 C-10.5 51.71 -11 52.42 -11.52 53.16 C-12.91 55.01 -14.19 56.56 -16 58 C-20.28 58.19 -23.76 56.33 -27.7 54.76 C-31.32 53.56 -35.02 53.02 -38.78 52.43 C-41 52 -41 52 -42 51 C-43.39 50.87 -44.79 50.8 -46.18 50.75 C-47.03 50.72 -47.87 50.69 -48.74 50.65 C-50.54 50.59 -52.33 50.54 -54.12 50.48 C-54.97 50.45 -55.81 50.41 -56.68 50.38 C-57.85 50.34 -57.85 50.34 -59.04 50.3 C-61 50 -61 50 -63 48 C-56.06 40.2 -48.23 38.07 -38 37 C-35.3 36.88 -32.7 36.9 -30 37 C-30 37.66 -30 38.32 -30 39 C-27.6 38.99 -25.21 38.95 -22.81 38.88 C-22.14 38.88 -21.47 38.88 -20.77 38.88 C-16.75 38.73 -15.18 38.17 -12.25 35.37 C-6.81 27.75 -2.29 19.28 -2.07 9.79 C-2 8 -2 8 -1 7 C-0.63 4.67 -0.3 2.34 0 0 Z " fill="#B2B7B7" transform="translate(126,45)"/>
<path d="M0 0 C1.16 2.4 2.14 4.7 3.06 7.19 C3.32 7.85 3.57 8.51 3.84 9.19 C5.34 13.09 6.71 17.02 8 21 C-10.83 27.45 -28.18 28.45 -48 28 C-48 27.67 -48 27.34 -48 27 C-46.7 26.94 -45.4 26.88 -44.05 26.82 C-42.33 26.73 -40.6 26.65 -38.88 26.56 C-38.02 26.52 -37.16 26.48 -36.28 26.44 C-29.59 26.14 -29.59 26.14 -23 25 C-21.56 23.05 -21.56 23.05 -21 21 C-20.34 21 -19.68 21 -19 21 C-18.34 19.02 -17.68 17.04 -17 15 C-29.28 11.62 -42.68 12.02 -55 15 C-55 14.01 -55 13.02 -55 12 C-48.3 9.05 -41.88 8.84 -34.69 8.88 C-33.88 8.87 -33.08 8.87 -32.25 8.86 C-26.76 8.87 -21.45 9.31 -16 10 C-16 8.35 -16 6.7 -16 5 C-29.09 3.28 -42.55 2.7 -55.34 6.34 C-58 7 -60.27 7.12 -63 7 C-63 6.34 -63 5.68 -63 5 C-61.11 4.35 -59.21 3.71 -57.31 3.06 C-56.26 2.7 -55.2 2.34 -54.11 1.97 C-39.26 -2.67 -21.88 -0.63 -7 3 C-7 2.34 -7 1.68 -7 1 C-3.38 -1.12 -3.38 -1.12 0 0 Z " fill="#C5D1D1" transform="translate(109,106)"/>
<path d="M0 0 C0.33 0 0.66 0 1 0 C1.2 4.88 0.62 8.42 -1 13 C-1.19 14.67 -1.19 14.67 -1.38 16.38 C-2.79 24.6 -8.13 33.13 -14 39 C-16.58 39.14 -19.05 39.19 -21.62 39.12 C-22.33 39.12 -23.04 39.11 -23.77 39.1 C-25.51 39.07 -27.26 39.04 -29 39 C-29 38.34 -29 37.68 -29 37 C-42.53 38.04 -42.53 38.04 -55 43 C-56.52 43.77 -56.52 43.77 -58.06 44.56 C-58.7 45.04 -59.34 45.51 -60 46 C-60 46.99 -60 47.98 -60 49 C-53.73 49.33 -47.46 49.66 -41 50 C-41 50.33 -41 50.66 -41 51 C-42.21 51.05 -43.42 51.1 -44.66 51.15 C-54.56 51.59 -64.22 52.36 -74 54 C-74.33 53.34 -74.66 52.68 -75 52 C-74.34 52 -73.68 52 -73 52 C-73 51.01 -73 50.02 -73 49 C-72.34 49 -71.68 49 -71 49 C-70.84 48.28 -70.68 47.56 -70.52 46.82 C-68.25 42.6 -64.83 41.05 -60.69 38.81 C-59.48 38.15 -59.48 38.15 -58.25 37.48 C-51.75 34.08 -45.47 31.69 -38 32 C-36.65 32.63 -35.31 33.29 -34 34 C-29.45 34.71 -25.91 34.44 -21.75 32.44 C-16.17 27.49 -13.08 21.42 -9.62 14.93 C-3.04 3.04 -3.04 3.04 0 0 Z " fill="#D3D9D9" transform="translate(125,45)"/>
<path d="M0 0 C7.1 -0.4 12.06 0.73 18.56 3.5 C19.38 3.83 20.2 4.17 21.04 4.51 C23.03 5.33 25.02 6.16 27 7 C26.26 10.31 25.23 12.4 23.19 15.12 C22.69 15.81 22.18 16.49 21.67 17.2 C18.87 20.22 16.64 20.93 12.56 21.38 C8.2 20.92 6.86 20.33 4 17 C1.72 11.55 0.64 5.85 0 0 Z " fill="#CAD5D4" transform="translate(83,56)"/>
<path d="M0 0 C-0.49 7.23 -1.26 13.95 -6.25 19.5 C-9.92 21.5 -11.87 21.71 -16 21 C-21.34 17.83 -24.28 13.45 -27 8 C-18.36 3.35 -9.99 -0.65 0 0 Z " fill="#C6D0D0" transform="translate(66,56)"/>
<path d="M0 0 C3.24 1.89 5.33 3.29 6.73 6.87 C7.52 10.87 7.07 13.44 5.06 17 C4.04 18.48 4.04 18.48 3 20 C2.34 20 1.68 20 1 20 C1.22 21.04 1.43 22.07 1.66 23.14 C1.94 24.51 2.22 25.88 2.5 27.25 C2.64 27.93 2.79 28.61 2.93 29.32 C3.61 32.65 4 35.58 4 39 C4.7 39.06 5.4 39.12 6.12 39.18 C7.03 39.27 7.94 39.35 8.88 39.44 C9.78 39.52 10.68 39.6 11.62 39.68 C14 40 14 40 16 41 C15.67 41.99 15.34 42.98 15 44 C11.37 43.67 7.74 43.34 4 43 C4 45.31 4 47.62 4 50 C3.67 50 3.34 50 3 50 C2.18 46.69 1.37 43.38 0.56 40.06 C0.33 39.14 0.1 38.21 -0.13 37.26 C-1.53 31.5 -2.47 25.9 -3 20 C-4.32 19.67 -5.64 19.34 -7 19 C-7 18.67 -7 18.34 -7 18 C-4.69 18 -2.38 18 0 18 C2.09 14.6 2.5 11.97 2 8 C0.44 5.52 0.44 5.52 -2 4 C-5.16 3.61 -6.96 3.99 -10 5 C-10.33 5.82 -10.66 6.65 -11 7.5 C-11.5 8.74 -11.5 8.74 -12 10 C-12.99 10.33 -13.98 10.66 -15 11 C-14.68 7.44 -14.39 5.47 -12.06 2.69 C-8.31 -0.39 -4.73 -0.76 0 0 Z " fill="#070808" transform="translate(79,13)"/>
<path d="M0 0 C1.16 2.4 2.14 4.7 3.06 7.19 C3.32 7.85 3.57 8.51 3.84 9.19 C5.34 13.09 6.71 17.02 8 21 C5.92 21.7 3.84 22.38 1.75 23.06 C0.59 23.45 -0.57 23.83 -1.77 24.22 C-4.8 24.95 -6.16 25.12 -9 24 C-8.67 22.82 -8.34 21.65 -8 20.44 C-7.03 16.55 -6.68 13.02 -7 9 C-7.66 8.34 -8.32 7.68 -9 7 C-8.01 7 -7.02 7 -6 7 C-6 6.34 -6 5.68 -6 5 C-7.65 4.67 -9.3 4.34 -11 4 C-9.68 3.67 -8.36 3.34 -7 3 C-7 2.34 -7 1.68 -7 1 C-3.38 -1.12 -3.38 -1.12 0 0 Z " fill="#A1ADAD" transform="translate(109,106)"/>
<path d="M0 0 C0.33 0 0.66 0 1 0 C1.19 4.82 0.76 8.5 -1 13 C-1.66 13 -2.32 13 -3 13 C-3.24 13.82 -3.24 13.82 -3.48 14.65 C-5.31 20.56 -7.83 25.7 -11 31 C-11.66 31 -12.32 31 -13 31 C-13 31.66 -13 32.32 -13 33 C-16.47 33.5 -16.47 33.5 -20 34 C-19.27 30.34 -17.67 28.09 -15.45 25.11 C-13.82 22.73 -12.48 20.29 -11.12 17.75 C-3.56 3.56 -3.56 3.56 0 0 Z " fill="#E6ECEC" transform="translate(125,45)"/>
<path d="M0 0 C3.7 1.4 3.7 1.4 5 4 C5.45 10.2 5.45 10.2 3.94 12.88 C0.87 14.66 -1.46 15 -5 15 C-8.46 12.57 -9.79 11.12 -10.56 6.94 C-9.38 0.77 -5.96 -0.74 0 0 Z " fill="#E6F1F1" transform="translate(22,28)"/>
<path d="M0 0 C2.38 1 2.38 1 4 3 C4.57 7.45 4.77 9.73 2.44 13.56 C0 15 0 15 -3.5 15 C-7.3 13.91 -8.89 13.34 -11 10 C-11 6.21 -10.84 3.96 -8.31 1.06 C-5.29 -0.32 -3.29 -0.41 0 0 Z " fill="#E2EDED" transform="translate(133,28)"/>
<path d="M0 0 C3.38 1.06 3.38 1.06 5.31 2.75 C6.7 5.77 6.79 7.77 6.38 11.06 C5.38 13.44 5.38 13.44 3.38 15.06 C0.2 15.52 -1.62 15.76 -4.62 15.06 C-7.36 12.67 -8.39 11.09 -9.19 7.56 C-8.02 2.39 -5.22 0.09 0 0 Z " fill="#C9DADA" transform="translate(75.625,15.9375)"/>
<path d="M0 0 C0 0.66 0 1.32 0 2 C-4.71 1.54 -9.25 0.96 -13.88 -0.06 C-25.59 -2.23 -37.89 -1.92 -49.34 1.34 C-52 2 -54.27 2.12 -57 2 C-57 1.34 -57 0.68 -57 0 C-55.11 -0.65 -53.21 -1.29 -51.31 -1.94 C-50.26 -2.3 -49.2 -2.66 -48.11 -3.03 C-32.7 -7.84 -14.75 -6.04 0 0 Z " fill="#1A1C1C" transform="translate(103,111)"/>
<path d="M0 0 C-4.41 -0.5 -8.57 -1.37 -12.88 -2.5 C-25.74 -5.78 -37.79 -5.43 -50.81 -3.14 C-54 -3 -54 -3 -55.94 -4.45 C-56.29 -4.96 -56.64 -5.47 -57 -6 C-37.49 -11.43 -17.1 -11.4 0 0 Z " fill="#161717" transform="translate(108,105)"/>
<path d="M0 0 C0.71 0 1.43 0 2.17 0 C2.89 0 3.61 0 4.35 0 C9.99 0.06 15.28 0.72 20.73 2.19 C20.73 3.84 20.73 5.49 20.73 7.19 C5.88 6.69 5.88 6.69 -9.27 6.19 C-5.59 0.06 -5.59 0.06 0 0 Z " fill="#F7F9F9" transform="translate(72.271484375,108.810546875)"/>
<path d="M0 0 C1.95 1.95 2.85 3.53 4 6 C4.33 6 4.66 6 5 6 C5.16 6.88 5.32 7.76 5.48 8.67 C6.69 15.99 6.69 15.99 10.25 22.31 C13.82 24.51 15.87 24.59 20 24 C24.42 22.21 26.36 19.36 28.79 15.43 C29.19 14.96 29.59 14.48 30 14 C30.99 14 31.98 14 33 14 C31.38 19.34 27.87 24.25 23.07 27.18 C19.36 28.65 15.92 28.73 12 28 C7.56 25.76 4.91 22.57 3.19 17.94 C1.56 12.08 0.79 6.02 0 0 Z " fill="#131414" transform="translate(79,52)"/>
<path d="M0 0 C3 1 3 1 4.31 3.38 C4.54 4.24 4.77 5.11 5 6 C4.01 7.48 4.01 7.48 3 9 C3.99 9.66 4.98 10.32 6 11 C6 11.99 6 12.98 6 14 C3.21 13.38 0.42 12.76 -2.38 12.12 C-3.57 11.86 -3.57 11.86 -4.78 11.6 C-5.92 11.34 -5.92 11.34 -7.09 11.07 C-7.79 10.91 -8.49 10.76 -9.21 10.59 C-11 10 -11 10 -13 8 C-12.34 8 -11.68 8 -11 8 C-10.71 7.22 -10.42 6.43 -10.12 5.62 C-9 3 -9 3 -7 1 C-7 1.66 -7 2.32 -7 3 C-3.2 2.03 -3.2 2.03 0 0 Z " fill="#D9E2E1" transform="translate(46,118)"/>
<path d="M0 0 C5.99 0.34 10.75 0.82 16 4 C16 5.32 16 6.64 16 8 C15.34 8 14.68 8 14 8 C13.67 8.99 13.34 9.98 13 11 C9.92 12.54 7.39 12.3 4 12 C1.11 9.69 0.78 7.26 0.31 3.75 C0.21 2.51 0.11 1.27 0 0 Z " fill="#E4EFEF" transform="translate(88,57)"/>
<path d="M0 0 C0 0.99 0 1.98 0 3 C-7.5 2.09 -7.5 2.09 -10.76 1.48 C-14.58 0.91 -18.34 0.81 -22.19 0.81 C-22.93 0.81 -23.67 0.81 -24.44 0.81 C-30.44 0.87 -36.15 1.59 -42 3 C-42 2.01 -42 1.02 -42 0 C-29.47 -5.53 -12.7 -4.26 0 0 Z " fill="#080909" transform="translate(96,118)"/>
<path d="M0 0 C0.33 0 0.66 0 1 0 C2.24 5.84 2.36 10.08 -0.71 15.34 C-3.22 18.56 -5.99 19.68 -9.95 20.31 C-15.09 20.63 -18.04 19.43 -22 16 C-27 10.2 -27 10.2 -27 6 C-26.01 6 -25.02 6 -24 6 C-22.5 7.68 -22.5 7.68 -21 9.88 C-19.06 12.7 -17.92 14.05 -15 16 C-11.2 16.42 -8.74 16.34 -5.25 14.75 C-1.72 10.44 -1.04 5.39 0 0 Z " fill="#1E2020" transform="translate(65,60)"/>
<path d="M0 0 C-0.4 1.61 -0.82 3.21 -1.25 4.81 C-1.6 6.15 -1.6 6.15 -1.95 7.52 C-3.16 10.38 -4.4 11.38 -7 13 C-10.58 11.35 -13.75 9.22 -17 7 C-16 4 -16 4 -13.93 2.83 C-9.15 0.97 -5.23 -0.55 0 0 Z " fill="#E5EEEE" transform="translate(58,58)"/>
<path d="M0 0 C0.33 0.66 0.66 1.32 1 2 C2.32 2.66 3.64 3.32 5 4 C-4.24 4.33 -13.48 4.66 -23 5 C-22.67 3.35 -22.34 1.7 -22 0 C-14.67 -1.9 -7.04 -3.84 0 0 Z " fill="#FAFCFC" transform="translate(81,102)"/>
<path d="M0 0 C2.31 0 4.62 0 7 0 C6.51 7.23 5.74 13.95 0.75 19.5 C-2.69 21.38 -5.14 21.3 -9 21 C-8.36 20.57 -7.72 20.13 -7.06 19.69 C-4.73 18.09 -4.73 18.09 -4 15 C-3.34 14.67 -2.68 14.34 -2 14 C-1.38 12.01 -1.38 12.01 -1 9.69 C-0.4 6.46 0.42 3.88 2 1 C1.34 0.67 0.68 0.34 0 0 Z " fill="#B2BABA" transform="translate(59,56)"/>
<path d="M0 0 C1.32 0.33 2.64 0.66 4 1 C3.38 4.32 2.21 6.44 0.19 9.12 C-0.31 9.81 -0.82 10.49 -1.33 11.2 C-4.13 14.22 -6.36 14.93 -10.44 15.38 C-14.6 14.94 -16.12 13.97 -19 11 C-19.33 10.01 -19.66 9.02 -20 8 C-17 8 -17 8 -13.88 9.12 C-9.05 10.22 -5.67 9.38 -1 8 C-1.02 7.05 -1.04 6.1 -1.06 5.12 C-1 2 -1 2 0 0 Z " fill="#B6BDBD" transform="translate(106,62)"/>
<path d="M0 0 C4 1 4 1 5.6 3.36 C6.32 4.82 6.32 4.82 7.06 6.31 C8.82 9.8 10.56 12.95 13 16 C12.67 16.66 12.34 17.32 12 18 C10.35 18 8.7 18 7 18 C6.34 16.68 5.68 15.36 5 14 C4.34 14 3.68 14 3 14 C2.67 15.32 2.34 16.64 2 18 C1.34 12.06 0.68 6.12 0 0 Z " fill="#DDE9E9" transform="translate(22,45)"/>
<path d="M0 0 C2.93 0.63 5.36 1.59 8 3 C7.34 3 6.68 3 6 3 C6.21 4.16 6.41 5.31 6.62 6.5 C7.23 11.11 6.34 14.58 5 19 C1.37 19.66 -2.26 20.32 -6 21 C-6 20.34 -6 19.68 -6 19 C-1.62 16 -1.62 16 1 16 C1.66 11.38 2.32 6.76 3 2 C2.01 2 1.02 2 0 2 C0 1.34 0 0.68 0 0 Z " fill="#B6C1C1" transform="translate(96,112)"/>
<path d="M0 0 C-0.66 4.39 -2.19 7.98 -4 12 C-5.32 11.67 -6.64 11.34 -8 11 C-8.75 7.75 -8.75 7.75 -9 4 C-6.47 0.2 -4.47 -0.5 0 0 Z " fill="#E3ECEC" transform="translate(76,17)"/>
<path d="M0 0 C3 1 3 1 4 3 C4.45 9.2 4.45 9.2 2.94 11.88 C0.01 13.57 -2.65 13.82 -6 14 C-6.66 13.34 -7.32 12.68 -8 12 C-3.25 9 -3.25 9 -1 9 C-0.67 6.03 -0.34 3.06 0 0 Z " fill="#B3C9C9" transform="translate(23,29)"/>
<path d="M0 0 C0.66 0.33 1.32 0.66 2 1 C2.48 8.21 2.48 8.21 0.44 11.56 C-2 13 -2 13 -5.62 12.88 C-9 12 -9 12 -11 10 C-10.37 9.86 -9.75 9.73 -9.1 9.59 C-4.29 8.52 -4.29 8.52 -0.96 5.24 C-0.34 3.1 -0.34 3.1 0 0 Z " fill="#96ADAD" transform="translate(135,30)"/>
<path d="M0 0 C10.76 -0.3 20.66 -0.47 31 3 C31 3.99 31 4.98 31 6 C26.31 5.43 21.65 4.81 17 4 C17.33 3.01 17.66 2.02 18 1 C12.06 1 6.12 1 0 1 C0 0.67 0 0.34 0 0 Z " fill="#313434" transform="translate(65,115)"/>
<path d="M0 0 C0 0.33 0 0.66 0 1 C-7.92 1.5 -7.92 1.5 -16 2 C-16 2.66 -16 3.32 -16 4 C-18.44 4.42 -20.87 4.81 -23.31 5.19 C-24 5.31 -24.69 5.43 -25.4 5.55 C-30.56 6.32 -30.56 6.32 -32.98 4.55 C-33.32 4.04 -33.65 3.53 -34 3 C-22.54 -0.19 -11.81 -0.32 0 0 Z " fill="#353838" transform="translate(85,96)"/>
<path d="M0 0 C2.44 1.93 4.8 3.8 7 6 C7.33 5.34 7.66 4.68 8 4 C8.66 4 9.32 4 10 4 C9.67 5.32 9.34 6.64 9 8 C5.57 9.19 3.62 8.8 0.25 7.56 C-0.55 7.28 -1.35 6.99 -2.17 6.69 C-2.78 6.46 -3.38 6.24 -4 6 C-3.34 5.67 -2.68 5.34 -2 5 C-1.28 3.36 -0.61 1.69 0 0 Z " fill="#BFD2D2" transform="translate(37,121)"/>
<path d="M0 0 C2.97 0.99 5.94 1.98 9 3 C7.02 3.99 7.02 3.99 5 5 C5 5.66 5 6.32 5 7 C1.37 6.67 -2.26 6.34 -6 6 C-4.68 5.34 -3.36 4.68 -2 4 C-1.34 2.68 -0.68 1.36 0 0 Z " fill="#C5CCCC" transform="translate(97,102)"/>
<path d="M0 0 C1.95 1.95 2.85 3.53 4 6 C4.33 6 4.66 6 5 6 C5.66 9.96 6.32 13.92 7 18 C6.34 18 5.68 18 5 18 C4.67 18.66 4.34 19.32 4 20 C2.24 13.34 0.66 6.86 0 0 Z " fill="#2A2C2C" transform="translate(79,52)"/>
<path d="M0 0 C0.33 0.33 0.66 0.66 1 1 C0.91 2.53 0.75 4.05 0.56 5.56 C0.46 6.39 0.36 7.22 0.25 8.07 C0.17 8.7 0.09 9.34 0 10 C-0.67 7.33 -1.33 4.67 -2 2 C-5.04 3.67 -5.04 3.67 -6 6 C-7 8 -7 8 -10 10 C-10.32 6.46 -10.41 4.6 -8.38 1.62 C-5.38 -0.43 -3.56 -0.4 0 0 Z " fill="#D9E3E3" transform="translate(22,28)"/>
<path d="M0 0 C0.99 0 1.98 0 3 0 C4.14 4.27 5 7.56 5 12 C4.34 12 3.68 12 3 12 C3 11.01 3 10.02 3 9 C1.68 8.67 0.36 8.34 -1 8 C-0.67 5.36 -0.34 2.72 0 0 Z " fill="#CAD4D4" transform="translate(73,34)"/>
<path d="M0 0 C2.97 0.99 5.94 1.98 9 3 C9 3.66 9 4.32 9 5 C2.25 4.34 -4.34 3.28 -11 2 C-11 1.67 -11 1.34 -11 1 C-7.37 1 -3.74 1 0 1 C0 0.67 0 0.34 0 0 Z " fill="#252727" transform="translate(94,108)"/>
<path d="M0 0 C-1.27 2.55 -2.18 2.66 -4.81 3.62 C-5.84 4.02 -5.84 4.02 -6.89 4.41 C-9 5 -9 5 -13 5 C-13 4.01 -13 3.02 -13 2 C-8.46 0.55 -4.82 -0.24 0 0 Z " fill="#1C1F1F" transform="translate(55,100)"/>
<path d="M0 0 C2 2 2 2 2.31 4.88 C2 8 2 8 1 10.38 C-2.18 12.96 -4.99 12.26 -9 12 C-9 11.67 -9 11.34 -9 11 C-7.35 10.67 -5.7 10.34 -4 10 C-3.67 9.01 -3.34 8.02 -3 7 C-2.34 6.67 -1.68 6.34 -1 6 C-0.34 2.97 -0.34 2.97 0 0 Z " fill="#8AA2A2" transform="translate(80,19)"/>
<path d="M0 0 C0.66 0.33 1.32 0.66 2 1 C2 3.31 2 5.62 2 8 C1.01 8.33 0.02 8.66 -1 9 C-0.67 10.32 -0.34 11.64 0 13 C-2.64 13 -5.28 13 -8 13 C-6 11 -6 11 -3 10 C-0.7 6.56 -0.46 4.06 0 0 Z " fill="#AAC2C1" transform="translate(78,17)"/>
<path d="M0 0 C2 2 2 2 2.31 5.44 C2 9 2 9 0.94 10.88 C-1.92 12.53 -4.75 12.69 -8 13 C-7.01 12.34 -6.02 11.68 -5 11 C-1.81 8.46 -1.07 7.34 -0.25 3.25 C-0.17 2.18 -0.09 1.11 0 0 Z " fill="#90A7A7" transform="translate(25,30)"/>
<path d="M0 0 C1.46 -0.03 2.92 -0.05 4.38 -0.06 C5.19 -0.07 6 -0.09 6.84 -0.1 C9 0 9 0 11 1 C11 1.99 11 2.98 11 4 C2.83 3.33 2.83 3.33 0 0 Z " fill="#1E1F1F" transform="translate(85,117)"/>
<path d="M0 0 C0.33 0 0.66 0 1 0 C1.38 2.33 1.71 4.66 2 7 C1.67 7.33 1.34 7.66 1 8 C1.01 9.44 1.05 10.88 1.12 12.31 C1.18 15.52 1.16 16.73 -0.5 19.56 C-1 20.04 -1.49 20.51 -2 21 C-2.28 13.83 -1.2 7.05 0 0 Z " fill="#2B2F2F" transform="translate(124,65)"/>
<path d="M0 0 C0.66 0.66 1.32 1.32 2 2 C-1.63 2.66 -5.26 3.32 -9 4 C-9 3.01 -9 2.02 -9 1 C-5.61 -0.6 -3.56 -1.47 0 0 Z " fill="#2C2F2F" transform="translate(63,117)"/>
<path d="M0 0 C0.66 0.33 1.32 0.66 2 1 C1.01 2.98 0.02 4.96 -1 7 C-0.34 7 0.32 7 1 7 C1 7.66 1 8.32 1 9 C0.34 9 -0.32 9 -1 9 C-1.33 9.66 -1.66 10.32 -2 11 C-3.35 4.6 -3.35 4.6 -1.56 1.56 C-1.05 1.05 -0.53 0.53 0 0 Z " fill="#D9DDDD" transform="translate(125,29)"/>
<path d="M0 0 C1.32 0.33 2.64 0.66 4 1 C4.33 2.32 4.66 3.64 5 5 C4.01 5.49 4.01 5.49 3 6 C2.34 7.32 1.68 8.64 1 10 C0.67 6.7 0.34 3.4 0 0 Z " fill="#CAD2D2" transform="translate(22,45)"/>
<path d="M0 0 C0.33 0.66 0.66 1.32 1 2 C0.01 3.48 0.01 3.48 -1 5 C-1.66 5 -2.32 5 -3 5 C-3.33 5.99 -3.66 6.98 -4 8 C-6.97 7.51 -6.97 7.51 -10 7 C-7.79 5.85 -5.67 4.88 -3.31 4.06 C-2.55 3.71 -1.79 3.36 -1 3 C-0.67 2.01 -0.34 1.02 0 0 Z " fill="#B1C9C9" transform="translate(134,34)"/>
<path d="M0 0 C0.33 0.66 0.66 1.32 1 2 C-1.41 3.2 -2.95 3.1 -5.62 3.06 C-6.85 3.05 -6.85 3.05 -8.1 3.04 C-9.04 3.02 -9.04 3.02 -10 3 C-7.13 -0.11 -4.15 -2.08 0 0 Z " fill="#363939" transform="translate(101,77)"/>
<path d="M0 0 C0.99 0.33 1.98 0.66 3 1 C3 2.65 3 4.3 3 6 C1.02 6 -0.96 6 -3 6 C-2.01 5.67 -1.02 5.34 0 5 C0 3.35 0 1.7 0 0 Z " fill="#D4DADA" transform="translate(93,111)"/>
<path d="M0 0 C0.99 0.33 1.98 0.66 3 1 C4.19 3.56 4.19 3.56 5 6 C3.35 5.67 1.7 5.34 0 5 C0 3.35 0 1.7 0 0 Z " fill="#C3D9D9" transform="translate(30,57)"/>
<path d="M0 0 C0.99 0.33 1.98 0.66 3 1 C3 1.33 3 1.66 3 2 C4.65 2.33 6.3 2.66 8 3 C8 3.33 8 3.66 8 4 C1.48 4.37 1.48 4.37 -0.94 2.5 C-1.46 1.76 -1.46 1.76 -2 1 C-1.34 0.67 -0.68 0.34 0 0 Z " fill="#9EA3A3" transform="translate(91,73)"/>
<path d="M0 0 C0.99 0 1.98 0 3 0 C2.69 2.38 2.69 2.38 2 5 C1.01 5.66 0.02 6.32 -1 7 C-1.04 5 -1.04 3 -1 1 C-0.67 0.67 -0.34 0.34 0 0 Z " fill="#C5C9C9" transform="translate(13,31)"/>
</svg>
