<?xml version="1.0" encoding="UTF-8"?>
<!-- Generator: visioncortex VTracer 0.6.3 -->
<svg version="1.1" xmlns="http://www.w3.org/2000/svg" width="150" height="150">
<path d="M0 0 C0.96 0.01 1.92 0.01 2.9 0.02 C4.46 0.02 4.46 0.02 6.04 0.03 C7.13 0.03 8.22 0.04 9.34 0.05 C10.98 0.06 10.98 0.06 12.65 0.06 C15.36 0.08 18.07 0.09 20.78 0.11 C20.78 3.41 20.78 6.71 20.78 10.11 C25.23 9.62 25.23 9.62 29.78 9.11 C30.77 6.14 31.76 3.17 32.78 0.11 C39.38 0.11 45.98 0.11 52.78 0.11 C54.78 6.11 54.78 6.11 54.78 10.11 C57.75 10.11 60.72 10.11 63.78 10.11 C63.75 8.65 63.73 7.18 63.71 5.68 C63.69 4.16 63.7 2.63 63.78 1.11 C65.46 -0.57 67.56 -0.02 69.87 -0.02 C70.9 -0.02 71.93 -0.02 72.99 -0.02 C74.62 -0.02 74.62 -0.02 76.28 -0.01 C77.36 -0.02 78.44 -0.02 79.56 -0.02 C80.59 -0.02 81.62 -0.02 82.68 -0.02 C84.11 -0.02 84.11 -0.02 85.57 -0.02 C87.78 0.11 87.78 0.11 88.78 1.11 C89.75 9.19 90.76 19.1 87.1 26.5 C84.25 29.65 81.29 31.77 77.78 34.11 C77.34 36.13 77.34 36.13 77.43 38.47 C77.43 39.37 77.44 40.27 77.44 41.2 C77.45 42.18 77.47 43.15 77.48 44.15 C77.49 45.15 77.49 46.14 77.5 47.17 C77.51 50.36 77.55 53.55 77.59 56.74 C77.6 58.9 77.62 61.06 77.63 63.22 C77.66 68.51 77.71 73.81 77.78 79.11 C78.98 79.53 78.98 79.53 80.22 79.96 C82.78 81.11 82.78 81.11 83.7 83.5 C83.83 84.4 83.96 85.31 84.09 86.24 C84.23 87.15 84.37 88.06 84.51 89 C84.6 89.7 84.69 90.39 84.78 91.11 C85.41 91.25 86.05 91.38 86.71 91.52 C87.95 91.78 87.95 91.78 89.21 92.05 C90.45 92.31 90.45 92.31 91.71 92.58 C93.78 93.11 93.78 93.11 94.78 94.11 C94.87 96.79 94.91 99.44 94.9 102.11 C94.9 102.86 94.91 103.61 94.91 104.39 C94.9 109.99 94.9 109.99 93.78 111.11 C90.62 111.21 87.49 111.25 84.33 111.24 C82.84 111.25 82.84 111.25 81.32 111.25 C78.03 111.25 74.73 111.25 71.44 111.25 C69.15 111.25 66.87 111.25 64.59 111.25 C59.81 111.25 55.02 111.25 50.23 111.24 C44.08 111.24 37.93 111.24 31.79 111.25 C27.07 111.25 22.36 111.25 17.65 111.25 C15.38 111.25 13.11 111.25 10.85 111.25 C7.68 111.25 4.52 111.25 1.35 111.24 C0.4 111.24 -0.54 111.25 -1.51 111.25 C-2.8 111.24 -2.8 111.24 -4.12 111.24 C-4.87 111.24 -5.62 111.24 -6.39 111.24 C-8.22 111.11 -8.22 111.11 -10.22 110.11 C-10.22 104.83 -10.22 99.55 -10.22 94.11 C-7.84 93.71 -7.84 93.71 -5.41 93.3 C-2.61 92.62 -2.61 92.62 -0.22 91.11 C1.1 88.25 1.63 85.72 2.08 82.61 C2.78 80.11 2.78 80.11 4.78 78.9 C5.44 78.64 6.1 78.38 6.78 78.11 C9.39 72.89 8.34 64.85 8.45 59.05 C8.5 57.15 8.57 55.25 8.66 53.35 C9.68 41.85 9.68 41.85 5.3 31.77 C3.36 29.92 1.33 28.28 -0.75 26.58 C-3.7 23.64 -4.08 22.16 -4.33 18.04 C-4.27 16.02 -4.15 14 -3.97 11.99 C-3.93 10.95 -3.89 9.91 -3.85 8.84 C-3.44 0.18 -3.44 0.18 0 0 Z " fill="#DDE6E6" transform="translate(32.224853515625,26.886474609375)"/>
<path d="M0 0 C20.46 0 40.92 0 62 0 C62 14.19 62 28.38 62 43 C41.54 43 21.08 43 0 43 C0 28.81 0 14.62 0 0 Z " fill="#FCFEFE" transform="translate(44,63)"/>
<path d="M0 0 C2.21 0.02 4.41 0.02 6.62 0.02 C14.09 0.04 21.54 0.23 29 0.66 C29.69 0.69 30.38 0.73 31.09 0.77 C35.04 1.02 38.88 1.49 42.77 2.21 C43.76 7.65 43.76 7.65 44.77 13.21 C46.24 13.52 47.7 13.82 49.21 14.14 C53.65 15.08 53.65 15.08 54.77 16.21 C54.77 19.51 54.77 22.81 54.77 26.21 C22.43 26.21 -9.91 26.21 -43.23 26.21 C-43.23 22.58 -43.23 18.95 -43.23 15.21 C-37.78 14.22 -37.78 14.22 -32.23 13.21 C-31.9 9.58 -31.57 5.95 -31.23 2.21 C-20.77 0.65 -10.57 -0.09 0 0 Z " fill="#F0F4F4" transform="translate(69.226806640625,107.794189453125)"/>
<path d="M0 0 C0.96 0.01 1.92 0.01 2.9 0.02 C4.46 0.02 4.46 0.02 6.04 0.03 C7.13 0.03 8.22 0.04 9.34 0.05 C10.98 0.06 10.98 0.06 12.65 0.06 C15.36 0.08 18.07 0.09 20.78 0.11 C20.78 3.41 20.78 6.71 20.78 10.11 C25.23 9.62 25.23 9.62 29.78 9.11 C30.77 6.14 31.76 3.17 32.78 0.11 C39.38 0.11 45.98 0.11 52.78 0.11 C54.78 6.11 54.78 6.11 54.78 10.11 C57.75 10.11 60.72 10.11 63.78 10.11 C63.75 8.65 63.73 7.18 63.71 5.68 C63.69 4.16 63.7 2.63 63.78 1.11 C65.46 -0.57 67.56 -0.02 69.87 -0.02 C70.9 -0.02 71.93 -0.02 72.99 -0.02 C74.62 -0.02 74.62 -0.02 76.28 -0.01 C77.36 -0.02 78.44 -0.02 79.56 -0.02 C80.59 -0.02 81.62 -0.02 82.68 -0.02 C84.11 -0.02 84.11 -0.02 85.57 -0.02 C87.78 0.11 87.78 0.11 88.78 1.11 C89.75 9.19 90.76 19.1 87.1 26.5 C84.25 29.65 81.29 31.77 77.78 34.11 C77.34 36.13 77.34 36.13 77.43 38.47 C77.43 39.37 77.44 40.27 77.44 41.2 C77.45 42.18 77.47 43.15 77.48 44.15 C77.49 45.15 77.49 46.14 77.5 47.17 C77.51 50.36 77.55 53.55 77.59 56.74 C77.6 58.9 77.62 61.06 77.63 63.22 C77.66 68.51 77.71 73.81 77.78 79.11 C78.98 79.53 78.98 79.53 80.22 79.96 C82.78 81.11 82.78 81.11 83.7 83.5 C83.83 84.4 83.96 85.31 84.09 86.24 C84.23 87.15 84.37 88.06 84.51 89 C84.6 89.7 84.69 90.39 84.78 91.11 C85.41 91.25 86.05 91.38 86.71 91.52 C87.95 91.78 87.95 91.78 89.21 92.05 C90.45 92.31 90.45 92.31 91.71 92.58 C93.78 93.11 93.78 93.11 94.78 94.11 C94.87 96.79 94.91 99.44 94.9 102.11 C94.9 102.86 94.91 103.61 94.91 104.39 C94.9 109.99 94.9 109.99 93.78 111.11 C90.62 111.21 87.49 111.25 84.33 111.24 C82.84 111.25 82.84 111.25 81.32 111.25 C78.03 111.25 74.73 111.25 71.44 111.25 C69.15 111.25 66.87 111.25 64.59 111.25 C59.81 111.25 55.02 111.25 50.23 111.24 C44.08 111.24 37.93 111.24 31.79 111.25 C27.07 111.25 22.36 111.25 17.65 111.25 C15.38 111.25 13.11 111.25 10.85 111.25 C7.68 111.25 4.52 111.25 1.35 111.24 C0.4 111.24 -0.54 111.25 -1.51 111.25 C-2.8 111.24 -2.8 111.24 -4.12 111.24 C-4.87 111.24 -5.62 111.24 -6.39 111.24 C-8.22 111.11 -8.22 111.11 -10.22 110.11 C-10.22 104.83 -10.22 99.55 -10.22 94.11 C-7.84 93.71 -7.84 93.71 -5.41 93.3 C-2.61 92.62 -2.61 92.62 -0.22 91.11 C1.1 88.25 1.63 85.72 2.08 82.61 C2.78 80.11 2.78 80.11 4.78 78.9 C5.44 78.64 6.1 78.38 6.78 78.11 C9.39 72.89 8.34 64.85 8.45 59.05 C8.5 57.15 8.57 55.25 8.66 53.35 C9.68 41.85 9.68 41.85 5.3 31.77 C3.36 29.92 1.33 28.28 -0.75 26.58 C-3.7 23.64 -4.08 22.16 -4.33 18.04 C-4.27 16.02 -4.15 14 -3.97 11.99 C-3.93 10.95 -3.89 9.91 -3.85 8.84 C-3.44 0.18 -3.44 0.18 0 0 Z M-0.22 3.11 C-1.72 14.88 -1.72 14.88 1.87 25.79 C6.75 31.38 10.83 33.34 18.08 33.95 C22.14 34.2 26.19 34.26 30.26 34.25 C31.13 34.25 31.99 34.25 32.88 34.25 C34.7 34.25 36.52 34.25 38.33 34.24 C41.07 34.24 43.81 34.24 46.55 34.25 C51.62 34.25 56.7 34.21 61.78 34.11 C62.47 34.1 63.16 34.09 63.87 34.08 C65.67 34.04 67.47 33.97 69.28 33.89 C70.24 33.85 71.21 33.81 72.2 33.77 C77.28 32.48 79.82 28.15 82.78 24.11 C83.77 23.62 83.77 23.62 84.78 23.11 C84.78 16.51 84.78 9.91 84.78 3.11 C78.84 3.11 72.9 3.11 66.78 3.11 C66.78 6.41 66.78 9.71 66.78 13.11 C62.16 13.11 57.54 13.11 52.78 13.11 C52.12 10.14 51.46 7.17 50.78 4.11 C45.5 4.11 40.22 4.11 34.78 4.11 C34.12 7.08 33.46 10.05 32.78 13.11 C27.83 13.11 22.88 13.11 17.78 13.11 C17.78 9.81 17.78 6.51 17.78 3.11 C11.84 3.11 5.9 3.11 -0.22 3.11 Z M11.78 36.11 C11.78 50.3 11.78 64.49 11.78 79.11 C32.24 79.11 52.7 79.11 73.78 79.11 C73.78 64.92 73.78 50.73 73.78 36.11 C53.32 36.11 32.86 36.11 11.78 36.11 Z M5.78 83.11 C5.45 86.74 5.12 90.37 4.78 94.11 C1.15 94.77 -2.48 95.43 -6.22 96.11 C-6.22 99.74 -6.22 103.37 -6.22 107.11 C26.12 107.11 58.46 107.11 91.78 107.11 C91.78 103.81 91.78 100.51 91.78 97.11 C88.17 95.31 85.69 94.65 81.78 94.11 C80.79 88.67 80.79 88.67 79.78 83.11 C75.19 82.26 70.65 81.82 66 81.56 C65.26 81.52 64.52 81.48 63.76 81.44 C56.31 81.04 48.87 80.93 41.42 80.93 C39.21 80.93 37 80.91 34.79 80.89 C24.98 80.85 15.48 81.66 5.78 83.11 Z " fill="#060606" transform="translate(32.224853515625,26.886474609375)"/>
<path d="M0 0 C5.94 0 11.88 0 18 0 C18.16 3.23 18.28 6.45 18.38 9.69 C18.43 10.6 18.48 11.51 18.53 12.45 C18.58 15.09 18.55 17.42 18 20 C15.23 22.83 15.23 22.83 12 25 C11.39 25.85 10.77 26.71 10.14 27.58 C8 30 8 30 5.51 30.7 C4.55 30.74 3.58 30.77 2.58 30.81 C0.85 30.88 0.85 30.88 -0.91 30.95 C-2.27 30.97 -3.64 30.99 -5 31 C-5.78 31.01 -6.57 31.02 -7.37 31.03 C-13.69 31.11 -20 31.09 -26.31 31.06 C-28.23 31.06 -30.14 31.05 -32.06 31.05 C-36.71 31.04 -41.35 31.02 -46 31 C-46 30.67 -46 30.34 -46 30 C-38.41 29.67 -30.82 29.34 -23 29 C-23.33 28.34 -23.66 27.68 -24 27 C-24.99 26.67 -25.98 26.34 -27 26 C-28 24.25 -28 24.25 -28 22 C-25.69 19.38 -25.69 19.38 -23 17 C-20.89 15.06 -20.89 15.06 -19.5 12.44 C-18 10 -18 10 -16 9 C-15.35 6.98 -15.35 6.98 -15 5 C-14.67 6.65 -14.34 8.3 -14 10 C-9.38 10 -4.76 10 0 10 C0 6.7 0 3.4 0 0 Z " fill="#A9B2B2" transform="translate(99,30)"/>
<path d="M0 0 C15.75 0 15.75 0 23 1 C23.23 8.34 22.92 15.42 21.94 22.69 C21.09 29.03 20.99 34.63 22 41 C23.65 41 25.3 41 27 41 C27 41.33 27 41.66 27 42 C24.75 42.17 22.5 42.34 20.25 42.5 C19 42.59 17.74 42.69 16.45 42.78 C10.97 43.05 5.48 43 0 43 C0 28.81 0 14.62 0 0 Z " fill="#F5FAF9" transform="translate(44,63)"/>
<path d="M0 0 C1.08 0.1 2.16 0.2 3.27 0.31 C4.09 0.39 4.91 0.48 5.75 0.56 C6.74 6.01 6.74 6.01 7.75 11.56 C9.21 11.87 10.68 12.18 12.19 12.5 C16.62 13.44 16.62 13.44 17.75 14.56 C17.75 17.86 17.75 21.16 17.75 24.56 C-13.27 24.56 -44.29 24.56 -76.25 24.56 C-76.25 24.23 -76.25 23.9 -76.25 23.56 C-63.71 23.23 -51.17 22.9 -38.25 22.56 C-37.92 21.9 -37.59 21.24 -37.25 20.56 C-35.46 19.85 -35.46 19.85 -33.19 19.19 C-27.74 17.47 -22.55 15.4 -18.06 11.81 C-15.7 10.18 -14.06 10.33 -11.25 10.56 C-11.25 9.9 -11.25 9.24 -11.25 8.56 C-13.23 8.56 -15.21 8.56 -17.25 8.56 C-15.89 4.49 -13.65 3.09 -10.25 0.56 C-6.77 -0.74 -3.65 -0.36 0 0 Z " fill="#B2BDBC" transform="translate(106.25,109.4375)"/>
<path d="M0 0 C15.84 0 31.68 0 48 0 C48 14.19 48 28.38 48 43 C37.88 43 37.88 43 33 41 C32.97 40.16 32.97 40.16 32.94 39.31 C32.69 20.41 32.69 20.41 29 2 C19.43 1.67 9.86 1.34 0 1 C0 0.67 0 0.34 0 0 Z " fill="#C4CACA" transform="translate(58,63)"/>
<path d="M0 0 C0.99 0.49 0.99 0.49 2 1 C0.08 6.17 -1.81 9.25 -6 13 C-7.54 14.54 -7.13 15.97 -7.15 18.12 C-7.15 19 -7.16 19.87 -7.16 20.77 C-7.17 21.72 -7.17 22.67 -7.17 23.65 C-7.17 24.62 -7.17 25.59 -7.18 26.59 C-7.18 28.65 -7.19 30.71 -7.19 32.76 C-7.19 35.92 -7.21 39.08 -7.22 42.23 C-7.23 44.23 -7.23 46.22 -7.23 48.21 C-7.24 49.64 -7.24 49.64 -7.25 51.09 C-7.25 52.41 -7.25 52.41 -7.24 53.75 C-7.24 54.52 -7.25 55.3 -7.25 56.1 C-7.17 58.24 -7.17 58.24 -5 60 C-6.11 59.93 -7.22 59.86 -8.36 59.78 C-20.18 59.08 -31.98 58.89 -43.81 58.88 C-44.91 58.87 -44.91 58.87 -46.03 58.87 C-56.39 58.84 -66.67 59.24 -77 60 C-77.33 63.63 -77.66 67.26 -78 71 C-78.33 71 -78.66 71 -79 71 C-79.37 69.42 -79.72 67.84 -80.06 66.25 C-80.26 65.37 -80.46 64.49 -80.66 63.58 C-81 60.97 -80.97 59.43 -80 57 C-77.09 54.86 -75.64 54 -72 54 C-72 40.47 -72 26.94 -72 13 C-71.67 13 -71.34 13 -71 13 C-71 27.19 -71 41.38 -71 56 C-65.06 55.5 -65.06 55.5 -59 55 C-55.72 54.91 -52.46 54.86 -49.18 54.87 C-48.3 54.87 -47.43 54.87 -46.53 54.86 C-44.71 54.86 -42.89 54.87 -41.07 54.87 C-38.31 54.88 -35.54 54.87 -32.78 54.86 C-30.99 54.86 -29.21 54.87 -27.43 54.87 C-26.61 54.87 -25.8 54.86 -24.96 54.86 C-23.79 54.87 -23.79 54.87 -22.59 54.87 C-21.92 54.87 -21.25 54.87 -20.56 54.87 C-16.69 55.06 -12.85 55.57 -9 56 C-9 41.81 -9 27.62 -9 13 C-12.63 13 -16.26 13 -20 13 C-20.5 11.52 -20.5 11.52 -21 10 C-20.15 10.03 -19.31 10.06 -18.44 10.1 C-11.41 10.1 -11.41 10.1 -5.36 6.93 C-3.41 4.7 -1.64 2.46 0 0 Z " fill="#121313" transform="translate(115,50)"/>
<path d="M0 0 C1.5 0.01 1.5 0.01 3.04 0.03 C3.81 0.04 4.58 0.05 5.38 0.06 C4.42 0.25 4.42 0.25 3.44 0.44 C2.76 0.64 2.08 0.85 1.38 1.06 C1.05 1.72 0.72 2.38 0.38 3.06 C-1.29 4.4 -2.96 5.73 -4.62 7.06 C-4.95 7.72 -5.28 8.38 -5.62 9.06 C-3.65 9.06 -1.66 9.06 0.38 9.06 C0.38 9.72 0.38 10.38 0.38 11.06 C-1.2 11.43 -1.2 11.43 -2.81 11.81 C-5.48 12.57 -6.72 13.14 -8.94 14.94 C-13.8 18.79 -19.42 21.06 -25.62 21.06 C-26.12 22.55 -26.12 22.55 -26.62 24.06 C-36.86 24.06 -47.09 24.06 -57.62 24.06 C-57.95 23.07 -58.28 22.08 -58.62 21.06 C-55.65 19.35 -53.54 18.81 -50.12 18.88 C-49.37 18.88 -48.62 18.89 -47.84 18.89 C-45.62 19.06 -45.62 19.06 -43.57 19.62 C-38.04 20.88 -31.98 17.37 -27.08 15.08 C-22.73 13.28 -18.18 12.19 -13.62 11.06 C-16.27 10.4 -18.91 9.74 -21.62 9.06 C-21.62 8.4 -21.62 7.74 -21.62 7.06 C-20.87 6.88 -20.11 6.7 -19.32 6.51 C-18.33 6.26 -17.34 6.01 -16.31 5.75 C-15.33 5.51 -14.34 5.26 -13.32 5.01 C-10.58 4.05 -9.5 3.21 -7.62 1.06 C-4.98 -0.26 -2.95 -0.03 0 0 Z " fill="#DDE3E3" transform="translate(94.625,108.9375)"/>
<path d="M0 0 C6.93 0 13.86 0 21 0 C20.01 0.66 19.02 1.32 18 2 C18.32 2.85 18.63 3.7 18.96 4.57 C22.31 15.61 21.13 28.53 21 40 C21.66 40.33 22.32 40.66 23 41 C19.37 40.67 15.74 40.34 12 40 C11.88 38.3 11.76 36.6 11.63 34.85 C11.46 32.59 11.29 30.32 11.12 28.06 C11.05 26.95 10.97 25.83 10.89 24.68 C10.4 18.26 9.56 12.24 8 6 C7.66 4.33 7.32 2.67 7 1 C4.69 1 2.38 1 0 1 C0 0.67 0 0.34 0 0 Z " fill="#EFF1F1" transform="translate(70,64)"/>
<path d="M0 0 C5.94 0 11.88 0 18 0 C18.16 3.23 18.28 6.45 18.38 9.69 C18.45 11.06 18.45 11.06 18.53 12.45 C18.67 19.13 18.67 19.13 16.71 21.66 C15.11 22.97 15.11 22.97 12 25 C11.32 25.93 10.64 26.86 9.94 27.81 C8 30 8 30 5.25 30.31 C4.51 30.21 3.77 30.11 3 30 C2.07 26.99 1.96 26.13 3 23 C2.67 22.01 2.34 21.02 2 20 C2.44 13.69 4.05 8 6 2 C4.35 1.67 2.7 1.34 1 1 C1 3.97 1 6.94 1 10 C0.67 10 0.34 10 0 10 C0 6.7 0 3.4 0 0 Z " fill="#9EACAC" transform="translate(99,30)"/>
<path d="M0 0 C15.84 0 31.68 0 48 0 C48 13.53 48 27.06 48 41 C46.02 41.5 46.02 41.5 44 42 C44.02 41.41 44.03 40.82 44.05 40.22 C44.16 33.53 43.52 27.12 42.56 20.5 C42.43 19.51 42.29 18.53 42.15 17.51 C41.6 12.6 41.6 12.6 40 8 C40 6.02 40 4.04 40 2 C20.2 1.5 20.2 1.5 0 1 C0 0.67 0 0.34 0 0 Z " fill="#99A2A2" transform="translate(58,63)"/>
<path d="M0 0 C4.62 0 9.24 0 14 0 C11.17 2.83 10.62 3.38 7 4 C5.99 7.05 5.99 7.05 7 10 C8.32 9.34 9.64 8.68 11 8 C10 10 9 12 8 14 C8.94 14.35 8.94 14.35 9.89 14.71 C12.6 16.37 12.89 17.61 13.75 20.62 C13.99 21.44 14.23 22.26 14.48 23.1 C14.74 24.04 14.74 24.04 15 25 C14.01 25.33 13.02 25.66 12 26 C9.97 24.72 7.97 23.38 6 22 C4.35 21.3 2.68 20.63 1 20 C0 19 0 19 -0.11 17.14 C-0.11 16.35 -0.1 15.56 -0.1 14.75 C-0.09 13.89 -0.09 13.04 -0.09 12.16 C-0.08 11.26 -0.07 10.36 -0.06 9.44 C-0.06 8.54 -0.05 7.63 -0.05 6.71 C-0.04 4.47 -0.02 2.24 0 0 Z " fill="#F4F9F9" transform="translate(33,31)"/>
<path d="M0 0 C0.66 0.33 1.32 0.66 2 1 C0.08 6.17 -1.81 9.25 -6 13 C-7.54 14.54 -7.13 15.97 -7.15 18.12 C-7.15 19 -7.16 19.87 -7.16 20.77 C-7.17 21.72 -7.17 22.67 -7.17 23.65 C-7.17 24.62 -7.17 25.59 -7.18 26.59 C-7.18 28.65 -7.19 30.71 -7.19 32.76 C-7.19 35.92 -7.21 39.08 -7.22 42.23 C-7.23 44.23 -7.23 46.22 -7.23 48.21 C-7.24 49.16 -7.24 50.11 -7.25 51.09 C-7.25 52.41 -7.25 52.41 -7.24 53.75 C-7.24 54.52 -7.25 55.3 -7.25 56.1 C-7.17 58.24 -7.17 58.24 -5 60 C-11.93 59.67 -18.86 59.34 -26 59 C-26 58.34 -26 57.68 -26 57 C-36.89 56.67 -47.78 56.34 -59 56 C-59 55.67 -59 55.34 -59 55 C-53.33 54.98 -47.65 54.96 -41.98 54.95 C-40.05 54.94 -38.12 54.93 -36.2 54.92 C-33.41 54.91 -30.63 54.91 -27.85 54.9 C-27 54.9 -26.15 54.89 -25.27 54.89 C-24.04 54.89 -24.04 54.89 -22.79 54.89 C-22.08 54.88 -21.37 54.88 -20.64 54.88 C-16.75 55.06 -12.87 55.57 -9 56 C-9 41.81 -9 27.62 -9 13 C-12.63 13 -16.26 13 -20 13 C-20.5 11.52 -20.5 11.52 -21 10 C-20.15 10.03 -19.31 10.06 -18.44 10.1 C-11.41 10.1 -11.41 10.1 -5.36 6.93 C-3.41 4.7 -1.64 2.46 0 0 Z " fill="#101111" transform="translate(115,50)"/>
<path d="M0 0 C2 3 2 3 2 6 C6.29 6 10.58 6 15 6 C15 6.33 15 6.66 15 7 C11.37 7.33 7.74 7.66 4 8 C3.67 9.65 3.34 11.3 3 13 C2.48 14.2 1.97 15.39 1.44 16.62 C-0.2 19.85 -0.2 19.85 0 23 C1.65 23.33 3.3 23.66 5 24 C5 24.33 5 24.66 5 25 C-3.06 25.16 -3.06 25.16 -7 24 C-7.33 23.34 -7.66 22.68 -8 22 C-8.99 21.67 -9.98 21.34 -11 21 C-12 19.25 -12 19.25 -12 17 C-9.69 14.38 -9.69 14.38 -7 12 C-4.89 10.06 -4.89 10.06 -3.5 7.44 C-2 5 -2 5 0 4 C0 2.68 0 1.36 0 0 Z " fill="#C4CECE" transform="translate(83,35)"/>
<path d="M0 0 C-1.32 0.33 -2.64 0.66 -4 1 C-3.7 2.08 -3.41 3.17 -3.1 4.28 C-1.77 9.63 -1.07 15.04 -0.38 20.5 C-0.24 21.49 -0.11 22.49 0.03 23.51 C0.75 29.06 1.15 34.41 1 40 C-1.47 40.5 -1.47 40.5 -4 41 C-5.09 36.45 -5.29 31.97 -5.5 27.31 C-5.95 18.48 -6.67 9.75 -8 1 C-5.29 -0.35 -2.99 -0.07 0 0 Z " fill="#B0BABA" transform="translate(102,64)"/>
<path d="M0 0 C2.97 0 5.94 0 9 0 C8.01 0.66 7.02 1.32 6 2 C6.32 2.85 6.63 3.7 6.96 4.57 C10.31 15.61 9.13 28.53 9 40 C9.66 40.33 10.32 40.66 11 41 C9.35 40.67 7.7 40.34 6 40 C5.92 38.75 5.92 38.75 5.85 37.48 C5.66 34.35 5.46 31.23 5.26 28.1 C5.13 26.1 5.01 24.1 4.89 22.1 C4.43 15.2 3.75 8.7 2 2 C1.34 2 0.68 2 0 2 C0 1.34 0 0.68 0 0 Z " fill="#DCDFDF" transform="translate(82,64)"/>
<path d="M0 0 C5.94 0 11.88 0 18 0 C18.16 3.23 18.28 6.45 18.38 9.69 C18.45 11.06 18.45 11.06 18.53 12.45 C18.67 19.13 18.67 19.13 16.71 21.66 C15.11 22.97 15.11 22.97 12 25 C11.32 25.93 10.64 26.86 9.94 27.81 C8 30 8 30 5.25 30.31 C4.51 30.21 3.77 30.11 3 30 C2.67 28.68 2.34 27.36 2 26 C3.86 25.41 3.86 25.41 5.75 24.81 C9.77 23.27 11.82 21.85 14 18 C15.74 12.48 16.37 6.73 17 1 C11.72 1 6.44 1 1 1 C1 3.97 1 6.94 1 10 C0.67 10 0.34 10 0 10 C0 6.7 0 3.4 0 0 Z " fill="#879291" transform="translate(99,30)"/>
<path d="M0 0 C16.83 0 33.66 0 51 0 C51.5 1.48 51.5 1.48 52 3 C52.66 3.66 53.32 4.32 54 5 C47.07 4.67 40.14 4.34 33 4 C33 3.34 33 2.68 33 2 C22.11 1.67 11.22 1.34 0 1 C0 0.67 0 0.34 0 0 Z " fill="#3E4140" transform="translate(56,105)"/>
<path d="M0 0 C2.64 0 5.28 0 8 0 C7.01 2.97 6.02 5.94 5 9 C3.02 9.33 1.04 9.66 -1 10 C-1.12 2.25 -1.12 2.25 0 0 Z " fill="#F2F6F6" transform="translate(67,31)"/>
<path d="M0 0 C1.98 0 3.96 0 6 0 C5.6 1.48 5.18 2.96 4.75 4.44 C4.52 5.26 4.29 6.08 4.05 6.93 C3.53 7.96 3.53 7.96 3 9 C1.68 9.33 0.36 9.66 -1 10 C-0.67 6.7 -0.34 3.4 0 0 Z " fill="#E8EEED" transform="translate(100,31)"/>
<path d="M0 0 C3.3 0.33 6.6 0.66 10 1 C10 1.33 10 1.66 10 2 C7.36 2 4.72 2 2 2 C1.67 3.98 1.34 5.96 1 8 C0.67 7.34 0.34 6.68 0 6 C-0.66 6 -1.32 6 -2 6 C-1.49 3.83 -1 2 0 0 Z " fill="#282929" transform="translate(65,29)"/>
</svg>
